/* XPM */
static char *out[] = {
/* columns rows colors chars-per-pixel */
"64 64 16 1 ",
"  c black",
". c gray11",
"X c #202020",
"o c #282828",
"O c gray19",
"+ c gray22",
"@ c #400000",
"# c #640000",
"$ c gray25",
"% c #484848",
"& c #4C4C4C",
"* c gray33",
"= c #646464",
"- c gray44",
"; c #7C7C7C",
": c gray55",
/* pixels */
"+++++$%&&$$. O+%&&$%$%&&&&$&&&+. $+&$&&&&%&%%$$. $%$&$o .O+$+&$+",
"+++++$&$%%+. .+%+++$+%&%%$%&&+o. ++&&%&&$++++%+. O+$&$o .Oo+$&+O",
"++++$++++$+O o$&&+$+O+$&&&&&%Oo. +$&&%$%++$&&&+o o$&%+o O%++$+oo",
"$+++$$++o+Oo o+%%+%%+$+%%%$OoXOo +$%$$+$+$+$+$OO ++&$$o o+$$&++o",
"+++++O.O++O. ++$$%%%$%+++OXo++$+ $%%&++++$&%$$Xo o+$++O .++$+OOX",
"+.o.oXo++O.. ++&%%$&%&$+$++%&&$o +$$+O$%$%$$O+oo O+$$+o .o++O...",
"ooXooO+++o.o X+OO++$+%+$$$$$%O+. +OO++++o++++o.X .+o+o. ..ooX.oo",
"+O.++$+$+O.o .OO+oXOOOOOOooOoXO. X.ooo..XoO.Xo+X .XooX. ...XOoOo",
"++O+$+O$oO.o                                            Xo.o+++X",
"+OOO++++XOXo  XXXXXXXXXXXXXXXXXXXXXXXXXXXXXXXXXXXXXXX   .ooOOOOo",
"$+O+%+O+OO..  X;%XXXXX:%XXXXX:%XXXXX:%XXXXX;%XXXXX;%X   .OO+++OO",
"++O++oO+oo.o  X% XXXX.% XXXX.% XXXX.% XXXX.% XXXXX$ X   X++$++Oo",
"o+O+oooOoXXo  XXXXXXXXXXXXXXXXXXXXXXXXXXXXXXXXXXXXXXX   .+++oOo.",
".....X.X...o  XXXXXXXXXXXXXXXXXXXXXXXXXXXXXXXXXXXXXXX   XoOX....",
"............  XXXXXXXXXXX                  XXXXXXXXXX   .......O",
"              XXXXXXXXXXX XXXXXXXXXXXXXXXX XXXXXXXXXX           ",
"OOOOOO+oO+OO. XXXXXXXXXXX X   XX    XX   X XXXXXXX... ooOOoO.X.o",
"OOOO+++OOoo+o ..XXXXXXXXX X   %X    %X   X XXX....... oOO+++X++o",
"+O+O++O+++++o .-+......XX X   %X    %X   . .......=+. .OO+O+o+X+",
"OoOoOOO++++.. .+ ........ .   %.    %.   . .......+ . .OoOOO+O+O",
"++++++O+OXo.. ........... .   %.    %.   . .......... .OoOOO+o+O",
"oo.ooooX..... ........X.. .   $.    $.   . ......X... X..XXXX.oo",
"XooOXX.X.o... ....... O.. .   $.    $.   . ..... o... .X........",
"              ......Xoo.. .   $.    $.   . ....Xoo...           ",
" .......oXOX. .*O........ .   $.    $.   . .......... .X..OO+Oo.",
" XOoOOoOO.+o. .O ........ .   +.    +..  . .......... ooO+++Ooo.",
" XXooOO+oooX. ........... .   +.   ;%%$  . .......*O. o+OOOOXoo.",
" oOOo++Oo.o.. .ooooooo... .   +.  .;=%%  . .......O . o+OOOoO+o.",
" ooOooX....X. .o...... .. .   +.  O==+O  . .......... o+OoOOOXX.",
" .+.X+OX...o  .o...... .. .   +. .+*+O   . ... o..... ooOOOoOXX.",
" .O.+o.....o  .o...... .. ................ ...oo..... oX........",
" oOOoooOX.X.. .o...+.. ..                  .....@.... ..........",
" XoooXX...o.. .o . % . .......................@@.....           ",
" ..........o  .X . + . ........@....@...@@....@...... .XX. .....",
" ............ .X.. . . .........@@@...@@@@..@@....%o. .oX. ..oo.",
"              .X.. . . .........@.@@@@  @@@@......o . oOo. ..oo.",
".......X.X... .X... .. .............@@ #@@@....@..... XO.. X.Xo.",
"...X..oXoOXX. .X...... .. X......@.@@@@@@@@@@@@@..... .X.. ..Xo.",
"........X...  .X...... ..XX...  ...@@@@@@@@@@........ XX.. ..OX.",
"....X.......  .X...... ....... .X.@@@@@@@@@.......... .o.. X....",
"...ooX...XXo  ..       ........XX@@@@@@@@@@@......... .o.. ..oo.",
"...XX.X....X  ..................@@................... o... .oo..",
"............  ................  ..  ..............%X. .... ..XX.",
"............  .%X................. .X.............X . .... .....",
"............  .X ..................XX................ X... ..oo.",
"...........   ......  ............................... .... .....",
".........     ...... ................................ .... .....",
"              .......................................           ",
"....... .o..  .................................  .... ..........",
"Xo.oX.. .o.X. ................................. ..... ...Xo..X..",
"Xo.oX.. ....  ....................................... .......XoX",
"..X.X.. ....  ....................................... ........XX",
"oXXXo.. ...   .+X........                  .......+X. .......XoX",
"....... .   . .X ........ ................ .......X . ..X.Xo.XXX",
"oo.oo..       ........... ................ ..........   .XX.X...",
"..o.... ....  ........... ................ ..........   ........",
"....... ....  ........... ................ ..........  .X.X.....",
"....... ....  ........... ................ ..........  .........",
"..X.... ....  ........... ................ .......... ..X.oX..X.",
".......       ....... ... ................ ..........  ...X.....",
".X.o...    .  .+.....+... ................ ..+....O..  .........",
".X.X...   ..  .. ..... .. ................ ... .... .  . ... ...",
".......   ..  ........... ................ ..........    .   .. ",
"....... ..                                                      "
};
