/* XPM */
static char *out[] = {
/* columns rows colors chars-per-pixel */
"64 64 14 1 ",
"  c black",
". c gray11",
"X c #202020",
"o c #282828",
"O c gray19",
"+ c gray22",
"@ c #585400",
"# c #706C00",
"$ c gray25",
"% c #484848",
"& c #4C4C4C",
"* c #848400",
"= c #9C9C00",
"- c #B4AC00",
/* pixels */
"$$$$$%%&&%%o ++%&&$&%&&&&&%&&&+o $+&%&&&&%&%%$$o $%$&%O o++%$&%+",
"++$$$%&$%%+X X+%$++$$%&%%%&&&+O. +$&&%&&%++++%+X ++$&$O .+O+$&$+",
"$++$$++++%++ O$&&$%$+$$&&&&&%+O. +$&&&$%++$&&&+O +$&%+O +%++%$OO",
"$+++$%++O++O O+%%+%%$%$%%%$+OO+O +%%$$$$+%$$+%++ +$&$%O O$$%&++O",
"+++$++o++++o ++$$%%%%%$+++oO++%+ $%&&$++$%&%%%oO O+$$$+ o++$$++o",
"+oOoOoO$++oo ++&%%%&%&$+$+$%&&%O +$%++%%%%%$++OO +$$%+O oO+++o.o",
"OOoOO++$++.. ======================================O+Oo ..OOooOO",
"++o++%$%++.X =                                    =OOo. .ooo+O+O",
"$+++$$+$O+.. = -================================- *     oOoO+++O",
"+++++++$O+X. * *=****========================**** *++o. .OO++++O",
"%+++%+++++XX * ********************************** *$$O. o+++++++",
"+++++O++OOoO * ***   * * ** *   *   * *   *   *** *+%+O o++%+++O",
"O+++OOO+Ooo. * *** *** *  * ** ** * * ** *** **** *$$+o o++$O+OX",
"oXoXooXOo... * ***   * * *  ** **  ** ** *** **** *$++o oO+o...X",
"oo.oo.ooX... * *** *** * ** ** ** * * ** *** **** *+++O oXX..XX+",
"             * ***   * * ** ** ** * * ** *** **** *+oO+         ",
"+++++++O++++O* ********************************** *+OO+ O+O+oooO",
"+++++++++OO++* ********************************** *+++O O+++o++O",
"$+++$+++++$++# *******    ****            *****## #o+oo o+++O+O+",
"+O+O+++++++oX# #####**    ****            ####### #OOO+ O+++++++",
"+++++++++OOXo# #######    ####            ####### #OXoo o++++O++",
"OOoOOOOO.X..o# #######    ####            ####### #ooXO oOoOOX+O",
"oOO+oOXoXOooO# #######    ####    ############### #+O.o oXXXoXoX",
"             # #######    ####    ############### #OO.X         ",
" .o.ooooo. Xo# #######    ####    ############### #+O.X XoO+++OX",
" o+O++OOO. oO# #######    ####    ############### #++.. .o+++OO.",
" OoOO++OOX .O# #######                    ####### #OO.. .O++oOO.",
" O++O++Oo. o+# #######                    ####### #+o.. .O+O++O.",
" O++OOooo. .o# #######                    ####### #oXo. .o+++oo.",
" X+oO++oO. Xo# #######                    ####### #ooo. .O+O+Oo.",
" X+o+OXoo. XX# ###############    ####    ####### #Xooo .XooXX.X",
" O++OOOO.. oo# ###############    ####    ####### #XXX. ..X.....",
" oOOOooX.X oo# ###############    ####    ####### @             ",
" .XX...... ..# ###############    ####    ####### @..XXooo ..Xoo",
" ......... ..@ @@#####            ####    ###@@@@ @oOOOOoX ooOOo",
"             @ @@@@@@@            ##@@    @@@@@@@ @++OOOO. ooOOo",
" X.X.oooooo.o@ @@@@@@@            @@@@    @@@@@@@ @+++O+o. ooOOo",
" oooXoOoO+Oo+@ @@@@@@@            @@@@    @@@@@@@ @+OooOX. oooOo",
" ..Xo..XooXoO@ @@@@@@@@@@@@@@@@@@@@@@@@@@@@@@@@@@ @OOoooo. .o+Oo",
" ..ooX...oooo@ @@@@@@@@@@@@@@@@@@@@@@@@@@@@@@@@@@ @oXXoOo. oooXo",
" XoOOoX..OoOO@ @ @ @  @   @  @@   @   @  @ @@ @ @ @XXOOO.. ..OOo",
" Xooooo....oo@ @ @ @ @@ @ @ @ @ @ @@ @@ @@  @ @ @ @oXoX... oO+Xo",
" ..X..XXXXXXX@ @ @ @  @  @@   @ @ @@ @@  @ @  @ @ @o.X.... .ooOo",
" .......ooX.X@ @ @ @ @@ @ @ @ @ @ @@ @@ @@ @@ @@@ @oX....X oXXoo",
" XXooX..X.X..@ @@ @@  @ @ @  @@   @@ @@  @ @@ @ @ @.XoX... .XOOo",
" .X..........@ @@@@@@@@@@@@@@@@@@@@@@@@@@@@@@@@@@ @.XX.... .oXo.",
" ............@ @@@@@@@@@@@@@@@@@@@@@@@@@@@@@@@@@@ @......  .....",
"             @ @@@@@@@@@@@@@@@@@@@@@@@@@@@@@@@@@@ @             ",
"....... XOooo@ #@@@@@@@@@@@@@@@@@@@@@@@@@@@@@@@@# @...X......oXX",
"oOoOoo. oOoOo@                                    @X..oXooOoooXo",
"oOoOoo. XoX..@@@@@@@@@@@@@@@@@@@@@@@@@@@@@@@@@@@@@@ooX..XoX.ooOo",
"ooOooo. XX..X...X.... ..XXoo.. XoOOO. XXOooX... ...ooo....XXoooo",
"OoooOo. o............ .Xooo... XooOo. .XOoXX... .oooooooooooooOo",
"X.o.Xo. ..........X.. .oooX... .oooX. XooX..... .XoXXooooooOooOo",
"OOoOOX.               .X.oo... oooOX. .ooo..... ..o..ooXoooooooo",
"XoOoX.. .....X....... oX.o.... XooOX. .X....... ..XX.......o...X",
"..X.... .XooooXoXo... X.X..... XoooX. .....oX.. ......XXoooXX...",
"....... .XXXXooXo.... .....oX. ..oOo. ..XXXoX.. .....oOOXXoooooo",
"XoooX.. .....X..o.... ..Xooo.. .oooX. .XXoooX.. .XXoooooooOooooo",
"Xo.oX.. ......X.X.... ..OoOoX. .oooX. XOOoooo.. .oOoXoooXXoo.ooo",
"oOXOo.. ............. .ooXooX. .XoX.. .oooOo... oooXXooX.XXX.XXX",
"ooXoo.. ............. X..X.... .XOX.. XX....... ..oX......X.....",
"..o.... ............. ........ .XX... ......... ................",
"....... .............          ......           ................"
};
