/* XPM */
static char *out[] = {
/* columns rows colors chars-per-pixel */
"64 64 41 1 ",
"  c black",
". c #00001C",
"X c gray11",
"o c #00002C",
"O c #000034",
"+ c #202020",
"@ c #282828",
"# c gray19",
"$ c gray22",
"% c #000040",
"& c #00004C",
"* c #000058",
"= c #000064",
"- c #000070",
"; c #00007C",
": c #484848",
"> c gray33",
", c #646464",
"< c gray44",
"1 c #7C7C7C",
"2 c #000088",
"3 c #000098",
"4 c #0000A4",
"5 c #0000A8",
"6 c #0000B0",
"7 c #0000BC",
"8 c #0000C8",
"9 c #0000D4",
"0 c #0000E0",
"q c #0000EC",
"w c #0000FC",
"e c #2024FC",
"r c #4040FC",
"t c #5454FC",
"y c #5C60FC",
"u c #7C80FC",
"i c gray55",
"p c #9C9CFC",
"a c #B8BCFC",
"s c #D8D8FC",
"d c gray99",
/* pixels */
"     XX XXXX         XXXXXXX      XXX      XXXXXXX              ",
"    X   XXXXXX  X    XX XXX       XX      XXXXXXX               ",
"     X XXXXXXXX       XX@X     XXX$     XXX@@X+X                ",
"     X XXXXX            X     XXXXX    XX++XXXX       XX        ",
"X XXX                       XXX+$XX   XXXXX@+       XXX       X ",
"XXXXX           XXXX        XXX#X    X+XX+#X       XX+XXXX XX   ",
"X XXX          XXXXXX      XX++X    XXXXX+@        XX+XXX  XXXXX",
"XXX      XXX  X@@XXX      X@@#XXX    XXXXXX          @+XXXXX    ",
"X  XXX  XXX  XXX+@@+     X@@+@XX  XXXXX XX          XXXXX  X    ",
"     XX +X  X+X$@X X    XXXX@+X  XXXXXX+#X     X     XXXXXX     ",
"  XX@X     ++@@@XX@     XX@$##XXXX$XXXX++    XXX      X++XXX    ",
"XXX+X     XX+@@+$X       @@+XXXX++XXXX+#    XXXXXX     XXXXXXXXX",
"XXX   XXXXXX             X@X+@X#$$XX@$+    XX+$+XX      XXXXXXXX",
"XXX  XXXXXXX+XX      X     XXX+@X@X:X+     +XX$+$XX      XXX++X+",
"XX  XX++XXXXX      XX+X      +@$X@@$$X   XX$$X$@$XXXX       XXX ",
"X  XXXX           X   X      XXXXX@XX    XXX+X$$@+XXX         X ",
"               XX XX+XXXXX X   XXX$XX    XX++X+XXX              ",
"        X XXXXXXXX@$$+XXXXX@X   X#@                             ",
"         XXXX XX  X:+@$:::@@+                                   ",
"X X      X+XX+XXXX+$@$,$>:@@#                         XXXX  X   ",
"XXXX      +XXXX$X@X>><1:+XX,#               X   XXXXXXXXXXXXXX  ",
"XXXX       @$$#+@X:$X#$,:$X>+               X  XXX+@@X+XXXX     ",
"XXX  XXX   @++:#++$$,1X+$X>X    X    XX+XX     XX$$X@@@XXXX     ",
"   XXXXXX   X@>X$:<>$@<$@+        XX$XX@XXX    X+@$@:$XXX  X    ",
"    +X@X+      X XXX#X   X   XXXXX$>$+$X +XX     ++$:X@X+XXXXXXX",
"XX XXXX:X          XXX      XXXX@$$>@$XXX+$XX   XXX$:$$X+XX$+@XX",
"+X+#++#>#     X           .XXXX$$$$@$X$+#$:+X  XXXXX$@:+>X$$$XXX",
"+X@+@#$XX      X        &%XX@+@#+@@@@:$:>i,$X  XX$@XXX@X@X@@X@@X",
"+XX@X:>@      XXXXX    .-&**#X+::>@$:,$>1<i>@X  XX$#@XX+XX+XX+++",
"+@XX++X   XX++@+XXX X  .-;6326r33>:@++$:<>$$:X   X@@$XX   XX+@+X",
"@$@$$#+   XX$##:@@@+%...;;47797753-3++$<>:<:+X    X+#$$+@X+X++@+",
"X#+#++X  X@+:::$:$#$@*. =855e57779670:>><:#XXXX    ++::$$++XXXX+",
" X X#:X  XXX$>$$-%-,;3-.o58e37e9eeere::#XXXX++XX  X++@$$>#+XXX  ",
"X X$$$X  X@$$:542357546..2772eeee978$@$$:@$X+#XX    XXXX@+XXX   ",
"X@:>>$    X##3&;4668660;.=8er7eeeeere,:,:$,##:$+@    %X.       X",
"@:$>+X   XX$:237;e7339e4 %9rteeerreryrr:>:@$::,:XXX  o*-@+@+$XX+",
"#++@X   @@#:@35349348ee3*.3ereeeeyrttteew:w;686:>@#X. =5;::##X##",
"$>++   XX+#X+3209939errr;..8treeerrtuttrrwtwee0ww352o .6*@::>@:+",
"@XX    X$:$@tree779ettrr6-.-rrrrrtrttutyrerrtreeeee8;* .%&;#:$+:",
"X      X#$&28ereeeeeeeet9;%.;7ytrttrrttttetrrttte9w08;....&2,:#@",
"     XX@@*-7erteerrrrttre-2o%%=37uputyrureuyuye75680e3*o.....XX.",
"     X+X@-4ertrrreetrrtrr;2;-.o %3tuuuuue96tre8e09eee8-..      .",
"X%  .o&%o27ertte5errtttue0-34&oo%&%3tuuteeeertttrrrre6=  .ooOO%O",
"*&o. o&&;495ertretttuttre4=*;&32--&%5rtrrertuttttttre-. .o&=&oOo",
"==*. .%*=349rturrrtttrt7**&-3724774*o4tutuptrttttrre3..%%&&**==*",
"-;%&..%=37rtrrrrerrrt03&**868rrtrte3o%tuuuuutytttte4..&;=22;32%=",
"23*-%.o=*34329erttt7&o.*25eetrrrtuut7*=upppuuuttre-..*;4-2&&=&o*",
"-%-;&.*;3236etuut9*%  .;39errrrpapure5o2rtupupye4=.&&48793-=&=*-",
"&=34-o=443ttttr3=oo&. -6eeettuuuuutte9.......%o%%%.%3637--;***o.",
"=3033o%&*--=%o..o.%&. &6rerruputuuutt5.O*=%*;;-33;o.-3-2742=-=&*",
";-322o oo%&%%&-39525o 5rtttrtrrpauuuro%;7e5ee85344*o=7-673;;2--2",
";2774..*&;4&=3e988ee& -4turrrtuputut%o=3eetttttr96-o*3-77952*;43",
"-3463 &2-34308erttrt&%-6tuttupupput-.2-rrttputtre8;%o*697543-223",
";334=.235eerttuurttu.-5ruuuppaasut-.&8tuupuutrreee2*.*2-3772=&==",
";2;;%.29ertrttttuutt*5tupaaaaatre7*22rtaauttttrree67;.;**4666222",
"==&o .-7rrttttutrruu%etpaaauttee2==*-4taautupuutreee7o.-2-473;2=",
"o.    .2erutttttrrp5oetputee5%oo-=*-=;6taaasuttrrrrre4%o%==**&Oo",
"   ..  o;tuttrrreua2;te6-%oo-9e8782*o&&-ruuututttterr7o..o... o.",
"  %*&%  *etutttrtpuoe3*.&=4ruuututre43%o.5rtaapuuttpr=.. .      ",
" %&&=2* .6euupttuur%2;49ettpuppaaasapt93**0etpaaaapr-. oooo..   ",
" %o-&;3  &eppappap8*-6etupssssaaaassaput7=;88eetpt3%.o*=%%...   ",
" .%*-er- .erupupau*eeruappasdsssaaappaupp6*=3&;-2.o=6-22=&%o.   ",
" ..o-273 .3etutpu8-ttpapaddaaadddddddapaut4;=o&.&-ertee74-%.    ",
"  .o=39too;eruupt*rupapaddsadddddddddsdptuq3=6ttuppuutr23&o.    "
};
