/* XPM */
static char *out[] = {
/* columns rows colors chars-per-pixel */
"64 64 8 1 ",
"  c black",
". c gray33",
"X c #EC0000",
"o c #FC0000",
"O c #0000A8",
"+ c #0000FC",
"@ c #B4B4B4",
"# c gray99",
/* pixels */
"++++++++++++++++++++++++++++++++++++++++++++++++++++++++++++++++",
"++++++++++++++++++++++++++++++++++++++++++++++++++++++++++++++++",
"++++++++++++++++++++++++++++O+++++++++++++++++++++++++++++++++++",
"++++++++++++++++++++++++++++O+++++++++++++++++++++++++++++++++++",
"++++++++++++++++++++++++++++++++++++++++++++++++++++++++++++++++",
"+++++++++++++++++++++++++++++++++++++O++++++++++++++++++++++++++",
"++++++OO+OO+++OO++OOO+++++++++++++++++++++++++++++++++++++++++++",
"++++++++++++++++++++++++++++++++++++++++++++++++++++++++++++++++",
"+++++++++++++++++++++++++++++++++++++++++++O++++++++++O+++++++++",
"++++++++++++++++++++++++++++++++++++++++++++O+++++++++++++++++++",
"++++++++++++++++++OO+++++O+++++++++++++++++++O++++++++++++++++++",
"++++++++++++++++++++++++++++++++++++++++++++++++++++++++++++++++",
"++++++++++++++++++++++++++++++++++++++++++++++++++++++++++++++++",
"++++++++++++++++++++++++++++++++++++++++++++++++++++++++++++++++",
"++++++++++++++++++++++++++++++++++++++++++++++++++++++++++++++++",
"################################################################",
"@@@@@@@@@@@@@@@@@@@@@@@@@@@@@@@@@@@@@@@@@@@@@@@@@@@@@@@@@@@@@@@@",
"................................................................",
" .... ..... ..... ...... ..... ..... ...... ..... ..... ..... ..",
"................................................................",
"@@@@@@@@@@@@@@@@@@@@@@@@@@@@@@@@@@@@@@@@@@@@@@@@@@@@@@@@@@@@@@@@",
"################################################################",
"+++++++++++++++++++++++O++++++++++++++++++++++++++++++++++++++++",
"++++++++++++++++++++++++++++++++++++++++++++++++++++++++++++++++",
"++++++++++++++++++++++++++++++++++++++++++++++++++++++++++++++++",
"++++++++++++++++++++++++++++++++++++++++++++++++++++++++++++++++",
"++++++++++++++++++++++++++++++++++++++O+O++O+O++++++oo++oo++++++",
"++++++++++++++++++++++++++++++++++++++++++++++++++++oooooo++++++",
"++++++++++++++++++++++++++++++++++++++++++++++++++++ooXoXo++++++",
"+++++++++++OO+++O++O++O+++++++++++++++++++++++++++++ooXooo++++++",
"++++++++++OO++++++++++++++++++++++++++++++++++++++oooooooo++++++",
"++++++++++O+++++++++++++O++++++++++++++++++++++++++oooooo+++++++",
"++++++++++O+++++++++++++++++++++++++++++++O+++++++++ooXXoXo+++++",
"+++++++++++++++++++++++++++++++++++++++++++++++++++++oo+oXo+++++",
"++++++++++O++++++++++++++++O++++++++++++++++++++++O+++++oXo+++++",
"++++++++++O+++++++++++++++++++++++++++++++++++++++++++++oo++++++",
"+++++++++++++++++++++++++++++++++++++++++++++++++++++++++o++++++",
"+++++++++++++++++++++++++++++++++++++++++++++++++++++++++o+o++++",
"++++++++++++++++++++++++++++++++++++++++++O++++++++++++++o+X++++",
"++++++++++++++++++++++++++++O+++++++++++++O++++++++++++++++o++++",
"+++++++++++++++++++++++++++O++++++++++++++++++++++++++++++++++++",
"+++++++++++++++++++++++++++O++++++++++++++++++++++++++++++++++++",
"++++++++++++++++++++++++++++++++++++++++++++++++++++++++++++++++",
"++++++++++++++++++++++++++++++++++++++++++++++++++++++++++++++++",
"++++++++++++++++++++++++++++++++++++++++++++++++++++++++++++++++",
"++++++++++++++++++++++++++++++++++++++++++++++++++++++++++++++++",
"################################################################",
"@@@@@@@@@@@@@@@@@@@@@@@@@@@@@@@@@@@@@@@@@@@@@@@@@@@@@@@@@@@@@@@@",
"................................................................",
" .... ..... ..... ..... .... ...... ....... ....... ..... ......",
"................................................................",
"@@@@@@@@@@@@@@@@@@@@@@@@@@@@@@@@@@@@@@@@@@@@@@@@@@@@@@@@@@@@@@@@",
"################################################################",
"++++++++++++++++++++++++++++++++++++++++++++++++++++++++++++++++",
"++++++++++++++++++++++++++++++++++++++++++++++++++++++++++++++++",
"++++++++++++++++++++++++++++++++++++++++++++++++++++++++++++++++",
"+++++++++++++++++++OO+++++++++++++++++++++++++++++++++++++++++++",
"++++++++++OO+OOOO+O+++++++++++++++++++++++++++++++++++++++++++++",
"++++++++OO++++++++++++++++++++++++++++++++++++++++++++++++++++++",
"++++++++++++++++++++++++++O++++++++++++++++++++++++O++++++++++++",
"+++++++++++++++++++++++++++++++++++OOO++++++++++++++++++++++++++",
"++++++++++++++++++++++++++++++++++++++++++++++++++++++++++++++++",
"++++++++++++++++++++++++++++++++++++++++++++++++++++++++++++++++",
"++++++++++++++++++++++++++++++++++++++++++++++++++++++++++++++++"
};
