/* XPM */
static char *out[] = {
/* columns rows colors chars-per-pixel */
"64 64 25 1 ",
"  c #28200C",
". c #302410",
"X c #382C14",
"o c #400000",
"O c #4C0000",
"+ c #580000",
"@ c #640000",
"# c #700000",
"$ c #7C0000",
"% c #403018",
"& c #483818",
"* c #543C1C",
"= c #6C4824",
"- c #744C28",
"; c #880000",
": c #980000",
"> c #A40000",
", c #A80000",
"< c #B00000",
"1 c #9C4C00",
"2 c #885830",
"3 c #905C34",
"4 c #9C6038",
"5 c #B47044",
"6 c #C87C4C",
/* pixels */
"454354453554432-=*&XX=2=465666566566546643344=X=46543*XX55454433",
"3333344545332=&X X &==23543666666645365433322XX-5552-*  *3332223",
"222-33222-*=&X &XXX&&-3442433444555554-22-*&&X*365532=X X453332-",
"*=*=*&=*=*X  &=42&*&&&&**-3455444355552-=&&X &-554553=&  --=3==*",
"&&&&&*&&X  X==45432-&&  &==23534422***&&&XXX  3332552-*X X--=*&&",
"XX      X X3545445553=X   XX&&-2==-2&&X   X& =42-34322-&  X&*&XX",
"&&X&&X& XX=54-555343342&X    XXXXXXX    X&2  32=2334332&X  XX  X",
"32222-*&XX*3343334346533*&X X XX   X&&=342= X3--23542-==*X    X=",
"334333==& X*---2334543333-*  X&&&&=-24433== &3--34332-2==&  X*-2",
"-334433&&X &*&==-23233444=*XX X&&*4445543=* &22332=**=-==*  ==23",
"23=-22==&&X X&==-22343433=*   =255533323-*X 22322-=--==&&& X=-32",
"22-32---*&X X&==3323322--*X X*2333432-32**  2--=&&&&&&&&&X X--2-",
"2---=-2=*&&X &=*-=-2===&*&  *2-2432===2=*&  &&&&&&&XX&&XX  &-2--",
"2====-===&=X X*&=**&&&&&&  &-3342=*-**==*&  XX&&X    XXX   X&==-",
"=&&&&*==*&&&  &&&XXXX XX  X&=332;=22=&&&XX          XXXXX  X*2-=",
"X&*&&&&&&&&&X X           X*2--==-22-&&&&X     X &*=222=*X X*=&&",
"-**&&&&=**&XX X&&&&&X&&XX X&==3=2===*&X%&     %-232--*==*  X&&&*",
"=&&*&&&&&&X  X&*-233=2-=&  X**=O%==;%%O;o   O<;2=*&&&*=&&X  &&==",
"=&==**&X&X  &=-33;2-2:-==&  X&==2*;$O+o+oo;,;;==&=**====&X  XX**",
"***&&&XXo  &&=322->===@$=%   &X&%*%o.ooo@$::==%&&&&**&&&XX   &&&",
"&X&&&&X  o&*22-====$=*&%++*X  &*+% Xoooo>;><;%@%*==*&**&XX   XX&",
"XXXXXX   XO@-***&*++%&&&*:>%       o+$++<>::@++.&&*==*&XXXX   &&",
"X        &==$@&&O&%%+o%&=1,;%XX    XoOo@$;O%+$@%&==*&&XXX&X   X ",
"         X*@&&OO&&=&%++@==$@;%X      oo@$<;=*@@+&&&*&XXXXXX     ",
"X*=*&X    *==&&&---=*@@;#@$#;@*&.&X  oo%%+%&%+++O&&&XX&XX     X&",
"=-=--=&X  X&&*&**@====O#$;;:>,:%o%XX  o.=*=*%+%O+%%*&X&&X    X&&",
"&=&=***&&  X*O&*&*@@=*&%%+@$:,;+%+@*X o *&&&%o%&%o@%&XXX    &&*&",
"**&&&&**&X  X&O&***==*&&*@;>>#>;@O+%&   o%&&X.+.&+$+&XXX   X&&&&",
"&&&&&&&&&X    XX&*=*=*==*@>;#+@@@+@$=&  .&&oX%+%&.@%&XX   XX&&*&",
"&XXX     XX    XXX%%**@#@;;$@+@+$@o+%X   &X&&%+%X.+.XX    &*&&&&",
"X XXX&&&XXX      o+@++#$+Oo+++:@#@o+*&X  XXX%&%&&%+%&X   X&&&XXX",
"XXX&X&&&&&&&XX    .oOoooo+*@;$#+;#o%*&X   X%+%XO&o%&XXX  X&&XXX ",
"&&&&X&X&&&&&&X    XXooO++*%+@$@#;:+%*&&X  X.o.&XXO&&XXX  XXX&&&&",
"&&&&X&X&&&&&&&X    X.+*;@=%;@#@+#;@.X&&X   o;.&X&&XXXX   X&&&&&&",
"&&&&XX  XXX&&XX   XX%oO@@%*+$;#+@++.&&&X    o  XXoXXX    XX&&&&&",
"&&&X&&X&XXXXX&XX  XX*+%+++++@+@OOo.XXXXX    o           X&&&&&&&",
"X&&&&&X&XXXXXXXXX  X@@%%+oo+O.ooO.XX        +  ooo     Xo&&&&&&&",
"&XX&&*&&&&&&XXX     o+%X..ooo.X.o.X         o Oo o     X&&&&&&&&",
"X&&&&XX&X&&&XX      o.o.  ooo.X.o       XX%o.o ooo     XX&XXXXXX",
"XXXXXXXXXXX&XXX      X. o.o.+oX.      XX==$$o&+X.      XX&XXXXXX",
" XXXX  XXX&&XXXXX    X  .XXX%o       X&==;*%*-;;%;=&X  XXXXXX  X",
"     XXXX&XXXXXXX   o  XXoXo    o   X&--%+%&*&;&*$*&&X  X X XXXX",
"XX XXXXXXXXXXXXX    o   oO+o o+oo  &==&OX%*=*&+&&%+==X      XXXX",
"XXXXXXXXXXXXXXX    X    o      o   =*Xo&&$*&*&@&&++%&&X     XXXX",
"   X  XXXX                oo    o X&&&&&*=*%&=:%&%+%&&X      XXX",
"                         ooo    o  &&X&&&&%+%&+ X.o.&XXX        ",
"                        ooo X%+%oo X&XXXXX%;=&Oo&&%XXXXX        ",
"            XXXXX&&+OX%oo o.X%o%&o  XX&XXX.+.X OX +o         X  ",
"&&&&      X&&&&&&*O&+&.   o%&%+%XoO     XX XXX@o  o      XX&&XX&",
"&&&&XXX   X&X&&&&&O*@&X  o+%&%+%&&OX     X&XX o    X@X&&&&&&X &&",
"&&&=&&XX    X&O&&&O&O    .+%*%#%&&O&X     +XX  oXo&&+&&&&&&X &&&",
"&&&&&&&&     XX&&O&XO   X%+%&O>$*&O&&&&   o      XoXXo&&&&XXX&&&",
"&&&&&&&&XX    &&&O&& o X&%+%&O@OXXO&O&&X     XOO&&@&&OXXXX &&&&&",
"XXX&&&&&&&X    XXoX  oX&&&%&&O@%XXO&&&&X     @&&&&O&&Xo  X&&&&&X",
"XXXXX&&&&&&X   XXoX  o&OO&XX&%Oo &&@&&&X    oX&&&&O&XX+&X&&XXXX&",
"XXXX&XX&&&&&    X    X+&XXXX&.oo.X&O&&XX    &&&&&+& X&O&  &&&X &",
"XX X&&&&&&&XX   o    XoXX&&X  OO.%&O&&X    X&&&&&OXX&&OXX XXX&&&",
"&&&&&XX&X&&&X       X&O&&&&XXo++++%oXX     o&X&&X          &&&X&",
"X&&&&X&XX&&&&X     o&&O&&&XXXXo+++.XX      oXXXX           &&&&&",
"&&&XXX  X&X&XX    X&&&O&&&XX X&%+O%X        X    XXXXXoXX XX&&&&",
"&XXXX XX&XXX     &X&&&O&&XX  &&.+@o    XX       XXoX&XoX& &XXX&X",
"XXXXXXXXXXXX   X.%%%%%+%. . .%%oO+o   &&&X      XXO&XX&&XXXXX&XX",
"     X XX      O+++o+ooo oo ++O .    X+XXXX    XXX&X&&XXXX&&  XX",
"XXX XXXX...  o:+%%%...  ....%+Oooooo$@OoOOoX   XXXXX&&&&X&&X  XX"
};
