/* XPM */
static char *out[] = {
/* columns rows colors chars-per-pixel */
"64 64 16 1 ",
"  c black",
". c #00001C",
"X c #28200C",
"o c #382C14",
"O c #202020",
"+ c #282828",
"@ c #2C2C2C",
"# c gray19",
"$ c #343434",
"% c gray22",
"& c #403018",
"* c #483818",
"= c #5C4020",
"- c gray25",
"; c #484848",
": c #4C4C4C",
/* pixels */
"XXXXXXXXXXXXXXXXXXXXXXXXXXXXXXXXXXXXXXXXXXXXXXXXXXXXXXXXXXXXXXXX",
"&&&&&&&&&&&&&&&&&&&&&&&&&&&&&&&&&&&&&&&&&&&&&&&&&&&&&&&&&&&&&&&&",
"================================================================",
"XXXXXXXXXXXXXXXX                                XXXXXXXXXXXXXXXX",
"XX&****X=XX=oXXX                                X*XX*X*X**X=XX=&",
"XX&***oX=XX=&XXX  +++#+#%%##++++#+#####+++++#+  X*XX*X*X**X=XX=&",
"XXo***XX=XX=*XXX  +++###%%##+++++#%#%#+++++#++  X*XX*X*X**X=XX=&",
"XXX&**XX=XX=*XXX  +++##%%%%+++++###%%##+++++#+  X*XX*X*X**X=XX=&",
"&XXo*oXX=XX=*oXX  +++###%%##++++##%%%%#++++#++  X*XX*X*X&*X=XX=X",
"&XXXoXXX=XX=*&Xo  +++###%%#+O+++###%%##++++##+  X*XX*X*X&*X=XX=X",
"*XXXXXXX=XX=**o&  +++##%%%%++++#+#%%%##+++++++  X*XX*X*Xo*X=XX=X",
"*XXXXXXX=XX=**&*  +++###%%#+++++###%%%#++++##+  X*XX*X*Xo*X=XX=X",
"&*XXXX*X=XX=**&*  ++++#%#%%+O+++$$%%%#++++++++  X*XX*X*XX*X=XX=X",
"&*XXXX*X=XX=****  ++O+++++++++++$$++++++++++++  X*XX*X*XX*X=XX=X",
"o**XX**X=XX=****  +++++++++++++O$$++++++O+++++  X*XX*X*XX*X=XX=X",
"X***X*oX=XX=&***  +#++#+#####+++$$+++#++++++++  X*XX*X*XX*X=XX=X",
"X&**o*XX=XX=&***  +++#+#++++#+#+$$#++#+#++##++  X*XX*X*oX*X=XX=X",
"X&****XX=XX=o***  ++#++#+###+#++$$##++#++++##+  X*XX*X*oX&X=XX=X",
"Xo&***XX=XX=o***  +#++#+##+###+#$$#+###+#+##+#  X*XX*X*&X&X=XX=&",
"XX&**oXX=XX=X&**  ++#+#+#+#+#+#+$$+#+#+#+#++#+  X*XX*X*&X&X=XX=&",
"XXo**XXX=XX=X&**  +++#++#+##++#+$$#++++#+#+#++  X*XX*X*&XoX=XX=&",
"XXX**XXX=XX=Xo**  ++#++###+##++$.$##+#++++###+  X*XX*X**XoX=XX=&",
"XXXoXXXX=XX=Xo**  +++#+#+##+##+$.#$+@@@+@@@$$#  X*XX*X&*XXX=XX=&",
"XXXXXXXX=XX=XX&&  ++#+#+####+#+$..$#@@+@@@@$$+  X*XX*X&*XXX=XX=&",
"XXXXXXXX=XX=XXoo  +#+#+###+#+#+$..$+@+@+@@@$$#  X*XX*Xo*XXX=XX=o",
"&XXXXX&X=XX=XXXX  ++#+#####+++#$..$+@@@@@@$$@+  X*XX*Xo*oXX=XX=X",
"&XXXXX&X=XX=XXXX                                X*XX*XX*oXX=XX=X",
"&XXXXXoX=XX=XXXX                                X*XX*XX*&XX=XX=X",
"oXXXXXXX=XX=XXXX  ++#+#%###++++$..$+@@@@@$$$$+  X*XX*XX*&XX=XX=X",
"X&XXX&XX=XX=XXXX  ++##%#%##++++$..$+@@@@$@$%$+  X*XX*XX**oX=XX=X",
"X&XXX&XX=XX=XXXX  ++###%%##++++$..$+@@@@@@$%$#  X*XX*XX**oX=XX=X",
"XoXX&oXX=XX=XXXX  ++###%%%+++++$..$+$@@@@$$$$+  X*XX*XX&*&X=XX=X",
"XX&X&XXX=XX=oXXX  ++##%%%##+++#$..$+$@$@@@$%$+  X*XX*XX&*&X=XX=X",
"XX&X&XXX=XX=&XXX  ++###%%%#++++$..$+$$@@$@$%$+  X*XX*XXo**X=XX=X",
"XXo&oXXX=XX=*oXX  ++##%%%##++++$..$+$$@@@@$%$#  X*XX*XXo**X=XX=X",
"XXXoXXXX=XX=*&XX  ++###%%%+++++$..$+$@@@$@$$$+  X*XX*XXX**X=XX=X",
"XXXXXXXX=XX=**oX  ++##%%%##+++#$..$+$@@@@@$%$+  X*XX*XXX**X=XX=o",
"XXXXXXXX=XX=***o  +#+##%%%+++++$..$+$@@@@@@%$+  X*XX*oXX**X=XX=&",
"XXXXXXXX=XX=****  ++#+#%%#+O+++$..$+$@@@@@$%%#  X*XX*oXX&*X=XX=&",
"XXXXXXXX=XX=&***  ++####;#+O++$+..$+$@++@@@%$+  X*XX*&XX&*X=XX=&",
"XXXXXXoX=XX=&***  +#+###%%+O++$....$$++@@@$%%+  X*XX&&XXo*X=XX=X",
"&XXXXXoX=XX=o***  +++##%;#OO++$....$$@++@@@-$#  X*XX&*XXo*X=XX=X",
"&XXXXX&X=XX=X***  ++#+##;#+O++$....$%++@@@$%$+  X*XXo*XXX&X=XX=X",
"&oXXXo&X=XX=X&**  ++####;+OO++$....$%@++@@@-$#  X*XXo*XXX&X=XX=X",
"&&XXX&oX=XX=Xo**  ++++##;#OO+#$....$%++@@@@%%+  X*XXX*XXXoX=XX=X",
"o&oXo&XX=XX=XX&*  ++##+%;#OO++$....$%@++@@@-$#  X*XXX*oXXoX=XX=X",
"X&&o&&XX=XX=XXX&  +#+#+#;#O++#$....$%O+@@@@%$#  X*XXX*oXXXX=XX=X",
"X&&o&&XX=XX=XXXX  +++#+#:#O+++$....$%@+++@@;$+  X*XXX*&XXXX=XX=X",
"X&***&XX=XX=XXXX  ++#+#+:+OOOOO....$#OOOOOO++#  X*XXX*&XXXX=XX=X",
"Xo***&XX=XX=XXXX                                X*XXX&*oXXX=XX=X",
"XX&**&XX=XX=oXXX                                X*XXX&*oXXX=XX=X",
"XX&**oXX=XX=&XXXXXX&*XXXXX=XX=X&*X=XX=o***oX=XX=X*XXXo*&XXX=XX=X",
"XXo*&oXX=XX=*XXXXXX*&XXXXX=XX=&**X=XX=o**&XX=XX=X*XXXo*&oXX=XX=X",
"XXX&&XXX=XX=*oXXXXo*&XXoXX=XX=***X=XX=X&*&XX=XX=X*XXXX&*oXX=XX=o",
"XXX&oXXX=XX=&&XXXX&*oXXoXX=XX=***X=XX=X&*oXX=XX=X*XXXXo*&XX=XX=o",
"XXXooXXX=XX=&*XXXX&*XXX&XX=XX=***X=XX=Xo&XXX=XX=X*XXXXo*&XX=XX=&",
"XXXXXXXX=XX=o*&XXX**XXX&XX=XX=***X=XX=XXoXXX=XX=X*XXXXX&*XX=XX=&",
"XXXXXXXX=XX=X&*&X**&XXX&XX=XX=***X=XX=XXXXXX=XX=X&oXXXXo*&X=XX=*",
"XXXXXXXX=XX=Xo*****oXXX*XX=XX=**&X=XX=XXXXXX=XX=X&&XXXXo*&X=XX=*",
"oXXXXX&X=XX=XX****&XXXo*XX=XX=**&X=XX=XXXXXX=XX=Xo&XXXXX&&X=XX=*",
"oXXXXX&X=XX=XXo&*&oXXX&*XX=XX=*&oX=XX=XXXXXX=XX=Xo*XXXXXooX=XX=*",
"&XXXXX&X=XX=XXXo&oXXXX&*XX=XX=*&oX=XX=XXXXXX=XX=XX*XXXXXXXX=XX=*",
"&oXXXX&X=XX=XXXXoXXXX&**oX=XX=&oXX=XX=XXXXXX=XX=oX*oXXXXXXX=XX=*",
"oooooooX=XX=oXXXXXXXoooooX=XX=oXXX=XX=oXXXoX=XX=oXooXXXXXXX=XX=o"
};
