/* XPM */
static char *out[] = {
/* columns rows colors chars-per-pixel */
"64 64 25 1 ",
"  c #400000",
". c #4C0000",
"X c #580000",
"o c #640000",
"O c #700000",
"+ c #7C0000",
"@ c #00004C",
"# c #000058",
"$ c #880000",
"% c #980000",
"& c #A80000",
"* c #B00000",
"= c #BC0000",
"- c #D40000",
"; c #E00000",
": c #000088",
"> c #000098",
", c #0000A4",
"< c #0000A8",
"1 c #0000B0",
"2 c #0000BC",
"3 c #0000C8",
"4 c #0000D4",
"5 c #0000E0",
"6 c #0000EC",
/* pixels */
".X.%&*=---------------------=*&%.X.%&*=---------------------=*&%",
".X.+============****=*=*=*=*=*=$.X.+============****=*=*=*=*=*=$",
".X.+==*===**=********=*=*=***=*$.X.+==*===**=********=*=*=***=*$",
".X.+**=**==***&*****=*=*=****&*$.X.+**=**==***&*****=*=*=****&*$",
".X.+*=****=**&*&=**=***=*=*=&*&$.X.+*=****=**&*&=**=***=*=*=&*&$",
".X.+**=*****&*&=*=*&****&*=&*&&$.X.+**=*****&*&=*=*&****&*=&*&&$",
".X.+***=***&*&*&=&=&&*&*&&&&&&*$.X.+***=***&*&*&=&=&&*&*&&&&&&*$",
".X.+**&*&&&&&*&*&&&&&&*&=&&**&&$.X.+**&*&&&&&*&*&&&&&&*&=&&**&&$",
".X.+&%*%&&&&%&*&&%&*&*%&&&%&&%&$.X.+&%*%&&&&%&*&&%&*&*%&&&%&&%&$",
".X.+&$%&%$&%&%&%%&%%&%&&&%&$%&%$.X.+&$%&%$&%&%&%%&%%&%&&&%&$%&%$",
".X.+$$$%$%$&$&%$&%$%$%$%$&$%$&%$.X.+$$$%$%$&$&%$&%$%$%$%$&$%$&%$",
".X.+%$%$%%%$%$$&%%%$%$%$%$%$%$$$.X.+%$%$%%%$%$$&%%%$%$%$%$%$%$$$",
".X.OOOoX...            ....XoOOO.X.OOOoX...            ....XoOOO",
"..                               .                              ",
"................................................................",
"XXXXXXXXXXXXXXXXXXXXXXXXXXXXXXXXXXXXXXXXXXXXXXXXXXXXXXXXXXXXXXXX",
"===--==---;;;;;;;;;;;;----======--=====---;;;;;;;;;;;;----==--==",
"**=**==***&*****=*=*=****&**=**==*****=**==***&*****=*=*=****&*&",
"*=****=**&*&=**=***=*=*=&**=****=**&*=****=**&*&=**=***=*=*=&*&&",
"**=*****&*&=*=*&****&*=&*&**=*****&***=*****&*&=*=*&****&*=&*&&&",
"***=***&*&*&=&=&&*&*&&&&&&***=***&*&***=***&*&*&=&=&&*&*&&&&&&*&",
"................................................................",
"XXXXXXXXXXXXXXXXXXXXXXXXXXXXXXXXXXXXXXXXXXXXXXXXXXXXXXXXXXXXXXXX",
"++++++++++++++++++++++++6333@#++5434354445556+++++++++++++++++++",
"++++++++++++++++++++++++411<@#++4111111121122+++++++++++++++++++",
"++++++++++++++++++++++++41<2@#++4111111<11112+++++++++++++++++++",
"++++++++++++++++++++++++411<@#++5221>>>,>>>>>+++++++++++++++++++",
"++++++++++++++++++++++++411<@#++5111>@@@@@@@@+++++++++++++++++++",
"++++++++++++++++++++++++411<@#++411<>########+++++++++++++++++++",
"++++++++++++++++++++++++411<@#++41<1,+++++++++++++++++++++++++++",
"++++++++++++++++++++++++41<244564212>54444443+++++++++++++++++++",
"++++++++++++++++++++++++411<1212211111111111<+++++++++++++++++++",
"++++++++++++++++++++++++412221122111111<1<122+++++++++++++++++++",
"++++++++++++++++++++++++3>,>,>>>,1<1:::>:,<2<+++++++++++++++++++",
"++++++++++++++++++++++++@@@@@@@@><11>@@@@4122+++++++++++++++++++",
"++++++++++++++++++++++++########><11>####4122+++++++++++++++++++",
"++++++++++++++++++++++++++++++++>111>++++421<+++++++++++++++++++",
"++++++++++++++++++++++++55555555>122>++++511<+++++++++++++++++++",
"++++++++++++++++++++++++211112111111>++++5111+++++++++++++++++++",
"++++++++++++++++++++++++221121111111>++++521<+++++++++++++++++++",
"++++++++++++++++++++++++,>>>>>>>:>:>:++++6221+++++++++++++++++++",
"++++++++++++++++++++++++@@@@@@@@@@@@@++++@@@@+++++++++++++++++++",
"++++++++++++++++++++++++#############++++####+++++++++++++++++++",
"===--==---;;;;;;;;;;;;----======--=====---;;;;;;;;;;;;----==--==",
"**=**==***&*****=*=*=****&**=**==***&**=**==***&*****=*=*=****&*",
"*=****=**&*&=**=***=*=*=&**=****=**&**=****=**&*&=**=***=*=*=&*&",
"**=*****&*&=*=*&****&*=&*&**=*****&*&**=*****&*&=*=*&****&*=&*&&",
"***=***&*&*&=&=&&*&*&&&&&&***=***&*&****=***&*&*&=&=&&*&*&&&&&&*",
"                                                                ",
"................................................................",
"XXXXXXXXXXXXXXXXXXXXXXXXXXXXXXXXXXXXXXXXXXXXXXXXXXXXXXXXXXXXXXXX",
"-----------=*&%.X.%&*=---------------------=*&%.X.%&*=----------",
"***=*=*=*=*=*=$.X.+============****=*=*=*=*=*=$.X.+==========***",
"****=*=*=***=*$.X.+==*===**=********=*=*=***=*$.X.+==*===*******",
"***=*=*=****&*$.X.+**=**==***&*****=*=*=****&*$.X.+**=**==*&****",
"**=***=*=*=&*&$.X.+*=****=**&*&=**=***=*=*=&*&$.X.+*=****=**&=**",
"=*&****&*=&*&&$.X.+**=*****&*&=*=*&****&*=&*&&$.X.+**=*****&=*==",
"&=&&*&*&&&&&&*$.X.+***=***&*&*&=&=&&*&*&&&&&&*$.X.+***=***&*&=&&",
"&&&&&*&=&&**&&$.X.+**&*&&&&&*&*&&&&&&*&=&&**&&$.X.+**&*&&&&&*&&&",
"%&*&*%&&&%&&%&$.X.+&%*%&&&&%&*&&%&*&*%&&&%&&%&$.X.+&%*%&&&&*&&%%",
"&%%&%&&&%&$%&%$.X.+&$%&%$&%&%&%%&%%&%&&&%&$%&%$.X.+&$%&%$&%&%%&&",
"%$%$%$%$&$%$&%$.X.+$$$%$%$&$&%$&%$%$%$%$&$%$&%$.X.+$$$%$%$&%$&%%",
"%%$%$%$%$%$%$$$.X.+%$%$%%%$%$$&%%%$%$%$%$%$%$$$.X.+%$%$%%%$$&%%%",
"      ....XoOOO.X.OOOoX...            ....XoOOO.X.OOOoX...     O"
};
