/* XPM */
static char *out[] = {
/* columns rows colors chars-per-pixel */
"64 64 15 1 ",
"  c black",
". c #282828",
"X c gray22",
"o c #4C0000",
"O c #640000",
"+ c #700000",
"@ c #7C0000",
"# c #706C00",
"$ c #484848",
"% c gray33",
"& c #880000",
"* c #980000",
"= c #A40000",
"- c #B00000",
"; c #FCF400",
/* pixels */
"$%$&**=---------------------=**&$%$&**=---------------------=**&",
"$%$O============****=*=*=*=*=*=@$%$O============****=*=*=*=*=*=@",
"$%$O==*===**=********=*=*=***=*@$%$O==*===**=********=*=*=***=*@",
"$%$O**=**==*********=*=*=******@$%$O**=**==*********=*=*=******@",
"$%$O*=****=*****=**=***=*=*=***@$%$O*=****=*****=**=***=*=*=***@",
"$%$O*=****=*****=**=***=*=*=***@$%$O*=****=*****=**=***=*=*=***@",
"$%$O**=********=*=********=****@$%$O**=********=*=********=****@",
"$%$O***=********=*=************@$%$O***=********=*=************@",
"$%$O********************=******@$%$O********************=******@",
"$%$O*&*&****&****&****&***&**&*@$%$O*&*&****&****&****&***&**&*@",
"$%$O*@&*&@*&*&*&&*&&*&***&*@&*&@$%$O*@&*&@*&*&*&&*&&*&***&*@&*&@",
"$%$O@@@&@&@*@*&@*&@&@&@&@*@&@*&@$%$O@@@&@&@*@*&@*&@&@&@&@*@&@*&@",
"$%$O&@&@&&&@&@@*&&&@&@&@&@&@&@@@$%$O&@&@&&&@&@@*&&&@&@&@&@&@&@@@",
"$%$ooooooooooooooooooooooooooooo$%$ooooooooooooooooooooooooooooo",
"$$X.............................X$X............................X",
"$$$$$$$$$$$$$$$++++++++++++++++++++++++++++++++++$$$$$$$$$$$$$$$",
"%%%%%%%%%%%%%%+#;;;;;;;;;;;;;;;;;;;;;;;;;;;;;;;;#+%%%%%%%%%%%%%%",
"-----------=**+;#++++++++++++++++++++++++++++++#;+&**=----------",
"***=*=*=*=*=*=+;+ + +  +  ++  +++ +   +  + + + +;+O==========***",
"****=*=*=***=*+;+ + + ++ + + + + + + ++ ++   + +;+O==*===*******",
"***=*=*=******+;+ + +  +  ++  ++ + + ++  +   + +;+O**=**==******",
"=********=****+;+ + + ++ + + + + + + ++ ++ + +++;+O**=******=*==",
"*=************+;++ ++  + + +  +++ ++ ++  + + + +;+O***=******=**",
"**=***=*=*=***+;++++++++++++++++++++++++++++++++;+O*=****=***=**",
"=********=****+;++++++++++++++++++++++++++++++++;+O**=******=*==",
"*=************+;++++++++++++++++++++++++++++++++;+O***=******=**",
"*******=******+;+++++   + +     +  +      +  +++;+O*************",
"&****&***&**&*+;++++++++++++++++++++++++++++++++;+O*&*&*******&&",
"*&&*&***&*@&*&+;+++      +   +  +     +      +++;+O*@&*&@*&*&&**",
"&@&@&@&@*@&@*&+;++++++++++++++++++++++++++++++++;+O@@@&@&@*&@*&&",
"&&@&@&@&@&@&@@+;+++   +       +   + +    +   +++;+O&@&@&&&@@*&&&",
"oooooooooooooo+;++++++++++++++++++++++++++++++++;+oooooooooooooo",
"..............+;++++++++++++++++++++++++++++++++;+..............",
"$$$$$$$$$$$$$$+;+++++   +        + +  +   +  +++;+$$$$$$$$$$$$$$",
"%%%%%%%%%%%%%%+;++++++++++++++++++++++++++++++++;+%%%%%%%%%%%%%%",
"$%$&**=-------+;+++  +     +    +        +   +++;+----------=**&",
"$%$O==========+;++++++++++++++++++++++++++++++++;+**=*=*=*=*=*=@",
"$%$O==*===**=*+;+++    +          + +    +   +++;+***=*=*=***=*@",
"$%$O**=**==***+;++++++++++++++++++++++++++++++++;+**=*=*=******@",
"$%$O*=****=***+;+++   +  +     + +  +      + +++;+*=***=*=*=***@",
"$%$O**=*******+;++++++++++++++++++++++++++++++++;+********=****@",
"$%$O***=******+;+++    + +    +   +     +    +++;+=************@",
"$%$O**********+;++++++++++++++++++++++++++++++++;+******=******@",
"$%$O*&*&****&*+;++++++++++++++++++++++++++++++++;+****&***&**&*@",
"$%$O*@&*&@*&*&+;+++++++++++++++++++          +++;+&&*&***&*@&*&@",
"$%$O@@@&@&@*@*+;#++++++++++++++++++++++++++++++#;+@&@&@&@*@&@*&@",
"$%$O&@&@&&&@&@+#;;;;;;;;;;;;;;;;;;;;;;;;;;;;;;;;#+&@&@&@&@&@&@@@",
"$%$oooooooooooo++++++++++++++++++++++++++++++++++ooooooooooooooo",
"$%$X...........................XX$XX...........................X",
"$$$$$$$$$$$$$$$$$$$$$$$$$$$$$$$$$$$$$$$$$$$$$$$$$$$$$$$$$$$$$$$$",
"%%%%%%%%%%%%%%%%%%%%%%%%%%%%%%%%%%%%%%%%%%%%%%%%%%%%%%%%%%%%%%%%",
"-----------=**&$%$&**=---------------------=**&$%$&**=----------",
"***=*=*=*=*=*=@$%$O============****=*=*=*=*=*=@$%$O==========***",
"****=*=*=***=*@$%$O==*===**=********=*=*=***=*@$%$O==*===*******",
"***=*=*=******@$%$O**=**==*********=*=*=******@$%$O**=**==******",
"**=***=*=*=***@$%$O*=****=*****=**=***=*=*=***@$%$O*=****=***=**",
"=********=****@$%$O**=********=*=********=****@$%$O**=******=*==",
"*=************@$%$O***=********=*=************@$%$O***=******=**",
"*******=******@$%$O********************=******@$%$O*************",
"&****&***&**&*@$%$O*&*&****&****&****&***&**&*@$%$O*&*&*******&&",
"*&&*&***&*@&*&@$%$O*@&*&@*&*&*&&*&&*&***&*@&*&@$%$O*@&*&@*&*&&**",
"&@&@&@&@*@&@*&@$%$O@@@&@&@*@*&@*&@&@&@&@*@&@*&@$%$O@@@&@&@*&@*&&",
"&&@&@&@&@&@&@@@$%$O&@&@&&&@&@@*&&&@&@&@&@&@&@@@$%$O&@&@&&&@@*&&&",
"ooooooooooooooo$%$ooooooooooooooooooooooooooooo$%$oooooooooooooo"
};
