/* XPM */
static char *out[] = {
/* columns rows colors chars-per-pixel */
"64 64 8 1 ",
"  c black",
". c #400000",
"X c #4C0000",
"o c #580000",
"O c #640000",
"+ c #700000",
"@ c #7C0000",
"# c #880000",
/* pixels */
"....XooooooooooooXXooooOoXX..X.Xo....XoOOooXooOoo+ooooooooooXXXX",
"....XooooooooooXXXXoooOooXXX.X..X....XoOOXOXoooXXXoooOooooXXXXXX",
"X.X.XooooooooooXXXXoOOoOoXXXXXX......XoOO.OXOooXXXooOOooooXXXXXX",
"X.X.XoOOooooooo.XXXoOOOOOoXXooXXX....XoOOXOoOoooXXoo+OoooXX.XX..",
"X...XoOOOoOoooX.XXXoO+OOOooXXXXXX.X.XXOOOoOoOoooXXoo+OOOOoX.XX..",
"X..XXoOOOoOOoooXOXXO++O+OOoXoOX..XX.XoOOOoOoOoooXooXO+++OoX.XX..",
"X....oOOOOOOoooXoXX++++++OOXXo+X.XX.oOOOOOOooooXXoX.ooOOOoX.X...",
"X...XoOOOOOOOooXoXXO+++++OOX.....XXXoO++OOOoooo.XooooOO@+OX.X+OO",
"X...XoOOOOOOOoo.oXXooO++++OX.X.X....O+OOOOOOooX.Xo+oo+O@@OXX...X",
"X...oOOOOOOOOoooXoXO++@++@OX..X.....oOOOOO+OoOoXo+Ooo+O+++O.X...",
"....oOO+++O++ooX.XXO+++++@OoXXX.X...oOO++@O+oXXoooooO++O+OoX.X..",
"...XOOO+@@+++ooXXXXo++O+O+OoXXo.X...XOO++@OOoXX.XoooO++++OOXoo..",
"...oOO++@+O++OooXoXo@+O@OOOoXXoX..XXXoO++@+OooXXooooO+O+@OOoXXX.",
".XXoOO+@@++@OOooXXXXO+O@@+Oo.oooX..X.XOO@@@+ooXXoooo++O+@+OooXX.",
"...oOO+@+O+@OoooXoXXOOO+OOOX.oXoo..XXXOO+@@@OoXXooooOOO+@+OooOoX",
"..XoOO+@+O@@+OoO.oXXO+++OOOX.......XXooO+@@@Ooo.oX.oO+++@+OoXoo+",
"...O+O+@++#@+OoX.XOXoOO+OOOXXoXXX..XXX+++@@#+oOXX+ooOOO+@++oX...",
"X..o+++@++#@+ooo.X+Xo+O++OOXooOo..XX.o@@+@@@@OoXX@ooO+++@+OoXOo.",
"XXXo+++@++#@OoooXo+Xo+++@OOXoO+X.XXXo+@@@@@@@+ooXOOooOO+@+OoXOo+",
"oXXo+++@++#@+ooXXO+ooO++@+OXo+O.XoXoO+@@@@@@@+ooXOOoo+++@+OoXo++",
"oXXo+++@++#++oOXXOOooO++@+OoooOXXooO+@@@#@@#@+ooXooooOO+++OoXXoO",
"o.XXOoOOO+@OOoO.XOoooO++@+OoooOXXoO+@@@#@@@#+OooXooXoOOO+@OoXXXO",
"O.XXX....XoOOooXoOoXXooOO@OoXooo.XOO+@#@+@#@OOoXXooX.XXXXoOX.XXO",
"o.XX.......XXXXXXoX......XooXoooX.XXXoOO++#+OoXXXXo..........ooo",
"X.XX........XXoXoo...........ooX..X....XoOOOOXXoXXo.........oooo",
"..X........XXXX.oo..........XoXX.XX........XXXoX.oo........XXXoo",
"..X........XXXX.oX.............X.XX.........oXX..oo...........Xo",
"..X........XXXX.oX.............XX.X........XXXX..oX...........Xo",
"X..........XXXX.oX........XX...Xo.X........XXXX..Xo.......X...Xo",
"o..X........o.X..o.........X...XX.X........XX....XX............o",
"o.....  ....X....X..........XXXXX...... ....X....XX...   ...XXXo",
".....XoXX.. ......X.. ..............XoOo....X.........ooXXX.....",
".X..XOooooooX.... ...XOooXXX........XoOOooX.... .XXoooooooooXX..",
"XX...oOoooOooooooXoXooOooXXX..X.X...XoOOoXOXoooo+OooooOoooooX.X.",
"X...XoOOooOOooooXXXXooOooXXXXXXX....XoOOoXOXooooXooOooOoooooX.X.",
"XX..XoOOoOOOOooooXXXoOoOoXXXXXXXX.X.XoOOoXOXOoX.Xoo+oOooooooo.X.",
"XX.XoOOOoOOOOoooooXoXOOOOooooXXX.XXXXoOOOoOoOooXooo+oOoooOOoo.X.",
"XX.XXOOoOOOOooooooXXX+OOOOOoX.oo..X.XOOOOoOoOooXXoo@OOOOOOOoX.oo",
"X...XOOOOOOoooooo.oXX+++++OoX.ooOX.XXOO+OOOooooXooo++OOOOOOoX.oO",
"X...XOOOOOoooooX.XoXXOO++OOoX....X.XX+OOOOOOooo.oXXO+++++OOX....",
"X...XOOOOOOoooXXXXo.oOO++@OoX..X.X...OOOOOOOOooXXOooO++OOOOoX...",
"X...XOOOOOOoooXXXoXXO++++@OoXX.X...X.OOO++OOOooooooo+OO+OOOOXX..",
"X....OOOOOoooXX.XXXX+O@+++OX.Xoo.X.X.oO+O@@O+OoX.Xoo@OO@@@+OX.X.",
"X..XXoO+O+oooX.XXXXo@++++OoXXXXX.X.XXoO+O@@OOoooXooo++OO+@@OOXXX",
".....oO+++OoooXXoXXo+@O+OOoXXooX.X.XXoO++@+OOoooXoooO+O+@@+OOXoo",
"...XXoO+@+OoooXXOXXo++++OOo.oOooX..X.oO+@@+OOoooXoooO+O+@@+OOooX",
"....XOO+@O@oooXoXXXo+O+++Oo.oooOX..XXoO+@@@+OooXXo.oO+O+@++OOooo",
"..X.o@+O@+#+oo.ooXXoO+O+OOo........XX+++@@#+OooXXoXoOO+@@+++OoXX",
"....o++O@+#+oO.XOXXoO+O+OOo.XXX.X..Xo@++@@#+Ooo.X+oo+++@++OOOoXX",
"..XXO++O@+@+ooXXOoXoO+O@OOo.oooOX.XXo+@@@@#+Ooo..+oo+O@++OOooXXX",
"..XoO++O@+@@OoXX+OXoO+O++OoXoO+OX.XXo+@@@@#@OoOXX+oo+O@+OOoXXXXo",
"..XXO+@O@+@@OoXX+OooO+++@OoXo++oXXXoo+@@@@#@+oooX+oo+O++OoXXXXoo",
"..XXO++O++++OoXXOoooO+++@OooooooXXXoO+##+@#@+ooXXOOo+O++Oo.XoXXX",
"XXXXO+OOOOOOOoXXOoooO+++@OoXooOoX.oXOOOOOO+O+ooo.OOoOO++OX.XXXoO",
"oXXXoOoXXXXooXXXOoXXoO+@@OoXoooo..XXoX....XoOooo.o+oOO+OO..ooooo",
"OXXXoo......X.oXoo.....XoooXoooo....X.......X.oXXoOooOoXX.Xooooo",
"o...XX.......XoXXo..........oooXX.XXX......XXXooXXOXXX....XXoooo",
"o.XXX........XX..o.........XoXXX..XX.......X.XXXXXoX......XXXooo",
"..XX.........XXX.oX.........X.XX..XX.......o.XX..XoX.........Xoo",
"..X..........o.X.oX............X..oX.......o.X...XoX.........Xoo",
"..X..........o.X..o.......X....oX.Xo.......X.....Xo.......X...oo",
".............X....X.......X....Xo..XX......o.....Xo........XX.Xo",
"..X..... ....X..............XXXXX..X..............X...... ......",
"....         ...  ..     ...........X.....  ..  .....      .... "
};
