/* XPM */
static char *out[] = {
/* columns rows colors chars-per-pixel */
"64 64 45 1 ",
"  c black",
". c #00001C",
"X c gray11",
"o c #00002C",
"O c #000034",
"+ c #202020",
"@ c #282828",
"# c #2C2C2C",
"$ c #343434",
"% c gray22",
"& c #000040",
"* c #00004C",
"= c #000058",
"- c #000064",
"; c #000070",
": c #00007C",
"> c #484848",
", c #4C4C4C",
"< c gray33",
"1 c gray36",
"2 c #646464",
"3 c gray44",
"4 c #7C7C7C",
"5 c #FC0000",
"6 c #FC2020",
"7 c #FC4040",
"8 c #FC5454",
"9 c #FC5C5C",
"0 c #FC7C7C",
"q c #000088",
"w c #000098",
"e c gray55",
"r c #989898",
"t c gray66",
"y c #B4B4B4",
"u c #FC9C9C",
"i c #FCB8B8",
"p c #C0C0C0",
"a c #D0D0D0",
"s c gainsboro",
"d c #FCD8C4",
"f c #FCD8D8",
"g c #FCE8DC",
"h c #ECECEC",
"j c gray99",
/* pixels */
"%=-------------------=%%=--------------------------=%%=-------=%",
" =====================oo;;;;;;;;;;;;;;;;;;;;;;;;;;;;oo--------- ",
" ===*=&==&&&&&&&&=&&&o  ;=;-&=;&&&&&==&&&=;=&&=;;=&&  -;=&=--&& ",
" =*&*&&&&&=&=&&&&&&&&&  ;;=&&&&&o&oo&==&&&&&&o&&&&&&  --==&&==o ",
" =*=***&&&&&&&&&oo&oo&                                -=-;;-=&& ",
" =**===*&&*=*&&&oo&ooo  ===================           -;=-=*&&o ",
" =**--===&===*&&&&o&&&  =;;;-=&&;&&-&&-;;==  ====&&&  -**=***&& ",
" ==&=--=*&*==*&&oo&oo&  =-;;;-=;=&&&--===&=  =**&&&&  -&&=&**&& ",
" =*&*==*&&&***&**o&Ooo  =-;;;&-==;&&=&=&&=&  =***&&&  -;=&==&&o ",
" =*&&=*&&==&o&&***&Ooo  =---&&&-====&&&OO&&  ==**&oo  ;&&&==*o& ",
" **&=&&&&==&Ooo&**&&o   =;---&&-;;==&=&&OOo  ==&&=&o  ;&;=o*oo& ",
" *&&&&=&&&o&&oo&&o&o&o  =;==----;--=*&&=OO&  =**&&oo  ;;&&&o&oo ",
" *&&&&&&&555555555jjjjjjjjjjjjjjjjjjjjjjjjjj555555555 ;&&&&&ooo ",
" &&&&OO&o5555555555jj                    jj6555555555 ;&&&ooooo ",
" &&&&&OOO5555555555jjj                  jjj5555555555           ",
"         55555555555jj                 4jj55555555555           ",
"=;-=-====55555555555ijj                jj755555555555 ==== ;;;;;",
";-=&=;-=&555555555555jj               yjj555555555555 =-&& ;;=-;",
";-&&&==&O555555555555fjh              jj7555555555555 =--& ;=---",
"-=&--&&&O5555555555555jj              jj5555555555555 =&&o ;;;--",
"=&&-;-*&&j555555555555jj              jj5555555555559 =o&o ;;---",
"==&*--**&jj855555555550j3            sji55555555555jj      ;;==*",
"-&&&*=***jjjj5555555555jj            jj55555555555jjj----  ;==*&",
"-=&&&&*&*jhjjj755555555jj    sjjja   jj555555555jjjjj===*  ;-=*&",
"--&&-&&&*j  jjjju555555jj jjjX   4jjtjj5555555jjjj4 j:=*&  ;;-*&",
"-=&&&--&&j   Xjjjjj5555jjjj tjjjjj+#jjj55557jjjjj   j:=*&  ;-;==",
"=&&&=--=&j      hjjjjj0dj yjjj ajjjj hjjjjjjjj%     j=&=&  ;;;==",
"-&-&&=-=&j         jjjjj jjjj%  jjjjj jjjjjj        j==*&  ;;;--",
"=&&==&==Oj            sjyjjj+   jjjjjj j$           j=**&  ;==;-",
"=&&===&&Oj            j jjj   yjjXpjjjj1j           j&==o  ;==--",
"=&&&==&&Oj           #jrjj   XjjX  jjjj j           j&*=o  ;;=**",
"=&*&&&&&&j           j jjjj   a#    ajjajy          j-==&  ;=*&&",
"=*=&&**&Oj           j j  jj         pjjjj          j--*&  ;*&&&",
"==*&&**O.j           j X  Xjj    jj   jjjj          j*&&o  ;;*&&",
"**&&&&&O.j           j j   X3    jjj  jjjj          j*o&&  ;-=&&",
"**&**&&O.j           j jj         jjjjjjjj          j&OOo  ;==*&",
"*&&**&&O.j           jXjjjr   jj   jjjjyj1          j&OOO  ;-==&",
"&&&&&OO.Oj            jrjjjX jja   jjjj j           j&&OO  ;--*&",
"&&&&&OO..j            j jjjjjj+   jjjjayj           j*o&&  ;;*&&",
"&&&&&&OO.j          2jjjajjjjh   jjjjj ja,          j=&&&  ;-&&&",
"         j       jjjjjjj jjjjj  jjjjjXjjjjjjjr      j;&oo       ",
"     ..&&j    jjjjj65550jeXjjjjjjjjj jg0jjjjjjjj$   j&&oO  &&&& ",
" &=-;;;;;j  hjjj65555550jjj ajjjjj,Xjjj55555ijjjjj  j&ooO  &**& ",
" =;;;;;-=j+jjj555555555gj  jjaX ejjj jj555555559jjjjjOoOO  &**& ",
" =;--=--;jjj05555555555jj    <sjp@   jj5555555555jjjjOooo  &&&o ",
" ;;;--;;*jj555555555555jj            jju55555555555jjoo&&  &&&o ",
" ;=-=---*85555555555555j              jj555555555555j      &&o& ",
" ;;-**--=5555555555555jj              jj5555555555555           ",
" ;;*=;-*=5555555555555jj              jj8555555555555;;;;;;;;;; ",
" ;;;;=*;&5555555555556ja              +jj555555555555----=&;==& ",
" ;=;*==;-555555555555jj                jj755555555555=---&===&& ",
" ;-**;:;=55555555555jjy                 jj55555555555----*&=&&O ",
" ;=;=:w:*55555555555jj                  jjj5555555555*---==*&Oo ",
" ;-;-;:;=5555555555jj,                   jjj555555555&*===**&oO ",
" ;=;---*&555555555jjjjjjjjjjjjjjjjjjjjjjjjjjj55555555&&=*&&&ooO ",
" =;--=*&&=*&&&O  ;-=***  =;&=;=&&&&&&oo&o&o..    --*=&&=&&&**oo ",
" ;=;-*&-&==*OOo  ;=;&**  =;===&&==&&o&oooooo..   --;-&--*&&***o ",
" ;=;=*&&&*=*OOO  ;;=&&&  ===&&&&===&&&&ooo... .  ;;-&=---*O&**& ",
" -=***=&&&**&OO  ;-=&&o  =-=&&;=&==oo&&&oo. ..   ;-=&==--*OOO&& ",
" -=**&&=&&&o&oo  -=*&&o  =-;&;;=o&&&oo&&ooo. ..  ;-=;==***&OOoo ",
" ==*&O&o&o&&OOO  -=&&&&  ==-;=&&o&o&oooo...o. .  ;;;*=&&&&&O&OO ",
" =**&OOoo&oOOoooo=*&&o&oo==&=&o&oooo&o&... .o.ooo;==&&=OOo&OooO ",
" *&&&&OoOooOOoO##=&&oo&##=&&&&&ooo&oooo.o . .&&##;=;=&&OOo&OOOo ",
"%:qqqqq::::::::>>:qqq::>>:qqqqqq:::::::::::::::>>:qqqq:::::::::%"
};
