/* XPM */
static char *out[] = {
/* columns rows colors chars-per-pixel */
"64 64 31 1 ",
"  c black",
". c #00001C",
"X c gray11",
"o c #00002C",
"O c #202020",
"+ c #282828",
"@ c gray19",
"# c gray22",
"$ c #000040",
"% c #00004C",
"& c #000058",
"* c #000064",
"= c #000070",
"- c #00007C",
"; c gray25",
": c #484848",
"> c gray33",
", c #646464",
"< c #7C7C7C",
"1 c #000088",
"2 c #000098",
"3 c #0000A4",
"4 c #0000A8",
"5 c #0000B0",
"6 c #0000BC",
"7 c #0000C8",
"8 c #0000D4",
"9 c #0000E0",
"0 c #0000EC",
"q c #0000FC",
"w c gray55",
/* pixels */
"5556689qq88% 140qq7080qqqq8qqq4% 73q8qqqq9q9977% 796q8= %1285q83",
"455558q7992$ $39624769q0980qq5=. 25qq9qq8532395$ 146q7* o1=37q6-",
"64467223484- *7qq686-67qqqqq91*o 26qq079227qqq4* =7q02= 194386=*",
"74447832*2-* *49928968609971*&1* 4807767386728-= 25q78* =578q11*",
"333621%-23-% 227799088622-&*2483 780q53168q088&= *3666- %3275==&",
"2%=%&&&551%% 23q098q9q626569qq8* 5783189808713== =6782* %=32-$o$",
"**&*=-264=o= &31132638588888812$ 3=13662=3231=%& o6=2=% oo=*&%==",
"21$2386821%= o-12*&----11*=-=&-o &$=**$%&=-%&*1& o&**&o o$%&1*-*",
"63=37617==%*                                            &*%=245&",
"2---3226&-&*  OOOOOOOOOOOOOOOOOOOOOOOOOOOOOOOOOOOOOOO   o*=--1-*",
"84-485-2-1$$  O<:OOOOO<:OOOOOw:OOOOOw:OOOOO<:OOOOO<;O   $=1533--",
"22-23=12=*%=  O; OOOOX: OOOOX: OOOOX: OOOOX; OOOOO; O   &228521*",
"*1-2===-=&&&  OOOOOOOOOOOOOOOOOOOOOOOOOOOOOOOOOOOOOOO   %245=-*$",
"%$$$%&$&$oo*  OOOOOOOOOOOOOOOOOOOOOOOOOOOOOOOOOOOOOOO   %=-&oo.$",
"%%o%%o%%$o%$  XOOOOOOOOOO                  OOOOOOOOOO   $$oo.$$1",
"              OOOOOOOOOOO OOOOOOOOOOOOOOOO OOOOOOXXXX           ",
"------2=121-o XXXOOOOOOOO O   OO    OO   O OOXXXXXXXX %*1-=-%&%=",
"1---14211**4* XXXXXXXXXXO O   :O    :O   X XXXXXXXXXX *-1222&22=",
"512163122255* X,#XXXXXXXX X   :X    :X   X XXXXXXX,@X %-=412=3&1",
"==1=-112422%% X@ XXXXXXXX X   :X    :X   X XXXXXXX@ X $-=-113111",
"223223-21&*o% XXXXXXXXXXX X   ;X    ;X   X XXXXXXXXXX o-=11=1*21",
"**%****&oooo$ XXXXXXXXXXX X   ;X    ;X   X XXXXXXXXXX &$.&&&&$=*",
"&===&&$%$&%%$ XXXXXXXXXXX X   ;X    ;X   X XXXXXXXXXX o&$$$o$$%$",
"              XXXXXXXXXXX X   ;X    #X   X XXXXXXXXXX           ",
" o%o%%$%*&-&o X>@XXXXXXXX X   #X    #X   X XXXXXXXXXX $&o%=121=o",
" &=*11=-1$2=$ X@ XXXXXXXX X   #X    #X   X XXXXXXXXXX ==-122-=*o",
" &&=&--2===&o XXXXXXXXXXX X   #X    #X   X XXXXXXX>+X =21--=&=*o",
" =-1=22-*o=$  X+++++++ XX X   #X    #X   X XXXXXXX+ X =21-=*11*o",
" *=-==&%$o%%o X+XXXXXX XX X   #X    #X   X XXXXXXXXXX =11=111&&o",
" $2%&21&..%=  X+XXXXXX XX X   #X    #X   X XXXXXXXXXX =*111*-&&o",
" $-%2*$o$.%*  X+XXXXXX XX XXXXXXXXXXXXXXXX XXXXXXXXXX *%%%%%o$o$",
" *1-***-&.%%o X+XXX@XX XX                  XXXXXXXXXX ooo.oooo.o",
" &=**%%%.%*oo XO X : X XXXXXXXXXXXXXXXXXXXXXXXXXXXXXX           ",
" oo$oooooo.*  XO X @ X XXXXXXXXXXXXXXXXXXXXXXXXXXXXXX &&%% oo$$$",
" ....oooo o.o XOXX X X XXXXXXXXXXXXXXXXXXXXXXXXXXX:+X &=&$ $$=*%",
"              XOXX   X XXXXXXXXXXXXXXXXXXXXXXXXXXX+ X *=*o %$**%",
" oooo$%&$&%oo XOXXX XX XXXXXXXXXXXXXXXXXXXXXXXXXXXXXX %-$. %%&*%",
" $%%$$*&*-&&o XOXXXXXX XXXXXXXXXXXXXXXXXXXXXXXXXXXXXX %&$. %$&*%",
" oo$%oo$&%o   XOXXXXXX XXXXXXXXXXXXXXXXXXXXXXXXXXXXXX &&%. .%-&%",
" oo%&$..o%%o  XOXXXXXX XXXXXXXXXXXXXXXXXXXXXXXXXXXXXX %*%o &$%o%",
" $%*=&o.o&%*  XX       XXXXXXXXXXXXXXXXXXXXXXXXXXXXXX %=$. o.*&%",
" $$&%%&o.oo&  XXXXXXXXXXXXXXXXXXXXXXXXXXXXXXXXXXXXXXX *o.o %*=$%",
" oo$oo$o$$o$  XXXXXXXXXXXXXXXXXXXXXXXXXXXXXXXXXXXX;OX %.oo o%&&%",
" .oooooo%$$o  X;OXXXXXXXXXXXXXXXXXXXXXXXXXXXXXXXXXO X $$$% %$$%$",
" o$$%$oo$o$o  XO XXXXXXXXXXXXXXXXXXXXXXXXXXXXXXXXXXXX %$$o oo**$",
" oooooo.ooo   XXXXXXXXXXXXXXXXXXXXXXXXXXXXXXXXXXXXXXX %oo. o%$$o",
" ....oo.o     XXXXXXXXXXXXXXXXXXXXXXXXXXXXXXXXXXXXXXX o.o   ....",
"              XXXXXXXXXXXXXXXXXXXXXXXXXXXXXXXXXXXXXXX           ",
"ooooooo o*o$  XXXXXXXXXXXXXXXXXXXXXXXXXXXXXXXXXXXXXXX  .ooo.o$oo",
"%*$*%$o %*$&o XXXXXXXXXXXXXXXXXXXXXXXXXXXXXXXXXXXXXXX  $%%&%%&$%",
"&*$*&%. $%$o  XXXXXXXXXXXXXXXXXXXXXXXXXXXXXXXXXXXXXXX o.$$$o%&*&",
"%%&%%%. o$oo  XXXXXXXXXXXXXXXXXXXXXXXXXXXXXXXXXXXXXXX oooo$$$%%&",
"*&&&*%. %oo   X#OXXXXXXXX                  XXXXXXX#OX oo%%%%%&*&",
"$o$o$$.     o XO XXXXXXXX XXXXXXXXXXXXXXXX XXXXXXXO X  o%%&&$&&&",
"**$**$.       XXXXXXXXXXX XXXXXXXXXXXXXXXX XXXXXXXXXX   %&&%&%%%",
"$%&%$o. ..oo  XXXXXXXXXXX XXXXXXXXXXXXXXXX XXXXXXXXXX   ooo$oooo",
"ooooo.. .$%%  XXXXXXXXXXX XXXXXXXXXXXXXXXX XXXXXXXXXX  o%%%$ooo.",
"ooooooo ooo$  XXXXXXXXXXX XXXXXXXXXXXXXXXX XXXXXXXXXX  o$$%%%%%%",
"o%&%o.. oooo  XXXXXXXXXXX XXXXXXXXXXXXXXXX XXXXXXXXXX  o&%*&%%&%",
"o%o%o..       XXXXXXXXXXX XXXXXXXXXXXXXXXX XXXXXXXXXX  $$$&%o$$%",
"$&$&$oo    o  X@XXXXX@XXX XXXXXXXXXXXXXXXX XX@XXXX@XX  oo$o$o$oo",
"%&$&%o.   oo  XX XXXXX XX XXXXXXXXXXXXXXXX XXX XXXX X  o o$o ooo",
".o$o...   oo  XXXXXXXXXXX XXXXXXXXXXXXXXXX XXXXXXXXXX    o   oo ",
".....oo o                                                       "
};
