/* XPM */
static char *out[] = {
/* columns rows colors chars-per-pixel */
"64 64 48 1 ",
"  c black",
". c gray11",
"X c #202020",
"o c #282828",
"O c #2C2C2C",
"+ c #343434",
"@ c gray22",
"# c #000040",
"$ c #00004C",
"% c #000058",
"& c #000064",
"* c #000070",
"= c #00007C",
"- c #4C4C4C",
"; c gray33",
": c gray36",
"> c #646464",
", c gray44",
"< c #7C7C7C",
"1 c #FC0000",
"2 c #FC2020",
"3 c #FC4040",
"4 c #FC5454",
"5 c #FC5C5C",
"6 c #FC7C7C",
"7 c #000088",
"8 c #000098",
"9 c #0000A4",
"0 c #0000B0",
"q c #0000BC",
"w c #0000C8",
"e c #0000D4",
"r c #0000E0",
"t c #4040FC",
"y c gray55",
"u c #989898",
"i c gray66",
"p c #B4B4B4",
"a c #FC9C9C",
"s c #FCB8B8",
"d c #C0C0C0",
"f c #D0D0D0",
"g c gainsboro",
"h c #FCD8C4",
"j c #FCD8D8",
"k c #FCE8DC",
"l c #ECECEC",
"z c gray99",
/* pixels */
"@*===================*@@7777777777777777777777777777@@*=======*O",
"X999999999999999999999XXqqqqqqqqqqqqqqqqqqqqqqqqqqqqXX000000000X",
" 99979=998=88=88=9=**% Xq9q0=9q8**87997*79q9789qq98* X0q989008= ",
" 98=7888==989&88=*==*& Xqq9888*8%*%%=99&**&**%*77*&* X0099=899% ",
" 979*ww8===877=&%=*%%& X                             X090qq09== ",
" 97=9ww&===98887**=%%# X9999999999999999999XXXXXXXXXXX0q909==&% ",
" 98800999899988**&%&*& X9qqq0988q880880qq99 X999988&XX0889=77&& ",
" 99890098=&99877=&&%## X90qrw09q98880099989 X98878=& X0889*777& ",
" 98=89978=8**777*==&%# X90wqw8099q889=9=89= X9888==& X0q989977# ",
" 97779===99*%&&*&===%# X90008880999987&===& X998==%% Xq==8998%# ",
" 8=7977*8111111111zzzzzzzzzzzzzzzzzzzzzzzzzz111111111Xq=q9=88%# ",
" 878==97&1111111111zz                    zz2111111111Xqq==&&==# ",
" 8=8=&77=1111111111zzz                  zzz1111111111Xq=*&=&==# ",
" 88===*&%11111111111zz                 <zz11111111111Xq==*%%%%# ",
" 8=8&&*&=11111111111szz                zz311111111111X          ",
"         111111111111zz               pzz111111111111XXXXXXXXXXX",
"9q0909999111111111111jzl              zz3111111111111X9999 qqqqq",
"q0989q0971111111111111zz              zz1111111111111X907= qq90q",
"q0887997=z111111111111zz              zz1111111111115X900= q9000",
"0980088==zz411111111116z,            gzs11111111111zzX97=% qqq00",
"9780q0==8zzzz1111111111zz            zz11111111111zzzX9%&% qq000",
"99780e=8=zlzzz311111111zz    gzzzf   zz111111111zzzzz     Xqq998",
"07=7898==z  zzzza111111zz zzz.   <zzizz1111111zzzz< z0000XXq9988",
"0978=8=88z   .zzzzz1111zzzz izzzzzXOzzz11113zzzzz   z9998 Xq0888",
"008708888z      lzzzzz6hz pzzz fzzzz lzzzzzzzz@     zw987 Xqq888",
"097=700&=z         zzzzz zzzz@  zzzzz zzzzzz        zw97= Xq0q99",
"98=790098z            gzpzzzX   zzzzzz z+           z979& Xqqq99",
"08088909&z            z zzz   pzz.dzzzz:z           z997& Xqqq00",
"97799899&z           Ozuzz   .zz.  zzzz z           z97=* Xq99q0",
"9879998=*z           z zzzz   fO    fzzfzp          z899% Xq9900",
"878799=&&z           z z  zz         dzzzz          z889% Xqq88=",
"877=77=&&z           z .  .zz    zz   zzzz          z099& Xq7788",
"8798*==*&z           z z   .,    zzz  zzzz          z008& Xq77==",
"89877=&&%z           z zz         zzzzzzzz          z788% Xqq===",
"=887====%z           z.zzzu   zz   zzzzpz:          z8%*& Xq9988",
"=77=*===%z            zuzzz. zzf   zzzz z           z=8*% Xq9987",
"=7&*=&==%z            z zzzzzzX   zzzzfpz           z88=& Xq899=",
"=8=&=&*%&z          >zzzfzzzzl   zzzzz zf-          z&==& Xq877=",
"=787*=*%%z       zzzzzzz zzzzz  zzzzz.zzzzzzzu      z=%&# Xqq77=",
"=87=&*=*#z    zzzzz21116zy.zzzzzzzzz zk6zzzzzzzz+   z9=&# Xq88=7",
"         z  lzzz21111116zzz fzzzzz-.zzz11111szzzzz  zq7%# X     ",
"XXXXX%%**zXzzz111111111kz  zzf. yzzz zz111111115zzzzz77%# X7877 ",
"X890qqqqqzzz61111111111zz    ;gzdo   zz1111111111zzzz*%%# X88== ",
"X9qqqqq09zz111111111111zz            zza11111111111zz&%*# X8=** ",
"X9q00ee0q41111111111111z              zz111111111111z*%%# X8*=% ",
"Xqqq0eeq81111111111111zz              zz1111111111111%%&# X7=*% ",
"Xq90900081111111111111zz              zz4111111111111     X7*%& ",
"Xqq0870091111111111112zf              Xzz111111111111XXXXXXXXXX ",
"Xqq89q079111111111111zz                zz311111111111qqqqqqqqqq ",
"Xqqqq97q711111111111zzp                 zz11111111111000097q99= ",
"Xq9q899q011111111111zz                  zzz1111111111e00089998= ",
"Xq088qrq91111111111zz-                   zzz111111111ww007798=& ",
"Xq9q9rtr8111111111zzzzzzzzzzzzzzzzzzzzzzzzzzz11111111ww0099===% ",
"Xq0q0qrq9=99$$& Xq900=& X99q977===7=7%%88**%$## X0q088899====%& ",
"Xq9q000777=*$$& Xqq087& X98qq8q==7==7=%887**&%& X0098889=*&=%%& ",
"X9q009==8988=&& Xq0977= X9q89q97=**77%%=88=*%%# X0089889=*&*=%% ",
"Xq9q0770=998*=% Xq9q=== X9q9998799**%*%%===&%%# X00q07008=&88%# ",
"Xq9q987=&7998*& Xqq9&&& X99988=7999*&**%$$$&### Xqq0790008=88=# ",
"X097779&$&788** Xq09=*% X90988q9=99%%**&%##%### Xq09799008====# ",
"X09*&7&9==8%&%% X09&&&% X90q=qq9%&&&%%$$$##$%## Xq09q99=7**==%# ",
"X9977&7%&%&*&*& X097*&& X990q9=8%&&&%%##**&#$#% Xqqq89==*==*&#& ",
"X98=====****===XX97====XX99898======*&%%====%%*XXq99=89=====**= ",
"@777===========@@77====@@9w77777===============@@q77===========X",
";;;;;;;;;;;;;;;;;;;;;;;;;;;;;;;;;;;;;;;;;;;;;;;;;;;;;;;;;;;;;;;@"
};
