/* XPM */
static char *out[] = {
/* columns rows colors chars-per-pixel */
"64 64 41 1 ",
"  c black",
". c #00001C",
"X c gray11",
"o c #00002C",
"O c #000034",
"+ c #282828",
"@ c gray19",
"# c gray22",
"$ c #000040",
"% c #00004C",
"& c #000058",
"* c #000064",
"= c #000070",
"- c #00007C",
"; c #484848",
": c #4C4C4C",
"> c gray33",
", c gray36",
"< c #646464",
"1 c gray44",
"2 c #7C7C7C",
"3 c #000088",
"4 c #000098",
"5 c #0000A4",
"6 c #0000A8",
"7 c #0000B0",
"8 c #0000BC",
"9 c #0000C8",
"0 c #0000D4",
"q c #0000E0",
"w c #0000EC",
"e c #0000FC",
"r c #0004FC",
"t c gray55",
"y c #989898",
"u c gray66",
"i c #B4B4B4",
"p c #C0C0C0",
"a c #D0D0D0",
"s c gainsboro",
"d c #ECECEC",
/* pixels */
"777880qee00% 36wee9w0wreee0eee6% 95e0eeeeqeqq99% 9q8e0= %3407e05",
"677770e9qq4$ $5q84698qrwq0wee7=. 47eeqee07545q7$ 368e9* O3=59e8-",
"86689445606- *9ee808-89eeeeeq3*o 48eew9q449eee6* =9ew4= 3q6508=*",
"96669054*4-* *6qq40q808wqq93*&3* 60w9989508940-= 47e90* =790e33*",
"555843%-45-% 4499qqw00844-&*4605 90we75380ew00&= *5888- %5497==&",
"4%=%&&&773%% 45ewq0eqe84878qee0* 790530q0w0935== =8904* %=54-$o$",
"**&*=-486=Oo &53708850700000079% 5=35884=5453=%& O8=4=% oo=*&%==",
"43$4508043oO *wwe84qqqqww79q955$ &$=**$%&=-%&*3& o&**&o o$%&3*-*",
"85=59839==oo -7543090w59q98w405$                        &*%=467&",
"4---5448&-$. $3906e8998qq90q88-% 4=64-5**O -4=OO-5-3-%. o*=--3-*",
"06-607-4-3$$ o&563949q80088754*$ &5q95649= =683&-0977=. $=3755--",
"44-45=34=*%=                                        q-* &440743*",
"*3-4===-=&&.                 2pdsdu2                94% %467=-*$",
"%$$$%&$&$Oo.              tddddddddddusu2           54% %=-&OO.$",
"%%O%%o%%$o.             sddddds2sdddddsddd2         -3* $$Oo.$$3",
"                      2dddddddudddddddd2dddy        %=-         ",
"------4=343-          dddddddaddddddddddydddu       *== =-=-%&%=",
"3---36433**6         dddddddudddddddddddysddd2      4-* *444&44=",
"734385344477        tddddddpdddddddddddddudddd      =&$ &634=5&3",
"==3=-334644%        ddddddddtddddddddddddaddddt     *=- &-335333",
"445445-43&*O        ddddddddddddddddddddadddddd     $$& %33=3*43",
"**%****&OOOo       udddddddiddddddddddddd>dddddu    %$* %&&&&$=*",
"&===&&$%$&%%       ddddddddsddddddddddddapdddddd    =O$ %$$O$$%$",
"                   dddddddddddddddduddddsddddddd2   *oO         ",
" o%o%%$%%o O       2dudddyddddaddddpddddddddddddt   =O$ $%&-43=O",
" &=*33=**o %   dddiy:dddddidsddduddpdsaddddddddd2   -O. o%34-=*o",
" &&=&--=*$ O  ydiaupdp22#dddd:,pdaddpdd2ddpddddd2   *o. .*-=&=*o",
" =-3=44=%O &  yddddady1X dddup;  ddd;ddsdddduddy    %o. .*=*33*o",
" *=-==&%%O o  dddddt2pX  ;ddyy    ddudddddddpuiy22  $&o .&333&&o",
" $4%&43&&. $  ddddadpd   dddda@   udd+ddddaddyi2dd2 &%o .*-*-&&O",
" $-%4*$&%. $ yddddudpa#1ddsdddddy +ddd>2addddd#addp $%$ o$%%O$O$",
" *3-***=.. $ addddpddddddsaXddddddddddddddddd2dddda $$. ..OooO.o",
" &=**%%$.O & udd;dadddddda  uddddddddds:+:,d2ddddd              ",
" oO$oooooo o  daydd2dy1dad   dddddddd2##dd+ddd,pddu .$$&%% oo$$$",
" ....ooOo  .  2 ddd<didssX>  dddapddd,#dddudddd<ddd &*=*&$ $$=*%",
"              1+idddysdpd#ad dduddta,d;dd#ddddduadd -*=**O %$**%",
" OOOo$%&$&%o yddd+ui2dddddddsdddddd@ddadd>dddddXddd -=*-$. %%&*%",
" $%%$$*&*-&& pddd2dd:d2dddddddddddd#ddddd@dddddadd2 =&&&O. %$&*%",
" oo$%OO$&%O$ ydddddd;dysdddddddddddXddddd:uaduadda  *&$%$. .%-&%",
" oo%&$..O%%% 2ddd#adpd1ddyy<d2sudddXdddd2dd<1dtt2d1 O$%*%. &$%O%",
" $%*=&O.O&%*  udydddds:dddddsdddiad+dddd<ddddddsdd2 O***O. o.*&%",
" $$&%%&o.oO&   ys2iudusiuiydpdudday#ddddudddddddad  $%OO.o %*=$%",
" oo$oo$O$$O$    dda 2ydaddddddsddsydddddspddddddpd  o$o..o O%&&%",
" .oooooo%$$O    ddd  idddupapdsaaidddddd2d2daudaay  Oo...$ %$$%$",
" O$$%$oo$O$O   1dd1  idddddddddddddddddp udusddd,   O%$o.. oO**$",
" oOOooo.ooO.    22   yddddddddddddddddp   2dddddd   OOO..  O%$$o",
" ....oo.o...         1dddpdddddddddds2     ydddd    ....    ....",
"                      2ddddddddddddt                            ",
"oooooOo O*%&            ti2dddddt                   ..$oooO.o$OO",
"%*$*%$o %*$&               2yu2                     oO%$%%&%%&$%",
"&*$*&%. $%$o                                        $OOO$$$o%&*&",
"%%&%%%. O$Oo$o.oOOo.o .o$$%$o. $&&**o $$&%$$o.. ..O$%%OooO$$$%%&",
"*&&&*%. %oOoo.oOoo... .O%&%o.. O&&&%o o$*$O$o.. .$&%$%$%%%%%%&*&",
"$o$o$$. .....ooooOO.  o%%%Oo.. O%%&$o $%%Ooo. . o$%OO%%%%%&&$&&&",
"**$**$.               O$o%%... $%%*$o .%%$OO... oo%Oo%%$%&&%&%%%",
"$%&%$o. ..ooo$.O.O... $OO$o.o. $%&*$o o$O..o... .o$OO.ooOoo$oooO",
"ooOoo.. .$%%%&$$$%O.o $OOO.oo. $%$&O. ....o$$.. ...ooo$$%%%$OOO.",
"OoooOoo oOO$O%%$%Oo.o ...oo$$o oO%*$. ..OO$$$.. ..ooo%**$$%%%%%%",
"O%&%O.. OooooOOO$O... ..O$&$Oo o%&&$. oO$$%%$.. oO$%&&&%&%*&%%&%",
"O%O%O.. .....oOoOoo.. oO&%*%$o O%%&O. $&&&%&%o. .$*%$$&&$$&%O$$%",
"$&$&$Oo ...o.oOoO.... o$$$%$$. o$$Oo. o$%$&%o.. %%%O$$$$o$O$O$OO",
"%&$&%o. ..oOooooO.... Ooo$oOo. o$*$O. OOo...... .o%$oooO.O$O.oOo",
".O$O... ..oOOo.ooo... ...o...  .$$... .o....o.. .oOo.oo..o...oo.",
".....oo o...  ......           .....o           ................"
};
