/* XPM */
static char *out[] = {
/* columns rows colors chars-per-pixel */
"64 64 30 1 ",
"  c black",
". c gray11",
"X c #28200C",
"o c #302410",
"O c #382C14",
"+ c #202020",
"@ c #282828",
"# c #2C2C2C",
"$ c gray19",
"% c #343434",
"& c gray22",
"* c #543C1C",
"= c #044000",
"- c #045800",
"; c #046400",
": c #047000",
"> c #404000",
", c #585400",
"< c #706C00",
"1 c gray25",
"2 c #484848",
"3 c #4C4C4C",
"4 c gray33",
"5 c gray36",
"6 c #646464",
"7 c gray44",
"8 c #7C7C7C",
"9 c #848400",
"0 c gray55",
"q c #989898",
/* pixels */
"................................................................",
".&&&&&&&&&&&&&&&&&&&&&&&&&&&&&&&&&&&&&&&&&&&&$#%&&&&&&&&&&&&&&&.",
".33333352333333633333336333333363333333633331113233333143311332.",
".55333;&24555534555555244455553555555534555542-=555555223555553.",
".77**=-=67777635666665246666654577777635777776;=777776137776753.",
"+869>41@@@@@####@@+@@@@+oXXoooo+@@@@@@@@oX++++XX+++++@@X@&878>3.",
"+889>663=:11&;1;;---O----O--;;;;&11&;1=::;==:=:=,46>>9,77&88863.",
"+85<>*6==:=;-;;-;---O-------;;;&&12=:,3=,,=,==,*,78,<>008&87063.",
"+75=>96==::-;:&;1;-----,---;;&113342==3=,,>99>*77700<>00q&75363.",
"+87*695==;;-;1112&-----;,-;;&1123444=*5,*,6>9,,880q,,9000&86573.",
"+88669622;1-122131&&&-;&,-;&12335544,46**96>,7,8800<8,000&87672.",
"+87>7962112;231&22&;;;&1&;&112555655*56>9>8>7,70000<8,000&87681.",
"+88>7>61112;232&22&&11121;1132555675*7669>687,70,0q88,008&87684.",
"+8888661111;221&21&;11121;1335556675>77697887000<0008,087&88884.",
"+8888661111,121&221;22121;1345666775>776,7888000<0008,087&88884.",
"+86,7661211,121&222;22121=2445667776>776,788808q8q008>887%86q84.",
"+74=8651211,,,1&332122121=44567678877077,700808q0q008>887%73=84.",
"+8658653211,,,22332122122245567778888007,700808q0q087>087%85*84.",
"+8768652111;,223332122333=45577788800007,800808q0q087>086%86>84.",
"+8888653111;133333312434335577788888000788000q8q0q0089886%86>84.",
"+8888652111;1333333123443356777888800008880qqq0q800089886%87984.",
"+8888852111;2333333155564557888880000qq8880qqqqq700879886%87684.",
"+888885211212333334255565577888880000qq8880qqq0080887>775%87684.",
"+8588862113123333444556666788880000qqqq8880qqq00808875775#84,84.",
"+73,786221312333345456677788880000qqqqq0880q0000788875765#71=74.",
"+85*886221333333455466777788880000qqqqq080000000888765764#85*74.",
"+8888863223333455566777777808000qqqqqqq080q00088888765664#85*63.",
"+88888633333343+3333333357800000qqqqqqq088000888877754653#75,53.",
"+88888633333353.@O%%%%$%280000qqqqqqqqq088000888877664553#75353.",
"+88888633,**953.$o%%%%o$270000qqqqqqqqq078088888776653533#65453.",
"+8888863#>**&53.$O#%%%O$28000qqqqqqqqq0878088877776641422@44553.",
"+8688862+.*9564.$O$%%%o$280qqqqqqqqqqq0878888877666553211@3&553.",
"+74,88623#99464.%$%%%%O$480qqqqqqqqq0008>688777666554211&+31;44.",
"+86=86534%9<675.%%,99*#$40qqqqqqqqqq0008>687776766542211&+33=54.",
"+88>74435%9<775.%+,  9#$4qqqqqqqqq000087>,87776654422111&+32474.",
"+88864435%;<775.%+,  9#16qqqqqqqq000008,>=77766554221111&+3=*84.",
"+88864436&;,775.%.>..9$48qqqqqqqq000888,>=7766553221111&#+46874.",
"+88864436&>>785.%.>>,,&58qqqqqq000088886,=,655533221111&#+56774.",
"+88864447&>>885.%...+&168qqqqqq0000888876=,66543221111&&#+65662.",
"+86864446X>>385.%%%$#1268qqqq000088888776,65433322111&&&#+5=863.",
"+5=46443%XXX406.%%%#O:,80qqqq00008887777665543322211&&&&#+4,473.",
"+6556442%.o=686.%%%#;,>68qqq00088888776665533332211&&&&&#+55573.",
"+867644321,,706.#%&1,>347q0000088877766654433322211&&&&&&+66663.",
"+8766443359>806..++@OO++6q000888887777655433322211&--&&&&+67863.",
"+888654576,>80876*5,*,*600008888777766553333322111;--&&;&+67863.",
"+888756706,>8qqq8,<,<,<00000888777766654333322111&---&;--o66>63.",
"+877880888,>8qqq<,<<<,,800888887766655333332211&&&---;;-;o66>63.",
"+8*8880008,8qqqq<,<,8>,80088877776655433332221&&&&---;;--o6*863.",
"+74,880008<0qqq=,,<88>,=8888877766653333322211&&&&---;---X43,63.",
"+85*880008<0qqq=8<877>,==88777666544333322211&&&&----;---X66*63.",
"+86>8800q8<0qqqq08077>,==8877676554333332211&&&;-;---;-;-o67663.",
"+88>88q0q8<0qqqqq8077*97=877666553333322111&&;--;;---;:;;+676>4.",
"+88>80qqq8<0qqqqq0077*977777665443222211&&&&;--;;;-,--==:+676>4.",
"+88>70qqq8<0qqqq00067>>777666543221111&&&&&&;-;;;;-,-=:==+677>4.",
"+88980qqq8,8qq00008676*676664431111111&&&&&;-;;;;;,;;=,==+666>4.",
"+87<80qqq8,0qq0000868646665532&&;;;;;;;;;;;-;;;;;;-:==,,=+6,<>4.",
"+7,40qqqq0<000008888765653==:;;---------o--------::;:=:,:+5==>:.",
"+8*70qqq00,,0077777777779*****,==,,,======,==,*****,*,*>,@7,=>:.",
"+8870qqq009800000000000008*,7654**46777656,*=888*8*,*,77648*,6=.",
"+008000088,788888888888888*655444456887578,*=88888*,8877788>*61.",
"+008006088,7887878888850876542&*56788750888*87487,*8885q888>*61.",
"+008084,88>7874,>88887535455541:6788764,8888875=,9*88744888>,6=.",
"#007087*8888884*7888887765555544788767758888887669>67865887*,>=.",
"###@###################################+###########@+XXXoooXoo+#"
};
