/* XPM */
static char *benjamin_netanyahu_devil1[] = {
/* columns rows colors chars-per-pixel */
"64 64 256 2 ",
"   c #030202",
".  c #0C0201",
"X  c #02020A",
"o  c #0C030A",
"O  c #060908",
"+  c #140202",
"@  c #1B0201",
"#  c #150904",
"$  c #140409",
"%  c #1A0409",
"&  c #1A0A08",
"*  c #020413",
"=  c #040618",
"-  c #170B15",
";  c #131317",
":  c #230201",
">  c #2B0301",
",  c #250A03",
"<  c #2C0A04",
"1  c #26090A",
"2  c #340202",
"3  c #3C0202",
"4  c #340C02",
"5  c #370808",
"6  c #281309",
"7  c #381509",
"8  c #281516",
"9  c #311313",
"0  c #3C2212",
"q  c #12142A",
"w  c #2D1830",
"e  c #282529",
"r  c #342727",
"t  c #383538",
"y  c #322E32",
"u  c #1A282B",
"i  c #440302",
"p  c #4B0403",
"a  c #420B02",
"s  c #470A08",
"d  c #550B0C",
"f  c #560805",
"g  c #471709",
"h  c #571709",
"j  c #491A13",
"k  c #571515",
"l  c #540A13",
"z  c #650906",
"x  c #780D06",
"c  c #671508",
"v  c #771607",
"b  c #681618",
"n  c #771A18",
"m  c #472519",
"M  c #582719",
"N  c #572812",
"B  c #682B18",
"V  c #74371B",
"C  c #6A2A13",
"Z  c #462B27",
"A  c #552B22",
"S  c #59362A",
"D  c #462D33",
"F  c #5A3733",
"G  c #4B332E",
"H  c #683626",
"J  c #763725",
"K  c #6D332F",
"L  c #611E27",
"P  c #554438",
"I  c #674438",
"U  c #784638",
"Y  c #734830",
"T  c #483B43",
"R  c #5B314B",
"E  c #39454A",
"W  c #5A565B",
"Q  c #4D4F51",
"!  c #6A4745",
"~  c #77554A",
"^  c #705350",
"/  c #536A70",
"(  c #6E6F73",
")  c #625964",
"_  c #2A403D",
"`  c #881608",
"'  c #8C110C",
"]  c #872715",
"[  c #942A19",
"{  c #942E10",
"}  c #A6361C",
"|  c #AF2917",
" . c #8F3225",
".. c #AF3828",
"X. c #C6331D",
"o. c #CA3727",
"O. c #B14E19",
"+. c #854A37",
"@. c #86523B",
"#. c #985839",
"$. c #90492E",
"%. c #B44B29",
"&. c #B66537",
"*. c #954D1A",
"=. c #C85628",
"-. c #D04E2F",
";. c #C86735",
":. c #D7753C",
">. c #CD6A33",
",. c #E1643A",
"<. c #C5461D",
"1. c #8A5B48",
"2. c #935847",
"3. c #865550",
"4. c #B05844",
"5. c #986249",
"6. c #886759",
"7. c #986958",
"8. c #916F5A",
"9. c #A66548",
"0. c #A76B57",
"q. c #A7765B",
"w. c #B77957",
"e. c #B76F4F",
"r. c #987667",
"t. c #8C726F",
"y. c #A67665",
"u. c #B47A66",
"i. c #A87873",
"p. c #925A6E",
"a. c #D35B49",
"s. c #D97945",
"d. c #CE724C",
"f. c #E97148",
"g. c #C37F66",
"h. c #D9853C",
"j. c #98837A",
"k. c #B8856A",
"l. c #B98B78",
"z. c #AE8B75",
"x. c #C9895B",
"c. c #DA9658",
"v. c #D28C4C",
"b. c #E88E53",
"n. c #E8A75A",
"m. c #C58867",
"M. c #D79767",
"N. c #C89577",
"B. c #D59A79",
"V. c #CF8E6E",
"C. c #E99D7B",
"Z. c #E89566",
"A. c #D8A976",
"S. c #E7A76A",
"D. c #E6A778",
"F. c #E5B677",
"G. c #F1B471",
"H. c #EDC974",
"J. c #6D7F83",
"K. c #877D83",
"L. c #A66E96",
"P. c #798B92",
"I. c #7994A5",
"U. c #918E90",
"Y. c #BA9988",
"T. c #AD908C",
"R. c #BAA89B",
"E. c #939BA4",
"W. c #90A8B0",
"Q. c #A5A6A7",
"!. c #B2B0B1",
"~. c #AF9F9F",
"^. c #C69A87",
"/. c #D19A8F",
"(. c #E69E88",
"). c #C5A58C",
"_. c #D8A788",
"`. c #C8A793",
"'. c #D5A995",
"]. c #D8B69A",
"[. c #D9B28A",
"{. c #E3A988",
"}. c #E8B588",
"|. c #F4B689",
" X c #E8B697",
".X c #F4B998",
"XX c #EAAB93",
"oX c #D8B9A6",
"OX c #CEB6AF",
"+X c #E9BAA5",
"@X c #F1B7A8",
"#X c #E9C889",
"$X c #F6C588",
"%X c #E8C897",
"&X c #F7C598",
"*X c #F7D796",
"=X c #F0D48E",
"-X c #FDE79A",
";X c #D7C6B6",
":X c #E9C8A8",
">X c #F7C7A8",
",X c #ECD6A7",
"<X c #F6DAA7",
"1X c #E7CAB6",
"2X c #F7CAB5",
"3X c #EBD6B6",
"4X c #F9D7B8",
"5X c #FAE5A7",
"6X c #EAE2B7",
"7X c #FCE6B8",
"8X c #A9B9C5",
"9X c #BABFC7",
"0X c #9BBDC7",
"qX c #B7C5CA",
"wX c #B5CAD3",
"eX c #C7C7C8",
"rX c #C6D4D8",
"tX c #D8D8D8",
"yX c #CACCD2",
"uX c #EAD6C7",
"iX c #FDDBC4",
"pX c #F8DAC6",
"aX c #E8DBD8",
"sX c #F1D5CE",
"dX c #D7E2DD",
"fX c #ECE8C7",
"gX c #F4E2CB",
"hX c #FDE3CB",
"jX c #F8E8C7",
"kX c #EBE8D7",
"lX c #FDEBD4",
"zX c #F4EBDB",
"xX c #FCEBDC",
"cX c #F7E6D6",
"vX c #F8F3DA",
"bX c #F9F3CC",
"nX c #D6DCE4",
"mX c #C9D8E2",
"MX c #E8DEE5",
"NX c #DBE6E8",
"BX c #D5E5EC",
"VX c #E6E9EA",
"CX c #FCECE3",
"ZX c #F6EBE6",
"AX c #EBF1E9",
"SX c #FCF3E4",
"DX c #FDF4EB",
"FX c #F9F7EB",
"GX c #E9EDF5",
"HX c #ECF3F5",
"JX c #FCF5F3",
"KX c #FDFBF4",
"LX c #FDFDFD",
"PX c #F5F5F7",
"IX c #F2EEF3",
"UX c #BDC0BB",
/* pixels */
"X                 . .   O     .       . $ % + % + % . + + + + + + @ @ + # + + + + + % % + + + + # + $ $ .     .         X X     ",
"              . . o o               . # % + + + + + % % # + # . % % % % # # # % + 1 1 1 % % % + + + + + o . . .                 ",
"            . . $ o     O .   .   . # & 1 @ @ : 1 1 1 % + + + % + . + & . . # # @ 1 6 @ @ : @ @ @ @ @ # % % + . X               ",
"            . $ $   o     o & . . , 6 1 : : : : @ @ 8 D ^ ( W K.U.( t 8 e ;   + @ @ : < < < 6 < > > : @ @ % $ o O X             ",
"        . $ $ $ $ .   . . . + @ 6 4 5 5 5 : 1 8 ) !.OXaXJXLXLXLXLXLXGXyX9X!.( - % @ , @ : < < 5 5 5 < : @ # $ $ o o             ",
"      . $ $ $ $ + .   . + + @ 0 g 2 2 > @ R ~.tXAXFXPXKXJXPXPXPXHXNXVXPXGXLXLXyXt.D 6 @ @ @ : 5 5 5 4 < : @ % % % + .           ",
"    . + $ % % + + . # + + 5 M s 3 p 3 Z T.VXPXGXVXVXHXAXAXAXPXIXVXGXnXNXnXnXNXGXGXnX( . $ % 1 @ < 4 a a 3 2 : @ : : + . .       ",
". . . $ % $ + + . # . @ g k i i l k p.uXIXVXBXBXnXVXAXFXFXKXFXJXPXVXtXMXnXnXnXrX9XqXNX( - 8 % : : < s l d p 2 , > > @ + .       ",
". . # & + + + . . + @ j s i b L L T.ZXVXnXBXnXNXVXJXJXJXDXDXDXDXCXzXaXaXMXnXmXwXW.W.W.8X( t 8 1 @ @ > s l b i i 2 5 , + . .     ",
"@ 1 & . . + + # + : g a d b B k T.JXtXrXwXmXVXVXZXMXsXuXuXaXaXaXuXuX;XOXOXOXqXqXW.W.I.P.yXyXK.1 & 1 : > 3 k b f p 3 < @ + .   X ",
"1 1 & . + % @ 6 : g s p b k i L.MXnXrXrXdXNXyXOXOXOXOX;XuXaXcXcXsXuX1X1XOXR.T.U.U.U.P.E.rXHXJXR.8 + 1 : > 2 h b z f 3 : + . .   ",
"8 % . . % @ : 2 s i d d p 2 ^ aXrXwXmXHX!.U.R.z.^.oXuXsXzXDXJXDXSXxXhXiXiX1XOX~.U.( P.E.rXVXHXLXU.1 : : > > 2 f n b d 2 @ % . . ",
"& + + % + @ 3 d k f f p p F eXrX8X8XVXU.I 3.y.'.2XiXxXCXCXJXJXDXDXCXxXhXhXiXiXpXOXU.t.Q.yXAXHXAXJX! : > : , , 2 d n b p > : # + ",
"# + @ @ : 5 k b d p p l l R.yXW.W.yXK.0 I u.@XiXhXlXxXSXDXDXJXKXKXDXCXlXiXiXiXiXpX1XT.T.aXHXPXHXLXQ.1 5 < : : > 3 b n z 3 > @ # ",
"@ @ @ @ 2 l l d i i k s ! MX8XI.yXQ.Z ! ^.2XiXiXgXcXCXDXJXKXKXLXLXJXZXxXcXpX4X4X4XpXOX( OXPXPXHXHXtXD 2 5 > @ 1 > i b b d 2 < : ",
": : @ > l l f p i d d i U.GX8XW.tX! I +X2X>X2X4XgXcXzXZXDXKXKXFXJXPXDXCXcXpX4X2X>X2XpXT.t.IXHXGXNXkXt.s 5 5 < 1 < > d n z p a 2 ",
": > > 5 l l p i f d f k !.BXwXyX!.S '.:X X>X>X4XhXgXxXDXFXFXDXSXSXDXZXCXcXpX2X>X:X:X2XoXt.yXHXNXnXtXi.K l s 4 4 < 4 i b n f a 3 ",
": > 2 l l d i p z z z b !.mX8XtXi.6.]. X X>X>X2X4XlXcXZXFXFXKXDXDXCXZXCXcXiX2X2X.X X>X+Xz.R.PXGXGXIX`.+.B h s 4 4 3 3 d  .n f f ",
"1 2 2 s d f f z z x x K E.wX8XMXT.q.^.>XB.XXXX+XiXxXcXzXJXJXJXFXZXZXZXCXpX:XXX.XXX.X.XB.Y.R.PXrXBXtXY.2. .n b h g s a i ]  .v c ",
"1 5 i p p f z x ` ' ' J ( 0XqXaX^.0.y.4XB.B.@X_.2XhXsXuXxXZXJXJXDXcXCXxXhX>X.X.XB.&X|.m.`.`.VXNXmXQ.8.$. .] n c d k g p v } { v ",
"2 5 3 i f z x ` ' ' ..$.W W.qXtX`.u.1.>X>Xm.D.9._.4XiX1XpXcXZXZXsX1XpXiX>XB.{.XX X>XM.w.'.OXtX9X8XU.1.$. .] n c c d h h x } %.` ",
"5 5 s p f z x ` ..o.-.4.D E ( ;X`.q.J N..Xm.V.V.m.4X4XoX3XuXzXzXuXoXpXiX>XV.B.B._..Xx.e.^.OXeX( / W 1.#. .] ] ] ] c z c v } %.{ ",
"> 5 d f z ` ..a.-.-.-.d.Z q y !.Y.@.C 9.|.|.M.M.9.{.4X:X:X4XpXuXpX1XpX4X{.x.D.|..XD.#.#.y.R.Q.Q q r 2.%.} { { ] [ ] v z v O.;.O.",
"5 i f z ] ..%...{ | %.4.G ; ; W r.H c  .M.x.x.w.m.m.4X].`.1X1X3X;X].uX2XB.V.M.x.M.x.*.$.U i.W q u y 9.&.%.O.{ { ]  .] x ] ;.>.O.",
"p p n 4. .` x ` } <.-.d.! ; O 8 I H J $.D.|..X}.B.N.:X3XOXuXgXpX3X3XsX1Xl._._.}.}.B.#.9.U I 8 - u t 0.d.%.%.%.} {  .[ ` ` s.;.O.",
"z z %...x [ } %.=.=.>.Z.^ e ; . 4 N +.w._..X X>X4X4XbXlX;XuX1X1X1X1XkXuX1XhX7X>X.X{.N.#.U 7 @ - y Q w.d.&.&.%.%.} } [ ` { s.O.>.",
"' o...' [ [ %.a.>.:.s.V.r.y y . @ B +.N.:X4X:X].>X].3XvXgXgXgXgXlXlXSXlX3X4X].%X>X>XB.5.H : $ y T ! N.x.M.d.;.;.%.} ..` O.s.O.>.",
"| o...| | } -.d.s.Z.&X[.T.r y 8 < B q.:XY.oXpX`.'. X].bXhXhXvXhXlXlXlX1XoX].4X4X:X'.4Xl.+.7 8 T 8 ^ '.7X$Xe.;.;.;.%.%.{ >.:.O.:.",
"o.| -.-.X.<.=.s.Z.*.Y jXY.Z 8 r j @.k.7.6.r.OXpXl.q.u.k.2X X2X].iX1Xl.z.^.oXuXY.6.r.r.'.2.K t e 8 z.iX1.2 #.v.>.:.=.} %.b.;.O.s.",
"X.X.o.a.-.-.,.:.M.C @ G ).Z 8 8 U 7.Y g A @ G ~ ).].l.Y q.Y  X@.l.7.1.).oXT.P 7 : m m I u.7.D 8 F '.I : 3 #.v.h.:.%.O.b.b.O.O.Z.",
"| X.-.,.,.,.:.b.S.V 4 : g A r G 7.1.4 + 7 I 7 6 Z ^ j.r.M N +XU g 7.).r.P 6 7 ~ ~ 4 @ , 5.y.^ F S A : s f e.c.v.:.;.d.Z.:.O.v.S.",
"X.X.<.,.f.:.s.Z.D.$.a 3 > > r ^ 7.Y : @ F I Z 6 . . 6 6 : m `.r.> 4 , # $ & S A U I < @ H k.6.I g > g h #.d.c.v.v.v.c.v.v.n.G.v.",
"X.X.-.f.b.s.c.S.S.9.h f g > 9 6.7.B 7 9 + + 8 6 # #   . . ~ oXoXm + .   & 6 6 6 + + 7 g B q.r.S @ M J V #.M.M.c.n.c.c.F.H.H.c.&.",
"o.o.f.b.b.v.S.S.S.B.V h a : 5 ~ 7.5.j < : G t.^ I : # # + j.SXlX~ + . # 9 ~ r.6.m m 4 N y.k.7.g : 3 J 4.e.D.S.G.G.G.A.=X=XS.&.O.",
"o.-.f.Z.c.n.G.S.C.C.e.J 2 > S ~ q._.k.1.7.U A S j g : , j `.DXSXz.g 4 > h k M M y.N.7.^.].Y.1.3.5 : J g.B.|.S.S.M.|.%X*X$Xv.O.=.",
"-.-.f.b.M.F.$XD.C.XXB.+.B g 6.M k.2X4X'.U 0.y.0.@.B 2.l.N.].SXxX`._.N.5.C 2.u.u.0.@.>XhXhX).B U ~ j u.g.B.}.c.v.x.{.7X<XF.:.=.b.",
"a.a.Z.S.S.F.$X|.|..X X2.+.M M 7 r.+XiX2X/.B J J V {..X|.N.N.SXxXl._.>X&XN.J J B +..X4XiXiXl.N g M 2.g.w.$XA.c.c.x.}.7X<XD.;.v.b.",
"Z.d.Z.|.}.}.&X&X&X.X>Xk.+.K g 7 I r.'.2X@XXX5.y. X|.w.|.V.l.xXcXl._.}.N.>XXX0.m.>X>X>X+Xy.U g a H 9.#.B.$XF.S.M.M.&X7X:XM.v.G.c.",
"&Xx.M.|.$X%X&X>X>X>X:X XU u.M g m 4 H 5.m.XXiXiX4X.Xm.k._.iXCXCX2X_.V._.2X4XlX4XXXN.0.J s j M g u.B.#.|.}.F.F.F.[.7X<X%XF.F.G.>.",
"7X}.A.|.&X&X%X<X4X,X3X4X/.0.H m m > 2 i $.{.2XiX4X+XJ h l.lXcXCXhXy.V #.4X4XiX4X X#.a 2 2 s M H 5.k.}.&X#X#X#XF.,X7X,X%X=X$Xv.O.",
"7X7X[.%X<X%X%X,X4XpXuXuXiX1.Y A m > 2 f 5.(.@X2X+XJ K '.l.pXKXCX2X/.@XN 2.2X2X>X Xq.N p 2 k M U 7._.4X,X#X=X#X%XjX6X6X5X=Xc.=.<.",
",X7X7X<X,X,X3X3X3XgXgXgX1XY.l.M j a i h u..X@XXX+.a /.@XY.pXxXSXpX/.xXl.s 0.@X>X>XB.J p h h M 7.2Xl.3X3X,X=X%X<XfXfX6X*XH.:.=.-.",
"#X,X7X7XjXgXpXpXjX3XjXjXhXR.S A j j g h w.{.(.$.h 2.U A H `.).`.z.m I 6.N.B 9.XX.XV.V C C h B M U `.gX3X<X,X7X3XbXbX5XH.n.h.=.-.",
"=X%X,X3XgXlXcXgXuXjXjXgXxXcXT.^ j M H h +.0.#.h B.2X> : @ , 0 0 @ @ + 8.hX^.C e.V.9.V J C N M 7.`.lXuXgX3X7XjX6XbX6X=XH.n.b.;.f.",
"7X%X%X6X3XfXbXfXzXzXcXCXcXxXKX6.4 h B h V 5.C q.hX3Xm @ + + + . . + @ Y.vXhXk.$.e.$.V V C h g uXSXcXgXlXjXjXgXbXjX,XH.H.c.h.h.G.",
"7X<X:X6XjXfXfXvXzXzXDXDXZXZXKXt.< N h h C Y V +X:X3X! : @ + . . + @ < `.pX3X2X#.#.$.C B H a 7 uXxXzXzXkXjXbXvXbX6X,X#XH.S.S.$X-X",
",X7X3X3XlXlXkXzXvXvXzXSXDXFXKX~.@ j k h N h 2._.).].r.< + + . . + : K +XoX].[.w.C C B g M : G DXSXzXzXvXfXvXvXvX6X5X=X#X*X<X5X=X",
"7X6X7XjXgXzXSXSXvXSXSXSXFXFXJXaX9 < j g N N U U I 6.r.! 9 6 8 8 Z F i.i.6.I Y @.V J N g m @ t.LXVXKXzXvXvXvXvXfXfX6X<X5X7X5X#XA.",
"<X7XjXgXzXzXSXSXSXSXSXDXDXJXLXLXD @ 9 4 j 1.7 : @ 6 ~ ~ Z Z t.t.F ! 6.6.m + : , 7.@.g 7 6 . Q JXLXAXFXDXSXvXkXzXfX6X7X7X<X#XA.#X",
",X4XjXgXkXvXFXFXSXSXDXDXFXLXLXQ . + & @ 7 8.S @ : : : @ @ @ @ @ @ @ : : : : : 4 l.U > , . e   T IXLXPXFXDXDXvXvXbXbXbX5X#X#X=X5X",
"%X,XjXjXfXzXkXvXzXDXSXDXKXLXQ   y e o & @ I U 3 B +.U ! 3.p.3.! r.i.6.I U @.g H 7.4 @ #   t t X t VXLXFXFXSXKXSXvXbX,X#X#X*X-X-X",
"[.[.%X7XbXbXkXSXSXZXKXLXeXQ O   Q E   . + : M N 2.J M F F ! ! ^ K F F A J 0.U N 4 @ + .   Q (   X e !.LXKXFXkXzXlX6X,X=X*X-X-XH.",
"C.D.{.>X7X6XkXFXLXLXnX) = X X   W ) o o % + @ j j j , + . + . . . . . + k d a 4 + + + 1 o ( P.  X X   Q yXLXJXDXvXjX7X7X<X*X$Xv.",
"C.(.B. X4XvXDXdXE.( u * = X     E P.- $ + + : 7 4 : @ + . . . .     # @ > 3 H 4 @ + + % & U.( ; X X     ; ( eXVXFXvXjX%X&X*XS.;.",
"V.(.@X@XOX~.) q = * * * X *   O E Q.W $ % + @ 9 I m 4 < 4 m S F S 7 4 M j U U , . . & & G yX( ;               y K.OXuX<X<X|.b.;.",
"/.@X+Xi.D - X = q X X X         e ( !.& % + + @ S 8.k.7.q.Y.T.T.^.^.y.l.^.r.7 + + . 8 . E.!.E ; X         X X X X o P T.]._.d.a.",
"L.) w - X X O O                 u / !.( . 6 + + # 6.'.^.8.I < < S 1.l.oX`.m . + @ , # y tXP.Q = X X         X X O     o w ! p.L.",
"q q = = * X X                   u / / !.e + 1 # + 6 I A 7 , + @ > 2 0 I Z . + + : 9 # E.W./ E q X X                 * = = = w D ",
"= = = * X                     X E / / P.U.$ 1 1 @ + # + @ + % & % % . . . + @ 1 8 + W !./ / / _ X               o X   O O X * = ",
"X X                     X   X * P.P.I.W.E.K.+ 1 1 + . + % + % + . . + . + @ @ 8 + t UXQ.E.P.W.Q X                           X * ",
"* X X               O       X ; W.qX!.BXrX!.) + % & $ . . + + . + . . # + # 6 . y Q.eXVXmX!.rXW X X                 .           ",
"o o                       X * u U.rXqXVXHXtX;Xt.&   $ $ o + # & # . . + # + . r !.dXIXPXVXrXqX/ * X X X                 . .     ",
"      X X X             X * = q / W.BXdXPXAXFXQ.( r . . . o & . $ o o . . . t U.E.PXLXPXNXrXP.W = * X         X X             X ",
"      X X X X           X = = q / P.rXtXAXKXUX  8 ( D % o   . o . . X o - T U.e   Q.LXVXdXqX( E = = X       X X X       .     X "
};
