/* XPM */
static char *out[] = {
/* columns rows colors chars-per-pixel */
"64 64 18 1 ",
"  c black",
". c gray11",
"X c #202020",
"o c #282828",
"O c gray19",
"+ c gray22",
"@ c gray25",
"# c #484848",
"$ c gray33",
"% c #646464",
"& c gray44",
"* c #7C7C7C",
"= c gray55",
"- c #989898",
"; c gray66",
": c #B4B4B4",
"> c #C0C0C0",
", c #D0D0D0",
/* pixels */
"OOOOOOOOOOOOOOOOOOOOOOOOOOOOOOOOOOOOOOOOOOOOOOOOOOOOOOOOOOOOOOOO",
"OO$***********%$$Oo..OOOOOOOOOOOOOOOO#=>,;--=*&&***************O",
"O$;>>>>>>>>>>>>>>;;=%$OOOOooo.. OOOO+%:,>>>>>>>>>>>>>>>>>>:>>>> ",
"O*>>---------->>>>>>>>>>>>>>>>>>>;=o+=>>-&==&&%%*--------=*%*&* ",
"O*>-=*=*=%****==;;>>>>>>>>>>>>>>;=@ @*>>*%&&%$$$%==*&&&&*=&*&** ",
"O*>=%*%*%*$*%%%===*%;;=;=;-=*==*=%o @*:-***&&*%%&&%&&$$%%=*%*&* ",
"O%;%=*=*=%****=%%%%=*%*%==%*=%==%=o @%:-&=***%*&=&%*&&&&*=&*&=% ",
"O%;=%*%*%*$*%%%%*%*====*%%=%=%%*%%o ++$%&&$%=*%%&&%&&$$%%%=%$%$ ",
"O$;=*%=%=%$*%*%==%=*=%*==*%%*%=%%*o X +@$%%%&=**%$%=%$$%&&%%$&@ ",
"O$;%=*%*%%=*=%=%%=%*%%%%=%=%%%%*%=o XO  +@@%=*%%%$$%&*&*&%%*-%o ",
"Oo%$@OOO@@$$%%%=%%*%=*%=**=%%%=%%=o oOO    @%&%%*=%@@#$%%&=*$oX ",
"OO                $$%%%%%%%%%%%%%$o o*%$+    XOOOOOOOO+OO+@#oX O",
"OOOOOOOOOOO..oOOO                   oOOOOOO                .X OO",
"OO=;>>>>>>>>=$oOOOO................$$$$$$$$$$$$$$$$$OOOOO    OOO",
"O=>>>>>>>>>>>=$O@$$$$$$$$$$$$$%%**=--;;;;;;-;;;;;;;$OOOOOOOOOOOO",
"O->;%=%===%==$  $;;;;;;;;;;;;;;;>>>,,,,,,,,,,,>>>>*@ =>>=$OOOOOO",
"O-;%**=%=%==%@  $;>,,,,,,>,,>,,,,,,>>>;-;;;=;;-;;-$O >==>>>>-OOO",
"O-;=%=%=%=%%=@  $;>-;;;;;=;;=;;;--=**%%=%=%%%=%=%=$O >-------@OO",
"O-;%==*%%%%=%@  @;>-%%%%%%=%==*%*===*$*%==*%=%===%$O -=--*@*%@ O",
"O-;%=*%%$$=%*@  o;>;%*%=%=%*=%%*==%*%*%%$%**%=%=%=$O OO  @@@@@ O",
"O-;=*%%%$$%%%@  O->>==%%%%$%%=%*%=*$%%=%%=%$$%$*%*$O OOO       O",
"O-;%%=%*%**$%@  O=>>%%=%=%%=%$$**%=%=*%=%%$%%%=%$$$O OOOO$=>>=OO",
"O-;%=%$%=%%$=@  O%>--%%=%=$%%*$*%*$=%%$%%%%=%$%*$$$O O->>>>==> O",
"O-;=%=%=%%%=%O  O%*$$$$$$$=%==%%$%%%$%%=%=%%=%%%%*$O @-------> O",
"O-;%%%*%=$=%*O  OO         $$$%$$$$$$$$$$$$$$$$$$$@O @%*@*--=- O",
"O-;%%=**=%%*%O  OO         oOOOOOOOOOOOOOOOOOOOOOO.. @@@@@O    O",
"O-;=%%$*%=%%$O  OOOOOOOOOO                          OOOOOOOOOOOO",
" -;%*%=**%*%@O  OOOOO$$&->>>>>>>OO>>>>>>>>>>>>>>>>>>>>>>>>>>>>>>",
" -;*%$*%%$$*@O  $>>>>>>>>--=---> O>>>>;:>>>>>:;>>>&->>=*;*&-%=%%",
" -;=%*%=%$$*@O  =--------==&&*:- O>>;-:-;:-->--->&--:==-*&==%=%=",
" -;=*%=%%%*%OO  ==*&%%&*=*====** O>>====&&====*===%===&&--%%%%==",
" -;%=*%=%=%=OO  *=*&=*&=*==%*==% O,;*=======*=%%%%-*%%=-*&=%==%%",
" -;**=$%*%%%OO  %-%&&%%&=*==&*&& O--=%**=*%**&%*==&&==*%=-%%%=%=",
" -;==%=%$$*%OO  @=&%%&&%===%%=-& O-&%&%*==*%$%*=%%--&%=-%&=%===&",
" -;=%=%%$$%%OO  @**=*%#$**=*=--$ O$OOOOOOOOOOOOOOOOOOOOOOOOOOOO.",
" -;%%%%*%%%=OO  O%$$@+@#$$$$$$$@ O                              ",
"O-;%=$$%%=%$OO  O@OOoX.          O                              ",
"O-;=%=*$%%%%OO  OO              $=>>>:-&%%#+#OOOOOOOOOOOOOOOOOOO",
"O-;%=%%%=%=%OO  OO      OOOOOOOO=>>>>>>>>>>>>>>>>>>;;-=%%%%%%%%%",
"O-;%%=*$%%%*OO  OOOOO*>>>>;=$OOO>>>-%=&=;;>>>>>>>>>>>>>>>>>:-=% ",
"O-;==%%=%**%Oo  OOOO*>>;===%$$OO>,&%=&%%%*=%%&==%%==&%*=======$ ",
"O-;$%**%***@Oo  OO**>;==*=$%%=OO>>-&%%&&*=%&=%$%=%$%=&%==*=*=%$ ",
"O-;%=%*%%$@Oo.  O*>>;=%$%**%==O >>=&%%&=*%&&&=*=%=*=&**=-*%=%&@ ",
"O-;=%=*%@OO.    *>>;;=%*==%*$$o >>=%%%=*%&&$%=&*==*&=%%**==*&@X ",
"O-;%$%%@Oo.  %->>>;=**=%%*%**%O >>&$%&=*%%%$%&=%=%=%=&&&%%%%#OX ",
"O-;%%==Oo.   ->>;-*%*$=%$$%=$%O >>&&=&%*=&%&=&%***%&**&$#$$#oX. ",
"O-;=%%%O.   O>-==%%=*%=%=$%=*%  >>&=&=*%%&&%%*%#$@@OOOOOOoXoo   ",
"O-;%*%%O.  OO@-*%%%%%=*%*=%=%@  >>=&%$@@@+OOOOOOOOOOoo..      OO",
"O-;=%$@O  OOOO@*=%==**$=$$$@@o  >;$@+OOOOOOOOXX.. .    O$;;-=*%O",
"O-;%*@O.  :;%OO@@@@@@@@@@@@ooO  ;&+O.. .               #=>;**%$ ",
"O-;*%@O.  -%% OO                O               OOOOOO%->-=&*$+ ",
"O--*@OO   &%+ OOO               O        OOOO,>----=&O&>,=*=&@o ",
"O--@OO.  OO   OOOOOO@$$%%%%%%%%%%%%%%$OOOOOOO:=%%%$$$ %:>*&=*#o ",
"O-=OO. %%%%%%%%%%%%%=-;>>>>>>>>>>>>>>% OOOOOOO        %;>=**&#o ",
"O=O..  %%>->>>>>>>>>>>>>;;;;;;;;;;;>>% %===&#ooXXOOOOO%==%%$#+  ",
"OO     $$==*%=%=%=%%===%===%===%=%=->% =:>>>;=&$+o@OOOO        O",
"O=>>=$O$$%==%*=**%%=$%%*%$%*$%%*%=%->% -;**;>,:======&%%$#+@+OOO",
"O->>-% O@*%*=$%==%=%$*=%**=%=$=$*%=->% -;==-*=>,>>>>>>>>:;-===%O",
"O>-->: oo$*%$==$*%=%*$*$=$*$%=*$%=%>>$ -;*&%&*%&***&=*&*=->,>;% ",
"O,==>> ooO$%=%==%=%%****%*=*$==*%%%>;O --===&%&*&&%$*%%&***==&@ ",
"O>---- ..oO@@@@@@@$$%%%=$%%=%%%=%=%-;  =-*&$&**=&%&%%%*****==%o ",
"O;=--=    ooooooooOOOO@@@O@@@O@@@$$%-  =$@@@@@@@@@@@@@@@@@@@@+o ",
"O=*==% OO       .....oooOoooOoooO@@$%  %o...................... ",
"OO     OO                              O                        "
};
