/* XPM */
static char *out[] = {
/* columns rows colors chars-per-pixel */
"64 64 22 1 ",
"  c black",
". c gray11",
"X c #202020",
"o c #282828",
"O c #2C2C2C",
"+ c gray19",
"@ c #343434",
"# c gray22",
"$ c gray25",
"% c #484848",
"& c #4C4C4C",
"* c gray33",
"= c gray36",
"- c #646464",
"; c gray44",
": c #7C7C7C",
"> c gray55",
", c #989898",
"< c gray66",
"1 c #B4B4B4",
"2 c #C0C0C0",
"3 c #D0D0D0",
/* pixels */
"%*%,<1233333333333333333333321<,%*%,<1233333333333333333333321<,",
"%*%:222222222222111121212121212>%*%:222222222222111121212121212>",
"%*%:221222112111111112121211121>%*%:221222112111111112121211121>",
"%*%:1121122111<11111212121111<1>%*%:1121122111<11111212121111<1>",
"%*%:121111211<1<211211121212<1<>%*%:121111211<1<211211121212<1<>",
"%*%:121111211<1<211211121212<1<>%*%:121111211<1<211211121212<1<>",
"%*%:11211111<1<2121<1111<12<1<<>%*%:11211111<1<2121<1111<12<1<<>",
"%*%:1112111<1<1<2<2<<1<1<<<<<<1>%*%:1112111<1<1<2<2<<1<1<<<<<<1>",
"%*%:11<1<<<<<1<1<<<<<<1<2<<11<<>%*%:11<1<<<<<1<1<<<<<<1<2<<11<<>",
"%*%:<,1,<<<<,<1<<,<1<1,<<<,<<,<>%*%:<,1,<<<<,<1<<,<1<1,<<<,<<,<>",
"%*%:<>,<,><,<,<,,<,,<,<<<,<>,<,>%*%:<>,<,><,<,<,,<,,<,<<<,<>,<,>",
"%*%:>>>,>,><><,><,>,>,>,><>,><,>%*%:>>>,>,><><,><,>,>,>,><>,><,>",
"%*%:,>,>,,,>,>><,,,>,>,>,>,>,>>>%*%:,>,>,,,>,>><,,,>,>,>,>,>,>>>",
"%*%-----------------------------%*%-----------------------------",
"%%#OOOOOOO                       .                     OOOOOOOO#",
"%%%%%%%%%% . . . .. . . . . . . .  . . . .. . . . . . .%%%%%%%%%",
"**********  .  .    .  .  .  .   .  .   .   .  .  .  . *********",
"3333333333 .  .  .   .   .  .  .   . . .  .   . .  .   333333333",
"1112121212.  .    . .  .  .   .  .   .  .   .    .   . 222222111",
"1111212121    . .    .  . #,<<<<<<<<<>O. . .  .  . .   221111111",
"1112121211 .   .  .   . :<<$         =<<- .  . .    . .1221<1111",
"21<1111<12  . .  . . .$<>  . . . . .  . ><> .   . .    1111<2122",
"<2<<1<1<<< .    .   . <, .    .   .  . . <<%  .    . . 111<1<2<<",
"1121112121  . .   . #<@ . . .   .   .   .  <>  . .    .11211<211",
"21<1111<12 .   .   %< .  :<   .  . . . .  . ,,    . .  1111<2122",
"<2<<1<1<<<  . .  .,<.  211< .  .    . :% . . <; .    . 111<1<2<<",
"<<<<<1<2<< .   . =<#  .<111  .   . -11<.   .  1@ . .   <<<<<1<<<",
",<1<1,<<<,  .    <. .  1111 .  .  .<<11 . . . X1.   . .<<<<1<<,,",
"<,,<,<<<,< .  . >>   ..111:  .  .  <11<  .   . ,: .    ,><,<,,<<",
",>,>,>,><>  .  ., .   *<11*.   .  .<111.   .  . 1  . . >,><,><,,",
",,>,>,>,>, .  .&,  . .;<11o  .   .o<<<>  .  .   ,*    .,,,>><,,,",
"----------  .  >; .   ><<1  .  .  =<<<- . .   . +<. .  ---------",
"OOOOOOOOOO .  ., .  . <<11..X><  .=<<1&  .  .  . <   . OOOOOOOOO",
"%%%%%%%%%%  .  <   .  <<11<1<<< . ><<<. .  .  .  < .   %%%%%%%%%",
"********** .  .< .   .<<111111<   <<<< .=1<  .  .<  . .*********",
"%*%,<12333   .O<   .  <111111,:. .,<,<1111<   .  <.    3333321<,",
"%*%:222222 .  @< .  . <1111<1<=   <<<<1111:.   . 1. . .12121212>",
"%*%:221222  . .<  .  &<11,111<# . <<111111% .   .< . . 21211121>",
"%*%:112112.  . <   . ;,o >1<<<   #<<<<1111.  . . <     121111<1>",
"%*%:121111 .   <. .    . <<<<< . -<1%&111, .   . < . . 21212<1<>",
"%*%:112111   . <.   . .  <<<<<  .@   :111;  . . $<  .  1<12<1<<>",
"%*%:111211 .   ;:. .    .,<<<,.   . .<111# .    <* .  .1<<<<<<1>",
"%*%:11<1<<  . . <    . . <<<<,  .    1111 .  . .,.   . <2<<11<<>",
"%*%:<,1,<< .   .<*. .   .<11<: .  . .<<11   . .>:  .   <<<,<<,<>",
"%*%:<>,<,>  .   .,    . &11<<=   .   1111. .  O< .   . <<,<>,<,>",
"%*%:>>>,>, . .   ;<X .  ><1<: . .  ..1111    .,#.  . . ,><>,><,>",
"%*%:,>,>,,    . . ,<  . ,= .   .    &111< . .>:  .     >,>,>,>>>",
"%*%------- . . .   #<  .  .  .   . .:11% .  ,< .   . . ---------",
"%*%#OOOOOO  .   . . <;  .   .  .  . >:. .  #<@.  .  .  OOOOOOOO#",
"%%%%%%%%%%.   .      >, . .   .     .  .  ;<+  .  .   .%%%%%%%%%",
"**********  .  . . .  =<%   .   . .  .  ><< . . .   .  *********",
"3333333333 .  .     .   ><-  . .   . .><> .  .   . .  .333333333",
"1112121212  .   . .  . . .-1<,>;=;>1,<; .  .   .  .    222222111",
"1111212121 .  .  .  .       . #=;;*$ .   .  . . .   . .221111111",
"1112121211  .   .    . . .   .     .  . .  .   .  .  . 1221<1111",
"1121112121 .  .   .     .  .   . .   .    .  .   .    .11211<211",
"21<1111<12  .   .  . .   .  . .   .   . .   .  .   . . 1111<2122",
"<2<<1<1<<< .  .  .  . .   .    .   . .    .   .  .  .  111<1<2<<",
"<<<<<1<2<<  .  .  .    . .  . . . .    . .  .   .  .   <<<<<1<<<",
",<1<1,<<<,<<,<>%*%:<,1,<<<<,<1<<,<1<1,<<<,<<,<>%*%:<,1,<<<<1<<,,",
"<,,<,<<<,<>,<,>%*%:<>,<,><,<,<,,<,,<,<<<,<>,<,>%*%:<>,<,><,<,,<<",
",>,>,>,><>,><,>%*%:>>>,>,><><,><,>,>,>,><>,><,>%*%:>>>,>,><,><,,",
",,>,>,>,>,>,>>>%*%:,>,>,,,>,>><,,,>,>,>,>,>,>>>%*%:,>,>,,,>><,,,",
"---------------%*%-----------------------------%*%--------------"
};
