/* XPM */
static char *out[] = {
/* columns rows colors chars-per-pixel */
"64 64 21 1 ",
"  c black",
". c gray11",
"X c #202020",
"o c #282828",
"O c #2C2C2C",
"+ c gray19",
"@ c #343434",
"# c gray22",
"$ c gray25",
"% c #484848",
"& c #4C4C4C",
"* c gray33",
"= c gray36",
"- c #646464",
"; c gray44",
": c #7C7C7C",
"> c gray55",
", c #989898",
"< c gray66",
"1 c #B4B4B4",
"2 c #C0C0C0",
/* pixels */
"OOOOOOOOOOOOOOOOOOOOOOOOOOOOOOOOOOOOOOOOOOOOOOOOOOOOOOOOOOOOOOOO",
"OOOOOOOOOOX::::::::::::::::  %-:;;;;;;::-%O XXXXXXXXXXOOOOOOOOOO",
"XXXXXXXX OX:;;;:;;;;;;:;;;%  %:;%-%%%%%%-O   %%%%%%%#%#XXXXXXXXX",
"%%%%%%%% OX:;:;;;;:;;::;;%#  -:--%%-%-%-%O   %:::::::;-%%%%%%%%%",
":::::-#% OX:;----%----*--#O  %:-%%----%%%O   %:::::;::::::::::::",
"%%;*-%#% XX>:*------*-%--%O  X-%--%-%%-%OO   %:;-%-%---%%-%%%-%-",
"-:;---#O XX>;-%-*-%***%*-%O  X#%%-%%-%--X    %:;%-%*%%%-%%-%----",
"*:;;%*#O  X>;%*%---%#%*-%#O  XX%---%%--%X    %:;-%*#-*#%-:--%*:-",
"%;%--%#O  X::-*-%-%*%*%%-%O  XOX#XXXX        #::%-%#*#**-%%%*--*",
"--;%%*#O                         .                     :%*%%*%*%",
"*%***%XX   . . . .. . . . . . . .  . . . .. . . . . . .*%#%-%-%%",
"%%%%%OXX    .  .    .  .  .  .   .  .   .   .  .  .  . OOO######",
"####OX     .  .  .   .   .  .  .   . . .  .   . .  .   OOOOOOOOO",
"XXXOO     .  .    . .  .  .   .  .   .  .   .    .   . XXXXXXXXX",
"              . .    .  . #,<<<<<<<<<>O. . .  .  . .            ",
"           .   .  .   . :<<$         =<<- .  . .    . .XXXXXXXXX",
"*********   . .  . . .$<>  . . . . .  . ><> .   . .    *********",
"::::::;;%  .    .   . <, .    .   .  . . <<%  .    . . :::::::::",
"-*%-*--%;   . .   . #<@ . . .   .   .   .  <>  . .    .;;;;;;;;;",
"-%-*-%%%%  .   .   %< .  :<   .  . . . .  . ,,    . .  *-*-%*%**",
"-**-*-*%O   . .  .,<.  211< .  .    . :% . . <; .    . =&=%*&#%%",
"-%-*-**%O  .   . =<#  .<111  .   . -11<.   .  1@ . .   =-=-=*%**",
"%-##%*-%O   .    <. .  1111 .  .  .<<11 . . . X1.   . .*%*%*$$%%",
"%%##%-*#X  .  . >>   ..111:  .  .  <11<  .   . ,: .    %-%-%$$%*",
"%*--**%#X   .  ., .   *<11*.   .  .<111.   .  . 1  . . *%*%%-%-%",
"*-**-*%O   .  .&,  . .;<11o  .   .o<<<>  .  .   ,*    .OOO##%#%%",
"#####OX     .  >; .   ><<1  .  .  =<<<- . .   . +<. .  XXXXXXOOO",
"OXX        .  ., .  . <<11..X><  .=<<1&  .  .  . <   .         X",
"      XXXX  .  <   .  <<11<1<<< . ><<<. .  .  .  < .            ",
"X##%%*%%%% .  .< .   .<<111111<   <<<< .=1<  .  .<  . .OOOOOO   ",
"#%;:::;;;-   .O<   .  <111111,:. .,<,<1111<   .  <.    %#OXXXXXO",
"#;;;:;--*- .  @< .  . <1111<1<=   <<<<1111:.   . 1. . .::::::* O",
"#:;--%-**%  . .<  .  &<11,111<# . <<111111% .   .< . . -**-*%# O",
"#:;*%-%**-.  . <   . ;,o >1<<<   #<<<<1111.  . . <     *--*-*# X",
"#:-*-*--#- .   <. .    . <<<<< . -<1%&111, .   . < . . =%%%*-# X",
"#:;-**-*-%   . <.   . .  <<<<<  .@   :111;  . . $<  .  %%*%%-O X",
"#:;%--*-%* .   ;:. .    .,<<<,.   . .<111# .    <* .  .*=-*%*O  ",
"#:;--***-*  . . <    . . <<<<,  .    1111 .  . .,.   . OOOOOOO  ",
"#:;*--**#* .   .<*. .   .<11<: .  . .<<11   . .>:  .            ",
"#:;%*=-%-%  .   .,    . &11<<=   .   1111. .  O< .   .          ",
"#:;--*=-=- . .   ;<X .  ><1<: . .  ..1111    .,#.  . . ####### O",
"#:;%=-*-*%    . . ,<  . ,= .   .    &111< . .>:  .     ::::::# O",
"#;;--*-*-O . . .   #<  .  .  .   . .:11% .  ,< .   . . >::;;*# X",
"#;;*-%--%O  .   . . <;  .   .  .  . >:. .  #<@.  .  .  :;::;#O X",
"#:;-%-%%%O.   .      >, . .   .     .  .  ;<+  .  .   .-*-=-%O  ",
"X:%%-%%%%O  .  . . .  =<%   .   . .  .  ><< . . .   .  *---=%O  ",
"X;---%OOO  .  .     .   ><-  . .   . .><> .  .   . .  .-=-*-%O  ",
"X###OOOOO   .   . .  . . .-1<,>;=;>1,<; .  .   .  .    -#*%*%O  ",
"X    OOOO  .  .  .  .       . #=;;*$ .   .  . . .   . .%-%##%O  ",
"OOOX        .   .    . . .   .     .  . .  .   .  .  . #%*##%O  ",
"XXXXXXX    .  .   .     .  .   . .   .    .  .   .    .*%%%*%O  ",
"X#----*%#X  .   .  . .   .  . .   .   . .   .  .   . . ######O  ",
"X-:::::::- .  .  .  . .   .    .   . .    .   .  .  .  OOOOOOX  ",
"X-:--%:;::  .  .  .    . .  . . . .    . .  .   .  .   XXXXXX  X",
"X-:---;;%-:::::::::::::;;::-----%XOX                          XX",
"X-:-=%#*-*%#-%-%-%--%-*--;::::;:# XOXXX                     XXXO",
"X-;--=%%=*%*-%%-*#%-#*%*-%-*---##  OX-::-#XXXOOOXXXXXXXXXXXXOOOO",
"X-:-%=##*-%--*%#*#%#*%-%**-**--#O  XX:--::::;OOX*:::::::;:;*#XXO",
"X-%############################OX   X:;;;;;;;#O#:--=%=%=*-%-:* O",
"X%#XXXXXXXXXXXXXXXXXXXXXXXXXXXXXX   X;-;;*;*%#X;-%=%===%-%-%-O O",
"X                                   X X OO####X:-**--*=-==-%%O O",
"OX                                   OOX       OOOOOOOOOOOOOOO O",
"OOOOXXXXXXXX                         OOOXX     OO              O",
"################################################################"
};
