/* XPM */
static char *out[] = {
/* columns rows colors chars-per-pixel */
"64 64 14 1 ",
"  c #202020",
". c #282828",
"X c #2C2C2C",
"o c gray22",
"O c #484848",
"+ c gray33",
"@ c #646464",
"# c gray44",
"$ c #7C7C7C",
"% c gray55",
"& c #989898",
"* c gray66",
"= c #B4B4B4",
"- c #C0C0C0",
/* pixels */
" X #$%&----**-**--&*&*=*&=*&-&$# X &**&*&*&-*-&**-**-&**&-**&&&&",
" X +&@@=##&@&#=@#%%@&=&@@=@%=@&@ X +$&&$@*$&$&&*@%$%&@&*$%*@&*$@",
" X +O@+++#++++++#+#+@&++####%@$@ ...@@O@@@@@O#@O@O@$#OO@#$O$O$O@",
" X +O@+O+#+++#++##+++#+#++O+++%@ X +@++@@&@@%@@%@@@%@%@@@@+@@$+@",
" X +O++@O+$@OOO+@++++O++++O+#++@ . +@@+@+++@@++@+@+@+@+@@++@+@+@",
" X ++@#O@O@+@O+++#+O+OO+O#++#+#@ . @@++@+@+O@+@@++@++@@+@++@+++@",
" X +++++++OOOOOOO++o+O++OOO#+++@ ..+++@+@+@@++@+@++OOO+o+O+@@O+@",
" X +oo+O+o+O+++OOooO++O++#XOOOXO...++@OOOOO+@+OOO+++@+@OOOOOOO+@",
" X O+OO+o+OOoo++oo++o+Xo+o+o++XO...+o+O@o+oOoO@o+OOo+O@oOo+o@+o@",
" X +X+XX+OOoOoOo+OoO+o++oX+OOOOX...ooo@OO@O+OOoo@o+o+oO+oOOo+oo@",
" X +XX+OO+X++OOOO++O+OOOOX+OO+OX...+@+o++OOOO+OOo+O+@o+ooo@Oo++@",
" X +oO++o+oo+ooOoOOOOOOOOO+o+XXX...ooOOOoOOO+oo+o+@oOo++o+o+o+o@",
" X oo+OO+o+OO+XXooOo+Ooo+oo++OXO.X.+o+++oo+ooo+o+o+O+Ooo+o++ooo@",
" X OOoOOOOO+OO+OO+O+O+OOOOOOOOOO.X OOOoOoOOOoOOOOOOOOOOOOOOOOOOO",
"                                                                ",
"                                                                ",
"XXXXXXXXXXXXXXXXXXXXXXXXXXXXXXXXXXXXXXXXXXXXXXXXXXXXXXXXXXXXXXXX",
"&%%%%%%%%%%%%%# X #%%%%%%%%%%%%%%%%%%%%%%%%%%%# X #$%%%%%%%%%%%&",
"&$$@&@$$@$@$@$$ X #%@$@$@&@@$%$@&@$@@@%@@@&&@%@XX +@@#@@#@#@#@@@",
"#@#$##@@@#@@#$$.X OO@O@O@OO@O@@%@@O@@O@@O@O@##@XX +#@@##@#@@@#@@",
"#@#@O@@#@@@#@@@ X #+++@++@+@+@X@X@+@@@+@X++@++@ X +@@@@@X@@#@@X@",
"#+OO##O@+@O@O@+ X +@+++@@+@+@XX@OXO@OO@OOO@OO@@ X +@+o+@+@+++X+X",
"#o+@OO@OO@OO@OO X OX+OOX@@O@OX@+@+OOO+OOO+@@O@O X +o+o+++oX++o++",
"++@+ooOooOOO++O X +@+OX++OX+OoOXO+OOXXOO+XOOo@O X Oo+XXoXX+++o+X",
"Oo+o+@oo++ooooO X OXO++++O+O+OOO+XXXoO+OXXX+oO@ X.++@O+++@X@Xo+X",
"@oo@OO+OoOo+++O X X+oo+XX+XXXXo+OXO+OO+XOOOO+OO ..+X+.O+.O+@+o+X",
"ooOoO+oO+Ooo+o+oXoOo+++XOOOOXXooXO+O+XOXXXX+o+O ..OOXOoXoOXXOXOO",
"+Oo+O+O+o+O+o+o X ++o+OOOXOOOOOOXXXOo+XXOXOO+oo ..XOO.OOOOXOOXXX",
"o..o.oOo.Oo+o+o X Xo@Oo+O+XXXXOXOOXOX+OOOXOXooo ..OXOXXOXOXOXXOO",
"+Oo.O.o.+..o+oo X Xo+XO.X+X.XXXXXXXOXX.XO.XOOoo ..OXX.XXXOOXXXXO",
"XXooooXoooXXoXo X +o..+o..OO..O..O..OO.XOXXXOoo ....O..XXO..OXOO",
"oOoOoooOoOoOooO X OOOXXXOXOXXXOOXOXXOXXOOXOXXOO .....X......OO.O",
"                                                 .              ",
"                                                 .              ",
"XXXXXXXXXXXXXXXXXXXXXXXXXXXXXXXX X X.....XXXXXXXXXXXXXXXXXXXXXXX",
" ..#$%%@%%@@%@@%@%%@%@%@%@%@@%$# X #%@%@%@@%@%@@@$%@@$%@$$%@@$%#",
" ..+&##@+#@#&&##@@%@+#@#&@##&@&@...+%@@@@@@@@$@@@%%@@%@@@%@@$%%@",
" ..+##%####%#+#%++#++###+#+++##@...#@#@@&@@@@@@#@@###@@@#@#%$@#@",
" ..+@@++++#++#+#+++++#++++++#+++...+@+OOO+O@O@+@OOO@O++++@O+O+@@",
" X.+OOOoOoooOo+oOOOoo+OOOOO++++o...+Oo@O++o+OO@OO+O+@+O@O+O@O+$@",
" X.+oooOOOOOOO#+O#oOO#OoOooo+o+o...+++o@Oo+oo+@o+++@oO+++O+++++@",
" X.+OOO+O++ooOo+OOoOO+OOO#OOOOOO...+ooO@OO@OO+oo@oOoooOooOo+OoO@",
" X.+oOoOOoOooOoOoooOoOo+Oo++OO+o...ooOoo+O++oOOOOooooo+o+oO+Ooo@",
" X.+oOOOOOOo+OoooOoooOOoOo+oOOoo...+o+o+OOOOoOoO+O+OO+o+ooO+ooo@",
" X.oo+oo++OOooOooOoooooooooOo+oO...+OooOOO+OoO+OO+Oo+OOOOo++o+++",
" X.+oooO.OOoo.OO+OOoo.+Oo+oOO.oO.X.OO.O+.O+..+.ooooooOo+oooOoOo@",
" X.+ooOoOoOoooOoOooooooooooooOoo.X oo+oo.+oo.+.oo.oo.+oOoO...o.@",
" X OooOOOooOOOooOOooOoOoooOoooOO.X OoooOoOooooOoooooooOOOoooOOOO",
" X                                                              ",
"                                                                ",
"XXXXXXXXXXXXXXXXX.......XXXXXXXXXXXXXXXXXXXXXXXXXXXXXXXXXXXXXXXX",
"$$$%@@%%@$%$$$# X $$%$$$$$$#$%$$$$$$$$$$$$%%%$# X %$$$$$%%$%$$$%",
"+#++++++++$##%@ X ++$@$@$@@$@+@@#@++$@$#@&@@#@@ X ++@@++@+@++@+@",
"O+++@OO$X@%@OO@ X +$@@$%@#+@#$O#O#++#@#@#OO$+O$ X +++o+oo@#@o@oo",
"ooOOXO@O@OO@OOO X +@@#+XOX+X#@@$Xo+@XO++$X+@+O@ X OO#.OOOO.OoOO@",
"oX+OO+o+oO@Ooo@ X @O@o+X#ooXOooX++XX+XX++XXX+OO X.O.+++.+.O+..O+",
"@ooo@#oXo@XO@$O X.+o+o++OooO@O@OoooX+OooXO@ooO@ X +..O#.OO+.+.+.",
"oO@OoOoOOOooOoo X ooXoXXXXoXoooXooXXOoOXO+OX++X X O..OO.O.O.OOO+",
"O@OoooOOOoooooO X +o+OoOo++ooooOXXOXXOooXXXXOO@ X +.+...O..XO.++",
"ooOoOoOoOOoOOO@ X oo+ooXXXOXXXXXXXXXXX+oO+ooo+o X O..O+OO.O.OOO+",
"OoOooOOoOOOooOO X XoOoOoXOXOOo+X+oOOOO+o+ooo+oo X .OO.oOoOOoOooo",
"oOOooooooOoOOOO X XXXOo+OOXOXXOXXXXooXooXo+oo+o X Ooo.o.OooOoOOo",
"ooooOoOOoooOooO X +ooooooOoOO+OOXXXXoXoXooooooo X ...Oo...oo.Ooo",
"OOOOOOOOOOOOOOO X OOOOOOOOOOOOOOOOOOOOOOOOOOOOO X OOOOOOOOOOOOOO"
};
