/* XPM */
static char *out[] = {
/* columns rows colors chars-per-pixel */
"64 64 30 1 ",
"  c black",
". c #28200C",
"X c #382C14",
"o c #202020",
"O c #2C2C2C",
"+ c gray19",
"@ c #343434",
"# c gray22",
"$ c #543C1C",
"% c #404000",
"& c #585400",
"* c #706C00",
"= c #6C4824",
"- c #744C28",
"; c gray25",
": c #484848",
"> c gray33",
", c gray36",
"< c #646464",
"1 c #80502C",
"2 c #905C34",
"3 c #9C6038",
"4 c #A0643C",
"5 c #A86840",
"6 c #848400",
"7 c #9C9C00",
"8 c #B4AC00",
"9 c #CCC400",
"0 c #E4D800",
"q c #FCF400",
/* pixels */
"################################################################",
">#>:::::>::::::>:#:::::::>>>>>>:::::::::>>>>>>>::::###::>>:::::#",
"#55333333333-::>55333333333333333333-:#>5555444444333332222111-:",
":52--3$-3$2-XO:>51$1$1$1$1=1=1$1$12-$O:#3-2-2--2$2$2-2$--$2=2-$O",
":3-$-$-=$-$$XO:>31$$-$$--$=--$=-$-=$XO:>3--$X-$$$-$$--$-$$-X-$XO",
":3$--$=--$-X.O:>3$1-$-$-$-$-$$$-$=$$XO::3$-X$-X-$-$-$-X-=$-$-$.O",
":2-$$=$-$$-$.O:>11$-$$=-$*7999987899999*1$-$-$X-$$--$-$--$-X-$.O",
":1$--$-=$=$X.O::12$-$-$77*6899870000000877-X$-$$$$$-$-X-$$-$-$.O",
":1-$$X$$X$$$.O#>==$$.**77***886999999*&*77**$$.$.$X$.$.$X.$$$$.O",
":$XXX........O#:$XX*77*&&606*8688880q906&&*77*XXXXXXXXXXXXXX...O",
"::OOOOOOOOoooO#>:O&6770000096*77777q799700*776&OOOOOoooooOOOOOOO",
">####::::#####:#:&&&&*00qq667*66666&766qq80*&&&&,>>::;#;>#>:::>#",
"533311111111111-&77*000966*9%******&99*669700*77&.$1-:;>55333333",
"-$$-=$-$=$-X-$-77&7&0qq6778*%&&&&&&7&*8776qq0&7&77..$#:#52$-$-$-",
"$-$-$$$X-$X$--&77&&&866**99&%%%%%%%77&99**668&&&77&..#:>2-$-$$-=",
"$--$=X-$$$=X-&&&&696&676&&&&%%%%%%%66&&&&676&696&&&&.o;:2$---$-$",
"-$$-$$$$$-=X77&&6900&*99&7*%%ooo*OO%%%77&99*&0696&&77oo:2-$-$-=$",
"$-X-$$$=X-X$77&0006%*&&&&*ooooo*68OOOO6&&&&&*%0600&77oo:-$--X-$$",
"$-X$.$$=$=$%%%680607*77*&ooooo*666qOOOOO&*77*700606%%% o--$$X$=$",
"...........&%080676%&&7*ooooo*666687O#OOO77&&%670600%& o-X.X..X.",
"OOOoOOOooo776970680*7&&ooooo*66666&OO##OOO&&7*009679677 ooooOOOO",
">>:##:>#>#776*00679&*7ooooo*66666&OO>>>#OOO7*&97796*677 oo#;>:::",
">553333333*&00068*&7&ooooo*66666&OO>>qq>#OOO&7&*00600&*.X$1111-:",
">5$-1$1$16*&080680&7*oooo*66666&OO#>q88q>#OO77&009070&*6..X-X-.O",
"#5-$-=-$$7*&890689&&oooo*66666&OO#>q8668q##OO&&988068&*7...$$$.O",
":1X--$$X-77&&**88%**oooo&*666668&#q866668q#OO**%88**&&77....X$.O",
":1-$-.-X$76&%***%77&oooO#&*66668qq86666668q#O&77%***%&67....$$.O",
">1$X-.$$-7&&&00%777oo*7O##&*666688666&66668qOO777%00&&&7....$$.O",
":2-X$$$X$6&&*07&&&&o*66q###&*6666666&O&66668qO&&&&89*&&6....$$.O",
":-=XXXXXX&*880600***7668q###&*66666&OOO&66666&**009700*&....$X.O",
"::#OOOOOO&*900687&7O&6668q###7666666qO#O&666&O7&789779*&   oooOO",
">>>>>::#:&%*0066&&7OO&6668q#q66666667q##O&6&OO7&&7067*%&oooo::>#",
"1111111117&%*7600**&OO&6668q8666&66667q##O&##***0006*%&7.XX$1111",
"----=2--277*88068&7*OOO&6668666&O&66667q####:77&88060*77....$-$-",
"-$$-=-$-$&&*90966&&&OOOO&66666&OOO7666677#::>&&&68969*&&....$=$$",
"$$-=$-$=-$&%*00606&6&OOOO&666&OOOq66666&OO#>*6660067*%&.....$$-$",
"-$$-=-=$$$*&%*70680&6OOOOO&6&OOOq76666&OO##:6&08806*%&*.....$$$$",
"-$$-$-$=-$86&800607&7*O#OOO&OOOq76666&OO#:>*7&709600&68.....$$-$",
"$$$=$$=$$$6*&98066%%&**##OOOOOq76666&OO#:>*77%%66689&*6....$$--$",
"...........&%*07**&**&77:#OOO776666&OO#:>*7&&*&**70*%&.....XXXX.",
"OOOOOOOOOOO&&%**%07*00&&*:::#O&666&OO#::*&&99*70%**%&&   ooooOOO",
">:>#:##::###&*&&&*0009**&8>>:OO&6&OO##*7&**9090*&&&*&  oooo#>#>#",
"#5333333311$.776&6*00680&7*97OOO&OO68997&78696*6&677..XX$$1111-:",
">3-$$-X--$=$.*76&*760000966*99996999996&9809667*&67*.....$=$$-.O",
":3-X-$X-$=$-X.*&&*97*000790*789600000678*996*79*&&*......$=-X$.O",
":3$X-X$$X-X-$..&*&&*76600006*8699999968096687*&&*&......$-$$X-.O",
"#3-$-$X-$$=-$X..*86%96*66007*8688888869968*79%68*.......X$$-$-.O",
">3-X$-X-X-X-X$...*&&%%%78666*67777777*6687%%%&&*.......$X$=$X$.O",
"#2-X-X$$$=$-$$$....&76%997&6*67777777&&799%67&........$X$=$-X-.O",
">-XXXXXXXXX.........*7&%&&&&&66666666&*&&%&7*..................O",
"#:OOOOOOOOOO###Oo     &***6&&********&6***&      ooOoOOoooOOOOOO",
">#>#>:>::::><<>:##Ooo   666&&&&&&&&&&&666     ooOoOOO##+oo+#::>:",
"33333111111111111-:#OXXX....%%%%%%%%%..........ooO53333311111111",
"$-X--X=X-$2$-X-$-.O:#3.........................oOO3-X$-X-$-$-X-$",
"-$$-$-X=$X-X$X$X$.O::3$$.......................oOO3X-X-$-$$-$-$.",
"-$X$-X=X$-$X-$X=$.O:;3$$$$X....................oO#3X-$$--$$$$X$$",
"$=X=XX-X-$-X$$X-X.O:;3-.$-X$.$.................O#:3-XX-$$$-$-X$-",
"X-$-X-X$-X-$X$-$$.O:;3.--X-$$$X$.$.$X.XX.$X$$X.O::3X-$-$-$$$X-$-",
"X-$$X==X=X$X-X-X=.O::3.-$-X$$$.=X..X$XX$.-X-X$.O#:3X-X$X-$-$XX-.",
"$=X-XX$X$$-X-X$$$.O:>2-.$-X-.$X-.$$X-X$-X$$$X$.O#:2XXX-X-$-$-X-$",
"..................O::-.........................o:>-.............",
"OOOOOOOOOOOOOOOOOOO:>:#@@OOOOOOOOOOOOOOoooooOooo#::OOOOOOoooooOO",
"#>#>###:::::>>#::::>>>>>:::>:::>::#:::;##;##;:;#;>::#>::::;#;:::",
">>>>>>>>>>>>>>>>>>>>>>>>>>>>>>>>>>>>>>>>>>>>>>>>>>>>>>>>>>>>>>>>"
};
