/* XPM */
static char *out[] = {
/* columns rows colors chars-per-pixel */
"64 64 19 1 ",
"  c black",
". c #28200C",
"X c #302410",
"o c #382C14",
"O c gray22",
"+ c #400000",
"@ c #543C1C",
"# c #585400",
"$ c #5C4020",
"% c #744C28",
"& c #484848",
"* c gray33",
"= c #646464",
"- c #7C7C7C",
"; c #80502C",
": c #905C34",
"> c #A0643C",
", c #B47044",
"< c #848400",
/* pixels */
"                                                                ",
"...........,,,,,,,,,,,,,,,,,,,,,,,,,>>::%$. ....................",
"...........,>>>:>>>>>>:>>>$:%$:;$%$$$$$$%.. .o$$$$$$@oX.........",
"$$$$$$$$ ..,>:;>;>:;>::;>$:%$%:%$%$%$%$%$.. .$,,,,,,:;%$$$$$$$$$",
">,>>;%$$ ..,>%%%%$%%%%%%%%$%%$:$$$%%:%$$o.. .$,,:::>,,,,,>>>>>>>",
"%%%%%%@o ..>:%%%%%%%%%$$$$%%$%%$%%$$%$%o... .$,;%$%$%%%$$%$%$%$%",
";%%%%$@o ..;;%$%%%$%%%$%%%$$$$@$$%$%%$%o... .$,;$%$%$$$%$$%%%%$%",
";;@;$%X. ..;$$@@@@@@@@@@$$$$$%$$@@@$$$@o... .$,;%$%@%%@$%$%%$@%%",
"%%%%%o..  .o..............................  .@,,$%$@%@%$%$%@%%@$",
"$$$$o...  ..............................   ...:>$$$%%%%$$%$%%$%$",
"oooo....  .                                ...:;$%$%$$$ooXXXXXXX",
".....     ........oo$$%%,,,,,,,,,,,,,,,,,%o...;$ooXXX...........",
"         oo,,,,,,,,,,,,,:::::::;;;>>>>>>%o. ..$oXX.........     ",
"        .o>;;;;;;;;;;;;;;$;$$%$%:,%;$%$%$o. ...........         ",
".........o>%$%%$@$@$%$%%%%%%$%%%%%%$$$$$$.. .          .........",
".........o:$%%$%$++++++++++++++++++++++++++++++++...............",
"%%%%%%....::%$$%+#<<<<<<<<<<<<<<<<<<<<<<<<<<<<<<#+;;%%%%%%%%%%%%",
">>>>>>....$:$%$@+<#++++++++++++++++++++++++++++#<+o,,,,,,,,,,,,,",
"%%$%$%....o%%$%%+<++-+++-+-+-+---+-+-+-+-++--+-+<+o%%$%$;;;;;;;;",
"%$%$%$.....%%ooo+<+-+-+-++-+-++-++-+-+---+-+++-+<+o%$%@@%%%$%$%%",
"%%$%$%..........+<+-+-+-++-+-++-++-+-+---+-+++-+<+o@%%%$%$$%@@$$",
"%$%$%X.....     +<+---+-++---++-++-+-+-+-+-+-+++<+o%$@$%%@%$%$%%",
"$%@@$X..........+<+-+-++-+-+-++-+++--+-+-++--+-+<+o%%%%$%$$%@@$$",
"$$@@$...@,,,,,,,+<++++++++++++++++++++++++++++++<+o%$%%%@@%$@@$%",
"$$%%$...@:::::::+<++++++++++++++++++++++++++++++<+o@@$%$@@$$%$%$",
"%%$$%...@:%%$$$%+<++++++++++++++++++++++++++++++<+X@@@@@@@XXo@$$",
"XXXX....@:$$%$%$+<+++********+***+**+*****+***++<+..............",
"........o:@$$$$%+<++++++++++++++++++++++++++++++<+           ...",
"      ...@@$$$%%+<++***+***+*****+*+**********++<+XX......      ",
".XXo$%...@$%$$$$+<++++++++++++++++++++++++++++++<+X>>>>>>>::%...",
"X$;,,, ..o@$%%@$+<++*****+*****+*+***+****+***++<+o>>>;$::>>;%..",
"X;>>:; ...o@$$@$+<++++++++++++++++++++++++++++++<+o%%$;%%%%%%%..",
"X,;%%$% ...o@%$%+<++**+******++*****+****+****++<+o%$$%%$$%$$@..",
"X,;%$%$ .. .o@@$+<++++++++++++++++++++++++++++++<+o%$%$$%%$%$X..",
"X,%%%$% ........+<++****+****+**+*+********+**++<+o$%$%%$$%$%X..",
"X,;%$$% ...     +<++++++++++++++++++++++++++++++<+o$$%%$%$$%%...",
"X     ..........+<++**+****+*******+*****+****++<+X%$$%%$%$$%...",
"X...............+<++++++++++++++++++++++++++++++<+..............",
"X,,,,,,,,,,,,,,,+<++++++++++++++++++++++++++++++<+             .",
"X,>>;;;;;;;$$$%$+<++++++O===O+++++++++++++++++++<+..............",
"X,;%%$%$$@$%$@$%+<+++++O==  =O++++************++<+X@@@@@@@@@@o..",
"X,;$$%$$%$%$$%$$+<+++++= = ===++++++++++++++++++<+o::;:::::::@..",
"X>;%%%%%$%$$@$%%+<+++++=     =++++************++<+o>>>>>,,>>%X .",
"X>;%%$%%$%$%$$$$+<+++++=== = =++++++++++++++++++<+o::%::;::;@. .",
"X:;%$%$$%$%@%$%$+<+++++O=  ==O+++++&O++++O&+++++<+o%$$$%$%$%o. .",
".:$$%$%%%%%$%$$$+<++++++O===O++++++&***&O&*&&**+<+o%%$%$%%%$o. .",
".;%%%$$$$$$%$%$$+<++++++++++++++++++++++++++++++<+o$%%$%$%$%o. .",
".@@@..%%$%$$%$$%+<++++++++++++++++++++++++++++++<+o%$@@$@%$%o. .",
"..   .....XXXXXX+<#++++++++++++++++++++++++++++#<+o$@$$$%$@@o. .",
".....    .......+#<<<<<<<<<<<<<<<<<<<<<<<<<<<<<<#+o$$%$@$%@@o. .",
".......          ++++++++++++++++++++++++++++++++oo%$$%$$$$%o. .",
".@%%%%%$X.....            .....     ..XXoooooooooo@@@@@@@@@@X. .",
".%:,,,,,:%%$oX...................... ........................  .",
".%,%%$:>,,,:%%%%%%%%$$$@@oXX.........                         ..",
".%,%%%;;$%:,,,,,,,,,,,,>>::%%%%%$............               ....",
".%,%$%@@%%$@%$%$%$%%$%$%%;:,,,>:@....,,,,,,,,,,,,,>>>>:::::;%@..",
".%>%%%%%$%$%%$$%@@$%@$$$%$%$%%%@X ...%::%%%%$%$%%%$%%$%$%%%$@@..",
".%:%$%@@%%$%%%$@%@$@%$%$%$%$%%%X. ...,%%$$%$%%%$%$%%$%%%$%$%@@..",
".%$XXXXXXXXXXXXXXXXXXXXXXXXXXXX... ..:;;;%%$%%%%%%%%%%%%%%%%,% .",
".$X...............................  .;%;;%%%%$%%$$%$%%%$%$%$%. .",
"..                                  .....XXX@@%%%%%%%%%%%%%$$. .",
".....                               .....     ................ .",
"...............................................                .",
"................................................................"
};
