/* XPM */
static char *out[] = {
/* columns rows colors chars-per-pixel */
"64 64 55 1 ",
"  c black",
". c #28200C",
"X c #382C14",
"o c #202020",
"O c #2C2C2C",
"+ c gray22",
"@ c #400000",
"# c #4C0000",
"$ c #580000",
"% c #640000",
"& c #700000",
"* c #7C0000",
"= c #403018",
"- c #483818",
"; c #543C1C",
": c #404000",
"> c #585400",
", c #706C00",
"< c #5C4020",
"1 c #6C4824",
"2 c #744C28",
"3 c #484848",
"4 c gray33",
"5 c #646464",
"6 c gray44",
"7 c #7C7C7C",
"8 c #880000",
"9 c #980000",
"0 c #A40000",
"q c #B00000",
"w c #80502C",
"e c #885830",
"r c #905C34",
"t c #9C6038",
"y c #A0643C",
"u c #B47044",
"i c #BC7848",
"p c #C87C4C",
"a c #848400",
"s c #9C9C00",
"d c #E4D800",
"f c #FCF400",
"g c #D08050",
"h c #DC8854",
"j c #E88C58",
"k c #FC9C60",
"l c #FCA470",
"z c gray55",
"x c #989898",
"c c gray66",
"v c #B4B4B4",
"b c #C0C0C0",
"n c #D0D0D0",
"m c gainsboro",
"M c #ECECEC",
/* pixels */
"+<2eeeetwtttttteeewtwww<11<-++=22t222222222++X2222222222X+22222+",
"oeeeyteyetweeyewt222wew1<-<1 o<tiiiiiitwww1 o<tttyyyttte2 ygyye ",
"oyeytee21wfsyf99q*99q*9q*99b3bbbbbbb3b999q*999q*999fufsi2 ygyew ",
"otteteweeuaa>s***%***%**%**x+xxxxxxx+b****%****%***s>aa22 ttyt1 ",
"otyytew2eu>:t,$$$#$$$#$$#$$6 6666666 6$$$$#$$$$#$$$,t>:;1 wet21 ",
"oeteewewete;XX***&***&**&**x xxxxxxx x****&****&***;w;;12 ew2<2 ",
"oeeewtw2yee222898&898&8*&88b bbbbbbb b898*&8898&888yiyue1 e2w-1 ",
"oeyeewttewwww188**88*&88*88b bbbbbbb b8898*8888&8882ueue2 1<2<- ",
"owwwwe2ytww12<898*898*8***8b bbbbbbb b898***898*888;uteye       ",
"o2ewyiywtew1tw98***8***8*88b bbbbbbb b8898*898**888;yewt2 .tyy- ",
"o22eyuyyetw122898*898*8***8b bbbbbbb b898***898*888;tutt2 tkiyw ",
"o2weyeywt2211198***8***8*88b bbbbbbb b8898*898***88Xiiie< ekye< ",
"o<2teteeet2121898*898*8*8*8b bbbbbbb b898*8*898*888;ett2- epyw- ",
"o-<2t22etw21<<98*888***8*88b bbbbbbb b8898*898***88;etw-- wt2<1 ",
"oX=11111111-=<898*898*88888b bbbbbbb b888*88898*888;e1<2- =2ue- ",
"o             988888***8*88b bbbbbbb b8898*898***88Xw2-2-       ",
"2222eeeeeeette898*898*88888b bbbbbbb b888888898*888X2w22- =wwwww",
"yytttuuyhht22w9888888888889b bbbbbbb b98888898*8*88X122<- wtigit",
"uuuututtiitt218888898*889qxb bbbbbbb bxq9888898*888;221-< tthkhy",
"pyypuyuueetw21988888888q6b6 bbbbbbbbb bb6q988888888;w2-<< tthlhi",
"pyttiuetettw<w88888888q6b+ bz+     +zb+ b6q9888*888;ew<w- tiphiy",
"pjytuuttute21<8888888q6b xb+ z66bbbz +bx b6q8888888;w2--- uiiiit",
"pityutuyttw2<188888896b xb zb+  3bbbbz bx b69888888;2<--- yuttit",
"uiyyuuytetu<t1888888qb+xb bb+    6bbbbb bx bq888888X11-<- yuuiiu",
"putttuuutuw2--888889x6 b bb+    +bbb++bb b 6x988888X21<2- ttiiti",
"iutetuytttt2--88888qb+b+zb+    +bbb+  +bz b bq88888X2<<<- tiuipy",
"yeuyttttee<-<-888886x x bb+    +6b+    +b z+6688888X1<1<< tiiupt",
"uyyuee2we2w<-<88888b+x+zbbb+    ++      +z+x+x88888X2<<1- wihhuy",
"tuyyee11ew11<188888b b bbbbb+            6 b b88888X12<<< wiggit",
"uwwewew2w12w<-88888b b bb66bb+      4    6 b b88888X22--- wituyy",
"tw211yeetw211188888b b b3  3b6     +bb  3b b b88888X121-- wtiytt",
"weewtweuweewtw88888b b b    3       +b66bb b b88888X211-- wtiiyt",
"tw2twtwteyt2w288888b b b             +bbbb b b88888X1w2<- wtittw",
"1w1teyeweyye1<88888b+x+z+      +4     +bbz+x+b88888X1w<-- wttttw",
"1eee<yyweye22188888b6+6+b+    +bb6     bb+b 6x88888X111-- 1ttyee",
"e1eewutee1eew<888886b b zb+  +bbb3    +bz x+b688888X121<- 1twtew",
"wwee-yytwwee-2888889b6 b bb++bbb3    +bb x+6xq88888X111<- 1ewwww",
"wee1<eeywee1<188*888qb xb bbbbbb6   +bb bx+bq988888;2--1- 1we22w",
"w22<2tetw22<21888*8896b xb zbbbbb3 +bb bx b69888888X-<2<- 1tetw2",
"2e121etw2e121-88*8*88q6b 7b +zbbbbbz+ b6 b6q8888888 -1w2- =etw2e",
"              8*8*8889q6b  bx       xb  b6q*8888888 --2<- o     ",
"oooooo--------88*8*8889q6b6 7bbbbbbb7 6b6q*8*888888 XX<X- oXt1Xo",
"ooXtipppggpppu8*8*8*88889qbb bbbbbbb bbq988*8888888 X-X-- o1tw<o",
"ootgjjgjiiuuyy88*8*88888889b bbbbbbb b9998*8*888888       oX-<1o",
"ootjjgpiyuyyey8*8*8*8889888b bbbbbbb b89888*8889888 oooooooooooo",
"ooujjggiutytui88***88898888b bbbbbbb b9998*8*888*88wgggggguyyy2o",
"oougpgpyytytup8*8*8*8889888bObbbbbbb b89888*8889888wiiyyyyyyutw ",
"oougpyiuytyttu88***88898888bObbbbbbb b9998*8*898*88wyeeeweeyy<w ",
"oougppuytttyty8*8*8*8888888n+nbbbbbb b89888*88888*8wti2e2wwe1<2 ",
"oouuyyuuuyteet88***88898*89n+bbbbbbb b9998*8*898*88;kiwe2wt22w< ",
"ooutuuuuuuewwt8*8*8*8988889movbnbbbb b89888*888*8*8witw2ee2t22- ",
"oouuuuikguee2w88***88898*89movbnbbbb b9898*8*898*88rty2ww2ee<<- ",
"oouuuigpgpteew888*8*898*8*9MOcvnbbbb b89888*888*8*8wuwwewwe2<<- ",
"oouyupgpguytww88***88898*89MOcvnbvbb b8898***898*88wwtww2we<<== ",
"oouuuiipiyytw1888*88888***9M+cvnbvbb b89888*888***8X1ww11221<<= ",
"ooiuyyuuetyewe88***88898*88M+zvmbvbb b8898***888*88;y1111<<-<=X ",
"ooiuuyyteeettw888*88888***8M+7vmbvbb b89988*888**88;t11w<-X=-== ",
"ooiuueeweeetew88***88898*88v+6vmbvbb b88988**889*88wtw21<X-<-== ",
"ooiteewww222ee889*88889**88z35vnbvbb b88988&*889*88;w212<<2<-<- ",
"ooytetw22-fs1d99q&9099q8&99qx+xMMMMM+M99q88&*99q&08dwfsX--<1<<- ",
"oottww2w<=aa>s&&8$%*&&8*$%&*4 4xxxxx x&&8&*#%&&*$*&s>aa<<--<-XX ",
"ooteewe11<>:1,$$%@$%$$$%@#$&O O+++++ +$$$$%##$$%@%$,1>:<---<X=Xo",
"++111111111XXXXXXXXXXXXXX  XXXXXXXXXXXXXX     XXXXXXXXX<<<<XXXXO",
"4444444444444444444444444444444444444444444444444444444444444444"
};
