/* XPM */
static char *out[] = {
/* columns rows colors chars-per-pixel */
"64 64 11 1 ",
"  c #28200C",
". c #302410",
"X c #382C14",
"o c #403018",
"O c #483818",
"+ c #543C1C",
"@ c #5C4020",
"# c #6C4824",
"$ c #744C28",
"% c #80502C",
"& c #885830",
/* pixels */
"   O+@#$$$$$$$$$$$$$$$$$$$$$#@+O   O+@#$$$$$$$$$$$$$$$$$$$$$#@+O",
"   X############@@@@#@#@#@#@#@#o   X############@@@@#@#@#@#@#@#o",
"   X##@###@@#@@@@@@@@#@#@#@@@#@o   X##@###@@#@@@@@@@@#@#@#@@@#@o",
"   X@@#@@##@@@+@@@@@#@#@#@@@@+@o   X@@#@@##@@@+@@@@@#@#@#@@@@+@o",
"   X@#@@@@#@@+@+#@@#@@@#@#@#+@+o   X@#@@@@#@@+@+#@@#@@@#@#@#+@+o",
"   X@@#@@@@@+@+#@#@+@@@@+@#+@++o   X@@#@@@@@+@+#@#@+@@@@+@#+@++o",
"   X@@@#@@@+@+@+#+#++@+@++++++@o   X@@@#@@@+@+@+#+#++@+@++++++@o",
"   X@@+@+++++@+@++++++@+#++@@++o   X@@+@+++++@+@++++++@+#++@@++o",
"   X+O@O++++O+@++O+@+@O+++O++O+o   X+O@O++++O+@++O+@+@O+++O++O+o",
"   X+oO+Oo+O+O+OO+OO+O+++O+oO+Oo   X+oO+Oo+O+O+OO+OO+O+++O+oO+Oo",
"   XoooOoOo+o+Oo+OoOoOoOo+oOo+Oo   XoooOoOo+o+Oo+OoOoOoOo+oOo+Oo",
"   XOoOoOOOoOoo+OOOoOoOoOoOoOooo   XOoOoOOOoOoo+OOOoOoOoOoOoOooo",
"   ...                       ...   ...                       ...",
"                                                                ",
"                                                                ",
"                                                                ",
"###$$##$$$%%%%%%%%%%%%$$$$######$$#####$$$%%%%%%%%%%%%$$$$##$$##",
"@@#@@##@@@+@@@@@#@#@#@@@@+@@#@@##@@@@@#@@##@@@+@@@@@#@#@#@@@@+@+",
"@#@@@@#@@+@+#@@#@@@#@#@#+@@#@@@@#@@+@#@@@@#@@+@+#@@#@@@#@#@#+@++",
"@@#@@@@@+@+#@#@+@@@@+@#+@+@@#@@@@@+@@@#@@@@@+@+#@#@+@@@@+@#+@+++",
"@@@#@@@+@+@+#+#++@+@++++++@@@#@@@+@+@@@#@@@+@+@+#+#++@+@++++++@+",
"                                                                ",
"                          .XoO+++OoX.                           ",
"XXXXXXXXXXXXXXXXXXXXXXX..XO+@$&&&$@+OX..XXXXXXXXXXXXXXXXXXXXXXXX",
"XXXXXXXXXXXXXXXXXXXXXXX.Xo+@#$%%%$#@+oX.XXXXXXXXXXXXXXXXXXXXXXXX",
"XXXXXXXXXXXXXXXXXXXXXX.X.X+###$$$###+X.X.XXXXXXXXXXXXXXXXXXXXXXX",
"XXXXXXXXXXXXXXXXXXXXXX...XO####%####OX...XXXXXXXXXXXXXXXXXXXXXXX",
"XXXXXXXXXXXXXXXXXXXXXX. .XoO##$%$##OoX. .XXXXXXXXXXXXXXXXXXXXXXX",
"XXXXXXXXXXXXXXXXXXXXXX  .O+@#$%%%$#@+O.  XXXXXXXXXXXXXXXXXXXXXXX",
"XXXXXXXXXXXXXXXXXXXXXX  OooX. o@o .XooO  XXXXXXXXXXXXXXXXXXXXXXX",
"XXXXXXXXXXXXXXXXXXXXXX  +     .@.     +  XXXXXXXXXXXXXXXXXXXXXXX",
"XXXXXXXXXXXXXXXXXXXXXX .#     .@.     #. XXXXXXXXXXXXXXXXXXXXXXX",
"XXXXXXXXXXXXXXXXXXXXXX o+X  .+o@o+.  X+o XXXXXXXXXXXXXXXXXXXXXXX",
"XXXXXXXXXXXXXXXXXXXXXX o@$$$$$.@.$$$$$@o XXXXXXXXXXXXXXXXXXXXXXX",
"XXXXXXXXXXXXXXXXXXXXXX X+$$### @ ###$$+X XXXXXXXXXXXXXXXXXXXXXXX",
"XXXXXXXXXXXXXXXXXXXXXX  XO#@@o $ o@@#OX  XXXXXXXXXXXXXXXXXXXXXXX",
"XXXXXXXXXXXXXXXXXXXXXX   .##@X $ X@##.   XXXXXXXXXXXXXXXXXXXXXXX",
"XXXXXXXXXXXXXXXXXXXXXX    O+#@$$$@#+O    XXXXXXXXXXXXXXXXXXXXXXX",
"XXXXXXXXXXXXXXXXXXXXXX.   o+#$&&&$#+o   .XXXXXXXXXXXXXXXXXXXXXXX",
"XXXXXXXXXXXXXXXXXXXXXXX.  XOo     oOX  .XXXXXXXXXXXXXXXXXXXXXXXX",
"XXXXXXXXXXXXXXXXXXXXXXXX. .O       O. .XXXXXXXXXXXXXXXXXXXXXXXXX",
"XXXXXXXXXXXXXXXXXXXXXXXXX.           .XXXXXXXXXXXXXXXXXXXXXXXXXX",
"XXXXXXXXXXXXXXXXXXXXXXXXXX           XXXXXXXXXXXXXXXXXXXXXXXXXXX",
"###$$##$$$%%%%%%%%%%%%$$$$######$$#####$$$%%%%%%%%%%%%$$$$##$$##",
"@@#@@##@@@+@@@@@#@#@#@@@@+@@#@@##@@@+@@#@@##@@@+@@@@@#@#@#@@@@+@",
"@#@@@@#@@+@+#@@#@@@#@#@#+@@#@@@@#@@+@@#@@@@#@@+@+#@@#@@@#@#@#+@+",
"@@#@@@@@+@+#@#@+@@@@+@#+@+@@#@@@@@+@+@@#@@@@@+@+#@#@+@@@@+@#+@++",
"@@@#@@@+@+@+#+#++@+@++++++@@@#@@@+@+@@@@#@@@+@+@+#+#++@+@++++++@",
"                                                                ",
"                                                                ",
"                                                                ",
"$$$$$$$$$$$#@+O   O+@#$$$$$$$$$$$$$$$$$$$$$#@+O   O+@#$$$$$$$$$$",
"@@@#@#@#@#@#@#o   X############@@@@#@#@#@#@#@#o   X##########@@@",
"@@@@#@#@#@@@#@o   X##@###@@#@@@@@@@@#@#@#@@@#@o   X##@###@@@@@@@",
"@@@#@#@#@@@@+@o   X@@#@@##@@@+@@@@@#@#@#@@@@+@o   X@@#@@##@+@@@@",
"@@#@@@#@#@#+@+o   X@#@@@@#@@+@+#@@#@@@#@#@#+@+o   X@#@@@@#@@+#@@",
"#@+@@@@+@#+@++o   X@@#@@@@@+@+#@#@+@@@@+@#+@++o   X@@#@@@@@+#@##",
"+#++@+@++++++@o   X@@@#@@@+@+@+#+#++@+@++++++@o   X@@@#@@@+@+#++",
"+++++@+#++@@++o   X@@+@+++++@+@++++++@+#++@@++o   X@@+@+++++@+++",
"O+@+@O+++O++O+o   X+O@O++++O+@++O+@+@O+++O++O+o   X+O@O++++@++OO",
"+OO+O+++O+oO+Oo   X+oO+Oo+O+O+OO+OO+O+++O+oO+Oo   X+oO+Oo+O+OO++",
"OoOoOoOo+oOo+Oo   XoooOoOo+o+Oo+OoOoOoOo+oOo+Oo   XoooOoOo+Oo+OO",
"OOoOoOoOoOoOooo   XOoOoOOOoOoo+OOOoOoOoOoOoOooo   XOoOoOOOoo+OOO",
"            ...   ...                       ...   ...          ."
};
