/* XPM */
static char *out[] = {
/* columns rows colors chars-per-pixel */
"64 64 36 1 ",
"  c black",
". c gray11",
"X c #202020",
"o c #282828",
"O c #2C2C2C",
"+ c gray19",
"@ c #343434",
"# c gray22",
"$ c #400000",
"% c #4C0000",
"& c #580000",
"* c #640000",
"= c #700000",
"- c #7C0000",
"; c gray25",
": c #484848",
"> c #4C4C4C",
", c gray33",
"< c gray36",
"1 c #646464",
"2 c gray44",
"3 c #7C7C7C",
"4 c #880000",
"5 c #980000",
"6 c #A40000",
"7 c #B00000",
"8 c #BC0000",
"9 c #C80000",
"0 c #D40000",
"q c #E00000",
"w c #EC0000",
"e c gray55",
"r c #989898",
"t c gray66",
"y c #B4B4B4",
"u c #C0C0C0",
/* pixels */
"################################################################",
",#,:::::,::::::,:#:::::::,,,,,,:::::::::,,,,,,,::::###::,,:::::#",
"#ww0000000006::,ww0000000000000000006:#,wwwwqqqqqq0000099998886:",
":w9770460496*O:,w8484848-85858-8-896=O:#06979779=9-979476-9596-O",
":06-6465=64=*O:,084464=66=566=56=65=&O:,066-*64=46-46646-46&6=*O",
":0-66=566=6&$O:,048646=646=6=4-6=5-=&O::0=6*46*6=6-646*65-6-6=%O",
":96-45-6=46=$O:,88464456=4=64=5-4=6=$O#:8=6-64*6==66=6466-6&64%O",
":8-66=65=5=&$O::8946=6=6=6=54=-6=5-=&O#:856*46-4=4-646*6-46-6=$O",
":86=4&=-&=4=$O#,55==%4==4=%=4=4=%4==$O#:8==&==%4%=&4%=%4*%=4=4$O",
":-***$$$$$$$$O#:-**&&&&&&&&&$$$$$$$$$O#:4**********&&&&&&&&&$$$O",
"::OOOOOOOO                       .                     XXOOOOOOO",
",####::::# . . . .. . . . . . . .  . . . .. . . . . . .;,#,:::,#",
"w000888888  .  .    .  .  .  .   .  .   .   .  .  .  . ,ww000000",
"74475-7-54 .  .  .   .   .  .  .   . . .  .   . .  .   #w9-74747",
"4646-44*64.  .    . .  .  .   .  .   .  .   .    .   . ,97-64-65",
"=6645*6-44    . .    .  . #rttttttttteO. . .  .  . .   :9-666-6-",
"64464--4-6 .   .  .   . 3tt;         <tt1 .  . .    . .:97-6-65-",
"=6*6=4-5*6  . .  . . .;te  . . . . .  . ete .   . .    :7-66&6-4",
"=7*=%-=5=5 .    .   . tr .    .   .  . . tt:  .    . . ,76-=&=5=",
"$%%%%%%%%%  . .   . #t@ . . .   .   .   .  te  . .    .#6*$*$$*$",
"OOOXOOOXXX .   .   :t .  3t   .  . . . .  . rr    . .  ,:OOOOOOO",
",,:##:,#,#  . .  .rt.  uyyt .  .    . 3: . . t2 .    . #,;#;,:::",
",ww0000000 .   . <t#  .tyyy  .   . 1yyt.   .  y@ . .   88888886:",
",w478-8-8-  .    t. .  yyyy .  .  .ttyy . . . Xy.   . .46-46&6$O",
"#w74656-=4 .  . ee   ..yyy3  .  .  tyyt  .   . r3 .    *65-6-=$O",
":8*66=4&6*  .  .r .   ,tyy,.   .  .tyyy.   .  . y  . . 466-6&=$O",
":8746%6&=4 .  .>r  . .2tyyo  .   .ottte  .  .   r,    .*6-46-=$O",
",8=*6%4-6*  .  e2 .   etty  .  .  <ttt1 . .   . +t. .  64*%=4=$O",
":96*===&=% .  .r .  . ttyy..Xet  .<tty>  .  .  . t   . 6&6%6==$O",
":65*******  .  t   .  ttyytyttt . ettt. .  .  .  t .   &&&$&-&$O",
"::#OOOOOOO .  .t .   .ttyyyyyyt   tttt .<yt  .  .t  . .OOOOOOOOO",
",,,,,::#:#   .Ot   .  tyyyyyyr3. .rtrtyyyyt   .  t.    :,#,:::,#",
"8888888888 .  @t .  . tyyyytyt<   ttttyyyy3.   . y. . .888888888",
"6767597796  . .t  .  >tyyryyyt# . ttyyyyyy: .   .t . . 6=646-6=6",
"6-4656-64=.  . t   . 2ro eyttt   #ttttyyyy.  . . t     445=5-54=",
"4-65-6-56= .   t. .    . ttttt . 1ty:>yyyr .   . t . . 6=5465-6=",
"64-6565-4=   . t.   . .  ttttt  .@   3yyy2  . . ;t  .  -64554-=4",
"64-6-6-56= .   23. .    .rtttr.   . .tyyy# .    t, .  .6=546-46=",
"==45==5===  . . t    . . ttttr  .    yyyy .  . .r.   . 6=5=5-66=",
"$$%%%%%%%$ .   .t,. .   .tyyt3 .  . .ttyy   . .e3  .   ****&&&&$",
"OOOOOOOOOO  .   .r    . >yytt<   .   yyyy. .  Ot .   . XXOOOOOOO",
",:,#:##::# . .   2tX .  etyt3 . .  ..yyyy    .r#.  . . #,:,:,#,#",
"#w00000008    . . rt  . r< .   .    >yyyt . .e3  .     88888886:",
",06446*66- . . .   #t  .  .  .   . .3yy: .  rt .   . . -6-5=46$O",
":06*64*645  .   . . t2  .   .  .  . e3. .  #t@.  .  .  64-56*4$O",
":04*6*4=*6.   .      er . .   .     .  .  2t+  .  .   .6-6=4*6$O",
"#06464*64-  .  . . .  <t:   .   . .  .  ett . . .   .  45-=646$O",
",06*46*6*6 .  .     .   et1  . .   . .ete .  .   . .  .-6-54*=$O",
"#96*6*4=45  .   . .  . . .1ytre2<2eyrt2 .  .   .  .    6-5=6*6$O",
",6******** .  .  .  .       . #<22,; .   .  . . .   . .%%%%%%$$O",
"#:OOOOOOOO  .   .    . . .   .     .  . .  .   .  .  . XXXOOOOOO",
",#,#,:,::: .  .   .     .  .   . .   .    .  .   .    .+XX+#::,:",
"0000088888  .   .  . .   .  . .   .   . .   .  .   . . 088888888",
"-6&66*5*6- .  .  .  . .   .    .   . .    .   .  .  .  &6=6=6*6=",
"6--6-6*5-*  .  .  .    . .  . . . .    . .  .   .  .   =6=46=64%",
"6-&-6*5*-6-&64*5-$O:;0--=6*--6&6%66*6*6*4&44*=$O:,0*6==664=4=*=4",
"-5&5**6*6-6&-=*6*$O:;06%=6*6%6-5*6*4-*6*64&=5*$O:,06*&64==6=6*=6",
"*6-6*6*46*6-&46-4$O:;0%66*6-=4&-%6*6*--*4=&4=*$O::0*646=64==&6=6",
"*6--*55*5*-&6*6*5$O::0%6=6*--4%5*4%6-*64*6&6&4$O#:0*6&=&6=6=&*6%",
"-5&6**4*--6&6*=4-$O:,96%=6*6%4*6*6=*6*-6*4=4*4$O#:9**&6&6=6=6*6=",
"%%%%%%%%%%%%%%%%$$O::6$$$$$%%%%%%%%%%%%%%%%%%$$X:,6$$%%%%%%%%%%%",
"OOOOOOOOOOOOOOOOOOO:,:#@@OOOOOOOOOOOOOOXXXXXOXXX#::OOOOOOXXXXXOO",
"#,#,###:::::,,#::::,,,,,:::,:::,::#:::;##;##;:;#;,::#,::::;#;:::",
",,,,,,,,,,,,,,,,,,,,,,,,,,,,,,,,,,,,,,,,,,,,,,,,,,,,,,,,,,,,,,,,"
};
