/* XPM */
static char *out[] = {
/* columns rows colors chars-per-pixel */
"64 64 13 1 ",
"  c #400000",
". c #4C0000",
"X c #580000",
"o c #640000",
"O c #700000",
"+ c #7C0000",
"@ c #580058",
"# c #880000",
"$ c #980000",
"% c #A80000",
"& c #B00000",
"* c #BC0000",
"= c #C80000",
/* pixels */
"ooooooooooooXXoO+++#++++++OOOX##########+##XXXXXoXX.XX.X.X...OO#",
"oooooooooooX.X+$#++#++++++O+OO+#########+##+oXXXoXXXXX.X.X...OO#",
"oooooooooooX.X+#$#+#++++++O++OO+###$$#+#+##+OXXXoXX.X.XX.X...O+#",
"ooooOooXoooX.XO#$#+#+++++OO+++O++##%$++++##+OoXXoXX.X.XX.X...++#",
"ooooOooXoooX.Xo+$#+#++++O+O++OO+##$%#oo++##+OOXXoXX...XX.....++#",
"ooooOooXoooX.XX+$$##++++O+o+OO+###%$+oXo+##+O+oXoXX...XX.....+##",
"ooooOooooooX.XX+$$##++++O+o+o+###$%#OooX++#+O#OXoXX.X.XX....X+##",
"#oooOooXooXX.XX+$$##++++O+ooo+###O++oooXX+++O#+ooXX.X.XX....o+##",
"#OooOOooooXX.XX+$#$#+++OO+oOo###$%OOoooXXo++O#+OoXX.X.XX...X+###",
"#OooOOOooXXX.XXO$#$#++O+OoO+o###%$+ooooX.oo+O#+OoXX.X.XX...o+###",
"#+ooOOOooXXX.oXo$#$##+O+oO++O##++#OoXooX.oooO#+OOXX.X.XX..Xo++##",
"#+OoOoOooXXX.oXo$#$$#+OOoO#+O##%++oooooX.ooXo++O+oX.X.X...oo$$##",
"##+oOoOooXoX.oXX$#$$#+Oo+O#+O#$=#OoooooX.ooXoO+O#OXXX.X..XoO$+##",
"##+OOoOooXoX.oXX$#$$#+oO+O+OO#=&+OooXooX.ooX.X+O#+oXX...XOo$+oo#",
"##+OOoOooXoX.oXX+#$$#+O++OooO$=+oOooXooX.ooX..XO##OXXX..O+o$+oo#",
"o##+OoOooXoX.oXX+#$$+++#+OXXO$=+oOooXooX.oo.  .X+#+oXX.X++$#oooo",
"o+#+OoOooXoX.ooXO+$$++##Oo.X+$=+oOoooooX.oX.  .X+#+OX.XX+#$#oooX",
"o+#+OoOooXoX.ooXo+#$###OoX.X+$=+oOoooooX.oX.  .O+#++o.oX+$+#oooo",
"oO+#+oOooXoX.ooXX+#$##OoXX.X+$&+oOooXooX.oX.  .+##+#oXoX#$+#oooo",
"oo+#+OOooXoX.ooXX+#$#OoXXX.X+$&+oOooXooX.o.  .X+##+#OooX$+o#oooo",
"ooO++OOOoXoX.oX.o+#$OoXXXX.X+$&+oOooXoXX.X.  .O#%#++O+oo$+o+oooo",
"ooo+++OOoXoX.X.XO##OoXXXXX.X+$&+oOooXoXX.X.  .+$&#+++++o+oo+oooo",
"oooO++OOoXoX..XO##OoXXX.X..X+$&+oOooXoXo.X. .X#&&#++##+oooo+Oooo",
"oooo+++ooXoX.XO##OoXXXXXX..X+$&+oOooXoXo..  .o$&$++++##oooo+Oooo",
"ooXoO++OoXXXoO##OoXXXXX.X..X+$&+oOooXoXo..  .o$&$++++O#oOoo++Ooo",
"ooXoO++OoXXoO##OXXXXXXX.X..X+$&+oOooXoXo.. .XO$&$++++O++Ooo+O+oo",
"ooooo+++oXoO###o..XXXXX.X..X+$&+oOooXoXo.. .OO&&#++++O++Ooo+OOoo",
"oooooX++ooO+#$$+oXXXXXX.X..X+$&+oOooXXXo.  .++&$+++++o+OOoo+oO+o",
"ooXooX++OO+##%%$+Oo.XXX.X..X+$&+oOooXXXX. .X++&$+++++o+O+Oo+oOOo",
"ooXooXO+++###%$#$#Oo.......X+$$+oOooXXXX. .O#$&$++++Oo+O+OoOooOo",
"ooXooXo+####$%#O#$O+oXX....X+$$+oOooXXXX. .+#&&#+++OooOo+OoOooOo",
"ooXooXoX+##$%%#OO#$#+Oo....X+$$+oOooXXX. .X+$&$++++oOoOo+OoOooOo",
"ooXooXoX+###%%#OO##$#OOo...X+$$+oOooXoX. .O+$&$+++Oo+oo+++oOooOo",
"ooXooXoX+###%$#OO#O$$O#ooX.X+$$+oOooXoX. .O#$&$+++oOoo++#+OOooOo",
"ooXooXoXO+#$%#OOO#O$o$#o+OXX+$$+oOooXoX..XO#&&#+OOoo+O###+OOooOo",
"ooXooXXXo+#%%#OOO#O$o#$O#+Oo+$$+oOooXo. .oO$&$+OOO++#O$###+OooOo",
"ooXooXXXoO#$$OOOO#O$oO#+##OO+$$+oOooXX. .oO$&#+++##$$$#+o++OooOo",
"ooXooXX.oo+#OOOOO#O$oOO+$#OO#$$+oOooXX..X+O$%#+#$$$$#+oXX++OooOo",
"ooXoXXX.ooO+ooOOO#O$oOOo#$OO#$$+ooooXX..o+O#$###$##+ooX.X+#+ooOo",
"ooXoXXX.ooo++oOOO#O$oOOoO#+O#$$+ooooX. .O#O#$###+OooXXX.X+#+OoOo",
"ooXXXoX.oooOOoOOO#O#oOOoOO++#$$+oooXX..XO#O#$#+OooXXXXX..O++OoOo",
"ooXXXoX.ooXoOooOO#O#oOOoOOO+O$$+oooXX..XO#O#$ooOXoXXXXX..X++OoOo",
"ooX.XoX.oX.o++ooO#O#oOOoOOOOO$$+oooXX..XO$O+oXoOXoXXXXX...+#+oOo",
"ooX.XoX.X.X+##OoO#O#oOOXoOOoO$$+oooX..XXO$OoXXoOXoXXXXX...+#$OOo",
"ooX.XoX..X+$$#OoO#OOoOOXoOOoO#$+oooX..OXO$OoXXoOXoXXXXX.. +#$OOo",
"ooX.XoX.X+$$+oOoo#OOoOOXoOOOo#$+oooX..+XO$OXXXooXXXX.XX.. +#$OOo",
"ooX.X..X+$$#oXooo#OOoOOXoOOOO#$+oooX.X+XO$OXXXooXXXX.XX . +#$+Oo",
"ooX...o+$$#ooXooo#OOXOOXOoOOO#$+ooo..O+XO#oXXXooXoXX.XX . +#$+Oo",
"ooX.XO#&$#oooX.ooOOOXOOXOoOOO##+ooX..O#XO+oXXXooXXXX.XX . +#$+Oo",
"oX.X+$&*&ooooX.OooOOXOOXOoOOo+$oooX.XO#XOOXXXXoXXXXX.XX . +#$+Oo",
" .X+$$##*ooooX.oOoOOXOOXOXOOoX$oooX.OO#oOOXXXXoXXXXX.XX . +#$#+o",
" X+$$#++#oooX..oOXOOXOOXOXoOoX$oXo..OO#oOoXXXXoXXXX..XX . O+$#+X",
".O#%#oO+#oooX..XO+XOXOOXoXoXoX$oXX.XOO#oOoXXXXoXXXX..XX . X+$##o",
"X#$$+oO++ooX.XXX++XOXOOXoXooXX$OX..OOO#oOXXXXXoXXXX..XX . .+$##+",
"o$%#ooOO+oo.XXoXO+oXXOOXoXOooX$O...+OO#oOXXXXXoXXXX..XX . .+$##+",
"o$%+ooOo+ooXXXoXo++XXOOXoXOOoXOOX.X+OO#OoXXXXXXXXX...X. . .+$##+",
"o$$+OoOo+oXXoXoXX++XXOOXXXOOOoo+OXO+OO#OoXXXXXXX.....     .+$###",
"+%#OOOOoOoXXoXooXO+XXOOXXXoOOoX++OO#OO#OXX.......    .....o+$###",
"+%+oOOOoOoXooXooXo+XooOXXXooOoX+++O#OO+o.....XXX.....XoXoOO+$###",
"+%+ooOOoooXooXooXX+XOoOXXXooooX+##O#OOOoXX.XoOOO++oXo+oXo+OO+###",
"+$+oooOoOoXooXooXX+X+oOXXXoOoOX+##O#OO++++OO+OO+##OXO#+XOoooO++#",
"+#ooooOoOoXooXoooXOo+oOXXXoOooXO+#O#OO###++OoooO+#OoO+OooooooO+#",
"++ooooOoooXooXoooXoo+ooXXXoOOOXX+#O#OO#++Ooooooo++OoOoooooooooO#",
"ooooooOoooXooXoooooX++oXXXXXXXXXo+O+OO+Xooooooooooooooooooooooo@"
};
