/* XPM */
static char *out[] = {
/* columns rows colors chars-per-pixel */
"64 64 44 1 ",
"  c black",
". c #202020",
"X c #282828",
"o c #2C2C2C",
"O c gray22",
"+ c #4C0000",
"@ c #045800",
"# c #046400",
"$ c #047C00",
"% c #404000",
"& c #585400",
"* c #706C00",
"= c #5C4020",
"- c #6C4824",
"; c gray25",
": c #484848",
"> c #4C4C4C",
", c gray33",
"< c gray36",
"1 c #646464",
"2 c gray44",
"3 c #7C7C7C",
"4 c #048800",
"5 c #049800",
"6 c #04A400",
"7 c #04B000",
"8 c #04C800",
"9 c #00D400",
"0 c #00EC00",
"q c #848400",
"w c #9C9C00",
"e c #B4AC00",
"r c #CCC400",
"t c #E4D800",
"y c #FCF400",
"u c #FCF420",
"i c #FCFC7C",
"p c gray55",
"a c #989898",
"s c gray66",
"d c #FCFC9C",
"f c #FCFCB8",
"g c #C0C0C0",
"h c gray99",
/* pixels */
"oooooooooooooooooooooooooooooooooooooooooooooooooooooooooooooooo",
"oooooooooo.6555555556365555  :15555555555:o ..........oooooooooo",
"........ o.52$$$$$$$$23$$$6  ##,66:$$$$*6o   :$$$$$$$:O.........",
":::::::: o.5###$$$$,293*$$6  ##156,,%&&&:o   $$5555662$$$$$&::::",
"$$6666O: o.51##&99#:1#,&$$6  :#1:511:&%&:o   0$6----65555555,,,,",
"::$$$$O: ..$,#36O:#1309O&74 3.#$51:1:.:%o0   $$9-8-:$$$$$$$$$1:,",
"13%$$$%o ..$8#&-:,&0,#36O$4  .O$:$::,3,3.   3&$$--3p8:3$$$&&11$,",
",,2*%&%o  .#,#&7:70:O#,3:$0. .#&:$1:3118. 0 0&8$0-$9$,%$,$1&,,&1",
":,:&%%Oo  .#,#6893%6+3g:186...#%%%...      .-.$&-g$O$O,$*&:&,11,",
"112%:,Oo  .#,7--:6,70,:0:#7 ...        6  .0-$0%-$%,0,,%$,:%,:,:",
",,,,,:..  .#,3-0:O3,3,,,3#0  .0   5    96.$&-%@h$601#36,$%:1,1::",
":::::o..  .381-6:O0,,h,06#67 .....55551585&.g%g:%3O0#ooo#oOOOOOO",
"OOOOo.    o.,,#%0,9:,+O--,o   .:$33$$:22$6$$$.@dO0o.#.o33ooo3ooo",
"...oo     o310,O6-&0,f,6-O0  3 15$*$3:91*:.    d ..0.0..........",
"          o.:,1,g--O:i:1&oo3 7.1$*,$$>:6$9%66      $  g3        ",
"          o3:0,1,&&dditd-6:.73.1$&,<3$,:0o.&.dtdde .6...$.......",
",,,,$$$&,  o.,60,&%iiitiOOo3  .1$&,1$*:<g39%$itiii.o$,,0,,,,,,,,",
"363665$%:  6.:,7:3Ouuuru-:0.3 .1$&,<*%:1:o   ueuuu.O6$g565555553",
"1,:$$$$%$  o.:,-:&Oyyyyy-:o.  .1$,::%%:oog   yyyyy.,$$-:$$$$$$&O",
",,1$$$$%:  go.,,:&OrrrrrXo.    1::::.....   Orrrrr.,$$:,$$$$$$&O",
"1$,$$$$%o 3.3.33o..eeeee       ::aaaaaX     Oeeeee.,$O><$$$$$$&O",
"1$1$$$$%o  .o.    rs11prs       aX3a3Xa     sr111rs:$:-<$O-$&$%O",
":,OO$$$%o   oo.   r  p e.......33333333ao  O-e#3or.:$:-,$$$$-$%O",
":&OO$$%O.   :$$$$$r1:13r33pppaaaaaaaaaaappp33q33or.O$:-:$$*$-$%O",
":,,1#%:O.   $$-$$$w,, ow111111111111111111111111.r.$$:1,$$-$-$.O",
",,,,#,:o    $#*####%1 oq#65:$&22222222222  :-##..w.*.:O&$&%$-OOO",
"OOOO#o.     $####&#%O ..#4$$$%33X2222X33.  :-##.. .. ...$...-ooo",
"o..         $#&&#-#%O ..##$&$%O33333333#.  :-##..       #   -  .",
"      ......$#%O###%O  .##$%$%O#333333O..  #-##.o  %   %    -   ",
".OO:$$$$::. $#O#-&#%#. .###:$%O##33333O..  #-#&.o %66444%$%%.   ",
"O:$$$$$$$1: $#O:###%O. .###:$%O###%O#%O.. %#-#&.o .%6$$4$$&....o",
"O$$---&-&1. $#O####%O. .#&%:$OO###%:#%O... #-#&.o .O$%$$$$$$$, o",
"O$$&-%%&&.1 $#1#-&#%#.  ##:,:O:###O;#%-o   #-#&.o .-$O$$$$$%%O o",
"O$$&-1-##.: ,,:#-&#%#.  #:,,&,&:##O;#&-.  %#-#&.o .-1:$%#$.O:O .",
"O$$&-,-##.o =11#,&#.#.  #:===&%,:####--. ----1&%. .-1-$%##.:-O .",
"O$$#%,-#&.o ==>#O&#.#.@ .:==&%O,:#O##%-  --:-,%.. .---$#O#.:-@ .",
"O#$&&&-#&.o =-:#-%#.O.@ .o2=%:1,1#--%%-   -O-O%.. .-1-$&:#.:,@  ",
"O#&#&%-#&.o =->1-:#.O.@  o:=1:O&%......   -o- .....:o.$oooooo@  ",
"O###&1&#&.o ,=,>--&.Oo@  o.::&.... .%.. ---o-%%.%-o  ##      @  ",
"O###&<&%&.o O--,--&.Oo@  ..      %  %%.---.o%%...&%...       @  ",
"O###%,&#&.o o--1--&.Oo.  ...     &...&&%%%&&%.OOO-----OOOOOOOO o",
"O@##<1-#&.o .-->-,&.Oo..  OOOOOOO$&###4446&%144444455666665&:@ o",
"O###1,-#&.  -=-<--&.Oo..  6666644$$*$$$$6$$$$$$$$$$$$$$$$$$6&@ .",
"O@##1:-#.o  .--1%-&.Oo.%. 4$6$$$$$$$1==$$-$$$$$$$$$$$$$$$$$$-@ .",
"O@##:1-#:o  ---1.-&.Oo..#&##$#$$$$$$&$=3$*$$&%%%&$$$-$$$$&o6:@  ",
".@#-1--#:o  ---:1-&.Oo .#%=,$O$$$$$$&$11$-$$%oO;&$$$--O$$%o#-@  ",
".@1-&:ooo   .-1::-%.Oo .##=1$,$%$--$&$1:$%$$%O,,:$$$--:$$-O#:@  ",
".OO-%oooo   .,,1--ooOo ..# =11$%$$-$%$--$O$%o;:<1:$$--$$$-:,:o  ",
".  -.oooo  ..-OO#OOOoo  .#%===$%$$%$.$-$;,$%o:$$,1$$--%$%oOO-o  ",
"oo#-.      .    #        #.===$%$$%$.$%%;,$%O1$%O,$%:-O$%OOO-o  ",
"..##%%.    .   #         # :,,&O$$OOO$11::&%O:%%:1&%,-1$.O:,:o  ",
".O6$$$$:O..o               o.=.  $..o::OOO%.OOOOOO%$OOO#OOOOOo  ",
".16$$$$$$$$::Oo.          .o..       .oooo..oooooo..ooo#ooooo.  ",
".#6$$$$$$#$$$$$$$$$$$$$$$$OOoo.....    ............$.........  .",
".#q$#:##################&,-----1-.o.     %.       .$   #      ..",
".#6$#:###&:O#######%&###&:------- .o... &%        %.        ...o",
".##$#:#:#--,#######&O###&:-,-11--  o.#,---.-.ooo----%%......oooo",
".##:#:#O#--1##&####&,###&:1,-11-o  .,---&---,--*$$$$$$#%---,O..o",
".##O#O#O&.OO#.OOO#.OO###%OOO-OO-.   #:&&%:222Oo$########%-:--, o",
".#O.......-.#........#........... ----&%:,2,:O.$&:#&:&##%--:1o o",
".#              .........   -       . ..ooOOOO#$1,#&::##%-1::o o",
"o.                ..  ..             o..       ooo#.oo#%.ooooo o",
"oooo........      ..  ..             ooo..     oo ..  #..      o",
"OOOOOOOOOOOOOOOOOOOOOOOOOOOOOOOOOOOOOOOOOOOOOOOOOOOOOOOOOOOOOOOO"
};
