/* XPM */
static char *out[] = {
/* columns rows colors chars-per-pixel */
"64 64 80 1 ",
"  c black",
". c gray11",
"X c #00002C",
"o c #000034",
"O c #202020",
"+ c #282828",
"@ c #2C2C2C",
"# c gray19",
"$ c gray22",
"% c #640000",
"& c #700000",
"* c #7C0000",
"= c #6C4824",
"- c #000040",
"; c #00004C",
": c #000058",
"> c #280040",
", c #340058",
"< c #000064",
"1 c #000070",
"2 c #00007C",
"3 c #400040",
"4 c #480048",
"5 c #500050",
"6 c #580058",
"7 c #440070",
"8 c gray25",
"9 c #484848",
"0 c #4C4C4C",
"q c gray33",
"w c gray36",
"e c #646464",
"r c gray44",
"t c #7C7C7C",
"y c #880000",
"u c #980000",
"i c #A40000",
"p c #A80000",
"a c #B00000",
"s c #BC0000",
"d c #C80000",
"f c #D40000",
"g c #E00000",
"h c #EC0000",
"j c #FC0000",
"k c #FC2020",
"l c #9C4C00",
"z c #80502C",
"x c #9C6038",
"c c #CC6000",
"v c #A86840",
"b c #B47044",
"n c #FC4040",
"m c #FC5454",
"M c #FC5C5C",
"N c #FC7C7C",
"B c #FC8820",
"V c #FCF400",
"C c #D08050",
"Z c #FCA85C",
"A c #000088",
"S c #000098",
"D c #0000A4",
"F c #0000A8",
"G c #0000B0",
"H c #0000BC",
"J c #500084",
"K c #005C9C",
"L c #0000C8",
"P c #0000D4",
"I c gray55",
"U c #989898",
"Y c gray66",
"T c #B4B4B4",
"R c #C0C0C0",
"E c #D0D0D0",
"W c gainsboro",
"Q c #FCFCD8",
"! c #ECECEC",
"~ c gray99",
/* pixels */
"++++++++++++++++++++++++++++++++++++++++++++++++++++++++++++++++",
"qqqqqqqqqq9SGGGGGGGGGGGGGDAO$<ASSDSSSSSSA<-O9999999999qqqqqqqqqq",
"qqqqqqqqqq9HPPPLPPPPPPLPPHAO$AGGFFDDDDSDS<-O$<ASSSSAA2<999999999",
"SSSSAAeVOq9HPLHLHLLLLLHHHS<O$SHFSSSSSSSSA:oO$AHLLLLLHFDSqVwAAAAA",
"HHHGJeZQOq9qSAKqqqqqqqqqq98O$qqq00qqqq0998$O$qKKKKKDDKKKIQZeKGGG",
"GGGSZVQQBVVV  VVVVVVVVVVVVVVVVVVVVVVVVVVVVVVVVVVVVV  VVVQQVVZSDF",
"GFDAcccVllll@   llllllllllllllllllllllllllllllllll  . lllZccc,AD",
"GFSS,,8BOqqOOuau  ++++++++++++++++++++++++++++++  &%  O>$c$#><AS",
"DDSSA<;@O+9eefhfpuy*% $$999qqqqqqqqqqqqq999$$$yuuuiy>;<11<<<2AAS",
"AAAA1:;oO+9KJfjggdspuuyuian~9~naizT Uzyyyiaddffgfdsu><1AAA22AAAA",
"111<:ooXO+9AJdjggfdsappasfn~9~nfslT Uuuupdfhkkjjgfsu><111<<<<<<<",
";---oOOOO+9AJdjggfdsappasgn~9~ngslT Uuuuadfhkkjjgfsu>;;;;;;;;;;;",
"OOOOO++++$q9Jfjggfdsappasgn~9~ngslT Uuuuadfhkkjjgfsu>oooooXXXXXX",
"+++++++++$q97fjggfdsappasgn~9~ngslT Uuuuadfhkkjjgfsu>XXXXOOOOOOO",
"$$$$$$$$$$q95fjggfdsappasgn~9~ngslT Uuuuadfhkkjjgfsu.XX$$$$$$$$$",
"q9$$$$$$$$q94fjggfdsappasgn~9~ngslT UuuuadfhkkjjgfsuOO-:::::::::",
"SSSSSSAA<-Oq9fjggfdsappasfn~9~ngslT Uuuuadfhkkjjgfsu>:1ASSSSSSSS",
"HHHHHGFS1-Oq9fjggfdsappadkN~9~MnnvT Uzyupdfhkkjjgfsu><AGLLLLLLLL",
"GFFFFFDA<-Oq9fjggfdsapppsC~~9~!!WET UUeyisfhkkjjgfsu><AFHHHHHHHH",
"DSSSSSS2<-O9qfjggfdsapizrW~q9~!!WETY  tr9afhkkjjgfsu><ASDDDDSSSD",
"DSSSSSS2:oO9qfjggfdsaiurR+9~U9$$+OO UU  Ursgkkjjgfsu><ASSSSSAASS",
"DSSSSSS1;oO9qfjggfdsairR+r~q9~!!WETY  tr Yrdkkjjgfsu><ASSSSSAASS",
"SSAASSS1;oO$qfjggfdsazT rW9~~q$$IETYUr rr Tnkkjjgfsu><ASSSSSAASS",
"SSAASSA<;oO$6fjggfdszY rR+~~I9$$qETYUUt Ur Enkjjgfsu><2SSSSSAASS",
"SSSSSSA<;XO$7fjggfdaeY R+W~I99$qIETq +tr Y EUnjjgfsu>:1AAAAAASSS",
"ASAAAA<;oXO$JnnnnkszI T RWIq99qIWEq   +rU T !Mnnkday>o;:<<<<12AA",
"<<<<<:;oXXO$K~~~ETUII T RY9q99qIWqO    +U r !!!WEYIrOXo-----;;:<",
"----ooOOOO$$Ktt$$$   Y RRWIq99$qqOO     +r E9eqq+   OOOOOOOOOoo-",
"OOOOOO999999K~~~ETUIIY RRW~I99$$+OO +    Y E!!!WEYIrOO$$$$+++OOO",
"9eerAAAAA29OJnnnnksxIY RRW~~I9$$+OO+U+   Y E!Mnnkday99qqqqqqq$$$",
"eKFHLLHHGS<OJdjggfdaIY R+I~~~q$$+O+eUU+++Y E!njjgdsu><1AAq99999q",
"eFLLLHGGFS<OJnnnnksxIY R++I~I9$$+OO eUtrUY E!Mnnkday><AFGDDDS2$q",
"eFLGFDDDDS<OK~~~ETUIIY R++9q99$$qOO  etrUY E!!!WEYIr><ADFFFFS1$q",
"eHHDSSDDSS<OKtt$$$   Y Rq+9q99$IWqO   trUr E9eqq+   ;<2SSDSSA<$9",
"eHHDSSDDSA<OK~~~ETIII r Rq9q99I!WEq    rU T !!!WEYIr><2ASDSSS<$9",
"eHHDSSDDSA:OJnnnnkszI T RWIq9I!!WEq    rU T !Mnnkday><2ASSSSS<$9",
"eHHDDDSDSA:O7djggfdszY R+W~~~~!!WqO   tr Y EInjjgfsu>:1AAAAAA:$$",
"eHHFDDDDSA:O,djggfdspY RR+~~~~!!WOO  Ut Ur !mkjjgfsu>--;::::;-$$",
"eHHDDDSSSA:O,djggfdsazT RW9~~~!!WqO U9 rr TrnkjjgfsuOOOOOOOOOOO$",
"eHHDSSDSSA;O3djggfdsaavR+W~q9~!!WETY  t9 YInkkjjgfsuOO$$$$$$$$$$",
"eHHDSSSDSA-O3fjggfdsapsbR+9~~9$$+OO UU  UIdfkkjjgfsu>-:12A222<$q",
"eHHDSSSSS1-O9fjggfdsappdbWYq9~!!WETr  trrafhkkjjgfsu><AFHHHGD1$q",
"eFHFDDDSA<O+9fjggfdsappadnU~9~!!WET UUeyidfhkkjjgfsu><ALPPLLS<+9",
"eFHFDSDSA:O+9fjggfdsappasfn~9~MnnvT Uzyupdfhkkjjgfsu><AGHLHFA:+9",
"eFGDSSSA2;O+9fjggfdsappasgn~9~ngslT Uuuuadfhkkjjgfsu><ASDFDS2;+$",
"9SDDSS21<$O$9fjggfdsappasgn~9~ngslT Uuuuadfhkkjjgfsu><ASDDDS1;+$",
"9SSSS2<:-O+$9fjggfdsappasgn~9~ngslT Uuuuadfhkkjjgfsu><ASSSSS1;+$",
"9<1<<:;;oO+$9fjggfdsappasgn~9~ngslT Uuuuadfhkkjjgfsu><2ASSSA1;O$",
"9$OOOoooXO$99fjggfdsappasgn~9~ngslT Uuuuadfhkkjjgfsu><2ASSAA1;O$",
"qqq9$OO+O+$9$fjggfdsappasgn~9~ngslT Uuuuadfhkkjjgfsu><2ASSAA<-O$",
"9999999+++$9$fjggfdsappasgn~9~ngslT Uuuuadfhkkjjgfsu><2AAAAA<-O$",
"92SSDSSA199q$djggfdsappasgn~9~ngslT Uuuuadfhkkjjgfsu>:<1111<:oO$",
"9SHLLLLLGDSA5djggfdsappasgn~9~ngslT Uuuuadfhkkjjgfsu>o------oO+$",
"9SLLGGLLLLLH7djggfdsappasgn~9~ngslT UuuuadfhkkjjgfsuOOOOOOOOO+$9",
"9DLGFFFGFGHLJdjggfdsppppsfn~9~nfslT UuuupdfhkkjjgfsuOO++++++$$99",
"9SLGDDSSSSSD7idaaauuuyyuidn~9~ndauT U=&&updgkkjjgda*OO$$$$$$999q",
"9SLGDDSSSSSSS,,>>>>>>>>>3*zY Yzyy*e e    %uadddfspyOO9999999qqqq",
"9SFSSSAAASASSA21<<<<<<<:;>>:::>>>O$9>-;;;>>3$$$$$$99q2DDDSSAA99q",
"9AA1<<<<<<<<<<<<<<<<<<:::;;;;;;;oXO$912211<<<:q<<122ASFFFFDDD1Oq",
"9<<--ooooooooooooooooooooooooooooXO+92AA2111<<9SSSSSDDDDDDDSS<Oq",
"9$OOOOOOOOOOOOOOOOOOOOOOOOOOOOOOOOO+9$9$:::::;9SSAASSSASASSA2;Oq",
"q9$$$+++++++++++++++++++++++++++++++$qq$$OOOOO$<<:::::::::::;-Oq",
"qqqq99999999$$$$$$$$$$$$$$$$$$$$$$$$$qqqq$$$$$$--OOOOOOOOOOOOOOq",
"OOOOOOOOOOOOOOOOOOOOOOOOOOOOOOOOOOOOOOOOOOOOOOOOOOOOOOOOOOOOOOOO"
};
