/* XPM */
static char *out[] = {
/* columns rows colors chars-per-pixel */
"64 64 25 1 ",
"  c gray11",
". c #28200C",
"X c #302410",
"o c #382C14",
"O c #202020",
"+ c #282828",
"@ c #2C2C2C",
"# c gray19",
"$ c #343434",
"% c gray22",
"& c #403018",
"* c #483818",
"= c #543C1C",
"- c #5C4020",
"; c #6C4824",
": c #004040",
"> c #005858",
", c #006060",
"< c #006464",
"1 c gray25",
"2 c #484848",
"3 c #4C4C4C",
"4 c gray33",
"5 c gray36",
"6 c #646464",
/* pixels */
"<<<<<<<<<<<<<<<<<<<<<<<<<<<<<<<<<<<<<<<<<<<<<<<<<<<<<<<<<<<<<<<<",
"<<<<<<<<<<<<<<<<<<<<<<<<<<<<<<<<<<<<<<<<<<<<<<<<<<<<<<<<<<<<<<<<",
"<<<<<<<<<<<<<<<<<<<<<<<<<<<<<<<<<<<<<<<<<<<<<<<<<<<<<<<<<<<<<<<<",
"<<<<<<<<<<<<<<<<<<<<<<<<<<<<<<<<<<<<<<<<<<<<<<<<<<<<<<<<<<<<<<<<",
"<<<<<<<<<<<<<<<<<<<<<<,,,,,<<<<<<<<<<<<<<<<<<<<<<<<,,,,,<<<<<<<<",
"<<<<,,<<<<<<<<<<<<<,,,,,,,,,<<<<<<<<<<<<<<<<<,,<<,,,,,,,,,,,,<<<",
"<,,,,,,,,,,<<<<,,,,,,,,,,,,,,,<,<<<<<<<<<<<<<<<<<<<<<<<<<<<<<<<<",
"<<,,,,,>%%@@@%<<<<<<<<<<<<<<<<<<<<<<<<<<<<<<<<<<<<<<<<<<<<<<<<<<",
"<<<<>2%@++@@++%1,,>:*-;*:><<<,,,,,,<<<<<<<,,,,,,,,,,,,,,,<<<<<<<",
",2%@@OO+  + +O %111****-*:>,,,,,%11%%+,,,,,,,,,,,,,>;;;--><<<<<<",
"@@++O++O@+ O++++@21**&&-*oo,,,1%%11%#@+2<<<<<<,,,>>;-**--&%2222%",
"@+OO O+++O O@++O @21oo&***&X1%%##%%#%#++%2222222222--**-*&%222%@",
"OO++OO+OOO@ O++ O @2%o&oo&X.%%%#@%%@%%+O%222%%%2222%---*&&%22%@ ",
"@+O+@@++OOO  O+  OO%1%ooXX.@%+@++@@@##OO%2%%%$$###22%&&&&%%%@+  ",
"O OO+@+@@+OO O  OO @21%@@@@%1%+++OO++OO%2%%$##+@@@%@2%%%%%@+O++ ",
"@++OOO+@@+O+O    O  @12222111%%%+OO%O%%2%@%%$#@%%@##@222%@+OOO+ ",
"@+OOOO++++ OOOO  O+ @2221;-**=-%%%%%%%2%$@%%$++%@###++2%@+OOO+O+",
" O O++OO OO+++O   ++O%21;-*&&&&-;2222%%$#+###++@@+##+ %@@++++OO+",
"@+O ++OO+O++@++O  OO %2***&o&o&o&;222%$$#+##+++@+O#+O %@@+O++OO+",
"+O@+O+++ O+@  O     @%**&**&&&o**&&@2%@##O+@@+++OO++O %@ O++@+OO",
"O@+ O@++O O++O      %**&&&******oooo%@@+@O+++OOOOOOOO % OOOO++O@",
"OO +O++O   O+O     @%*&&&o***oooo&oo@2+O+OO+O@+OO+@OO % O+OOOOOO",
" +O +OOO+O O   O  O@*ooo***oo&oo&&o&X%+OOOOO@++OO+O++ %O++++OOO+",
"++++  O@+OO      +@%*o&o*&&o&&ooo&oXX%+OO+ OO++OO +O+ %O+OO++OOO",
"O++ O O+O O     +@%**&o*oooo&&&&ooX..%@O++++OOOOO+O+ %2@+O +OOO@",
"  O +O OO+OOO  @@*oo&o&*oXXXoo&o&&o..%%OOO+OOO+OOOO @%2+++OO O  ",
"+O O+O  OOO   +@**&oo&o&ooXXXoXooXo..%%OOOOOOOOOOO@@%22%OOO O  +",
"+O         OO+@%&**&ooooo&oXXXoXXoX..%1%OOOOOOOO@@%2246%OO  O+ O",
"O O    OOOO+@%%2o&&ooXXo&&ooXoXo.XX.X%12%@@@@@@@@%224642@OO  O O",
" O   OOO++@@%222oo&&oXoXXXXoo&oXX...O%2211%%%%%%%%@@2442%@OO O  ",
"O  OO+++@@@@@@%2@oooXo&oXXoo&o&oXX..@121%%%$$#%%%%@+@%%11@OOOOOO",
"OOO++@@@%%%%%##@%XXXXoo&oX&oo&oXoX.O%1%%$$$##%%%#@++@@@@1%@OOO  ",
" +++@$$%%$#%#%#@@@XXoXoXo.XXooXoXXO%1%%######%$#@++@@##@@1%@OO  ",
"@@@@%$$$$%###+O+@%@.XoooX.XoXXXX.O%1%%#@+@+++@@@+O++O##@@@1%%@  ",
"%%@%$##@#%#@@++O+@2@X.XXo..X....@%1###@@++$$+@@@+OOO@@@@$% 1%%%%",
"%@@#%##@+#@+++OO++%2@X....... ++%1@#$$##+@$$O++O@O+OO@@+$$++11%%",
"2@++++@@+O+OOOOO++ 1%@X.XX ++@@%1%%$%%$$+++++O++OO@OO@O++O++%211",
"2+ O+O+++O@++OOOOO 1%%@@@@@%%112%%$%%$#+++O+OO+OO@@OO++O+++  %22",
"2%@OO O+O +@+O   O %%%%%%%%12322%$%%$#@+@O++@OOO+@$++OOOO+OO %22",
"22%O     OO++O     %%%111223542@@$%%#@@+OO+@@+OO++O+OO++OOO  %22",
"222@O   OOOOO    O@%%112334452%@@###@++OO++$$+OOO+++O++OOOO  %21",
"**%2%@   OOO   OO@@%%%@ooooX@%@@@@@+OO+OOO+$$+OOOOOOOOO+OO  @%1%",
"*&*&%%O       O@@@@oooooooXX.@@%@@++OOOOOOO+++OOO++O+OOO   @%%**",
"&o***o@@OOOOOO@@XXooooX.X.X.X.@%O+++O++@++OO+OO+#@+OO+O   @%&&**",
"***o&&o@@%@@@@XXXooooXX..XXX...%OOOOOO+++++OOOO+@@+OOOO@@@%&&***",
"o&&o&&oo%%%@XXXooooXooXXXXoXXX.@2  OO+O++++OOO+O++OOOO @@%&&**&&",
"&o&&ooXX@@@ooooXXXX.XoooXXXXXX..%% OOO+OOOOOOOOOOOOO  @%%%&**o&o",
"&ooXXXXX@@@oooX.ooXXoXX.XX..X...@%%  OOO  OOO+ OOO @@@%11&****o&",
"&&o&oXXX@@oooX.XooX.XX....X......@%%  OOO  @@@@+@@@%%%122**&**oo",
"ooo&XXXO@oooX..X.XX..X............@%%@   @@@%+++++++12244*&*&&oX",
"oXXooXXO@ooXX.X..X.................@%2%@@@%@@++++++++%144*&&&oX&",
"ooXXXXO+Xo.X.XX.......X.............@121%@@##@++@##+++@12%&oooo&",
"oXooXXO+XoXX...................X....@%2%@####@+++##@++@%1%&o&&Xo",
"oooXXOOXooooX.....XXX...........X...+%1@###@@@@+@##@+O@@1%@XooXX",
"XXXXOO+XoooXX.....XX................+%###@+++@#@@@+++O+@@2@XXXXX",
"XXOOO+@XXXoXXXXX....X...............O%#@#++@@@@++@+OOOO+@2%@ XXX",
"OOO++@@XX...XooX...XX...............O+###+@##+@++##@+OOO@12%@@@@",
"++++@@@XX...XooXX.................. O+@@@+@##+##+##@+OO+O121%@@@",
"OOO@@@@XX....XXX................... OO@#@+@++@##+++++++OO%%%OOOO",
"     @@XX.....XX...................  O@@++++O+##++O++O+OO%@OOOOO",
"OO OOO@XX..........................  O@++@@O+O++++++O+OOO@O OO O",
"OOOOO @@XX.........................  O@++@@+O+O++OO++OOOO@ OOOOO",
"    O O@X..........................  O+++O+OOO+OOO+O++OO@@ OOO  ",
"OOOO  O@@XX.X.....................   O+@@++OO+O+OOO+OOOO  @O OO "
};
