/* XPM */
static char *out[] = {
/* columns rows colors chars-per-pixel */
"64 64 22 1 ",
"  c black",
". c gray11",
"X c #28200C",
"o c #302410",
"O c #382C14",
"+ c #202020",
"@ c #282828",
"# c #2C2C2C",
"$ c gray19",
"% c #343434",
"& c gray22",
"* c #403018",
"= c #483818",
"- c #543C1C",
"; c #5C4020",
": c gray25",
"> c #484848",
", c #4C4C4C",
"< c gray33",
"1 c gray36",
"2 c #646464",
"3 c gray44",
/* pixels */
"<<<O*==;==============*oO====**O#&<<>>>>++++++++&>$&##@@@@###&><",
"<>>#O*=;=======*======*oO===*OO#&<<><>,,+++++++&>$&#@@#$$&&&&&&>",
">>>&#O*-========**====*oO=**O+#&&:====+&&+++++&>$&#@$$&&&&&&&&&&",
"#><>&#O-========**====OXO*OO#&,:==OOoOXO&&+++&>$&&&&&&$##@@@@@@@",
"@#>><&O-=============*oXOO#&,,:=OOOOoOoO+,&&&>$&&&&&&&&&&&&&&&&&",
"@@#>>>O*=====*======*oXO#&:,&==OOOOOoOoXX&,,>$&$@@@@@@@@@@@@@@@@",
"@@@#><#O*==========*oX+#&,,:=OOOOOOOooOXX&1<$&$@@@@@+@@@@@@@@@@@",
"@@@@#><#O*=======*ooO#&&,:==OOOOOOOOooOoX&3<&#@@@@@@@@@@@@@@@@@@",
"@@@@+#<&#O*====*ooX#&&:,:=*OOOOOOoOOoXoXX&3&#@@@@+@@@@@@@@@+@@@@",
"@@@@++<<&#O**ooXX#&:,,:==*OOOOOOOoOOoXXXX&2&#@@@+@@@@@@@@@@@@@@@",
"@@@@++<><&#XXXX+#&:,::=**OOOOOOOOOOOoXXX.&1&+@+@@@+@@@@@@@@@@@@@",
"@@@@++>><<&#####&,,:==*OOO*OOOOOOoOOoXXX@><&+@@@+@@@@@@++@@@@@@+",
"@@@@++>>&###&>332>:=**O**OOOOOOOOoOOoXXX#>1&#@@@@@@@@@@++@++++@@",
"@@@++&<&####+&322:=O**O**OOOOOOOOoOOoXXX&><&#@@@@@@@@@@@@@++++@@",
"@@++&<>#####++>2<=*O=OOOOOOOOOOOOXOOoXX.&><&#@@@@@@@@@@@@@++++@@",
"@++&<<&#####+++&#=O=*OOOOOOOOOOOoXOOoXX@&>>&#@@@@@@@@@@@@@++++@+",
"++&<<>&####@.@#+&=O=OO*OOOOOOOOOoXOOoXX#>>>#@@@@@@@@@@@@@@@@@@+.",
"+&&++&>####@.##&&=O*OOOOOOOOOOOOXXOOoXX&-=&#@@@@@@@@+@@@@@@@@+..",
"&&+**+&&##@..###>=**OOOOOOOOOOOoXXOoXX+-==#&.@@@@@@@@@@@@@@++...",
"&+*=O*+<++...###&&**OOOOOOOOOOOoXXoXX&-===O&&.+@@@@@@@@@+++....&",
"+*=OOOX&>+.+.###+<+*OOOOOOOOOOoXXXX@&,OOOOO>>&.+++++++++.....#&&",
"*=OOOOX+<&+@.###+>&oOOOOOOOOOOoXXX@&,<,&&&&2<&&...........++#&:$",
"=OOOOOXX&>++.##@+&<+OOOOOOOOOoXX.+&#######<23<>&#......++++#&:$*",
"OOO*OOXo&<&+.#@@+&<&oOOOOOOOoX.#&&#@@+@@@@#<311<&#+@@@@@@+#&:$*=",
"OOOOOOXo+<<&.@@++&<<+XoOOOooX#$:&#@@@++@@@@+<1<><&#+@@@++#&<&*=O",
"OOOOOOXOX&<>+++++>><&XXXXXXX.$<&#@@@@+@+@@@+><>##<&#++++#&<&$=OO",
"O**OOOXOX#><&+++><<<<+XXXX.@%<#%@##@@+@++@+.&>&++#<&####&<&$*OOO",
"O**OOOXOX+<2>&&><#--#&++@+%:<#%@@##@@+@@+..#&>#+++#<<<22<>$*OOOO",
"OOO*OOXOX+<>2>>&--====&&&><>#%@@@@@@@+@@+..#&&+++++&<22<>&*OOOOO",
"OOOOOoXoX+<>>>>-======*<<>>#%@@@#@@@@+@@...&>##++++#:>>&%#*OO***",
"OOOOOoXoX#>2>>>&======O<><#%%@@@@@@@@+@@..#><<:&&&&&:<>%#%*OO***",
"OOOOOoXoX#<<&#&<<===*OO<<#%@%@@@@@@@@+@+..&&;;;;;;;;;O=;%&*OO***",
"OOOOooOX+&<&#%#&<<**OO&<##@@%@@@@@@@++@+.#>---=======O===<*OOOOO",
"OOOOoXX+&&&#%###&<<&##<&#@@@%@@@@@@@+.@..#:-=-=======O==*:*OO*OO",
"OOOOXX+&&<#%#####&<2<2<#@@@@%#@@@@@@+.+..&&;=-==*====O==*:*OOOOO",
"OOOoX+&&>&#%######&<222#@@@@%#@@@@@@+.+.&>&;=-=======O==*&oOOOOO",
"OOoX+&&<<#%########&233#@@@@%#@@@@@@+..+>>-;=========O==*&$oOOOO",
"OoX+&&><&#%######@@#&33&@@@@%#@@@@@@+.+#<:-;=-=======*==*&&#XoOO",
"oX+&&><&#%##%#####+@#&2>@@@@##@@@@@@+..&<&-;========**==*&<&#Xoo",
"X+&&<<>&##########@+@#,2#+@@##@@@@@@+.+>>-=;=-======*===O&<:&#XX",
"+&&22<&#####%######.@#&>>++@###@@@@@..#<:-=;-=======*===O&,,:&$$",
"&&332&######%######.+##&&+.++##@@@@@..#<&-=;;======*====O&+++#&&",
"&<33>####%%####%#@#+.@##&#+..@#@@@@@.+&>-==;;======*====O&+++++#",
"++:2&###%%%######@#+.@###+#&#+@#@@@+.#><-==-;=====*=====O&++++++",
"+++<####%%%######+@+.+##@+&&#.+@#@@+.&<<*===;========*==O&++++++",
"+++>####%%#######@@+.+@@++&2,#.+++++.>>>&*==--==========O&++++++",
"++&&#######%#####+@+.+@+++<22,#.....#<>><&*==-=====**==*O&++++++",
"+&&&+@#%%########+@++++++#<%O%<#....><&++&&**=-====**=*O+&++++++",
"&>>>&+@%%#######@+@+..++#:%*Oo%<&##&<&+@++&>&*=======*O+&&++++++",
"<<>><&++@#######@+@..++#:%*OOoOo%<<<&+@++++&>&**====*O+&><%+++++",
"<><222&++@#####@++@..+#&%*OOOXOoO%<<+@++++++&>>#***OO+&######&,<",
":%--%:2&++@@###@+++++#&%*OOOOXOXOX<&+.+++..++&<>#*O++&&######+&<",
"--==--%:&+++@@@+++++#&%*OOOOOXOXOX<+@+.++..+++&<>#++&<###@###+&<",
"======--%&+++@+++++&$%*OOOOXOXOXo+&+@++..++++++&<>&&2&@@####@+&,",
"=*======-O&++++++#&:*=*OOOOOOXoX+$+@++++..+.++++&<>2,#@@####@+&-",
"=======*=O==++++#&:*=*OOOOOoOXoX#+@+++++....+++++&<2&######@++&-",
"==**===*=O==*++#&:**=*OOOOOoOXX+$+@+..+++....+++++&<#######++#-=",
"==**===*=o*OO##::*O*=OOOOOOXoo+#+@++...++. ...+++++&<#####+@+&-=",
"======*O*oOO#&::*OO*=O*OOOOXoX#&+@++..+.++..+..+++++&&###@++#-==",
"======*OOXO#:<:$OOO*=OOOOOOXX+&+@+++++++++. ....+++++&@@@+@+#-==",
"======*OoX#:<<<#OOO*=OOOOOoX+$+@@+++++++++. .+...+++++&@+##+-===",
"======OXX#:#.#<&$OO*=OOOOOoX#$+@@+++++..+++. .....++++#&##@&-===",
"=====*OX#:#...#<#OO*=OOOOoX+$+@@++++++..+++. .+++..+++#<@@&-====",
"====*XX#:<.....#&OO*OOOOoX+#&+@@++++.++++++. .++.+..++#<<&&-===="
};
