/* XPM */
static char *steel[] = {
/* columns rows colors chars-per-pixel */
"64 64 119 2 ",
"   c #2968A2",
".  c #266298",
"X  c #266095",
"o  c #276399",
"O  c #266299",
"+  c #266298",
"@  c #276299",
"#  c #27639A",
"$  c #27649C",
"%  c #266197",
"&  c #255E93",
"*  c #266298",
"=  c #276299",
"-  c #28649C",
";  c #266196",
":  c #255E93",
">  c #27639A",
",  c #266299",
"<  c #28659E",
"1  c #255F94",
"2  c #266096",
"3  c #27639A",
"4  c #27649C",
"5  c #255E93",
"6  c #266096",
"7  c #255F94",
"8  c #27639A",
"9  c #276399",
"0  c #266095",
"q  c #2B6CA8",
"w  c #245C8F",
"e  c #266095",
"r  c #245B8F",
"t  c #266197",
"y  c #255E92",
"u  c #28659D",
"i  c None",
"p  c #245C90",
"a  c #266197",
"s  c #266196",
"d  c #2B6CA8",
"f  c #245C8F",
"g  c #266095",
"h  c #245B8F",
"j  c #266197",
"k  c #255E92",
"l  c #255E92",
"z  c #266197",
"x  c #28659D",
"c  c #2867A0",
"v  c #245C90",
"b  c #266197",
"n  c #266197",
"m  c #266198",
"M  c #245C8F",
"N  c #266298",
"B  c #266196",
"V  c #28659E",
"C  c #266297",
"Z  c #266297",
"A  c #266297",
"S  c #266096",
"D  c #266298",
"F  c #255E93",
"G  c #28669E",
"H  c #245C8F",
"J  c #266198",
"K  c #245C90",
"L  c #245C8F",
"P  c #266096",
"I  c #2A69A3",
"U  c #27639A",
"Y  c #27639B",
"T  c #276399",
"R  c #255F94",
"E  c #276299",
"W  c #266298",
"Q  c #28659D",
"!  c #27649B",
"~  c #255F94",
"^  c #276399",
"/  c #28669F",
"(  c #266197",
")  c #27649B",
"_  c #28659E",
"`  c #255F95",
"'  c #255F95",
"]  c #276399",
"[  c #266399",
"{  c #255F94",
"}  c #255D91",
"|  c #266197",
" . c #266298",
".. c #266299",
"X. c #28659D",
"o. c #2867A0",
"O. c #266297",
"+. c #2967A0",
"@. c #27649B",
"#. c #266196",
"$. c #2968A2",
"%. c #255E92",
"&. c #245C90",
"*. c #266096",
"=. c #27639A",
"-. c #2967A1",
";. c #256095",
":. c #245C8F",
">. c #266095",
",. c #2968A1",
"<. c #276399",
"1. c #29669F",
"2. c #2966A0",
"3. c #28659C",
"4. c #28649C",
"5. c #27649C",
"6. c #26639A",
"7. c #256094",
"8. c white",
/* pixels */
"  . X X o O + O O @ # $ % & * = O + O O @ - O ; : > , O + O @ # < + 1 2 @ O + O + @ 3 4 % 5 @ O + + + O @ - + 6 7 8 , + O O 9 0 ",
"q [ { } |  . . . ...X.o. .w e O. . . . .[ +.@.#.r t  . . . . .@.$...%.y |  . . . ...u i  .&.*.O. . . . .=.-.=.;.p a  . . . ...s ",
"d [ { } |  . . . ...X.o. .f g O. . . . .[ +.@.#.h j  . . . . .@.$...k l z  . . . .[ x c  .&.*.O. . . . .=.-.=.;.v b  . . . ...n ",
"d [ { } O. . . . ...X.o. .f g O. . . . .[ +.@.#.h j  . . . . .@.$...k l z  . . . .[ x c  .&.*.O. . . . .=.-.=.;.v m  . . . ...n ",
"d [ { } |  . . . ...X.o. .f g O. . . . .[ +.@.#.h j  . . . . .@.$...k l z  . . . .[ x c  .&.*.O. . . . .=.-.=.;.M b  . . . ...n ",
"d [ { } |  . . . ...X.o. .f g O. . . . .[ +.@.#.h j  . . . . .@.$...k l z  . . . .[ x c  .:.>.O. . . . .=.,.=.;.M b  . . . ...n ",
"d [ { } |  . . . ...X.o. .f g O. . . . .[ +.@.#.h N  . . . . .@.$...k l z  . . . .[ x c  .:.>.O. . . . .=.-.=.;.M b  . . . ...B ",
"d [ { } |  . . . ...X.o. .f g O. . . . .[ +.@.#.h N  . . . . .@.$...k l z  . . . .[ V c  .:.>.O. . . . .=.-.=.;.M b  . . . ...B ",
"d [ { } |  . . . ...X.o. .f g O. . . . .[ +.@.#.h C  . . . . .@.$...k l Z  . . . .[ V c  .:.*.O. . . . .=.+.=.;.v A  . . . ...S ",
"d [ { } |  . . . ...X.o. .f g O. . . . .[ +.@.#.h C  . . . . .@.$...k l Z  . . . .[ V c  .&.*.O. . . . .<.+.=.;.v D  . . . ...S ",
"d [ { } |  . . . ...X.o. .f g O. . . . .[ +.@.#.h j  . . . . .@.$...k l Z  . . . .[ x c  .&.*.O. . . . .<.+.=.;.v A  . . . ...S ",
"d [ { } O. . . . ...X.o. .f g O. . . . .[ +.@.#.h j  . . . . .@.$...k l z  . . . .[ x c  .&.*.O. . . . .<.+.=.;.v A  . . . ...B ",
"d [ { } O. . . . ...X.o. .f g O. . . . .[ +.@.#.h j  . . . . .@.$...k l z  . . . .[ x c  .&.*.O. . . . .=.-.=.;.v m  . . . ...n ",
"d [ { } O. . . . ...X.o. .f g O. . . . .[ +.@.#.h j  . . . . .@.$...k l z  . . . .[ x c  .&.*.O. . . . .=.-.=.;.v m  . . . ...n ",
"d [ { } |  . . . ...X.o. .f g O. . . . .[ +.@.#.h j  . . . . .@.$...k l z  . . . .[ x c  .&.*.O. . . . .=.-.=.;.v m  . . . ...n ",
"d [ { } |  . . . ...X.o. .f g O. . . . .[ +.@.#.h j  . . . . .@.$...k l Z  . . . .[ x c  .:.*.O. . . . .=.-.=.;.M b  . . . ...n ",
"d [ { } |  . . . ...X.o. .f g O. . . . .[ 1.@.#.h j  . . . . .@.$...k F Z  . . . .[ x c  .:.>.O. . . . .=.-.=.;.M b  . . . ...n ",
"d [ { } |  . . . ...X.o. .f g O. . . . .[ 2.@.#.h C  . . . . .@.$...k F Z  . . . .[ x c  .:.>.O. . . . .=.-.=.;.M b  . . . ...B ",
"d [ { } |  . . . ...X.o. .f g O. . . . .[ +.@.#.h C  . . . . .@.$...k F Z  . . . .[ V c  .:.>.O. . . . .=.-.=.;.M A  . . . ...B ",
"d [ { } |  . . . ...X.o. .f g O. . . . .[ +.@.#.h C  . . . . .@.$...k F Z  . . . .[ V c  .:.*.O. . . . .=.-.=.;.M A  . . . ...B ",
"d [ { } |  . . . ...X.o. .f g O. . . . .[ +.@.#.h C  . . . . .@.$...k F z  . . . .[ G c  .:.*.O. . . . .<.-.=.;.v D  . . . ...B ",
"d [ { } |  . . . ...X.o. .f g O. . . . .[ +.@.#.h C  . . . . .@.$...k l Z  . . . .[ V c  .&.*.O. . . . .<.+.=.;.M A  . . . ...B ",
"d [ { } |  . . . ...X.o. .f g O. . . . .[ +.@.#.h C  . . . . .@.$...k F Z  . . . .[ x c  .&.*.O. . . . .<.+.=.;.M b  . . . ...B ",
"d [ { } |  . . . ...X.o. .f g O. . . . .[ +.@.#.h C  . . . . .@.$...k F z  . . . ...x c  .:.>.O. . . . .<.-.=.;.M b  . . . ...B ",
"d [ { } |  . . . ...X.o. .f g O. . . . .[ +.@.#.h j  . . . . .@.$...k F z  . . . ...x c  .:.>.O. . . . .=.-.=.;.M b  . . . ...n ",
"d [ { } |  . . . ...X.o. .f g O. . . . .[ +.@.#.h C  . . . . .@.$...k l z  . . . .[ x c  .:.>.O. . . . .=.,.=.;.M b  . . . ...n ",
"d [ { } |  . . . ...X.o. .f g O. . . . .[ +.@.#.h N  . . . . .@.$...k l z  . . . .[ x c  .:.>.O. . . . .=.,.=.;.M b  . . . ...n ",
"d [ { } |  . . . ...X.o. .f g O. . . . .[ +.@.#.h N  . . . . .@.$...k l z  . . . ...x c  .:.>.O. . . . .=.-.=.;.M b  . . . ...n ",
"d [ { } |  . . . ...X.o. .f g O. . . . .[ +.@.#.h C  . . . . .@.$...k l z  . . . .[ x c  .:.>.O. . . . .=.-.=.;.M b  . . . ...B ",
"d [ { } |  . . . ...X.o. .f g O. . . . .[ +.@.#.h C  . . . . .@.$...k l z  . . . .[ V c  .:.*.O. . . . .=.-.=.;.M b  . . . ...B ",
"d [ { } |  . . . ...X.o. .f g O. . . . .[ +.@.#.h C  . . . . .@.$...k l Z  . . . .[ V c  .:.*.O. . . . .=.-.=.;.M D  . . . ...B ",
"d [ { } |  . . . ...X.o. .f g O. . . . .[ +.@.#.h C  . . . . .@.$...k l Z  . . . .[ V c  .:.*. . . . . .<.-.=.;.M D  . . . ...S ",
"d [ { } |  . . . ...X.o. .f g O. . . . .[ +.@.#.H N  . . . . .@.$...k l z  . . . .[ V c  .:.*.O. . . . .<.+.=.;.M b  . . . ...B ",
"d [ { } |  . . . ...X.o. .f g O. . . . .[ +.@.#.h N  . . . . .@.$...k l z  . . . .[ V c  .:.>.O. . . . .<.-.=.;.M b  . . . ...B ",
"d [ { } |  . . . ...3.o. .f g O. . . . .[ +.@.#.H N  . . . . .@.$...k l z  . . . .[ x c  .:.>.O. . . . .<.-.=.;.M b  . . . ...S ",
"d [ { } |  . . . ...3.o. .f g O. . . . .[ +.@.#.H N  . . . . .@.$...k l Z  . . . .[ x c  .:.>.O. . . . .<.-.=.;.M b  . . . ...S ",
"d [ { } |  . . . ...3.o. .f g O. . . . .[ +.@.#.h N  . . . . .@.$...k l z  . . . .[ V c  .:.>.O. . . . .[ +.=.;.M b  . . . ...S ",
"d [ { } |  . . . ...3.o. .f g O. . . . .[ +.@.#.h N  . . . . .@.$...k l z  . . . ...V c  .:.>.O. . . . .[ +.=.;.M b  . . . ...S ",
"d [ { } |  . . . ...3.o. .f g O. . . . .[ +.@.#.H N  . . . . .@.$...k l Z  . . . .[ V c  .:.*.O. . . . .<.+.=.;.M b  . . . ...S ",
"d [ { } |  . . . ...X.o. .f g O. . . . .[ +.@.#.h N  . . . . .@.$...k l z  . . . .[ V c  .:.*.O. . . . .<.+.=.;.M b  . . . ...S ",
"d [ { } |  . . . ...X.o. .f g O. . . . .[ +.@.#.h j  . . . . .@.$...k l z  . . . .[ V c  .:.*.O. . . . .<.+.=.;.v A  . . . ...S ",
"d [ { } O. . . . ...X.o. .f g O. . . . .[ +.@.#.h j  . . . . .@.$...k l z  . . . .[ G c  .&.*. . . . . .<.+.=.;.v D  . . . ...S ",
"d [ { } O. . . . ...X.o. .f g O. . . . .[ +.@.#.h j  . . . . .@.$...k l z  . . . .[ G c  .&.*. . . . . .<.+.=.;.v D  . . . ...S ",
"d [ { } |  . . . ...X.o. .f g O. . . . .[ +.@.#.h j  . . . . .@.$...k l Z  . . . .[ V c  .&.*.O. . . . .<.+.=.;.M A  . . . ...B ",
"d [ { } |  . . . ...3.o. .f g O. . . . .[ +.@.#.h C  . . . . .@.$...k l z  . . . .[ V c  .:.>.O. . . . .<.-.=.;.M A  . . . ...S ",
"d [ { } |  . . . ...4.o. .f g O. . . . .[ +.@.#.h C  . . . . .@.$...k l z  . . . .[ V c  .:.>.O. . . . .<.-.=.;.M A  . . . ...S ",
"d [ { } |  . . . ...5.o. .f g O. . . . .[ +.@.#.H C  . . . . .@.$...k l z  . . . .[ V c  .:.>.O. . . . .[ +.=.;.M b  . . . ...X ",
"d [ { } |  . . . ...5.o. .f g O. . . . .[ +.@.#.h j  . . . . .@.$...k l z  . . . ...V c  .:.*.O. . . . .[ +.=.;.M b  . . . ...X ",
"d [ { } |  . . . ...4.o. .f g O. . . . .[ +.@.#.h j  . . . . .@.$...k l Z  . . . ...V c  .&.*.O. . . . .[ +.=.;.M A  . . . ...X ",
"d [ { } |  . . . ...4.o. .f g O. . . . .[ +.@.#.h j  . . . . .@.$...k l Z  . . . ...V c  .:.*.O. . . . .[ +.=.;.M A  . . . ...S ",
"d [ { } |  . . . ...3.o. .f g O. . . . .[ +.@.#.H C  . . . . .@.$...k l Z  . . . ...x c  .&.*.O. . . . .[ +.=.;.M A  . . . ...S ",
"d [ { } |  . . . ...X.o. .f g O. . . . .[ +.@.#.H C  . . . . .@.$...k l Z  . . . ...x c  .&.*.O. . . . .<.+.=.;.v A  . . . ...S ",
"d [ { } |  . . . ...X.o. .f g O. . . . .[ +.@.#.h j  . . . . .@.$...k l z  . . . ...x c  .&.*.O. . . . .<.+.=.;.v A  . . . ...S ",
"d [ { } O. . . . ...X.o. .f g O. . . . .[ +.@.#.h C  . . . . .@.$...k l Z  . . . .[ x c  .&.*.O. . . . .<.+.=.;.v A  . . . ...B ",
"d [ { } O. . . . ...X.o. .f g O. . . . .[ +.@.#.h C  . . . . .@.$...k F Z  . . . .[ x c  .&.*.O. . . . .<.+.=.;.v D  . . . ...B ",
"d [ { } |  . . . ...X.o. .f g O. . . . .[ +.@.#.h N  . . . . .@.$...k F z  . . . ...x c  .&.*.O. . . . .<.-.=.;.M A  . . . ...B ",
"d [ { } |  . . . ...X.o. .f g O. . . . .[ +.@.#.h J  . . . . .@.$...k l z  . . . .[ x c  .:.>.O. . . . .=.-.=.;.M A  . . . ...B ",
"d [ { } |  . . . ...X.o. .f g O. . . . .[ +.@.#.h N  . . . . .@.$...k l z  . . . ...x c  .:.>.O. . . . .6.-.=.;.M b  . . . ...S ",
"d [ { } |  . . . ...3.o. .f g O. . . . .[ +.@.#.h N  . . . . .@.$...k l z  . . . ...V c  .:.*.O. . . . .[ +.=.;.M b  . . . ...S ",
"d [ { } |  . . . ...3.o. .f g O. . . . .[ +.@.#.h C  . . . . .@.$...k l z  . . . ...V c  .:.*.O. . . . .[ +.=.;.M b  . . . ...S ",
"d [ { } |  . . . ...3.o. .f g O. . . . .[ +.@.#.h C  . . . . .@.$...k l z  . . . .[ x c  .&.*.O. . . . .[ +.=.;.M A  . . . ...S ",
"d [ { } |  . . . ...3.o. .f g O. . . . .[ +.@.#.H C  . . . . .@.$...k l Z  . . . .[ x c  .&.*.O. . . . .[ +.=.;.v b  . . . ...S ",
"q [ 7.} |  . . . ...3.o. .K e O. . . . .[ +.@.#.L t  . . . . .@.$...%.y |  . . . ...u i  .&.*.O. . . . .[ +.=.;.p a  . . . ...P ",
"I U n S @ + @ @ O @ Y < T R E W + @ @ O @ Q ! W ~ ^ W @ @ O @ # / # S ( @ O @ O @ @ ) _ T ` @ + O @ O @ @ Q # W ' ] W @ @ O 9 0 "
};
