/* XPM */
static char *out[] = {
/* columns rows colors chars-per-pixel */
"64 64 167 2 ",
"   c #09093B",
".  c #0A093B",
"X  c #0B093B",
"o  c #0A0A3B",
"O  c #0C093B",
"+  c #0D093B",
"@  c #0C0A3B",
"#  c #0D0A3B",
"$  c #0E0A3B",
"%  c #0F0A3B",
"&  c #100A3B",
"*  c #110A3B",
"=  c #140A3B",
"-  c #150A3B",
";  c #160A3B",
":  c #170B3B",
">  c #190B3B",
",  c #1B0B3B",
"<  c #1C0B3B",
"1  c #1E0B3B",
"2  c #1F0B3B",
"3  c #1F0C3B",
"4  c #200C3B",
"5  c #210C3B",
"6  c #220C3B",
"7  c #230C3B",
"8  c #240C3B",
"9  c #250C3B",
"0  c #270C3B",
"q  c #290D3B",
"w  c #2A0D3B",
"e  c #2B0D3B",
"r  c #2C0D3B",
"t  c #2E0D3A",
"y  c #330E3A",
"u  c #320E3B",
"i  c #330E3B",
"p  c #340E3B",
"a  c #360E3A",
"s  c #370E3A",
"d  c #380E3B",
"f  c #3A0E3A",
"g  c #3A0F3B",
"h  c #3C0F3B",
"j  c #3E0F3A",
"k  c #3F0F3A",
"l  c #400F3B",
"z  c #430F3A",
"x  c #44103A",
"c  c #46103A",
"v  c #48103A",
"b  c #49103A",
"n  c #4A103A",
"m  c #4A113A",
"M  c #4D113A",
"N  c #4F113A",
"B  c #50113A",
"V  c #54113A",
"C  c #57123A",
"Z  c #58123A",
"A  c #59123A",
"S  c #5A123A",
"D  c #5C123A",
"F  c #5D123A",
"G  c #5E123A",
"H  c #61133A",
"J  c #63133A",
"K  c #67133A",
"L  c #68133A",
"P  c #691439",
"I  c #6A143A",
"U  c #6B143A",
"Y  c #6D1439",
"T  c #6C143A",
"R  c #6D143A",
"E  c #6F143A",
"W  c #72143A",
"Q  c #76153A",
"!  c #7B1539",
"~  c #7A153A",
"^  c #7F1639",
"/  c #801639",
"(  c #831639",
")  c #851639",
"_  c #85163A",
"`  c #88173A",
"'  c #8B173A",
"]  c #8D1739",
"[  c #8E1739",
"{  c #8F1739",
"}  c #901839",
"|  c #911839",
" . c #931839",
".. c #941839",
"X. c #951839",
"o. c #961839",
"O. c #981839",
"+. c #991939",
"@. c #9B193A",
"#. c #9F1939",
"$. c #A11939",
"%. c #A31939",
"&. c #A41A39",
"*. c #A51A39",
"=. c #A61A39",
"-. c #A81A39",
";. c #A91A39",
":. c #AB1A39",
">. c #AD1B39",
",. c #AE1B39",
"<. c #B21B39",
"1. c #B31B39",
"2. c #B41B39",
"3. c #B71B39",
"4. c #B51C39",
"5. c #B61C39",
"6. c #B71C39",
"7. c #B81C38",
"8. c #B81C39",
"9. c #B91C39",
"0. c #BA1C39",
"q. c #BB1C39",
"w. c #BC1C39",
"e. c #BF1C39",
"r. c #C11D38",
"t. c #C21D38",
"y. c #C21D39",
"u. c #C31D39",
"i. c #C41D38",
"p. c #C51D38",
"a. c #C41D39",
"s. c #C61D39",
"d. c #CA1D39",
"f. c #C81E38",
"g. c #C81E39",
"h. c #CB1E38",
"j. c #CA1E39",
"k. c #CB1E39",
"l. c #CD1E39",
"z. c #CE1E38",
"x. c #CF1E39",
"c. c #D01E39",
"v. c #D11E39",
"b. c #D01F39",
"n. c #D21E38",
"m. c #D41F38",
"M. c #D51F38",
"N. c #D51F39",
"B. c #D61F38",
"V. c #D71F38",
"C. c #D81F38",
"Z. c #DA1F38",
"A. c #DB1F38",
"S. c #DA2038",
"D. c #DA2039",
"F. c #DC2038",
"G. c #DE2038",
"H. c #DF2038",
"J. c #E02038",
"K. c #E02039",
"L. c #E32038",
"P. c #E42038",
"I. c #E52038",
"U. c #E92138",
"Y. c #EA2138",
"T. c #EC2138",
"R. c #ED2138",
/* pixels */
"                                                                                                                                ",
"                                                                                                                                ",
"                                                                                                                                ",
"                                                                                                                                ",
"                                                                                                                                ",
"                                                                                                                                ",
"                                                                                                                                ",
"                                                                                                                                ",
"                                                                                                                                ",
"                                                                                                                                ",
"                                                                                                                                ",
"                                                                                                                                ",
"                                                                                                                                ",
"                                                                                                                                ",
"                                                      X 1 i z N N z i 1 X                                                       ",
"                                                . t E $.8.6.2.:.:.2.6.8.$.E t .                                                 ",
"                                              O D a.b.O.S r %     % r S O.c.a.D O                                               ",
"                                            s y.0.m .                     . n 0.t.s                                             ",
"                                          I S.G .                             . G Z.U                                           ",
"                                        _ g.q                                     q f.)                                         ",
"                                      H V.7                                         7 B.H                                       ",
"                                    y x.x                                     < d 5   x x.y                                     ",
"                                  * w.L                                   ; T s.L.,.    L w.*                                   ",
"                                  T ,.#                               O M <.T.R.R.w.    # ,.T                                   ",
"                                - n.a                               + J F.R.R.R.R.E       a n.-                                 ",
"                                n u..                               8 l.R.R.R.R.L.6       . u.n                                 ",
"                              , #.L                               x ( T P.R.R.R.I           L #.,                               ",
"                              k H.2                         . y | P.R.o.T A.R.@..           2 H.k                               ",
"                              R d.                        1 $.Y.R.R.R.R.o.c +.$               j.R                               ",
"                               .$.                      4 7.R.R.R.R.R.R.Y.}                   $. .                              ",
"                              =.]                     - [ U.R.R.R.R.R.R.4.u                   ] =.                              ",
"                              1.^                   4 [ U.R.R.R.R.R.R.I.n                     ^ 1.                              ",
"                              <./                 4 7.U.R.R.R.R.R.R.R.0.;                     / <.                              ",
"                              %.}               4 7.R.R.R.R.R.R.R.R.P.A                       } %.                              ",
"                              { *.            X ..R.R.R.R.R.R.R.R.R.%.-                       *.{                               ",
"                              K c.          X X.R.R.R.R.R.R.R.R.R.&.:                         c.K                               ",
"                              f S.0         ..R.R.R.R.R.R.R.R.R.&.:                         0 S.f                               ",
"                              : X.W       o y.R.R.R.R.R.R.R.R.&.:                           W X.:                               ",
"                                j z.O   ' J.P i.R.R.R.R.R.R.&.:                           @ z.j                                 ",
"                                * h.z   O.R.n.Y C.R.R.R.R.r.y                             z h.*                                 ",
"                                  F q.* > ;.R.n.Y C.R.R.y.y                             * q.F                                   ",
"                                  $ >.! . > ;.R.n.Y m.e.p                             . ! >.$                                   ",
"                                    0 k.C   > ;.R.t.w 6                               Z k.0                                     ",
"                                      v G.a   > p.9.                                a G.v                                       ",
"                                        L N.h   4 3                               h M.L                                         ",
"                                          B D.~ &                             & ! D.B                                           ",
"                                            8 -.v.K =                     = K v.-.8                                             ",
"                                                l -.K.2.Q b e < < e b Q 2.K.-.l                                                 ",
"                                                  3 V ` 2.6.5.4.4.5.3.2.` V 3                                                   ",
"                                                        * 9 y g g y 9 *                                                         ",
"                                                                                                                                ",
"                                                                                                                                ",
"                                                                                                                                ",
"                                                                                                                                ",
"                                                                                                                                ",
"                                                                                                                                ",
"                                                                                                                                ",
"                                                                                                                                ",
"                                                                                                                                ",
"                                                                                                                                ",
"                                                                                                                                ",
"                                                                                                                                ",
"                                                                                                                                ",
"                                                                                                                                "
};
