/* XPM */
static char *out[] = {
/* columns rows colors chars-per-pixel */
"64 64 217 2 ",
"   c #09093B",
".  c #0A093B",
"X  c #0B093B",
"o  c #0A0A3B",
"O  c #0C093B",
"+  c #0D093B",
"@  c #0C0A3B",
"#  c #0D0A3B",
"$  c #0E0A3B",
"%  c #0F0A3B",
"&  c #100A3B",
"*  c #110A3B",
"=  c #120A3B",
"-  c #130B3B",
";  c #140A3B",
":  c #150A3B",
">  c #140B3B",
",  c #150B3B",
"<  c #160A3B",
"1  c #160B3B",
"2  c #170B3B",
"3  c #180B3B",
"4  c #190B3B",
"5  c #1B0B3B",
"6  c #1C0B3B",
"7  c #1E0B3B",
"8  c #1F0B3B",
"9  c #1A0C3B",
"0  c #1D0C3B",
"q  c #1F0C3B",
"w  c #200C3B",
"e  c #210C3B",
"r  c #220C3B",
"t  c #230C3B",
"y  c #240C3B",
"u  c #250C3B",
"i  c #270C3B",
"p  c #240D3C",
"a  c #290D3B",
"s  c #2A0D3B",
"d  c #2B0D3B",
"f  c #2C0D3B",
"g  c #2E0D3A",
"h  c #290E3C",
"j  c #330E3A",
"k  c #320E3B",
"l  c #330E3B",
"z  c #340E3B",
"x  c #360E3A",
"c  c #370E3A",
"v  c #320F3C",
"b  c #330F3C",
"n  c #380E3B",
"m  c #3A0E3A",
"M  c #3A0F3B",
"N  c #3C0F3B",
"B  c #3D0F3B",
"V  c #3E0F3A",
"C  c #3F0F3A",
"Z  c #3D103C",
"A  c #400F3B",
"S  c #430F3A",
"D  c #44103A",
"F  c #46103A",
"G  c #43113C",
"H  c #46123C",
"J  c #48103A",
"K  c #49103A",
"L  c #4A103A",
"P  c #4A113A",
"I  c #4D113A",
"U  c #4F113A",
"Y  c #50113A",
"T  c #54113A",
"R  c #57123A",
"E  c #52133C",
"W  c #53133D",
"Q  c #54133C",
"!  c #5A123A",
"~  c #5B123A",
"^  c #5C123A",
"/  c #5D123A",
"(  c #5E123A",
")  c #58143C",
"_  c #61133A",
"`  c #63133A",
"'  c #67133A",
"]  c #68133A",
"[  c #691439",
"{  c #6A143A",
"}  c #6B143A",
"|  c #6D1439",
" . c #6C143A",
".. c #6D143A",
"X. c #6F143A",
"o. c #72143A",
"O. c #76153A",
"+. c #7B1539",
"@. c #7A153A",
"#. c #7F1639",
"$. c #79193D",
"%. c #7D193D",
"&. c #801639",
"*. c #831639",
"=. c #851639",
"-. c #85163A",
";. c #88173A",
":. c #8B173A",
">. c #8D1739",
",. c #8E1739",
"<. c #8F1739",
"1. c #811A3D",
"2. c #871B3D",
"3. c #8D1C3E",
"4. c #8E1C3E",
"5. c #901739",
"6. c #901839",
"7. c #911839",
"8. c #931839",
"9. c #941839",
"0. c #951839",
"q. c #961839",
"w. c #911C3E",
"e. c #931D3E",
"r. c #941D3E",
"t. c #981839",
"y. c #991939",
"u. c #9B193A",
"i. c #9F1939",
"p. c #9A1D3E",
"a. c #9D1E3E",
"s. c #A11939",
"d. c #A31939",
"f. c #A41A39",
"g. c #A51A39",
"h. c #A61A39",
"j. c #A01E3E",
"k. c #A61F3E",
"l. c #A81A39",
"z. c #A91A39",
"x. c #AB1A39",
"c. c #AD1B39",
"v. c #AE1B39",
"b. c #B21B39",
"n. c #B31B39",
"m. c #B41B39",
"M. c #B71B39",
"N. c #B51C39",
"B. c #B61C39",
"V. c #B71C39",
"C. c #B31F3D",
"Z. c #B81C38",
"A. c #B81C39",
"S. c #B91C39",
"D. c #BA1C39",
"F. c #BB1C39",
"G. c #BC1C39",
"H. c #BF1C39",
"J. c #AB203E",
"K. c #AD203E",
"L. c #AF203E",
"P. c #BE223F",
"I. c #C11D38",
"U. c #C21D38",
"Y. c #C21D39",
"T. c #C31D39",
"R. c #C41D38",
"E. c #C51D38",
"W. c #C41D39",
"Q. c #C61D39",
"!. c #CA1D39",
"~. c #C81E38",
"^. c #C81E39",
"/. c #CB1E38",
"(. c #CA1E39",
"). c #CB1E39",
"_. c #CD1E39",
"`. c #CE1E38",
"'. c #CF1E39",
"]. c #D01E39",
"[. c #D11E39",
"{. c #D01F39",
"}. c #D21E38",
"|. c #D41F38",
" X c #D51F38",
".X c #D51F39",
"XX c #D61F38",
"oX c #D81F38",
"OX c #DA1F38",
"+X c #DB1F38",
"@X c #C1233F",
"#X c #C3233F",
"$X c #DA2038",
"%X c #DA2039",
"&X c #DC2038",
"*X c #DE2038",
"=X c #DF2038",
"-X c #DB263E",
";X c #E02038",
":X c #E02039",
">X c #E32038",
",X c #E42038",
"<X c #E52038",
"1X c #E4233B",
"2X c #E2263E",
"3X c #E92138",
"4X c #E82139",
"5X c #EA2138",
"6X c #EB2239",
"7X c #EB233A",
"8X c #EC2138",
"9X c #ED2138",
"0X c #EC233A",
"qX c #E8243B",
"wX c #EB243B",
"eX c #E9263D",
"rX c #E9273E",
/* pixels */
"                                                                                                                                ",
"                                                                                                                                ",
"                                                                                                                                ",
"                                                                                                                                ",
"                                                                                                                                ",
"                                                                                                                                ",
"                                                                                                                                ",
"                                                                                                                                ",
"                                                                                                                                ",
"                                                                                                                                ",
"                                                                                                                                ",
"                                                                                                                                ",
"                                                                                                                                ",
"                                                                                                                                ",
"                                                      X 7 l S U U S l 7 X                                                       ",
"                                                . g X.s.A.V.m.x.x.m.V.A.s.X.g .                                                 ",
"                                              O ^ W.{.t.! f %     % f ! t.].W.^ O                                               ",
"                                            c Y.D.P .                     . L D.U.c                                             ",
"                                          { $X( .                             . ( OX}                                           ",
"                                        -.^.a                                     a ~.=.                                        ",
"                                      _ 4Xi                                         t XX_                                       ",
"                                    j '.C.1.&                                 6 n e   D '.j                                     ",
"                                  * G.] 9 j.4.>                           <  .Q.>Xv.    ] G.*                                   ",
"                                   .v.#   , e.p.3                     O I b.8X9X9XG.    # v. .                                  ",
"                                : }.x       * 2.k.0                 + ` &X9X9X9X9XX.      x }.:                                 ",
"                                L T..         > J.w.@               y _.9X9X9X9X>Xr       . T.L                                 ",
"                              5 i.]             % a.j.h           D *. .,X9X9X9X{           ] i.5                               ",
"                              C =X8               X 3.P.b   . j 7.,X9Xq. .+X9Xu..           8 =XC                               ",
"                              ..!.                  . W @XE s.5X9X9X9X9Xq.F y.$               (...                              ",
"                              8.s.                      Q 2X7X9X9X9X9X9X5X6.                  s.8.                              ",
"                              h.>.                    : 5.qXrX0X9X9X9X9XN.k                   >.h.                              ",
"                              n.#.                  w ,.3X9XwXeX0X9X9X<XL                     #.n.                              ",
"                              b.&.                w Z.3X9X9X9X7XrX7X9XD.<                     &.b.                              ",
"                              d.6.              w Z.9X9X9X9X9X9X0XeX1X~                       6.d.                              ",
"                              <.g.            X 9.9X9X9X9X9X9X9X9XwX-XG                       g.<.                              ",
"                              ' ].          X 0.9X9X9X9X9X9X9X9X9Xf.) #XH                     ].'                               ",
"                              m $Xi         9.9X9X9X9X9X9X9X9X9Xf.2   Z @X%..               i $Xm                               ",
"                              2 0.o.      o Y.9X9X9X9X9X9X9X9Xf.2       v K.4.X             o.0.2                               ",
"                                V `.O   :.;X[ R.9X9X9X9X9X9Xf.2           % j.a.%         @ `.V                                 ",
"                                * /.S   t.9X}.| oX9X9X9X9XI.j               p L.$.$       S /.*                                 ",
"                                  / F.* 4 z.9X}.| oX9X9XY.j                   0 k.2.=   * F./                                   ",
"                                  $ c.+.. 4 z.9X}.| |.H.z                       3 p.r.1 +.c.$                                   ",
"                                    i ).R   4 z.9XU.s r                           - 3.C.).i                                     ",
"                                      J *Xx   4 E.S.                                B 6XJ                                       ",
"                                        ] .XN   w q                               N  X]                                         ",
"                                          Y %X@.&                             & +.%XY                                           ",
"                                            y l.[.' ;                     ; ' [.l.y                                             ",
"                                                A l.:Xm.O.K d 6 6 d K O.m.:Xl.A                                                 ",
"                                                  q T ;.m.V.B.N.N.B.M.m.;.T q                                                   ",
"                                                        * u j M M j u *                                                         ",
"                                                                                                                                ",
"                                                                                                                                ",
"                                                                                                                                ",
"                                                                                                                                ",
"                                                                                                                                ",
"                                                                                                                                ",
"                                                                                                                                ",
"                                                                                                                                ",
"                                                                                                                                ",
"                                                                                                                                ",
"                                                                                                                                ",
"                                                                                                                                ",
"                                                                                                                                ",
"                                                                                                                                "
};
