/* XPM */
static char *out[] = {
/* columns rows colors chars-per-pixel */
"64 64 27 1 ",
"  c black",
". c #00001C",
"X c #00002C",
"o c #000040",
"O c #00004C",
"+ c #000058",
"@ c #000064",
"# c #000070",
"$ c #00007C",
"% c #000088",
"& c #000098",
"* c #0000A4",
"= c #0000A8",
"- c #0000B0",
"; c #0000BC",
": c #0000C8",
"> c #0000E0",
", c #0000FC",
"< c #2024FC",
"1 c #4040FC",
"2 c #5454FC",
"3 c #7C80FC",
"4 c #9C9CFC",
"5 c #B8BCFC",
"6 c #D8D8FC",
"7 c #ECECEC",
"8 c gray99",
/* pixels */
"XX..oO+oO++#oooXo...o+@#+@$#X..XOO+#OooXXXo++#@#@+. .XXooXXXXXXX",
"oo..OOXo+O$#O+OXOX ..+@o+@+X...XXo@+XOoXXO+++@@##X  ...XoXXX....",
"XoOoXOXO#$@##@OXXXX  XO@&$X...oOO@&OXoXo@@@%&#%OX  .XXXooXXXXXXX",
"oOoXX@X@O+++ooOoXX..  XOOX..XO+++@@XXoo@$%$##O$.. .XooO+oXXXXXoO",
"OO+O+X.XoooXoOX...Xo  .X  ..+@+$&$OXoO@##+@%$oX   Xo+@+o.XXoooOo",
"O@@+#...XXXXXX.XOOO+X...  .oO+#&@oooo+%##%&$O... .X@#$#@OOo++OOX",
"+oO#+.....XXX..O@@+@+.  ..oO@%%#oooo+@$##%%oX .X...O#$#@+oo#@OO+",
"OOOooX.oXO@@oX@&%###o   Xo@%%&#@OoXXO#@+O+OX..Xo. .XX%$#$@@OXXXX",
"OXoOOOX.@##oX+@#$&&$X  XX+%%%%+O.X+#@OOo#$o...XoX. .O@##+ooOoXXX",
"OXXXOO+o$@XX+$#&%@O+...X+$$$%%@Xo+#@++@$&@X..oo+o. .o+##+@+oXoXX",
"oOO#%@o...o%$%&&@$%X  .XO$*=&&OO$#&####$%o..XOOOXX. .O+$$$O+oXXX",
"O+@$OXooXX@#$&%%&#o.  .Xo-=&$@O+$$&#$#$&O..X#$##@+.. .O+#$###+OO",
"+++XXo@@#++OOooX.X....  .$%@&%%:<:#$-&$oX..@@$&$#OX.  .X##@@@+O+",
"#@+.OO@#+@#$$#Oo...ooO.  .XO#@**&%$:%$OX.XX$%&&$&##o....OO#@%%#$",
"$#.X#@%$##@@+X....X+O$O.  .XO$>;%*%**#o..+$*=&&%&##O+o ..Xoo@O+o",
"+XX++O+........XXX+ooXOoX....@O@$&=%@oX..O#&%%*&&$#@#o..  ..ooOo",
"..X.... ...X.XXO@XO#$@@@@#oO.XX$#+*++X..o@+$$#$@@+Oo..      ....",
"..    .XOoO++@@#+@&&&$#@@@#%O.Xo#&%o..X..XX.X....      ... .    ",
"oXXX.. XoO+@OoO@@$&=&$*&%%+$$..X.XX  .X.X. ............XXXXX....",
"OoOoXX..X+$%#$##*<:&&:<:;=&&&ooX.   .oooo  .OoXXXXXXXo++++ooOoXX",
"@@@OXXX.Xo$%%%%*%=%;;:<1>#@-;oX.   .Xoooo. .@oXo++++###+#++@@OOo",
"@OO+oooO..o-<%=*&*;:122#=-<:$X . ..XXOoooo  +oX+@@$%%@%+#++ooXoo",
"OO+OOOO+o.o&&=<-&&*;1$&=<<-+X..XOOoO$#@%#@. .Xo+#&&#%%&@#@+oXX..",
"oXo+#+$@+..o@;:&<121>2222#oX.XXoXo#<:%%%OO#. o.@%&&%;&&++oXOOooX",
"OO@@$@-&%.  .XX+O$#@:111oO..XOO@$=:<===%O%$+..XXO$%&-&%@$#@#+++O",
"@O@#$#*%#X  ...XXXoO@#+OX..X+O+$&&&;;&@+#--*O.oo+++&-&*$*##&$%#@",
"$%&&**;;&...ooOXoXX......oOO##$&&*&&=$&;;<<-@ .++@#@*=<*:%:;&@@#",
"%%**&--%#...oXoOOoX... .#@++&&&&%%%&&-*:<<<<%. @#*%#@%%#%$%%$%&@",
"%%%*=::&X..ooXOOO@+oX..X%&&-;$=;;:-;-<::<<<1=# .@*-&%++%&#$$#$$$",
"%&%&%%@o.X+#$$%$#@+O@X.X%<<<=<<<<<<<<;<<<<;:;#. O@&*=##+oX@@$%%#",
"%=&=*&$o.o@#&&&;&&%%&O..&<<<:<:<::<1111111<-%+X .+11==&&&@$#%$%&",
"#&$&$$#X.#%%--<*-=&:&&X.%<<1<<<:1111<11<<<-$%$O. o@11<:;*$$+#$#$",
".OO#*-#XX@##=:=;-&;1<;@XO:<1<;11111211<&@@@&&%++ .+%*1<*:&&+$@OX",
"+o@&*&@..O%*=:<;*-<1;;<oX*111*<<<1<<-%=:<**&-:##X .oO%@#&%%++X.X",
"#&-;<&o. X@&&;$&;<11:<<@X@<<<*11111111121111<:&=*o.XX#@OXXXXXoO$",
"%;*;$+X..+#=<:-:;11--<<;.@<22<1111<1223222111<<<&%+X.O#&&=&$&##%",
"&$$%OX.X%%*:<:::;<;;<1<;..$12<<112233322222111<<<<<@..$:<<&&&#&&",
"*;$%o..O#%&=<:=<<<;<1222o.X<3211122333322231111<<;<<+.X<2111:%=$",
"@o.X..o#*;*-<<<<<<<12322<XX#122*12223432212222111<<<<$.X#2211=;-",
"...  XO#&=$=<<21<<<<1113<o+o$13223322322213223331<<11<X..X+-*=;&",
".....@$%%%&<1231122222321%*O++@#>3543323214443<<:<<<<<#oXXX.X#+O",
"+O...+%$&&;12322111322322&*&%Xo..>2334331<1221<<<<<111&XX    ...",
"@#X.XO#@+=<12331:<2233341<%=;@++$@+>34231<1123322222<:$...O++ooX",
"#@O..o@@&;<;12321223433211$#&@1121#+>2222<23432333221&o.XO##@OOo",
"$%#X.X+#$-;<233222332222##@&;1211<<$o$34335323333221*XX++@###$$#",
"%&+@.X+%;1232222122233&@#$<<12232311o@3444443433332;XX@&$**&-=+$",
"*=$%X.O%$-;;*<123321@oX#111122223442<##45554443321&X.#&;%*#@$#O$",
"%+%&oXX*-==123343<#+..O1<<12222555321;o*13454542;$.@#;>,>;%$@$#%",
"@;-:$O@;1223322+#oo@X ;11113344434331<o..X..X+O+++X+-:-;,&&#@$OX",
"%;;-&OX@$%%%ooXXoX+#. %12122454344422;X@&&+$&*&:<<oX&*><>:*@@+o@",
"&%=**o.o+@@+XoO*<:*:O <23322322554432o$<11<11111<<$O$>21>-:&&$##",
"&=;:-X.#@&:@%=<<<<<1@ 12242223454343+O<11233322211&o$-21,>:*&%##",
"&-;:-.@=&;;;<<123322#O1334234545543&X<222335433211;+o$>2,;>:;$#+",
"&;-;@.*-:<1233432334X<234345566843%X@2344544322111;#X#*#12<*$@$O",
"&*&&..=<<22233334333+235566665321<$-*2365433222211<<&oO$#12,>&#o",
"$$@o.X&<223333432244+2255554331111<#%236543454322111<oX%*>1;-&#O",
"oX....X=124333322252o2354211<+XX;*#&$*235566433222221;+o+$%$#@oX",
". .XX .o#2433222135+X31;%O.O&<<<<<*#X@@&2444343333122<OX.O.X..oX",
" .X+OX .#1343332344o<;X o*1243234321;-+OX&23655443352+XX...     ",
".Xo@%=X.X:14453344#+**;11233455666765321$#<135666652X..oooo...  ",
".Xo%#&-..#15555555<#%1<34578775666765543111<<12353&XXo$%@+XXX.  ",
".X+#&>2X.o<2454552$1124555678687666556455421:@&#*XO$<&=*$#@O..  ",
" .XO%=12.X=<34354*%3356568866588888886564311:o#X@&1221<<;%@X.   ",
" .XO%=<2oo&124452#2455558866888888888785241-$1234554432*-#OX.   "
};
