/* XPM */
static char *out[] = {
/* columns rows colors chars-per-pixel */
"64 64 66 1 ",
"  c black",
". c #28200C",
"X c #302410",
"o c #382C14",
"O c #202020",
"+ c #282828",
"@ c gray19",
"# c gray22",
"$ c #400000",
"% c #4C0000",
"& c #580000",
"* c #640000",
"= c #700000",
"- c #7C0000",
"; c #403018",
": c #483818",
"> c #543C1C",
", c #404000",
"< c #585400",
"1 c #706C00",
"2 c #5C4020",
"3 c #6C4824",
"4 c #744C28",
"5 c #004040",
"6 c #005858",
"7 c #006464",
"8 c #007070",
"9 c #007878",
"0 c gray25",
"q c #484848",
"w c gray33",
"e c #646464",
"r c gray44",
"t c #7C7C7C",
"y c #880000",
"u c #980000",
"i c #A40000",
"p c #B00000",
"a c #BC0000",
"s c #C80000",
"d c #D40000",
"f c #E00000",
"g c #EC0000",
"h c #9C4C00",
"j c #B45400",
"k c #885830",
"l c #A0643C",
"z c #CC6000",
"x c #FC4040",
"c c #FC5454",
"v c #848400",
"b c #9C9C00",
"n c #B4AC00",
"m c #CCC400",
"M c #E4D800",
"N c #FCF400",
"B c #FCF420",
"V c #008484",
"C c #008C8C",
"Z c #009C9C",
"A c #00B4B4",
"S c gray55",
"D c #989898",
"F c gray66",
"G c #B4B4B4",
"H c #FCFC9C",
/* pixels */
"@@@@@@@@@@@@@@@@@@@@@@@@@@@@@@@@@@@@@@@@@@@@@@@@@@@@@@@@@@@@@@@@",
"######0####0###0@0####0##@@###00000######00000######0####0###0@0",
"2222240#>22222244@>2222222224444444@#>222222222222240#>222222222",
">o>::20+Xo>o>:>>2#XoX>:>:>:::o>X:>2#+X>>o>o>>o>o>::20+Xo>o>:>>o>",
">o:>oznnnnnnnnnnnnnnnnnnnnnnnnnnnnnnnnnnnnnnnnnnnnnnnnnnnmMo>:o>",
">oo>ozzzzzzzzzzzzzzzzzzzzzzzzzzzzzzzzzzzzzzzzzzzzzzzzzzzznmo>:o>",
"ooXoo3z::::::::::::::::::::::::::::::::::::::::::::::::::znX:>2:",
"OO++o3j                                                 :zn+++++",
"@###o3j+++555555555555555555555555555566677788877765555 :zn#@@@0",
"2224o3j55655568VVcxxxggggggggfffffggggggxxxcAZVV9888655 :zn22222",
":>22o3j6656566VcxgggggffffffafafafafffffgggggxcAZV98865 :zn:::>:",
":>o2o3j6667668gxxxgxgggffffffafafafffffgggxgxxxgAZV9886 :zn::::>",
":>22o3j867668gxxxxxgxgfggfffafafafffffgfgxgxxxxxgV89976 :zn:oX>o",
"X:>2o3jV8888gdgxxxgxgggffffffafafafffffgggxgxxxgdg8V977 :zn:XX2o",
"++@#o3jVVV98$iagxgayy====================yyagxgai$8V987 :zn+++++",
"@@##o3jZZVV9$$iaa=yOOO566665#+OOOO++##55555y=aai$$89976 :zn#@#00",
"2222o3jZZZZV$$&=$=OO5+55665#++OOOOOO++#5555O=$=&$$59766 :zn22440",
":X>oo3jVZZVg==$$$$OOqGD#55#+OOGGDtqOOO#tGGr5$$$$==g8876 :zn>>24@",
"X:X>o3j9VVgggi=$$$OtGt+O55++ O+DGDtOO+OO#rGDO$$=iggg685 :znX>22#",
":XX:o3j89gxxggi&$OqGt+OO##+rGGeGGGt+++OOO#rGDO&iggxxg65 :znX>o20",
":>X:o3j8sggxxggOOqDD+OOO+#+##+qeFtt+++OOOO#rG6Oggxxggy5 :zn:>o20",
"XXXXo3j6yaggxx+OOtGtOOOOO++++O#etD#++OOOOOOOGD65xxggay5 :znXX>>#",
"+@@+o3j6=iaggp66OGDwOOOq#+++O#eSDDO+#O#OOOO#DG6q5ggai-5 :zn++@##",
"2222o3j8$=iadO65OGDqOOO#q+O#qtSFFD###eOOOOOOrG##Odai=$5 :zn22222",
":>>>o3j95&=i*$O5OGD#OOOOrq#ODGGGGGGFteOOOOOOqG+O$$i=&55 :zn2>>2>",
"o>:>o3jC95&=$$$OOGD#OOOOOO#ODGGGGGGDeOOOOOOOqGO$$$=&565 :zn>>::>",
":>:>o3jZC85&$$$$OGD#OOOOOOOOtFFFFFGeOOOOOOOO#G$$$$&5686 :zn>>::>",
"::>>o3jZZC8**$$$OGD#OOOOOOO#etttttDOOOOOOOOO#G$$$$$58V8 :zn>:::>",
"XXXXo3jCCCVii==$OGDqOOOOOOOO#eeeettOOOOOOOOOqG$==ii8VZ8 :znXXXoo",
"@@+Oo3jVVV9fii=$OGDq+OOOOOOO#####eDOOOOOOOOOqG$=iif6VV6 :zn+++++",
"2222o3j9V9gfiii$OGDr#OOOOOOOOOOOO#tOOOOOOOOOrG$iiifg685 :zn2224@",
"X>>:o3j99gxgfi$OOSDtq#OOOOO+OOOOO#tOOOOOOOOOGDO$ifgxg65 :zn>:>20",
"X>X:o3j88igxg$O+OrGDeqOOOOOq+OOOO#eO++OOOOO#Gq+O$gxgi55 :znX>:2#",
">X:Xo3j87=ag*O++OeGDteOOOO+rqOOOO#r++++OOOOrG+OO+$ga=66 :zn:>>2@",
"X>X:o3j76$&a*$$+5OtDDtOOOO#SwOOOOqS#+++OOOOGD+O$$$a&$88 :znX>>2@",
"XXXXo3j665$&$$$$+O#GDDOOOOqSeOOOOwSqO++OOOeGqO$$$$&$588 :znXXX>0",
"O++Oo3j6665$$$$$$OOrGDOOOOeStOOOOeSeO+++OOGrO$$$$$$5696 :zn+++#@",
"24#0o3j6776555$%$$O#rGO+O+DDDOOOODDDO++OOtqO$$%$+5568V5 :zn22222",
">2##o3j579gf=$5$=%$O#r+++DqDqqDqGqDqDO+O#OO$%=$O$$ppV85 :znX>X>:",
":2@#o3j59gxg==$$==$+++++.o,,,<<<<<<<<33OOOO$==$$=pgxg65 :zn:>X:>",
"X2@#o3j5gfgxg$$$$=%$+++.o,1vbnnMMBBBBmb3OO$%=$$$ygxgfg5 :zn:X:>:",
"X>0#o3j5uiff*$$$$$$$++.oo,,,<f---fmmNBmb3O$$$$$$$$ffiu5 :znXXX>:",
"+@0#o3j5$=ii*+++$$$$##+.oooo---- --,v,<3+O$$$$+5+$ii=$+ :zn+++++",
"0000o3j5+$$==$+++$$#55#.,o,$- $-$ -fB,b3O+O$$+5+$==$$5+ :zn@@@0@",
"2222o3j655+$$$$$$$##555.,o,% $ $ $--B,b3+OO+$$$$$$$5555 :zn22222",
">:>2o3j866555+$$$$$+#5#.,o,---$ $---B,b3O++$$$$$5555665 :zn::::>",
"X:>oo3j68Vg-$+++$%$$+#+.,o,%-$ $ $ -B,b3++$$%$555$-gx85 :zn:::::",
"::>2o3j6Vggii-$$$&%$$5#.,o,$- $-$ -fB,b3+$$%&$$$-iigxx5 :zn::oX>",
">X:>o3j#ggxgi$$$==&%$55.,o,o$- ----,B,b3+$%&==$$$igxgg5 :zno:XX2",
"+++@o3j5-ifx*OO$$==$$#5.,o,o,$---fM,B,b3+$$==$$++$xfi-5 :zn+++++",
"@@@#o3j55-=i*&O++$$$++.,oo,,,<1bbMHNHBMl4+$$$+++&$i=-5+ :zn0#@#0",
"2222o3j555-$=$$$++++#+...;;o.;2222l22k,,>5555+$$$$$-555 :zn2224@",
"X>>:o3j55555$==&$####.,oo,,,<1bbMMHHBHMbl4555$&==$55555 :zn>:>20",
"X>X:o3j555$$$$$=$#5#+...;;o.oo;2224l22k,,>>55$=$$$$$+55 :znX>:2#",
">X:Xo3j55555#+$$++++.,oo,,,,<1bbMMHHBBHMbl455+$$O++++++ :zn:>>2@",
"X>X:o3j55555555#++++...ooo...oo;:244l22kkl45+5+++++++++ :znX>>2@",
"XXXXo3jjjjjjjjjjjjjjjjjjjjjjjjjjjjjjjjjjjjjjjjjjjjjjjjjjzznXXX>0",
"O++Oo3333333333333333333333333333333333333333333333333333hn+++#@",
"24#0ooooooooooooooooooooooooooooooooooooooooooooooooooooooh22222",
">2##+>:X>::>>X>X>:>Xo>oX>X>2#@Xo>>XX>>X>X:>>X>>2##+>:X>::>>X>X>:",
":2@#+:>:>X>:>X>::>oX:o:>o>X2#+oX:X:>X>>>XX>:X>:2@#+:>:>X>:>:>X:>",
"X2@#+X>o:X:>>:XX>:oXo>o:>X>2#+X>o:>>X:X>X:>>:>X2@#+X>o:X:>::X:>:",
">2##+>XX>:X>>>X:>X>Xo>oXo>X2@+:X>>X>X:X:XX:::>>2##+>XX>:X>>>::>X",
";;##+XXXXXXXXXXXXXXXXXXXXXX;@+XXXXXXXXXXXXXXXXX;##+XXXXXXXXXXXXX"
};
