/* XPM */
static char *out[] = {
/* columns rows colors chars-per-pixel */
"64 64 20 1 ",
"  c gray11",
". c #28200C",
"X c #302410",
"o c #382C14",
"O c #202020",
"+ c #2C2C2C",
"@ c #403018",
"# c #483818",
"$ c #543C1C",
"% c #5C4020",
"& c #6C4824",
"* c #744C28",
"= c #80502C",
"- c #885830",
"; c #905C34",
": c #9C6038",
"> c #A0643C",
", c #A86840",
"< c #B47044",
"1 c #BC7848",
/* pixels */
"######o  ...oooo%o:*%%%%%%#%@%ooo##&&&%#%####@o#o#o#ooooooooo@@#",
"%$###ooo**$oooo##%:*%**%&%%%%@ooo##%&&&%#%##@ooo#o#@#@oo@o@o@@#%",
"&%%%%&##$*oooo@##$:$%**&&%%#####@@##&&%%%&#@#%%#@###@#@@@ooo##%-",
"&::--&&$oo*$@@#%*:::*%&&%%##%%$$@@##%%%#%-&&*&%%$@####oo%**%#&--",
":--%@@@@o$@*:::&------###@#%&&&&=#@####%&&#:-=&%$#@##@@@*---&:-&",
"-%%@@@##oo@##:-&&%&#@@###@#%&&=&=&$o@###&#=--%%##@@#oo@@---::-**",
"&&@@$#$##@#-***&@@&%@@@&#@#;;=&%&%$$@#@@#&==%$##oo@@@ooo&:::-&**",
"@@@@#$#$&-::**&@@#-:-&&%##>===%&%&%$##@@@&%%$#$ooooooooo%:,,-&@@",
"@##$$#$&--:-*&$@#%%-@@&##@>#$%====%$##oo#%%$#o&&-*$:*oo@&,1,-%@@",
"$$$**===&-&&$$$&--&&@###@==@#$=%$%%&&%#o##$#ooo&$$&*:@##:,,,&%$@",
",,::-===$$o@@%&%##%&##%%#@@@$$$#%$%&$$&&&##oo&%&#@%#:*::::-=&&::",
",,:::&####o@@#&%##$@&#%*%##$$$#$#$%%$&;;&@#@o@#&%@#@*::**%$#$=::",
"---:&%#@@@o$&&--&###&#%**%$%$#&#$$$$%;<;&#@####%&#@#--*%ooo##%&-",
"%&&&%##@oo@@@&%:-%#@#@%*%$%=#$=%%$%$<<;=%@#$#$#$%$%*--*@ooo#@&&&",
"$$$$$#$ooo$&&%##%&%####%$###&*==;;&;<;=o@@$#$$$$#$&&**%%oo#o#==*",
"#@$*#&&@o$&::&###$###@@##@##=#%##=;;;%o#o##$$$$$$#&&@@%%$#o#*:=&",
"#@*$@#%**&#oo&&#@#####@@@@#%#####&;;%*o#@#$%;=$$$$#&&#@@$@#%=-&$",
"oo$@@@@=:ooo##&&o@#@@@@#@@#$$#%&%;%o&&;;;*%;&#&%$#$###@@@##&:-$#",
"o$$oo%=:*@@@@##-o@####@@@@$%%$#$&%oo$;**;;&&#%*&%$$$#@#@##&=:-$#",
"ooo$oo@%*#@#&@o:-&%@$#@@#=%%%%&&$&@o&&&$$&&#%&&%&$$#$#%&&----*&@",
"@oooooo@%@@&:@-:#@%@%%###$$==%=&#@oo;&@o@%&;##%%%$$$#@###$$#***#",
"%%oooo@%*#&=&:=&@@%@&%$##$&$$=##$oo;;#o@#%;%;o#$%%$#$#@&&&###%%&",
"#%%oooo*::=&@@=#@@@@&$$@##$##=@@@@@;&@o@%*#@*o@##$$##@&--&@#@#@&",
"oo&%%oo:%@o@##&#@oo=::#@@@@@%-@$@#$&@o@@%&o@#@@@###$##-::-#@@o@%",
"%#&oo%-*oo$$#$#@ooo=:,%%%@@*-:&$###%o###%#o#@ooo@@#@#;:,:-@@oooo",
"#:&@---oo&&%$#$@ooo*==$oo%#$$&##@##%o@#@@###ooo@@#@#@;::-*$oooXo",
":::##:-o$&&%$$#@ooo&*&$ooo@@&#@#@@@@@$#$#@#ooooo@#$@--;**%%o#%*-",
"----$&&#===%&==#=@@$::$@@@@@@@#@@@@@@$###@%o@oo@#$$&&$$#$%%%%%%&",
"#$&&-#@&$:%$#$&=#@#$=:=@@#$#@#@@$&&##$#$@$o@o@@##&--%#X@@####X&#",
"Xoo$$#@@$==#$#@-@##$$,:@@%%%#@@%oo##$$$#o$$o@@@#&->>-&XXXXXXX@#X",
"@oo#--*##$#$#@#,,::&=,;*#&&;:;*@@@##$%&$oo&$@@&&-->>--X@ooXo@%@X",
"#@o@-@%*$#$#$#&,:==:=;==@&;:**%#####$%*$#oo*::*%$@$&--@@oo@o&%@@",
"--#-oo#%*$#$@#::&##===&%%=:*@@$$$%&%$%:#$oo&:*#*$@$--&@o%%@@-*@-",
"$---o#@@%-%&=--$#@@@@#%%$**@$$%$%;%&&::-##&:*#@$@@$--$@#o%---**#",
"o&&&#@@#*&@#$$*#@@@@##===$%***%%%%-,:&%*--*%@@@@@$#&-&&$o-&&&&#o",
"o$$$&@#*%@&@@@*&@@@@&::::*:::=&%$-,,;&@@%*%#@@&&$##@@@oo#&oo#%@o",
"#$oo#&&%@@#@@@$&@@#@&&$&:::--=&&&,,;&*@@@##@@&::&#@##@o#@&oo#%@#",
"$#oo&&@@o@@@@@#$#@#@@@@%--&&&%&&&,,&$@*@@%%@$@@$:&&&%@#@&#o@#--&",
"$@@@@**o@@@#@#$%@@@&$$@&-&@oooo=-==@@@@$#*#&@@@@&&&@@##$$%%#&o@@",
"$$@@@--&@@#@#@#@@@@#$$@%%#@@ooo=::@@@@#@@::#@@@@%@@@@@#$$$#&o@oo",
"ooooo--&@@@###@@@@@@$$%%*#@@#oo=:;@@@@@@#$*:@@@#:&@@@@###@@o@ooo",
"ooooo$&$@##$$$#@@@@$#$%**##@@#$&;=$@@@&#:*%%:&@#&###@#@#@@$@o$oo",
"$#oo@$$@X#$$%$#@#@#@#$$##%@o@@&$#%%@@@$:-%@@@@@$$##@###@@o&o&oo@",
"@@@@#@@X##$&%$##%@@##@$##@ooo$o@#%%$@@@-%-@@@*&&$$####@@$&<:&o$%",
"@@@#$$$####%&$#@*#@@###*@@ooo@@@#%&%$@$&@@@$&**&%$####&@@o::&o&&",
"@@##$&&=&$$&%$##;@##%**#@oXXoo@@&&&&$#@@@##$&%&%&$#@#@@@ooo:&&$#",
"$$$$#&,=&$%%$#&&;,,,,,,*@XXX@o@&##&$&&%%@@#$%&%&%$#%##%<<===%$$@",
"$$$###,:===-:,,,;===%%%-*%#Xo@@@##&$@@%#%##$&%&%%%##%==:::&%%@@$",
"$$####=,,=&&,==$$oo,@oo&-&XoX#$@#&=$#%%@@@@#$%%%%$###&@#&&@@*@%@",
"###@#@#$$XXX&$oooo#*@@#%@oooo#@@&:&@@o$%@#@#$$%%$$$##%#@@%@@:%@@",
"=&###@@oooXX&oo@o$*%@#%==&%@@#%&:@%%oo#oo@#$$%%&%$$##%@@#$@#:-;;",
"@@##@##@@@#%%ooo$*$o$@$oooo#@@o-@@$ooooo###$$%%;;&&###@@@$@#-:@@",
"%%%@#@@@@o%oo$oX*:oo@@###@@oooo&@X$oo$%&****%&;&$$$%#@@@###@%-*%",
"@@@$@@@@ooXoX#Xo$*$&@@@@@oooooX$Xoo@#$$$$$&;;;;%$$=%@#@@@@@@%%*%",
"oo@@@@@ooXoXo@XXo*%oXo---XoXoXo$oo@#%%$$%$%%**;;==%@#@@oo@oo#oo%",
"ooo@@@o@ooXXXXXXX$*oX-%%%*X*%%%@#@#%%%***&&%&$=;*%@@@oooooo#ooo%",
"$#o@@ooooX###@XXo$,,*%oX%%%%%@%%@@%&%&****&&%%=#**@@#ooooooooo@%",
"@@@@@oooX#%%%***$,-%%oXXX$*$oX#%@o&%&&****&%%&=#@=*%%#ooXXooo@#@",
"#*%#@ooXo%@XX@&,,*--#XXXoo*oXX@ooo%&&&**&&%&*=&&@=%o#oXooooooo@@",
"$%%#@oooXoXXXoX$ooX#*#XXo%#oXooo$%&%&&&%&%&%$$##&@%o#XoXXXXoo@@#",
"$$$#@ooXoo@#oX&$oXoX##XX%#@#X###$&%&%&%&%&%$$$@#@@%ooXXXXXooo@@#",
"###@@oooX@X@Xo#&$#ooXoXo#XXo#@#$$%&%&%&%%%$$$$#@#@%ooooXXXXoo@@@",
"##@@@XXXoXoXXX$&o.oooXoX@Xo#@##$$$$%%$$%$$$$$#@#@@#ooXXXXXoo@@##",
"##@@@@  .....@$$.O   o @@@#@#@#@$$$$$$$$$$$$#@#@#@#oXXXXXo+X@@@#"
};
