/* XPM */
static char *out[] = {
/* columns rows colors chars-per-pixel */
"64 64 45 1 ",
"  c black",
". c gray11",
"X c #202020",
"o c #282828",
"O c #2C2C2C",
"+ c gray19",
"@ c #343434",
"# c gray22",
"$ c #400000",
"% c #4C0000",
"& c #580000",
"* c #640000",
"= c #700000",
"- c #7C0000",
"; c gray25",
": c #484848",
"> c #4C4C4C",
", c gray33",
"< c gray36",
"1 c #646464",
"2 c gray44",
"3 c #7C7C7C",
"4 c #880000",
"5 c #980000",
"6 c #A40000",
"7 c #A80000",
"8 c #B00000",
"9 c #BC0000",
"0 c #C80000",
"q c #D40000",
"w c #E00000",
"e c #EC0000",
"r c #FC0000",
"t c #FC2020",
"y c #FC4040",
"u c #FC5454",
"i c gray55",
"p c #989898",
"a c gray66",
"s c #B4B4B4",
"d c #C0C0C0",
"f c #D0D0D0",
"g c gainsboro",
"h c #ECECEC",
"j c gray99",
/* pixels */
"fgfdgffhdhgffsapi31>,iaifjhjjjhjjhjjgfjjfddffi:ifjhfd3>,ggfgffdd",
"dsdsdffgfgdsai1:+:@<iiadhfdjjjjjjjfgdjhfsdsaa:,pgggap3#o3dsdaaas",
"saapdsaaap3i1:+1,,;12pdffafdsfffghghgfpaap322;3djggsai;X;fgssdap",
"ii3i32i3i3,@#1ifa23112233psfghfffdgghgapi11:#1pghfhgdi<Xoppisii3",
"2122<321,o+;iifhfsap21##1iiadgdffaa333221>::@#sdsaggap3:X>ppi321",
";#oXO##+:#,sgfhffghhdi:oO+::12paiipa21:o X><oifapsfdaap<X.:131,;",
"1i,<1>1#;,igfpghgdfddfa2:@@X@:,,,,,;o.O#:2aXOdaiassfdda2:X.:,#O,",
"aaaaap31,,3sdfdssfsfjhds32:#;@::XXO,11idfaio:dppadgfapii3:XoO#,i",
"sdfddsii2#;3pppasdfgfsdddp3##>1112ipaffddiio2dppdfssapaii2#O,3pa",
"psdffds11:#132iipasadsfffi3::#,<23fffhgfsi3.2aadsai32ipii3@+iias",
"asipaaii225=0tyyrrrrrrfssiy5=6ytyyyyyttttt6=ruyttttttt3222O:ipsa",
"aapsappp328=60wyuttrrrapp3q85trrrrrrrrrrr865urrrrre0rq>12,o:ppap",
"apppipai31r8.o+.,:::5ri23<w4#oX@1:+...O..O .#       8-,>,oo<papp",
"piiiipiii1r7... ..oX88221#80#,:2,..X..X.O.          $*::#oX>2iip",
"i12213ii31e6       .-&::@X65@,,,Xo#@X              .*4:,>#o>3api",
",13222<222r0.       $$X..o=9#OOXXX+@o.            ..9epi3,+:3i22",
"i331222i33e9X     .X791,:O$=@X:X@....          O;,;@09ii3+@:22<3",
"i1231111210=.X..+>23rrpi2#=$o.X .X.O   .     X+#X.  wri12;o@11ii",
"i2ii331,1>=%::@,,+,#rrpii1q=. X.#.o       X@o+oX.X..rrii2:OO,,33",
"33311<,>:O%7oX<,,@,Xe03ii1q9    ..     ..O+OXo......q91<,:OX#122",
",,,<1,;@.+7e::#XXO@Oe81222tr  ..    8--=rrrrwww8rrrw0w31>>#X+:,1",
">,>:;#o.X,ee#.XX....65123pte       .-==rrrew96-60eeeee1;:,:+o#11",
"#.O....++<ee@.......5812iate.       =4:333211<1<1ii321,,,<:o.O,,",
"o##@++#@#,q0... ..O.0e23ii9eX.      64:33iii321122232,,,,,>X..O+",
"2ii33,#oo@9wO...#:;Oee2133te..X.   .=7O<1<2211111122,><,>#+...XX",
"3i3ii3i,O.57.o.Xoo@+eq23ipteO@O. . X-*X,i3i321<<2223<,1<,#.X@O;<",
"2i2i33322@=5...X.ooOw0wqq0qw@@o...X;7%%w78000www0qw9q5,:#XX#1<32",
"231222332,-%...XoOO#0qw99www+X+.o..X54*-6w00qwqqqqqqq5,,@.+:1112",
"211211211,6&.   .X#O+o+>#O@+..X.X..@O..  ..  .... ..7q;Xo+:,2231",
"1>;;+#@@#:6*.     ..ooOO.OoXX.X... ..    . .....  . 80+..#132211",
":+;,,1<1,:5-      ....+O.  ...O... .o.      ........90#..:111,:,",
";>,1>1121206             .@O:OX.OX .o.     .X. .....70:Oo>11,;:O",
"2<1<><,12297.         ..XOo.+oo@X...o..     . .. ...99:Xo,,,1<1<",
"2211,<,11178.o       .@;@:o;#+XXX......      .......89@X#,111121",
"1111,>##;>55..     ....X.X@XX.XX... ...             85oX#:,<1111",
"111,<<,<,:5-....   .#OooXX.......  ..               54.O,2211111",
",21<11,<,,877644=**978876668       .*485-**&        **.:,11<1111",
"1,,123<212877444*$$997777789       .==%$$$$$        *$X,1211111<",
",<111,,1,1<1,;##oO.@,,,;@#88.       6$.X+@85        %$o:,1>,,>:,",
">,>>,>,,>,,1,,>#+OX.#::@:,88o..     $$@+1186        $*X,,1>,,>::",
"#:;::##::,<1,,,>;X+..:#@::88.       $-:11167.#@o.X. 6&.::,:,:#@;",
"O++##::,><,,>,,:;++X.X#;:#74        5512,>67.....O..5*.#;#;#;:::",
":;#;;::,:,666555**4*$**-5655        66,,#,76.......O--oX#@##:::,",
";::,,::,;>65555-*-**%&*&-6-&       X=*#:,165........55#o.+++;>,>",
"###:##::::44   .   X.  ....        .56,,<155.XO.  . 55#o..+@#;;:",
"#OOO+++O+X&&                        *5>,,,55..      45##O..X@#O#",
"..........$$                 ..     **++##55o.      55@+.......X",
"X......X.X%&     . .         .      %%;###5-        =-...oX.X+OO",
"::;;XX.XXX55.....X...       ...     $$.O+@4-        &&.XX##::+@:",
",>:,##+XXX*4 ..X.X.XX.     .....X.. -%...@55       .*=;:,,:>@O,,",
",,,1:,##XX$& ..X.....   . ..o.....  4=. .X*4      .X-4;:::;#O:>,",
">;:>:>::OX$$   ..X. .    ..X. O@O...55:...%*        -4:>::#+@:>>",
"::>,,>,>##%$$==44-4*%$$*444-55-**-4444,+X.$$&-=4444=%=@+##O;,:::",
"#@#;::,,,;%%$$*---*$$$=4-4444-4-44444-:@oX%%=-444444*%.Xo#:,,;;#",
"###@#:::::;@...##@@X.o:,>;##;:#+O;>>:::#o..X@@;,,:>;++:,#:;#@++;",
"#@##;##:>:;;X..O#oX.X@::@###:#OX##>>>>#+o..O>,,>>:;O@>>:oO;;;#O:",
"##O@:::,:,,+@X..@o..o####::@Oo+##:,>>;@o. .+:::,,:+#::#@#o+##;::",
">::>,##:#::;#o..o..o@,,:::;#++@@:>>##@X.. .#;#;:#oXOooXXXXo;,;#:",
"#::::#;##::::@....X#>,,::>#++@@;,:##@X...X.o####oXoooOoOoXo::>>:",
";:;##@OO#:#;++. .O@,,:;::;@+O#:,>#;#X...o...@oX.X+#@@@##+X+@;:;:",
":#+@+O@#:#@@OX...>#>:>,:;@+OO;:#;;#X..X@@o...XoO+#@@;###:O:+##;#",
"#+++@#@##@@+X..+#,:,,:;;@O+o#,;##+...X:,;#O..XOX+#;;##::@@#+#;#@",
"oOOoO+O#@ooX..o:>::#;##+O@#O;;+O+...X#:#@##...o@+@;#:>##+@;;oo##",
"##+O++@##++..o;:>:>##+oO+@+#:###OX.O:::#::#@...@+#@#>;;;#:;#XO++"
};
