/* XPM */
static char *out[] = {
/* columns rows colors chars-per-pixel */
"64 64 18 1 ",
"  c #202020",
". c #282828",
"X c gray19",
"o c gray22",
"O c gray25",
"+ c #484848",
"@ c gray33",
"# c #646464",
"$ c gray44",
"% c #7C7C7C",
"& c gray55",
"* c #989898",
"= c gray66",
"- c #B4B4B4",
"; c #C0C0C0",
": c #D0D0D0",
"> c gainsboro",
", c #ECECEC",
/* pixels */
"@@@@@@@@@@@@@@@@@@@@@@@@@@@@@@@@@@@@@@@@@@@@@@@@@@@@@@@@@@@@@@@@",
"@@%***********&%$@+oo@@@@@@@@@@@@@@@@#=>,;--=******************@",
"@%;>>>>>>>>>>>>>>;;=&%@@@@+++oo.@@@@@&:,>>>>>>>>>>>>>>>>>:::::: ",
"@*>:---------->>>>>>>>>>>>>>>>>>>;=+@=:>-*==**&&*--------=*&*** ",
"@*>-=*=*=&****==;;:>>>>>>>>>>>>>;=# #*:>*&**&%%%&==******=***** ",
"@*>=&*&*&*%%&&&===*&;;=;=;-=*==*=&+ #*:;******&&**&**%%&&=*&*** ",
"@&;&=*=*=&****=&&&&=*&*&==&*=&==&=+ #&:;*=***&**=*&******=***=& ",
"@&;=&*&*&*%*&&&&*&*====*&&=&=&&*&&+ @@%&**%&=*&&**&**%%&&&=&%&% ",
"@%;=*&=&=&%*&*&==&=*=&*==*&&*&=&&*+ O @#$&&&*=**&$&=&%%&**&&%*# ",
"@$;&=*&*&&=*=&=&&=&*&&&&=&=&&&&*&=+ O@  @##&=*&&&%%&*****&&*-&+ ",
"@+&$#@@@##$%&&&=&&*&=*&=**=&&&=&&=+ +@@    #&*&&*=&###%&&*=*%+O ",
"@@                $$&&&&&&&&&&&&&$+ +*&%@    O@@@@@@@@@@@@##+O @",
"@@@@@@@@@@@oo+@@@                   +@@@@@@                XO @@",
"@@=;>>>>>>>:=%+@@@@oooooooooooooooo%%%%%%%%%%%%%%%%%@@@@@    @@@",
"@=>>:::::::::=%@#%%%%%%%%%%%%%&&**=--;;;;;;-;;;;;;;%@@@@@@@@@@@@",
"@->;&=&===&==%. %;;;;;;;;;;;;;;;:>>,,,,,,,,,,,>>::*# =>>=%@@@@@@",
"@-;&**=&=&==&#. %;:,,,,,,>,,>,,,,,,>>:;-;;;=;;-;;-%@ >==>>>>-@@@",
"@-;=&=&=&=&&=#. %;:-;;;;;=;;=;;;--=**&&=&=&&&=&=&=$@ >-------#@@",
"@-;&==*&&&&=&#. #;>-&&&&&&=&==*&*===*%*&==*&=&===&$@ -=--*#*&# @",
"@-;&=*&&%%=&*#. +;>;&*&=&=&*=&&*==&*&*&&%&**&=&=&=$@ @@  ##### @",
"@-;=*&&&%%&&&#. @->:==&&&&%&&=&*&=*%&&=&&=&%%&%*&*$@ @@@       @",
"@-;&&=&*&**%&#. @=>:&&=&=&&=&%%**&=&=*&=&&%&&&=&%%$@ @@@@%=>>=@@",
"@-;&=&%&=&&%=#. @&:--&&=&=%&&*%*&*%=&&%&&&&=&%&*%%$@ @->>>>==> @",
"@-;=&=&=&&&=&@. @&*$$$$$$$=&==&&%&&&%&&=&=&&=&&&&*$@ #-------> @",
"@-;&&&*&=%=&*@. @@         $$%&%%%%%%%%%%%%%%%%%%%#@ #&*#*--=- @",
"@-;&&=**=&&*&@. @@         +@@@@@@@@@@@@@@@@@@@@@@oo #####@    @",
"@-;=&&%*&=&&%@. @@@@@@@@@@ .......................  @@@@@@@@@@@@",
" -;&*&=**&*&#@  @@@@@%$*->>>>>>>@@>>>>>>>>>>>>>>>>>>>>>>>>>>>>>>",
" -;*&%*&&%%*#@  $:>>>>>>:--=--;: @>:::;:::::::;:::*;::=*;**-&=&&",
" -;=&*&=&%%*#@  =;-------==***:- @>:;-:;;:;;:;;-:*--:==;**==&=&=",
" -;=*&=&&&*&@@  ==**&&**=*====** @>:====**====*===&===**--&&&&==",
" -;&=*&=&=&=@@  *=**=**=*==&*==& @,;*=======*=&&&&;*&&=;**=&==&&",
" -;**=%&*&&&@@  &;&**&&*=*==**** @--=&**=*&***&*==**==*&=;&&&=&=",
" -;==&=&%%*&@@. #=*&&**&===&&=;* @-*&*&*==*&%&*=&&;-*&=-&*=&===*",
" -;=&=&&%%&&@@. #**=*&#$**=*=-;% @$@@@@@@@@@@@@@@@@@@@@@@@@@@@@o",
" -;&&&&*&&&=@@. @&%$#@##$$$$$$$# @                              ",
"@-;&=%%&&=&%@@. @#@@+Oo          @                              ",
"@-;=&=*%&&&&@@. @@              $=:>>:-*&&#@#@@@@@@@@@@@@@@@@@@@",
"@-;&=&&&=&=&@@. @@      @@@@@@@@=>>>>>>>>>>>>>>>>>:;;;=&&&&&&&&&",
"@-;&&=*%&&&*@@. @@@@@*>>>>;=$@@@>>:-&=*=;;:>>>>>>>>>>>>::>::-=& ",
"@-;==&&=&**&@+  @@@@*>>;===&$$@@>,*&=*&&&*=&&*==&&==*&*=======% ",
"@-;%&**&***#@+  @@**>;==*=%&&=@@>>-*&&***=&*=&%&=&%&=*&==*=*=&% ",
"@-;&=&*&&%#@+o  @*>>;=&%&**&==@ >:=*&&*=*&***=*=&=*=***=;*&=&*# ",
"@-;=&=*&#@@o.   *>>;;=&*==&*%%+ >:=&&&=*&**$&=**==**=&&**==**#O ",
"@-;&%&&#@+o  &->>>;=**=&&*&**&@ >:*%&*=*&&&%&*=&=&=&=***&&&&#@O ",
"@-;&&==@+o   -::;-*&*%=&%%&=%&@ >:**=*&*=*&*=*&***&****%#$$#+OX ",
"@-;=&&&@o   @>-==&&=*&=&=%&=*&  >:*=*=*&&**&&*&#$##@@@@@@+O++   ",
"@-;&*&&@o  @@#-*&&&&&=*&*=&=&#  >:=*&%###@@@@@@@@@@@++oo      @@",
"@-;=&$#@  @@@@#*=&==**%=%%%##+  >;%#@@@@@@@@@OOoo.X    @$;;;=*&@",
"@-;&*#@o  :;&@@############++@  ;*@@oo.X....           #=>;**&$ ",
"@-;*&#@o  ;&& @@                @               @@@@@@&;>;=**%@ ",
"@--*#@@   *&@ @@@               @        @@@@,:;;-;=*@*:,=*=*#+ ",
"@--#@@o  @@   @@@@@@#$%&&&&&&&&&&&&&&$@@@@@@@:=&&&%%$ &:>**=*#+ ",
"@-=@@o &&&&&&&&&&&&&=-;>>>>>>>>>>>>>>& @@@@@@@        &;:=***#+ ",
"@=@oo. &&:-:::::::>>>>>:;;;;;;;;;;;>>& &===*#++OO@@@@@&==&&%#@  ",
"@@     $%==*&=&=&=&&===&===&===&=&=->& =:>>>;=*$@+#@@@@        @",
"@=>>=%@$%&==&*=**&&=%&&*&%&*%&&*&=&->& -;**;>,:======*&&%#@#@@@@",
"@-::-& @#*&*=%&==&=&%*=&**=&=%=%*&=->& -;==-*=:,>>>>>>>::;-===&@",
"@:--:: ++$*&%==%*&=&*%*%=%*%&=*%&=&>>% -;**&**&*****=***=-:,>;& ",
"@,==:> ++@$&=&==&=&&****&*=*%==*&&&:;@ -;===*&****&%*&&****==*# ",
"@>---- oo+@#######$$&&&=%&&=&&&=&=&-;  =-**%***=*&*&&&*****==&+ ",
"@;=--=    ++++++++@@@@###@###@###$$&-  =$####################@+ ",
"@=*==& @@  .....ooooo+++@+++@+++@##$&  &+XXoooooooooooooooooooo ",
"@@     @@                              @                        "
};
