/* XPM */
static char *out[] = {
/* columns rows colors chars-per-pixel */
"64 64 21 1 ",
"  c black",
". c gray11",
"X c #202020",
"o c #282828",
"O c #2C2C2C",
"+ c gray19",
"@ c #343434",
"# c gray22",
"$ c gray25",
"% c #484848",
"& c #4C4C4C",
"* c gray33",
"= c gray36",
"- c #646464",
"; c gray44",
": c #7C7C7C",
"> c gray55",
", c #989898",
"< c gray66",
"1 c #B4B4B4",
"2 c #C0C0C0",
/* pixels */
"XOX;:>,<<<<<<<<<<<<<<<<<<<<<,>:;XOX;:>,<<<<<<<<<<<<<<<<<<<<<,>:;",
"XOX*,,,,,,,,,,,,>>>>,>,>,>,>,>,-XOX*,,,,,,,,,,,,>>>>,>,>,>,>,>,-",
"XOX*,,>,,,>>,>>>>>>>>,>,>,>>>,>-XOX*,,>,,,>>,>>>>>>>>,>,>,>>>,>-",
"XOX*>>,>>,,>>>:>>>>>,>,>,>>>>:>-XOX*>>,>>,,>>>:>>>>>,>,>,>>>>:>-",
"XOX*>,>>>>,>>:>:,>>,>>>,>,>,:>:-XOX*>,>>>>,>>:>:,>>,>>>,>,>,:>:-",
"XOX*>,>>>>,>>:>:,>>,>>>,>,>,:>:-XOX*>,>>>>,>>:>:,>>,>>>,>,>,:>:-",
"XOX*>>,>>>>>:>:,>,>:>>>>:>,:>::-XOX*>>,>>>>>:>:,>,>:>>>>:>,:>::-",
"XOX*>>>,>>>:>:>:,:,::>:>::::::>-XOX*>>>,>>>:>:>:,:,::>:>::::::>-",
"XOX*>>:>:::::>:>::::::>:,::>>::-XOX*>>:>:::::>:>::::::>:,::>>::-",
"XOX*:;>;::::;:>::;:>:>;:::;::;:-XOX*:;>;::::;:>::;:>:>;:::;::;:-",
"XOX*:-;:;-:;:;:;;:;;:;:::;:-;:;-XOX*:-;:;-:;:;:;;:;;:;:::;:-;:;-",
"XOX*---;-;-:-:;-:;-;-;-;-:-;-:;-XOX*---;-;-:-:;-:;-;-;-;-:-;-:;-",
"XOX*;-;-;;;-;--:;;;-;-;-;-;-;---XOX*;-;-;;;-;--:;;;-;-;-;-;-;---",
"XOX%%%%%%%%%%%%%%%%%%%%%%%%%%%%%XOX%%%%%%%%%%%%%%%%%%%%%%%%%%%%%",
"XXXXXXXXXXX                       .                     XXXXXXXX",
"XXXXXXXXXXX . . . .. . . . . . . .  . . . .. . . . . . .XXXXXXXX",
"OOOOOOOOOOO  .  .    .  .  .  .   .  .   .   .  .  .  . OOOOOOOO",
"<<<<<<<<<<< .  .  .   .   .  .  .   . . .  .   . .  .   <<<<<<<<",
">>>,>,>,>,>.  .    . .  .  .   .  .   .  .   .    .   . ,,,,,>>>",
">>>>,>,>,>>    . .    .  . #,<<<<<<<<<>O. . .  .  . .   ,>>>>>>>",
">>>,>,>,>>> .   .  .   . :<<$         =<<- .  . .    . .,,>:>>>>",
",>:>>>>:>,:  . .  . . .$<>  . . . . .  . ><> .   . .    >>>:,>,,",
":,::>:>:::: .    .   . <, .    .   .  . . <<%  .    . . >>:>:,::",
">>,>>>,>,>,  . .   . #<@ . . .   .   .   .  <>  . .    .>,>>:,>>",
",>:>>>>:>,: .   .   %< .  :<   .  . . . .  . ,,    . .  >>>:,>,,",
":,::>:>::::  . .  .,<.  211< .  .    . :% . . <; .    . >>:>:,::",
":::::>:,::> .   . =<#  .<111  .   . -11<.   .  1@ . .   ::::>:::",
";:>:>;:::;:  .    <. .  1111 .  .  .<<11 . . . X1.   . .:::>::;;",
":;;:;:::;:- .  . >>   ..111:  .  .  <11<  .   . ,: .    -:;:;;::",
";-;-;-;-:-;  .  ., .   *<11*.   .  .<111.   .  . 1  . . ;-:;-:;;",
";;-;-;-;-;- .  .&,  . .;<11o  .   .o<<<>  .  .   ,*    .;;--:;;;",
"%%%%%%%%%%%  .  >; .   ><<1  .  .  =<<<- . .   . +<. .  %%%%%%%%",
"XXXXXXXXXXX .  ., .  . <<11..X><  .=<<1&  .  .  . <   . XXXXXXXX",
"XXXXXXXXXXX  .  <   .  <<11<1<<< . ><<<. .  .  .  < .   XXXXXXXX",
"OOOOOOOOOOO .  .< .   .<<111111<   <<<< .=1<  .  .<  . .OOOOOOOO",
"XOX;:>,<<<<   .O<   .  <111111,:. .,<,<1111<   .  <.    <<<<,>:;",
"XOX*,,,,,,, .  @< .  . <1111<1<=   <<<<1111:.   . 1. . .,>,>,>,-",
"XOX*,,>,,,>  . .<  .  &<11,111<# . <<111111% .   .< . . >,>>>,>-",
"XOX*>>,>>,,.  . <   . ;,o >1<<<   #<<<<1111.  . . <     ,>>>>:>-",
"XOX*>,>>>>, .   <. .    . <<<<< . -<1%&111, .   . < . . >,>,:>:-",
"XOX*>>,>>>>   . <.   . .  <<<<<  .@   :111;  . . $<  .  :>,:>::-",
"XOX*>>>,>>> .   ;:. .    .,<<<,.   . .<111# .    <* .  .::::::>-",
"XOX*>>:>:::  . . <    . . <<<<,  .    1111 .  . .,.   . ,::>>::-",
"XOX*:;>;::: .   .<*. .   .<11<: .  . .<<11   . .>:  .   ::;::;:-",
"XOX*:-;:;-:  .   .,    . &11<<=   .   1111. .  O< .   . :;:-;:;-",
"XOX*---;-;- . .   ;<X .  ><1<: . .  ..1111    .,#.  . . -:-;-:;-",
"XOX*;-;-;;;    . . ,<  . ,= .   .    &111< . .>:  .     ;-;-;---",
"XOX%%%%%%%% . . .   #<  .  .  .   . .:11% .  ,< .   . . %%%%%%%%",
"XOXXXXXXXXX  .   . . <;  .   .  .  . >:. .  #<@.  .  .  XXXXXXXX",
"XXXXXXXXXXX.   .      >, . .   .     .  .  ;<+  .  .   .XXXXXXXX",
"OOOOOOOOOOO  .  . . .  =<%   .   . .  .  ><< . . .   .  OOOOOOOO",
"<<<<<<<<<<< .  .     .   ><-  . .   . .><> .  .   . .  .<<<<<<<<",
">>>,>,>,>,>  .   . .  . . .-1<,>;=;>1,<; .  .   .  .    ,,,,,>>>",
">>>>,>,>,>> .  .  .  .       . #=;;*$ .   .  . . .   . .,>>>>>>>",
">>>,>,>,>>>  .   .    . . .   .     .  . .  .   .  .  . ,,>:>>>>",
">>,>>>,>,>, .  .   .     .  .   . .   .    .  .   .    .>,>>:,>>",
",>:>>>>:>,:  .   .  . .   .  . .   .   . .   .  .   . . >>>:,>,,",
":,::>:>:::: .  .  .  . .   .    .   . .    .   .  .  .  >>:>:,::",
":::::>:,::>  .  .  .    . .  . . . .    . .  .   .  .   ::::>:::",
";:>:>;:::;::;:-XOX*:;>;::::;:>::;:>:>;:::;::;:-XOX*:;>;::::>::;;",
":;;:;:::;:-;:;-XOX*:-;:;-:;:;:;;:;;:;:::;:-;:;-XOX*:-;:;-:;:;;::",
";-;-;-;-:-;-:;-XOX*---;-;-:-:;-:;-;-;-;-:-;-:;-XOX*---;-;-:;-:;;",
";;-;-;-;-;-;---XOX*;-;-;;;-;--:;;;-;-;-;-;-;---XOX*;-;-;;;--:;;;",
"%%%%%%%%%%%%%%%XOX%%%%%%%%%%%%%%%%%%%%%%%%%%%%%XOX%%%%%%%%%%%%%%"
};
