/* XPM */
static char *out[] = {
/* columns rows colors chars-per-pixel */
"64 64 20 1 ",
"  c black",
". c #00001C",
"X c #28200C",
"o c #382C14",
"O c #202020",
"+ c #282828",
"@ c #2C2C2C",
"# c gray19",
"$ c #343434",
"% c gray22",
"& c #403018",
"* c #483818",
"= c #543C1C",
"- c #5C4020",
"; c #6C4824",
": c #744C28",
"> c gray25",
", c #484848",
"< c #4C4C4C",
"1 c #905C34",
/* pixels */
"&&&&&&&&&&&&&&&&&&&&&&&&&&&&&&&&&&&&&&&&&&&&&&&&&&&&&&&&&&&&&&&&",
";;;;;;;;;;;;;;;;;;;;;;;;;;;;;;;;;;;;;;;;;;;;;;;;;;;;;;;;;;;;;;;;",
"1111111111111111111111111111111111111111111111111111111111111111",
"=======o=Xo=====                                ==========o=Xo==",
"**;::::=1X=1-***                                *:**:*:*::=1X=1;",
"**;:::-=1X=1;***  +++#+#%%##++++#+#####+++++#+  *:**:*:*::=1X=1;",
"**-:::==1X=1:=**  +++###%%##+++++#%#%#+++++#++  *:**:*:*::=1X=1;",
"=*=;::==1X=1:=**  +++##%%%%+++++###%%##+++++#+  *:**:*:*::=1X=1;",
";**-:-*=1X=1:-*=  +++###%%##++++##%%%%#++++#++  *:**:*:*;:=1X=1=",
";*=*-=*=1X=1:;*-  +++###%%#+O+++###%%##++++##+  *:**:*:*;:=1X=1=",
":=**=**=1X=1::-;  +++##%%%%++++#+#%%%##+++++++  *:**:*:*-:=1X=1=",
":=****==1X=1::;:  +++###%%#+++++###%%%#++++##+  *:**:*:*-:=1X=1*",
";:***=:=1X=1::;:  ++++#%#%%+O+++$$%%%#++++++++  *:**:*:=*:=1X=1*",
";:=**=:=1X=1::::  ++O+++++++++++$$++++++++++++  *:**:*:=*:=1X=1*",
"-::*=::=1X=1::::  +++++++++++++O$$++++++O+++++  *:**:*:=*:=1X=1*",
"=:::=:-=1X=1;:::  +#++#+#####+++$$+++#++++++++  *:**:*:=*:=1X=1=",
"*;::-:==1X=1;:::  +++#+#++++#+#+$$#++#+#++##++  *:**:*:-*:=1X=1=",
"*;::::==1X=1-:::  ++#++#+###+#++$$##++#++++##+  *:**:*:-*;=1X=1=",
"*-;:::*=1X=1-:::  +#++#+##+###+#$$#+###+#+##+#  *:**:*:;*;=1X=1;",
"*=;::-*=1X=1=;::  ++#+#+#+#+#+#+$$+#+#+#+#++#+  *:**:*:;*;=1X=1;",
"**-::=*=1X=1=;::  +++#++#+##++#+$$#++++#+#+#++  *:**:*:;*-=1X=1;",
"**=::=*=1X=1*-::  ++#++###+##++$.$##+#++++###+  *:**:*::*-=1X=1;",
"=*=-=**=1X=1*-::  +++#+#+##+##+$.#$+@@@+@@@$$#  *:**:*;:**=1X=1;",
"=**=**==1X=1*=;;  ++#+#+####+#+$..$#@@+@@@@$$+  *:**:*;:=*=1X=1;",
"=*****==1X=1*=--  +#+#+###+#+#+$..$+@+@+@@@$$#  *:**:*-:=*=1X=1-",
";*****;=1X=1**==  ++#+#####+++#$..$+@@@@@@$$@+  *:**:*-:-*=1X=1=",
";*****;=1X=1****                                *:**:*=:-*=1X=1=",
";=***=-=1X=1****                                *:**:*=:;==1X=1*",
"-=***===1X=1****  ++#+#%###++++$..$+@@@@@$$$$+  *:**:*=:;==1X=1*",
"=;***;==1X=1****  ++##%#%##++++$..$+@@@@$@$%$+  *:**:**::-*1X=1*",
"=;=**;*=1X=1****  ++###%%##++++$..$+@@@@@@$%$#  *:**:**::-=1X=1*",
"*-=*;-*=1X=1=***  ++###%%%+++++$..$+$@@@@$$$$+  *:**:**;:;=1X=1*",
"*=;=;=*=1X=1-***  ++##%%%##+++#$..$+$@$@@@$%$+  *:**:**;:;=1X=1*",
"*=;=;=*=1X=1;=**  ++###%%%#++++$..$+$$@@$@$%$+  *:**:=*-::=1X=1*",
"**-;-**=1X=1:-**  ++##%%%##++++$..$+$$@@@@$%$#  *:**:=*-::=1X=1=",
"**=-=**=1X=1:;=*  ++###%%%+++++$..$+$@@@$@$$$+  *:**:=*=::=1X=1=",
"***=***=1X=1::-*  ++##%%%##+++#$..$+$@@@@@$%$+  *:**:=*=::=1X=1-",
"*******=1X=1:::-  +#+##%%%+++++$..$+$@@@@@@%$+  *:**:-*=::=1X=1;",
"******==1X=1::::  ++#+#%%#+O+++$..$+$@@@@@$%%#  *:**:-**;:=1X=1;",
"=*****==1X=1;:::  ++####,#+O++$+..$+$@++@@@%$+  *:**:;**;:=1X=1;",
"=*****-=1X=1;:::  +#+###%%+O++$....$$++@@@$%%+  *:**;;**-:=1X=1=",
";=***=-=1X=1-:::  +++##%,#OO++$....$$@++@@@>$#  *:**;:**-:=1X=1=",
";=***=;=1X=1=:::  ++#+##,#+O++$....$%++@@@$%$+  *:**-:=*=;=1X=1*",
";-=*=-;=1X=1*;::  ++####,+OO++$....$%@++@@@>$#  *:**-:=*=;=1X=1*",
";;===;-=1X=1*-::  ++++##,#OO+#$....$%++@@@@%%+  *:**=:=*=-=1X=1*",
"-;-=-;==1X=1*=;:  ++##+%,#OO++$....$%@++@@@>$#  *:**=:-**-=1X=1*",
"=;;-;;==1X=1**=;  +#+#+#,#O++#$....$%O+@@@@%$#  *:**=:-=*==1X=1*",
"=;;-;;*=1X=1***=  +++#+#<#O+++$....$%@+++@@,$+  *:**=:;=*==1X=1*",
"*;:::;*=1X=1=***  ++#+#+<+OOOOO....$#OOOOOO++#  *:***:;=*==1X=1*",
"*-:::;*=1X=1=***                                *:***;:-**=1X=1*",
"*=;::;*=1X=1-***                                *:***;:-=*=1X=1*",
"*=;::-*=1X=1;=*****;:****=1X=1=;:=1X=1-:::-=1X=1*:***-:;=*=1X=1=",
"**-:;-*=1X=1:=****=:;****=1X=1;::=1X=1-::;==1X=1*:***-:;-*=1X=1=",
"**=;;=*=1X=1:-****-:;**-*=1X=1:::=1X=1=;:;==1X=1*:=**=;:-==1X=1-",
"**=;-=*=1X=1;;=***;:-**-*=1X=1:::=1X=1=;:-*=1X=1*:=**=-:;==1X=1-",
"***--**=1X=1;:=**=;:***;*=1X=1:::=1X=1*-;=*=1X=1*:=***-:;==1X=1;",
"***==**=1X=1-:;=*=::***;*=1X=1:::=1X=1*=-**=1X=1*:=***=;:==1X=1;",
"=*****==1X=1*;:;=::;***;*=1X=1:::=1X=1**=**=1X=1*;-***=-:;=1X=1:",
"=*****==1X=1*-:::::-***:*=1X=1::;=1X=1*****=1X=1*;;****-:;=1X=1:",
"-*****;=1X=1**::::;***-:*=1X=1::;=1X=1*****=1X=1*-;=***=;;=1X=1:",
"-=***=;=1X=1**-;:;-***;:*=1X=1:;-=1X=1*****=1X=1*-:=****--=1X=1:",
";=***=;=1X=1***-;-****;:*=1X=1:;-=1X=1*****=1X=1**:=*****==1X=1:",
";-***=;=1X=1****-****;::-=1X=1;-*=1X=1*****=1X=1-*:-******=1X=1:",
"-------=1X=1-*******-----=1X=1-**=1X=1-***-=1X=1-*--******=1X=1-"
};
