/* XPM */
static char *out[] = {
/* columns rows colors chars-per-pixel */
"64 64 32 1 ",
"  c #202020",
". c #282828",
"X c #2C2C2C",
"o c gray19",
"O c #343434",
"+ c gray22",
"@ c #543C1C",
"# c #5C4020",
"$ c #6C4824",
"% c #744C28",
"& c gray25",
"* c #484848",
"= c gray33",
"- c gray36",
"; c #646464",
": c gray44",
"> c #7C7C7C",
", c #80502C",
"< c #885830",
"1 c #905C34",
"2 c #9C6038",
"3 c #A0643C",
"4 c #A86840",
"5 c #B47044",
"6 c #BC7848",
"7 c gray55",
"8 c #989898",
"9 c gray66",
"0 c #B4B4B4",
"q c #C0C0C0",
"w c #D0D0D0",
"e c #ECECEC",
/* pixels */
"++++++++++++++++++++++++++++++++++++++++++++++++++++++++++++++++",
"=777777878788888888888888878787777>7>7>7>7>>>>>>>>:>:>:>:>;:;:;+",
";7778787878888888888888787877777777>7>>>>>>>>>>>>>>>>::::::::;:+",
";87e78787888888888888878787777>7>7>7>7>7>>>>>>>>:>:>:>:>::;:=7;+",
";7=787888888888888+&&&&*****===---;;;;--==**&>>>>>>::::::::;&=:+",
":87888888888888888&qqqq009999888877777777889&>:>:>:>:>::;:;:;:;+",
":88888888888888887&qq00099998888777777778899+>>>>::::::::::;:;;+",
":88888888888888878&q79779>987:77>;7;>;77:979+>:>:>:>::::;:;:;:;+",
":88888888888888787&q+8=&>+88&;-+-=7+:=+;-=;8O>>:>::::::::;:;;;;+",
":88888888888787877&0+8--;=78+-;&&=7+>=**-+87X>:>:>::::;:;:;:;:;+",
":87e88888887878777*0&>*===;8+;-=*=7+:=-=-&7;X:>::::::::::;:;=:;+",
":8=788888878787777*97*:;=;-7+:==;=7;=-->-7*9X>:>::::;:;:;:;:&=;+",
":88888878787777777*999888877777777889990qqqw.::::::::::;:;;;;;;+",
":88888787877777777*98777:::;;;;:::>>7777889wX>:>::::;:;:;:;:;:;*",
":88887878777777777*97;;;;;;;;;;;;;;;:::>>>8w.::::::::;:;:;;;;;;*",
":878787777777777>7=888877777777888990qqqwwwq >::::;:;:;:;:;;;:;*",
":78787777777777777=8>;;;;;;;;;;;;;:::>>>>>9q.::::::::;:;;;;;;;;*",
":87e7777777777>7>7=87::;;;;;::>>77778888889q :::;:;:;:;:;:;;=:;*",
":7=777777777777>7>-877777777888990qqqwwwqqq0.::::::;:;:;;;;;&=;*",
":777777777>7>7>7>7-7:;;;;;;;;;;:::>>>>>>>>:9.:::;:;:;:;:;;;:;:;*",
":777777777777>7>7>-7:;;;;::>>777788888887779X::::;:;:;;;;;;;;;:*",
":7777777>7>7>7>7>7-7777778889900qqwwwq099999.:;:;:;:;:;:;;;:;:;*",
":7777777777>7>7>7>;7-==------->qqwwwq98*ee98X::::;:;;;;;;;;;;;:*",
":77777>7>7>7>7>7>7;7>>>7778889qqqwww0e*ww*89X:;:;:;:;:;;;;;:;:;*",
":7:w77777>7>7>7>>>;7778889990qqqwwwq9ew7*w*9O::;:;:;;;;;;;;;=7:*",
":7&:>7>7>7>7>7>7>7;777889990qqqwwwqq9*w=8we9O:;:;:;:;;;;;:;:&=;*",
":7777>7>7>7>7>>>>>-77889990qqqwwwqq098*ww*e8O::;:;;;;;;;;;;;:;:*",
";7>7>7>7>7>7>7>7>>-7889990qqqwwwqqq099ee*897O:;:;:;:;;;;;:;:;:;*",
";77>7>7>7>7>>>>>>>-889990qqqwwwqqq0998999877+;:;:;;;;;;;;;;;:::*",
";7>7>7>7>7>7>7>>>>=**&&++OXXX.     ..XXXOOOO+:;:;:;;;;;:;:;:;:;*",
";>7>7>7>7>>>>>>>>>>>>>>>>>>:>:>::::::::::::;:;:;;;;;;;;;;;:;:::*",
";7:0>7>7>7>7>>>>>>>>>>>>:>:>:>:>::::::::;:;:;:;:;:;;;;;:;:;:=7;*",
";>&:7>7>>>>>>>>>>>>>>>>>>>>:>::::::::::::::;:;;;;;;;;;;;;;:;&=:*",
";7>7>7>7>7>>>>>>>>>>>>:>:>:>:>::::::::;:;:;:;:;:;;;;;;;:;:;:;::*",
";>7>7>>>>>>>>>>>>>>>>>>>>:>::::::::::::::;:;:;;;;;;;;;;;:;:;:::*",
";7>7>7>7>>>>>>>>>>>>:>:>:>:>::::::::::;:;:;:;:;;;;;;;:;:;:;:;::*",
";>7>>>>>>>>>>>>>>>>>>>>:>::::::::::::::::;:;;;;;;;;;;;;;:;:::::*",
";7>7>7>>>>>>>>>>>>:>:>:>:>::::::::::;:;:;:;:;:;;;;;;;:;:;:;:;::*",
";>:0>55::>7:55555555555555455:;;>:44222211,,,,,,,,,,%*===<2<=8:*",
";7&:632,==;=55554444221111111,==;=1111,,,,<<<,,,,,,,*+***211&=:*",
";>>>>$$&+*++#$$$$$$$#########@&&++#################$@+*++##::::*",
";7>>>>>>>+=>>>>>:>:>:>:>::::::;+*;;:;:;:;:;;;;;;;;;;;;o+;:;::::*",
";>>>::;;*+*=;;;;;=;=;=========*o&*===*=**************+o+*;:::::*",
"=>>::;;;&++=;;=;=;=;=;========+o+&*=*=*=*=*********=*+ o*;;::::*",
"=>>>;:;;;;;;;;;=;=;================*=*=***************=*=;:::::*",
"=>=8>:::::::;:;:;:;:;;;;;;;;;;;;=;=;=;=;=========;=;=;=;=;;:=8:*",
"=>&=>>>>>>>>>:>:>::::::::::::::::;:;:;;;;;;;;;;;;;;;:;:;::::&=:*",
"=>>>>>>>>>:>:>:>:>:>::::::::::;:;:;:;:;:;;;;;;;;;:;:;:;:;:;::::*",
"=>>>>>>>>>>>>:>::::::::::::::::::;:;:;;;;;;;;;;;;;;;:;:;:::::::*",
"=>>>>>>>:>:>:>:>:>::::::::::;:;:;:;:;:;;;;;;;;;;;:;:;:;:;:;::::*",
"=>>>>>>>>>>:>::::::::::::::::::;:;:;;;;;;;;;;;;;;;:;:;:::::::::*",
"=>>>>>:>:>:>:>:>::::::::::::;:;:;:;:;:;;;;;;;;;:;:;:;:;:;::::::*",
"=>=8>>>>>:>::::::::::::::::::::;:;;;;;;;;;;;;;;;;;:;:;::::::=8:*",
"=>&=:>:>:>:>:>::::::::::::;:;:;:;:;:;;;;;;;;;;;:;:;:;:;:;:::&=:*",
"=>>>>>>:>:>::::::::::::::::::;:;:;;;;;;;;;;;;;;;;;:;:;:::::::::*",
"=>>>:>:>:>:>::::::::::::::;:;:;:;:;:;;;;;;;;;:;:;:;:;:;:;::::::*",
"=>>>>:>:>::::::::::::::::::;:;:;;;;;;;;;;;;;;;;;:;:;:::::::::::*",
"=>:>:>:>:>::::::::::::::;:;:;:;:;:;;;;;;;;;;;:;:;:;:;:;::::::::*",
"=>>>>:>::::::::::::::::::::;:;:;;;;;;;;;;;;;;;;;:;:;:::::::::::*",
"=>=7:>:>:>::::::::::::;:;:;:;:;:;;;;;;;;;;;;;:;:;:;:;:;:::::=8:*",
"=>&=>::::::::::::::::::::;:;:;;;;;;;;;;;;;;;;;:;:;:;::::::::&=:*",
"=>:>:>:>::::::::::::::;:;:;:;:;:;;;;;;;;;;;:;:;:;:;:;:;::::::::*",
"=:>:>::::::::::::::::::::;:;:;;;;;;;;;;;;;;;;;:;:::::::::::::::*",
"++++++++++++++++++++++++++++++++++++++++++++++++++++++++++++++++"
};
