/* XPM */
static char *out[] = {
/* columns rows colors chars-per-pixel */
"64 64 74 1 ",
"  c gray11",
". c #28200C",
"X c #382C14",
"o c #00002C",
"O c #202020",
"+ c #2C2C2C",
"@ c #403018",
"# c #483818",
"$ c #044000",
"% c #044C00",
"& c #045800",
"* c #046400",
"= c #047000",
"- c #047C00",
"; c #6C4824",
": c #000040",
"> c #00004C",
", c #000058",
"< c #280040",
"1 c #340058",
"2 c #000064",
"3 c #000070",
"4 c #00007C",
"5 c #400040",
"6 c #440070",
"7 c #004040",
"8 c #005858",
"9 c #007070",
"0 c #007C7C",
"q c gray25",
"w c #646464",
"e c gray44",
"r c #7C7C7C",
"t c #80502C",
"y c #885830",
"u c #905C34",
"i c #A0643C",
"p c #B47044",
"a c #BC7848",
"s c #C87C4C",
"d c #048800",
"f c #049800",
"g c #04A400",
"h c #00A800",
"j c #04B000",
"k c #04BC00",
"l c #04C800",
"z c #00D400",
"x c #00E000",
"c c #00EC00",
"v c #00FC00",
"b c #20FC20",
"n c #40FC40",
"m c #54FC54",
"M c #60FC5C",
"N c #D08050",
"B c #DC8854",
"V c #E88C58",
"C c #F0945C",
"Z c #FC9C60",
"A c #80FC7C",
"S c #000088",
"D c #000098",
"F c #0000A4",
"G c #0000A8",
"H c #0000B0",
"J c #500084",
"K c #008484",
"L c #00CCCC",
"P c #B4B4B4",
"I c #D0D0D0",
"U c gainsboro",
"Y c #ECECEC",
"T c gray99",
/* pixels */
";t;NBVCZZZZZZZZZZZZZZZZZZZZZCVBN;t;NBVCZZZZZZZZZZZZZZZZZZZZZCVBN",
";t;aCCCCCCCCCCCCVVVVCVCVCVCVCVCs;t;aCCCCCCCCCCCCVVVVCVCVCVCVCVCs",
";t;aCCVCCCVVCVVVVVVVVCVCVCVVVCVs;t;aCCVCCCVVCVVVVVVVVCVCVCVVVCVs",
";t;aVVCVVCCVVVBVVVVVCVCVCVVVVBVs;t;aVVCVVCCVVVBVVVVVCVCVCVVVVBVs",
";t;aVCVVVVCVVBVBCVVCVVVCVCVCBVBs;t;aVCVVVVCVVBVBCVVCVVVCVCVCBVBs",
";t;aVCVVVVCVVBVBCVVCVVVCVCVCBVBs;t;aVCVVVVCVVBVBCVVCVVVCVCVCBVBs",
";t;aVVCTYYYYYYYYYYUUUUUUUUIIIIIIIIPPPPPPPPPPPPPPPPPPPPPPPPwBVBBs",
";t;aVVVYwwwwwwwwwwwwwwwwwwwwwwwwwwwwwwwwwwwwwwwwwwwwwwwerPwiBBVs",
";t;aVVBYw. o &&&& oo   &&&&&&&%%%%%%%%%%%%%%% oooooooooo<PwpVBBs",
";t;aBNVYw oooO77OOo $&dddddddd--00dddddddd&7O:>,,,,,,,,,<PwiBNBs",
";t;aBsNUwoo>>>,777*-jbxzxxzzzcLLccLLllllll822724DDDDDDDS6PwyNBNs",
";t;asssUwoo>>>>78djcxxxxxxxzxxcccccLLLLLLLK99-=3DDDDDDDS6PwusBNs",
";t;aNsNUwoo>>77-dkxxxxxxxzzzzznmmnbmmbccvvccccf84SDDGGGDJPwyNsss",
";t;iiiiUw 788=-djxxxzzxxxxxxnMAAMmnnbbvvccxccch988SDGHHFJPw@iiii",
";;#XXXXUw&fjjjcbxxxxxxccbnmmAAAAAMnbbbvvccxcbxcjd-4DHHHFJPw XXX#",
";;;;;;;Uw&fcbnbbcxxxcbbnnmMMAAAAAMnnbvvbcxxcbAxj984DHHHFJPwX;;;;",
"tttttttIw&fnbbbbcxxxbnnnnnmmmmMMMmnnbvcxxxzccj983SDDGHGDJPw@tttt",
"ZZZZZZZIw&fvvcbbbcxcbbbbbbbnbnnnnnbbbcxxczhf883SDDDDGGDS6PwsZZZZ",
"VVVCVCVIw&fvvbbbbbccbbccccbbbvMAnbccbbj988-83SDDDDDDDDD3qPwaCVVV",
"VVVVCVCIw&fvvbbcxcccbbxxxxcccvcMncxbj9834324DDDDDDDDDS88jPwpVVVV",
"VVVCVCVIw&fcccxxcjfdjjjcccjd88djccj982SSDDDDDDDDDDDS88jjjPwiVVVV",
"CVBVVVVIw&fxvxcjd*77778-j-77,277888244SDDDDDDDDDD428jjjjjPwiCVCC",
"BCBBVBVIw&fxcnlf77,22,,777,233323344SSDDDDDDDDDDD2djjjjjjPwpBCBB",
"VVCVVVCIw &djccf8,222222222344444444SDDDDDDDDDDDS7djjkkjjPwpBCVV",
"CVBVVVVIw O7*djjd7222222233344444444SDDDDDDDDDDDS7djjlljjPwiCVCC",
"BCBBVBVIwoo>:7777>222222333444444444SDDDDDDDDDDDD2ddjllkjPwpBCBB",
"BBBBBVBIwoo>>>>,,,22222233444444444SSDDDDDDDDDDDD48dgzljjPwiVBBB",
"NBVBVNBIwoo>>,222222222233444444444SSDDDDDDDDDDDDS8dgzljjPwpBBNN",
"BNNBNBBPwoo>>,,22222222333344444444SDDDDDDDDDDDDDS8dgzljjPwiNNBB",
"NsNsNsNPwoo>>,,,22222222333444444444SDDDDDDDDDDDD48dzzljjPwusBNN",
"NNsNsNsPwoo>,,,,222222223334444444444SDDDDDDDDDD38dhzlkjjPwyBNNN",
"iiiiiiiPwoo,,,22222222223444444444444SDDDDDDDDD38dgllljjjPw.iiii",
"XXXXXXXPwoo>,222222222222344444444444SDDDDDDDS48dklllljjjPw XXXX",
";;;;;;;Pwoo>,2222222222223444444444SSSDDDDS4888dklllllkjgPwX;;;;",
"tttttttPwoo>>,222222222222344444444SSSSSS488djjjlzzlllkjfPw@tttt",
";t;NBVCPwoo>>>,222222222223444444444432788djklllzzzllkkjfPwsCVBN",
";t;aCCCPwoo>>>,222222222223444433322778-djkkllzzzllllkjjfPwpCVCs",
";t;aCCVPwoo>>,,222222222233444277778-djjllzzzzzlllllkjjjjPwpVCVs",
";t;aVVCPwoo>>,,22222222333444378=dgjkllllzzxxzlkllllkjjjjPwpVBVs",
";t;aVCVPwoo>>>,2222222344444437dklllllzzzzzzzzzlzzllkjjjjPwaBVBs",
";t;aVVCPwoo>>>,2222222344444437djklzllzzzzzzzzzzzzzkkjkjjPwiVBBs",
";t;aVVVPwoo>>>>,2222222344444378djkjjkllllzzxzllllllllljjPwiBBVs",
";t;aVVBPw O7:>>,22222223444444278djjjjkkkkllzzllllllllljjPwpVBBs",
";t;aBNVPw$=j7>>,,222222344444442,7=jjLLjjjkllkklllllllljjPwiBNBs",
";t;aBsNPw$=j=7>>>,222233444444443,7LLjjLfLLjjjjkkllllkkjjPwyNBNs",
";t;asssPw$=jj=7777,,223444444442,7=jjggLLjLggjjjjkllljjjjPwusBNs",
";t;aNsNPw$=lljjjgj877,23444432,78jjjkjjjjgLLLgjjjjklkjjjjPwyNsss",
";t;iiiiPe$=kkjllljjjj7>23332,78jjjjklkjjjjjjjLjjjjjjjjjjjPw@iiii",
";t;#XXXPr$&ffjgjjjjjjjq55155qjjjjjjgjgjjjjjjjjLjjjjfffjjjPw XXX#",
";;;;;;;PPPPPPPPPPPPPPPPPPPPPPPPPPPPPPPPPPPPPPPPPPPPPPPPPPPwX;;;;",
"tttttttwwwwwwwwwwwwwwwwwwwwwwwwwwwwwwwwwwwwwwwwwwwwwwwwwww+@tttt",
"ZZZZZZZssssapiuX@XuipasssssssssssssssssssssapiuX@XuipassssssZZZZ",
"VVVCVCVCVCVCVCs;t;aCCCCCCCCCCCCVVVVCVCVCVCVCVCs;t;aCCCCCCCCCCVVV",
"VVVVCVCVCVVVCVs;t;aCCVCCCVVCVVVVVVVVCVCVCVVVCVs;t;aCCVCCCVVVVVVV",
"VVVCVCVCVVVVBVs;t;aVVCVVCCVVVBVVVVVCVCVCVVVVBVs;t;aVVCVVCCVBVVVV",
"VVCVVVCVCVCBVBs;t;aVCVVVVCVVBVBCVVCVVVCVCVCBVBs;t;aVCVVVVCVVBCVV",
"CVBVVVVBVCBVBBs;t;aVVCVVVVVBVBCVCVBVVVVBVCBVBBs;t;aVVCVVVVVBCVCC",
"BCBBVBVBBBBBBVs;t;aVVVCVVVBVBVBCBCBBVBVBBBBBBVs;t;aVVVCVVVBVBCBB",
"BBBBBVBCBBVVBBs;t;aVVBVBBBBBVBVBBBBBBVBCBBVVBBs;t;aVVBVBBBBBVBBB",
"NBVBVNBBBNBBNBs;t;aBNVNBBBBNBVBBNBVBVNBBBNBBNBs;t;aBNVNBBBBVBBNN",
"BNNBNBBBNBsNBNs;t;aBsNBNsBNBNBNNBNNBNBBBNBsNBNs;t;aBsNBNsBNBNNBB",
"NsNsNsNsBsNsBNs;t;asssNsNsBsBNsBNsNsNsNsBsNsBNs;t;asssNsNsBNsBNN",
"NNsNsNsNsNsNsss;t;aNsNsNNNsNssBNNNsNsNsNsNsNsss;t;aNsNsNNNssBNNN",
"iiiiiiiiiiiiiii;t;iiiiiiiiiiiiiiiiiiiiiiiiiiiii;t;iiiiiiiiiiiiii"
};
