/* XPM */
static char *out[] = {
/* columns rows colors chars-per-pixel */
"64 64 28 1 ",
"  c black",
". c #00001C",
"X c gray11",
"o c #28200C",
"O c #302410",
"+ c #382C14",
"@ c #202020",
"# c #2C2C2C",
"$ c gray22",
"% c #483818",
"& c #543C1C",
"* c #5C4020",
"= c #6C4824",
"- c #744C28",
"; c #484848",
": c gray33",
"> c #646464",
", c gray44",
"< c #7C7C7C",
"1 c #80502C",
"2 c #885830",
"3 c #905C34",
"4 c #9C6038",
"5 c #A0643C",
"6 c #B47044",
"7 c gray55",
"8 c #989898",
"9 c gray66",
/* pixels */
"@+&****=&======***&=&&&+%%+O@@o&&=&&&&&&&&&@@o&&&&&&&&&&o@&&&&&@",
"X***-=*-*=&**-*&=&&&&*&%+O+% X+=111111=&&&% X+===---===*& -3--* ",
"X-*-=**&%&*---*&&O%%&&&%%+%& X+461===*1=&%O X+----==-221& -3-*& ",
"X==*=*&**-**&=&*&%*%&&&&&+O% X+=--=&&*%&%%O X+---=-1-2--& ==-=% ",
"X=--=*&&*-=*=*&&&*&*&&&%&&&O X+=1-=&&&%%O+O X+----=-==-=% &*=&% ",
"X*=**&*&*=**&&&-%%%*-&%&&&&% XO=====%%*%++O X+--1-151-=*& *&&+& ",
"X***&=&&-**&&&*=OO%=-&**&&&% Xo=&=&&&&&%%+O X+-----51--*% *&&O% ",
"X*-**&==*&&&&%+%++**-*1=&%+% X+=&==&&%%%+OO X+----1--*-*& %+&+O ",
"X&&&&*&-=&&%&+%%OO--&=-=*&%& X+&&=%&%&&%&O+ X+-1-11--=*-*       ",
"X&*&-1-&=*&%=&&%%&=-*&&&-*+& X+-&&&&&&+OOOO X+--=1-=-*&=& X=--O ",
"X&&*----*=&%&&%%+%---*&&*O&% XO-&&%&&+&&OOO X+--==-*=-==& =61-& ",
"X&&*-*-&=&&%%%+%OO*=&%&-&+%% XO-*&&+&+%O&+O X+---*=&111*+ *6-*+ ",
"X+&=*=***=&%&%O%O%&*==*&+&%O XO&&%&%+O+%&+O X+-=-==**==&O *2-&O ",
"XO+&=&&*=&&XXXXXXXXXXXXXXXXXXXXXXXXXXXXXXXXXXXXXXXXXX=&OO &=&+% ",
"Xoo%%%%%%%%X>>;;;;;;;;;;;;;;;;;;;;;;;;;;;;;;;;;;;$$# %+&O o&-*O ",
"X          X>$@@@@@@@@@@@@@@@@@@@@@@@@@@@@@@@@@@@@@@ &O&O       ",
"&&&&*******X;@@@@@@@@@@@@@@@@@@@@@@@@@@@@@@@@@@@@@@@ &&&O o&&&&&",
"--===---44=X;@@                                  #@@ &&+O &=131=",
"----=-==11=X;@@   @      @      @      @     @   #@@ &%O+ ==464-",
"2--2----**=X;@@   #@     #@     #@     #@    #@  $@@ &O++ ==4641",
"2-==1-*=*==X;@@   $@     $@     $@     $@    $@  $@@ &+&O =1241-",
"25-=--==-=*X;@@   ;@     ;@     ;@     ;@    ;@  ;@@ &OOO -1111=",
"21=--=--==&X;@@   ;@     ;@     ;@     ;@    ;@  ;@@ +OOO --==1=",
"-1-----=*=-X;@@   ;@     ;@     ;@     ;@    ;@  ;@@ %O+O ---11-",
"2-===---=-&X;@@   ;@     ;@     ;@     ;@    ;@  ;@@$%+&O ==11=1",
"1-=*=--====X;@@   ;@     ;@     ;@     ;@    ;@  ;@@:+++O =1-12-",
"-*--====**+X;@@   ;@     ;@     ;@     ;@    ;@  ;@@@+%++ =11-2=",
"----**&&*&&X;@@   ;@     ;@     ;@     ;@    ;@  ;@@$++%O &144--",
"=---**%%*&%X;@@   ;@     ;@     ;@     ;@    ;@  ;@@:&+++ &1331=",
"-&&*&*&&&%&X;@@   ;@     ;@     ;@     ;@    ;@  ;@@$&OOO &1=---",
"=&&%%-**=&&X;@@   ;@     ;@     ;@     ;@    ;@  ;@@ &%OO &=1-==",
"&**&=&*-&**X;@@   ;@     ;@     ;@     ;@    ;@  ;@@ %%OO &=11-=",
"=&&=&=&=*-=X;@@#$;$@##   ;@     ;@     ;@    ;@  ;@@ &&+O &=1==&",
"%&%=*-*&*--X;@@@@@@@@@   ;@     ;@     ;@    ;@  ;@@ &+OO &====&",
"%***+--&*-*X;@@@@@@@@@   ;@     ;@     ;@    ;@  ;@@ %%OO %==-**",
"*%**&-=**%*X;@@@@@@@@@   ;@     ;@     ;@    ;@  ;@@ &%+O %=&=*&",
"&&**O--=&&*X;@@@@@ @@@   ;@     ;@     ;@    ;@  ;@@ %%+O %*&&&&",
"&**%+**-&**X;@@ @   @@   ;@     ;@     ;@    ;@  ;@@ OO%O %&*&&&",
"&&&+&=*=&&&X;@@ @   @@   ;@     ;@     ;@    ;@  ;@@ +&+O %=*=&&",
"&*%&%*=&&*%X;@@@@ @ @@   ;@     ;@     ;@    ;@  ;@@ %&&O o*=&&*",
"           X;@@@@ $ @@   ;@     ;@     ;@    ;@  ;@@ O&+O X     ",
"XXXXXXOOOOOX;@@@@@ @@@   ;@     ;@     ;@    ;@  ;@@ o+oO Xo=%oX",
"XXo=1222332X;@@@@@@@@@   ;@     ;@     ;@    ;@  ;@@ OoOO X%=&+X",
"XX=3553511-X;@@@@@@@@@   ;@     ;@     ;@    ;@  ;@@      XoO+%X",
"XX=55321---X;@@@@@@@@@   ;@     ;@     ;@    ;@  ;@@ XXXXXXXXXXX",
"XX-55331-=-X;@@          ;@     ;@8    ;@    ;@  ;@@ 33333----&X",
"XX-3232--=-X;@@   @@     ;@    888,,   ;@    ;@  ;@@ 1-------=& ",
"XX-32-1--=-X;@@   #@     ;@    :;@$:   ;@ $$$;@  ;@@ ***&**--+& ",
"XX-322--===X;@@   $@     ;@    ,,,$    ;@$:::;@@ ;@@ 1&*&&&*%+& ",
"XX--------=X;@@   ;@     ;@    ###$    ;@@;,,;@$ ;@@$1&*&&=&&&+ ",
"XX-=------*X;@@   ;@     ;@     ;@##$;;;@ @89;@; ;@@:=&&**&=&&O ",
"XX----163-*X;@@   ;@     ;@     ;@   ,,;@ #88;@; ;@@@-&&&&**++O ",
"XX---13232=X;@@   ;@     ;@     ;@  $;7;@$<> ;@; ;@@$&&*&&*&++O ",
"XX---2323--X;@@   ;@     ;@     ;@ $$,@;@ $8$;@$ ;@@:=&&&&*++oo ",
"XX---1121--X;@@   ;@     ;@     ;@@$@,@;@;;,,;@  ;@@$&&%%&&%++o ",
"XX1-----*=-X;@@   ;@     ;@     ;@@$@,>;@ ;; ;@  ;@@ %%%%++O+oo ",
"XX1----=***X;@@   ;@     ;@     ;@@$;;,;@    ;@  ;@@ %%&+OooOoo ",
"XX1--**&***X;@@   ;@     ;@   @@;@@$$:,;@;;: ;@  ;@@ &&%+oO+Ooo ",
"XX1=**&&&&&X;@@   ;@     ;@ @@@@;@@@$$$;@<;:$;@  ;@@ &%&++&+O+O ",
"XX-=*=&&&O+X;@@   ;@     ;@@@@@@;@@@@@@;@$;:$;@  ;@@ &%oOO+%++O ",
"XX==&&&&+ooX;@@   $@    @$@@@ :,$@@@@@@$@$$$$$@  :#@ O+++OO+Ooo ",
"XX=**&*%%+%X$@@$$;;;;;;;;;;;;;;;;;;;;;;;;;;;;;;;::#@.+++OOO+oooX",
"@@%%%%%%%%%X#@@@@@@@@@@@@@@@@@@@@@@@@@@@@@@@@@@@@##@.++++++ooooX",
"$$$$$$$$$$$$$$$$$$$$$$$$$$$$$$$$$$$$$$$$$$$$$$$$$$$$$$$$$$$$$$$$"
};
