/* XPM */
static char *out[] = {
/* columns rows colors chars-per-pixel */
"64 64 46 1 ",
"  c gray11",
". c #28200C",
"X c #382C14",
"o c #00002C",
"O c #000034",
"+ c #2C2C2C",
"@ c #343434",
"# c #044000",
"$ c #044C00",
"% c #045800",
"& c #046400",
"* c #047000",
"= c #047C00",
"- c #5C4020",
"; c #6C4824",
": c #000040",
"> c #00004C",
", c #000058",
"< c #280040",
"1 c #340058",
"2 c #000064",
"3 c #000070",
"4 c #004040",
"5 c #005858",
"6 c #006060",
"7 c #484848",
"8 c gray33",
"9 c gray44",
"0 c #7C7C7C",
"q c #80502C",
"w c #885830",
"e c #905C34",
"r c #A0643C",
"t c #B47044",
"y c #BC7848",
"u c #C87C4C",
"i c #048800",
"p c #049800",
"a c #04A400",
"s c #04B000",
"d c #04BC00",
"f c #D08050",
"g c #DC8854",
"h c #008C8C",
"j c gray55",
"k c #989898",
/* pixels */
".X.tyufgggggggggggggggggggggfuyt.X.tyufgggggggggggggggggggggfuyt",
".X.qffffffffffffuuuufufufufufufr.X.qffffffffffffuuuufufufufufufr",
".X.qffufffuufuuuuuuuufufufuuufur.X.qffufffuufuuuuuuuufufufuuufur",
".X.quufuuffuuuyuuuuufufufuuuuyur.X.quufuuffuuuyuuuuufufufuuuuyur",
".X.qufuuuufuuyuyfuufuuufufufyuyr.X.qufuuuufuuyuyfuufuuufufufyuyr",
".X.qufuuuufuuyuyfuufuuufufufyuyr.X.qufuuuufuuyuyfuufuuufufufyuyr",
".X.quufkkkkkkkkkkkjjjjjjjj000000009999999999999999999999997tuyyr",
".X.quuuk777777777777777777777777777777777777777777777778897;yyur",
".X.quuyk7. o #### oo   ###################### oooooooooo<97wuyyr",
".X.qytuk7 ooo 44  o ##&&&&&&&&%%55&&&&&&&&#4 O::::::::::<97;ytyr",
".X.qyrtj7oo::::444$%=apppppppahhaahhiiiiii4>>4>,33333332197-tytr",
".X.qrrrj7oo::::44&=appppppppppaaaaahhhhhhh655%%,33333332197;rytr",
".X.qtrtj7oo::44%&=ppppppppppppssssassaaaaaaaaa*4,2333333197-trrr",
".X.;;;;j7 444%%&=pppppppppppssddssssaaaaaapaaa*544233333197X;;;;",
".......j7#*===aappppppaaasssdddddssaaaaaaapaapa=&%,33333197 ....",
".......j7#*aasaaapppaaasssssdddddsssaaaaappasdp=54,33333197X....",
"XXXXXXX07#*saaaaapppasssssssssssssssaaappppaa=54,2333333197XXXXX",
"ggggggg07#*aaaaaaapaaaaaaaasasssssaaaappap**44,233333332197rgggg",
"uuufufu07#*aaaaaaaaaaaaaaaaaaasssaaaaa=544%4,2333333333,@97efuuu",
"uuuufuf07#*aaaaapaaaaappppaaaaassapa=54,,,>,333333333244=97wuuuu",
"uuufufu07#*aaappa=*&===aaa=&44&=aa=54>2233333333333244===97;uuuu",
"fuyuuuu07#*papa=&$44444%=%44:>44444>,,23333333333,>4=====97;fuff",
"yfyyuyu07#*pasi*44:>>::444:>,,,>,,,,2233333333333>&======97wyfyy",
"uufuuuf07 #&=aa*4:>>>>>>>>>,,,,,,,,,23333333333324&======97wyfuu",
"fuyuuuu07  4$&==&4>>>>>>>,,,,,,,,,,,23333333333324&==ii==97;fuff",
"yfyyuyu07oo:O4444:>>>>>>,,,,,,,,,,,,2333333333333>&&=ii==97wyfyy",
"yyyyyuy07oo:::::::>>>>>>,,,,,,,,,,,22333333333333,4&*pi==97;uyyy",
"tyuyuty07oo:::>>>>>>>>>>,,,,,,,,,,,2233333333333324&*pi==97wyytt",
"yttytyy97oo::::>>>>>>>>,,,,,,,,,,,,2333333333333324&*pi==97;ttyy",
"trtrtrt97oo:::::>>>>>>>>,,,,,,,,,,,,2333333333333,4&ppi==97;rytt",
"ttrtrtr97oo:::::>>>>>>>>,,,,,,,,,,,,,23333333333,4&*pi===97-yttt",
";;;;;;;97oo:::>>>>>>>>>>,,,,,,,,,,,,,2333333333,4&*iii===97 ;;;;",
".......97oo::>>>>>>>>>>>>,,,,,,,,,,,,233333332,4&=iiii===97 ....",
".......97oo::>>>>>>>>>>>>,,,,,,,,,,22233332,444&=iiiii==*97X....",
"XXXXXXX97oo:::>>>>>>>>>>>>,,,,,,,,,222222,44&===ippiii==*97XXXXX",
".X.tyuf97oo::::>>>>>>>>>>>,,,,,,,,,,,,>444&==iiipppii===*97rfuyt",
".X.qfff97oo::::>>>>>>>>>>>,,,,,,,,>>444%&===iipppiiii===*97wfufr",
".X.qffu97oo::::>>>>>>>>>>,,,,,>44444%&==iipppppiiiii=====97wufur",
".X.quuf97oo::::>>>>>>>>,,,,,,,44%&*==iiiipppppi=iiii=====97wuyur",
".X.qufu97oo::::>>>>>>>,,,,,,,,4&=iiiiipppppppppippii=====97eyuyr",
".X.quuf97oo::::>>>>>>>,,,,,,,,4&==ipiippppppppppppp======97;uyyr",
".X.quuu97oo:::::>>>>>>>,,,,,,,44&=====iiiippppiiiiiiiii==97;yyur",
".X.quuy97  4O:::>>>>>>>,,,,,,,>44&========iippiiiiiiiii==97wuyyr",
".X.qytu97#%=4::::>>>>>>,,,,,,,,>:4%==hh====ii==iiiiiiii==97;ytyr",
".X.qyrt97#%=%4::::>>>>,,,,,,,,,,,:4hh==h*hh======iiii====97-tytr",
".X.qrrr97#%==%4444::>>,,,,,,,,,>:4%==**hh=h**=====iii====97;rytr",
".X.qtrt97#%ii===*=444:>,,,,,,>:44========*hhh*=====i=====97-trrr",
".X.;;;;98#%===iii====4:>,,,>:44=====i========h===========97X;;;;",
".X.....98##**=*=======@<<<<<@======*=*========h====***===97 ....",
".......9999999999999999999999999999999999999999999999999997X....",
"XXXXXXX777777777777777777777777777777777777777777777777777+XXXXX",
"gggggggrrrrew;;XXX;;werrrrrrrrrrrrrrrrrrrrrew;;XXX;;werrrrrrgggg",
"uuufufufufufufr.X.qffffffffffffuuuufufufufufufr.X.qffffffffffuuu",
"uuuufufufuuufur.X.qffufffuufuuuuuuuufufufuuufur.X.qffufffuuuuuuu",
"uuufufufuuuuyur.X.quufuuffuuuyuuuuufufufuuuuyur.X.quufuuffuyuuuu",
"uufuuufufufyuyr.X.qufuuuufuuyuyfuufuuufufufyuyr.X.qufuuuufuuyfuu",
"fuyuuuuyufyuyyr.X.quufuuuuuyuyfufuyuuuuyufyuyyr.X.quufuuuuuyfuff",
"yfyyuyuyyyyyyur.X.quuufuuuyuyuyfyfyyuyuyyyyyyur.X.quuufuuuyuyfyy",
"yyyyyuyfyyuuyyr.X.quuyuyyyyyuyuyyyyyyuyfyyuuyyr.X.quuyuyyyyyuyyy",
"tyuyutyyytyytyr.X.qytutyyyytyuyytyuyutyyytyytyr.X.qytutyyyyuyytt",
"yttytyyytyrtytr.X.qyrtytrytytyttyttytyyytyrtytr.X.qyrtytrytyttyy",
"trtrtrtryrtrytr.X.qrrrtrtryrytrytrtrtrtryrtrytr.X.qrrrtrtrytrytt",
"ttrtrtrtrtrtrrr.X.qtrtrtttrtrrytttrtrtrtrtrtrrr.X.qtrtrtttrryttt",
";;;;;;;;;;;;;;;.X.;;;;;;;;;;;;;;;;;;;;;;;;;;;;;.X.;;;;;;;;;;;;;;"
};
