/* XPM */
static char *out[] = {
/* columns rows colors chars-per-pixel */
"64 64 9 1 ",
"  c black",
". c gray11",
"X c #202020",
"o c #282828",
"O c #2C2C2C",
"+ c #044000",
"@ c #044C00",
"# c #045800",
"$ c #046400",
/* pixels */
"                                                                ",
"                                                                ",
"                                                                ",
"                                                                ",
"                                                                ",
"                                                                ",
"                                                                ",
"                                                                ",
"                                                                ",
"                                                                ",
"                                                                ",
"                                                                ",
"                                                                ",
"                                                                ",
"                                                                ",
"                                                                ",
"                                                                ",
"                                  +    +      $                 ",
"     @   +#                   @    @   #@$+ ####@               ",
"   + @ ++@ + @            @ + @@   #+$#++$## ## $@              ",
"   +@#@$$  #@            @@+#@O@@@ #+$#$$$ $$#+@@@@@ +          ",
" @@@@ $$@#@+ #        @@@+ #  ## @$$#$$#X$O+ @ $#+@+ @          ",
"  @###$@@#++$+ +++  @# @X@X#@+O@+X@$$+#$O#@##$@@## @+         + ",
"@ $@$@#@@@@$+#$++@$$+++#@X+@@#@@@+XX$@$O$$O$@@O##+@X+@+ + #+    ",
"$#+#$$@$$#XX@@+@+$X++@+@@##X#@OOOO++#+@@#X+$O#o#@@@@@..+ + + # #",
"@$$@@$$#@$@$+#++ ++XX+@#+@X+O#XX@XX@$#$$O@@+$++#O#X@+.+$$+++$# +",
"$+$$++#+$##+X+++++O@+#@@X@@#XO+O@##@@+OX$X++X@@@@@+XX@++ X+# +#+",
"$$+@@##@X#$+++++@+++#@#+@#++@#X++X@XX#OOX+O@X+@X@@@+O+@.X+$+$#$#",
"O$$#@++++#+XXX@+++++@++#X@+@++XX@+X+@X@@O@@OX@++X++O+@++XXo.#+##",
"@+##$#X#++#X++X@+@++@##X+@#XX+X+##@#@#XOXOXXX@+OO+++X+XX.X+#O$+.",
"@##@++##++X+++XXXX+X@XXXXXXXXX@++++#@XOXX+XX@OOO@O@XX@OXX$OO$$@+",
"#@+$+#+++++#@#OXOX++@++XXX+X++XX+$+$@O#X@@+XX@OOX++X@XO+X+#@####",
"@#@#@##++##+@X@+X+XX++++XXXXX+$#$#@@$#X###@O@XXX+XOOXXXXXX$++#@+",
"X#@@++@XXO+X@+@OO+XX+X+XX+XX+X@$@O$X+O#X+XX@X@O@@O++O+X+X###$+#$",
"##@++XO+XO@OO@X++XOXXXXXX+XX+XO@O$@#+@@++##@O+O@@X+OO+XX+$#O@@@#",
"#@@#@#XXOX@@+O@O+XXX+XOXX@+++$$+$@@O$o@+####@XX@@@X@OOOXX@+##@@@",
"@#@@++@XXOXOO@OX@+XXOXO@X@#XO$@$$$O+O+#O@XX+@XXX+X++XX+X+#O#O@#@",
"@#O+#O+XXX@@XXO@+XOXXOOOX@+$O$$+@#OO+.#####+++X@+@+XXX+X+@@++++#",
"X@@@+#+X+XX@X+@+O++OXO@@X#@+$$$+OOO$$++#+X++++XO+++X++++X@@O@X+@",
"@O@+OOOO+++XX@+XX+X+OOX$@@$#$#$$+$+++X+X+#+OO++OXO+ +X O.O@X+OO@",
"O@+@O+X@X X+X@OXXXXX+$XO$#$#$##O.O@@+O+#+O.++++OOX +++OXO++@@X@O",
"+@@OO.+O+OXX+X+XOXXXXX$@@O+++$+$O+.+..X.+X.X+O.O+.o@@+++..XOXOOO",
"+@.+OX++++X+OXOOOXOX+X++O@$$#X$@#+@XOOXXXXOOOXX@O+@+OXXOXOO@+OO+",
"@.+X+O++OOXXX+XXOXXXX@@$XO@$@#++OO+OX+XX+++OO#XXXXX@OO@XXXX+OX+O",
"OX@+++OX++XXXO+OXOXXX+#+#O++X+++X+XX+XXX+X+@XXOO@O@X++OXXXOO+OOX",
"O+OO+O+OX+OOX+OXXXX+X$O@X#$O++X++X+X+XXX#X+@OO@X@@++#+X+X+OXOOOO",
"XO@O+OXOOOO+X+XOXXOX+##+##+@++++X+XXXXX#XXX@O+$+@++@#+#O+OXXX+X+",
"O+X@O+OX++XXXXXXXXO+XO+#+X$+X#X+OXXXXXXX#@##XO+#$+$+##O@O+X+X++X",
"O++++X+X+OO+XXXOXOX@@$##O#X#XOX++X++XOXX@#X##@$##$+#@XOX@+XO+X+O",
"++O++XOXOXOXOXOOOX+@@+$#@O@@O+XX+X+XXXXO+X#@$$$$$#@####X+XX++O+O",
"+++++OXXOXOXXXO@+#@$O$O$O+#XO@X+X+XXO@OXX@##++X$X@O#$+@@@X+++O++",
"++XO+X+XOXOXXXO@#X#@#@#$##+$#@@OX+XX+XX+X+X#+@$$X@#@#+#X#+++XX++",
"+X+OX+X+OX+OO+XX$+$$++$$@@$#X@@XXX@XXXX@@X++##X@@O@@$#@@@+++XX+O",
"+++X+++O+XOOO+#+$X+$$@#@#$++@@XXX@O+XO+@X+X#+#+$@$#$@#OX++X++XX+",
"XXXX++XX+OOOX++$O$$@$$$#@#+@O@@+X@@@+X@++$++$#X+@$@@@+OOO@+X++XO",
"+X+X++OOX+OX+XOX+$#+X$$$@#@#+X@@XXXOX@XX+#@##$$O+O@XO@O@XX+++XXX",
"XO+X++XXXXO.XO@+#$#+X$@#$$@@+@XX@@++++@$+@#$$$O$@O+X..+XO+X+X.+.",
"XXX+XXO.OOXO#++O#O@+$X$@##@@O@+O@@XX+OX##$$@+$@+X+O+@@.+.X++++X+",
"OXXX+OX.XXX.X@X##+#$#@@X@@#X+XX+X@OXO@#@++$$$#$O@X@@+XX+X+ X++ .",
"+XXXOXXXXOOX.+#+O+@@+X@@O@@#XO@XXXX@XX++##@+O#@OO@@@++XOX++++XXX",
"XXXOXXOXXXX+X+X@OXO@O@@X@@X@XXXO@X@OX++..+@@$@@@@XO@OX+ ++X+X++X",
"XXOO XXXXXO++@@#+#@++@@@@XXXXXXXX X++XO++X#@$++@.@@@.....XXXoOX+",
"OXX  X  X  O@ @O@++OX+@X@OXX O   X . ++++#O+@@@@XXX@O@+O+X  O Oo",
".. . .    .. + +++@. ++....           ..+.#.@....  @.....      ."
};
