/* XPM */
static char *out[] = {
/* columns rows colors chars-per-pixel */
"64 64 24 1 ",
"  c black",
". c #202020",
"X c #2C2C2C",
"o c gray22",
"O c #045800",
"+ c #046400",
"@ c #047C00",
"# c #404000",
"$ c #585400",
"% c #706C00",
"& c #5C4020",
"* c #6C4824",
"= c gray25",
"- c #484848",
"; c #4C4C4C",
": c gray33",
"> c gray36",
", c #646464",
"< c gray44",
"1 c #7C7C7C",
"2 c #048800",
"3 c #049800",
"4 c #04A400",
"5 c #848400",
/* pixels */
"XXXXXXXXXXXXXXXXXXXXXXXXXXXXXXXXXXXXXXXXXXXXXXXXXXXXXXXXXXXXXXXX",
"XXXXXXXXXX.4333333334143333  -,3333333333-X ..........XXXXXXXXXX",
"........ X.3<@@@@@@@@<1@@@4  ++:44-@@@@%4X   -@@@@@@@-o.........",
"-------- X.3+++@@@@:<11%@@4  ++,34::#$$$-X   @@333344<@@@@@$----",
"@@4444o- X.3,++$$$+-,+:$@@4  -+,-3,,-$#$-X   @@4****43333333::::",
"--@@@@o- ..@:+$*o-+,:+-o$@2  .+@3,-,-.-#XX   @@@***-@@@@@@@@@,-:",
",1#@@@#X ..@:+$*-:$::+::o@2  .o@-@--:-:#.   *$@@***@@-$@@@$$,,@:",
"::<%#$#X  .+:+$*-,$-o+::-@+. .+$-@,--,,-.   *$@@**@@@:#@:@,$::$,",
"-:-$##oX  .+:+$*-,#:-:--,@....+###...      .*.@$*@@o@o:@%$-$:,,:",
",,<#-:oX  .+:,**--:--:-,-+o ...           .@*@%#*@#:@::#@:-#:-:-",
":::::-..  .+:-*$-o::::::,+X  .+   3      .@$*#$.@$-,+--:@#-,:,--",
"-----X..  .+:,*$-oo::-:*:+o  .....3333,333$.%#.-##oo+XXX+Xoooooo",
"ooooX.    X.::+#-:*-::o**:X   .-@33@@-<<@@@@@.--ooX.+.XX+XXXXXXX",
"...XX     X+,::oo*$-:::**oX    ,3@%@@-;,%-.      ...............",
"          X.-:,:,**o-o-,$XX   .,@%:@@;--@X#.                    ",
"          X.-::,:$$-,-,:*X-.  .,@$:>@@:-@X.$..XXXX .............",
"::::@@@$:  X.::*:$#$o-:-ooXX  .,@$:,@%->#X #@@@@+X.Xo:::::::::::",
"141443@#-  X.-:*-$o$$:,:*--.  .,@$:>%#-,-X   @@%+ .o4@@343333331",
",:-@@@@#@  X.-:*-$o##-:-*-X.  .,@:--##-XXX   +++$ .:@@*-@@@@@@$o",
"::,@@@@#-  .X.::-$o..X-X-X.    ,----.....   o++$o .:@@-:@@@@@@$o",
",@:@@@@#X  .X.oXX.....         --...        o++#o .:@o;>@@@@@@$o",
",@,@@@@#X  .X.                  X @@@34     -++.o .-@-*>@o*@$@#o",
"-:oo@@@#X   XX.         .......--:@@@3@oX  o*++#X .-@-*:@@@@*@#o",
"-$oo@@#o.   -@@@@@@,-o .++@@@@@@@@@@@@@@$  o*++$X .o@-*-@@%@*@#o",
"-::,+#-o.   @@*@@@@:: X.+44@@@@@@+++++++#  -*++#. .@@-,:@@*@*@.o",
"::::+:-X    @+%++++#, X.+43-@$+++++++##+.  -*++.. .%.-o$@$#@*ooo",
"oooo+X.     @++++$+#o ..+2@@@#o++++$+#o+.  -*++.. .. ...@...*XXX",
"X..         @+$$+*+#o ..++@$@#o++++#+#o+.  -*++..       +   *  .",
"      ......@+#o+++#o  .++@#@#o++++o+#o..  +*++.X  #   #    *   ",
".oo-@@@@--. @+o+*$+#+. .+++-@#o+++$o+#o..  +*+$.X #44222#@##.   ",
"o-@@@@@@@,- @+o-+++#o. .+++-@#o+++#o+#o.. #+*+$.X .#4@@2@@$....X",
"o@@***$*$,. @+o++++#o. .+$#-@oo+++#-+#o... +*+$.X .o@#@@@@@@@: X",
"o@@$*##$$., @+,+*$+#+.  ++-:-o-+++o=+#*X   +*+$.X .*@o@@@@@##o X",
"o@@$*,*++.- ::-+*$+#+.  +-::$:$-++o=+$*.  #+*+$.X .*,-@#+@.o-o .",
"o@@$*:*++.X &,,+:$+.+.  +-&&&$#:-++++**. ****,$#. .*,*@#++.-*o .",
"o@@+#:*+$.X &&;+o$+.+.O .-&&$#o:-+o++#*  **-*:#.. .***@+o+.-*O .",
"o+@$$$*+$.X &*-+*#+.o.O .X<&#-,:,+**##*   *o*o#.. .*,*@$-+.-:O  ",
"o+$+$#*+$.X &*;,*-+.o.O  X-&,-o$#......   *X* .....-X.@XXXXXXO  ",
"o+++$,$+$.X :&:;**$.oXO  X.--$.... .#.. ***X*##.#*X  ++      O  ",
"o+++$>$#$.X o**:**$.oXO  ..      #  ##.***.X##...$#...       O  ",
"o+++#:$+$.X X**,**$.oX.  ...     $...$$###$$#.ooo*****oooooooo X",
"oO++>,*+$.X .**;*:$.oX..  ooooooo@$+++2224$#,22222233444443$-O X",
"o+++,:*+$.  *&*>**$.oX..  4444422@@%@@@@4@@@@@@@@@@@@@@@@@@4$O .",
"oO++,-*+.X  .**,#*$.oX.#. 2@4@@@@@@@,&&@@*@@@@@@@@@@@@@@@@@@*O .",
"oO++-,*+-X  ***,.*$.oX..+$++@+@@@@@@$@&1@%@@$###$@@@*@@@@$X4-O  ",
".O+*,**+-X  ***-,*$.oX .+#&:@o@@@@@@$@,,@*@@#Xo=$@@@**o@@#X+*O  ",
".O,*$-XXX   .*,--*#.oX .++&,@:@#@**@$@,-@#@@#o::-@@@**-@@*o+-O  ",
".oo*#XXXX   .::,**XXoX ..+ &,,@#@@*@#@**@o@#X=->,-@@**@@@*-:-X  ",
".  *.XXXX  ..*oo+oooXX  .+#&&&@#@@#@.@*@=:@#X-@@:,@@**#@#Xoo*X  ",
"XX+*.      .    +        +.&&&@#@@#@.@##=:@#o,@#o:@#-*o@#ooo*X  ",
"..++##.    .   +         + -::$o@@ooo@,,--$#o-##-,$#:*,@.o-:-X  ",
".o4@@@@-o..X               X.&.  @..X--ooo#.oooooo#@ooo+oooooX  ",
".,4@@@@@@@@--oX.          .X..       .XXXX..XXXXXX..XXX+XXXXX.  ",
".+4@@@@@@+@@@@@@@@@@@@@@@@ooXX.....    ............@.........  .",
".+5@+-++++++++++++++++++$:*****,*.X.     #.       .@   +      ..",
".+4@+-+++$-o+++++++#$+++$-******* .X... $#        #.        ...X",
".++@+-+-+**:+++++++$o+++$-*:*,,**  X.+:***.*.XXX****##......XXXX",
".++-+-+o+**,++$++++$:+++$-,:*,,*X  .:***$***:**%@@@@@@+#***:o..X",
".++o+o+o$.oo+.ooo+.oo+++#ooo*oo*.   +-$$#-<<<oX@++++++++#*-**: X",
".+o.......*.+........+........... ****$#-:<:-o.@$-+$-$++#**-,X X",
".+              .........   *       . ..XXoooo+@,:+$--++#*,--X X",
"X.                ..  ..             X..       XXX+.XX+#.XXXXX X",
"XXXX........      ..  ..             XXX..     XX ..  +..      X",
"oooooooooooooooooooooooooooooooooooooooooooooooooooooooooooooooo"
};
