/* XPM */
static char *out[] = {
/* columns rows colors chars-per-pixel */
"64 64 62 1 ",
"  c #28200C",
". c #302410",
"X c #382C14",
"o c #202020",
"O c #282828",
"+ c gray19",
"@ c gray22",
"# c #400000",
"$ c #4C0000",
"% c #580000",
"& c #640000",
"* c #700000",
"= c #7C0000",
"- c #403018",
"; c #483818",
": c #543C1C",
"> c #404000",
", c #585400",
"< c #706C00",
"1 c #5C4020",
"2 c #6C4824",
"3 c #744C28",
"4 c gray25",
"5 c #484848",
"6 c gray33",
"7 c gray36",
"8 c #646464",
"9 c gray44",
"0 c #7C7C7C",
"q c #880000",
"w c #9C4C00",
"e c #B45400",
"r c #80502C",
"t c #885830",
"y c #905C34",
"u c #9C6038",
"i c #A0643C",
"p c #A86840",
"a c #B47044",
"s c #BC7848",
"d c #C87C4C",
"f c #848400",
"g c #9C9C00",
"h c #B4AC00",
"j c #D08050",
"k c #DC8854",
"l c #E88C58",
"z c #F0945C",
"x c #FC9C60",
"c c #FCA470",
"v c gray55",
"b c #989898",
"n c gray66",
"m c #B4B4B4",
"M c #FCB080",
"N c #FCB890",
"B c #FCBC9C",
"V c #FCC4A4",
"C c #FCCCB0",
"Z c #FCD4BC",
"A c #C0C0C0",
"S c #D0D0D0",
/* pixels */
">.>.>.>.>.>.>.>.>.>.+++>++++++++++++++++++++>.>>X>>>>>>.>.>.>.>.",
",>,,>>>>>>>>fgggggggSSghhgf,@@0mgggggfff<6+O5,,>,<>>>>>>>6>,>>,6",
",,,<,>,>,6,000000000000000000000000000000000000000000075555<,<<,",
"f<<<<fv8565055555555@@@@@@@@@@@@@@@@@@OOOOOOOOOOOOOOOOAgggffbbb<",
"hgggAnb0@6505bbbbbbbbbbbbbbbbbbbbbbbbbbbbbbbbbbbbbbb6Ohhhhhhgffg",
"vbggggv8@6505bbbbbbbbbbbbbbbbbbbbbbbbbbbbbbbbbbbbbbb6O<<hggggbbb",
"vbfgfgf8@5505bbbbbbbbbbbb87765@@++56bbbbbbbbbbbbbbbb6O<<hfffnbgn",
"bvbf<f<6+@505bbbbbbbbbb878087764@@@O+5bbbbbbbbbbbbbb6O<<gfbfbbfb",
"bvbf<<<5++505bbbbbbbbbbbv09788875@564@O5bbbbbbbbbbbb8O<<gfbfvbbv",
"vbbfv<6@++505bbbbbbbbbpp88778787647765+OObbbbbbbbbbb8O9,ffv<0vvv",
"000<65@+++505bbbbbbbbbCMza6667997+8865@OO+bbbbbbbbbb8O7,f<0<0000",
"65555+OO+X505bbbbbbbbmCBNzit37886+8965+OOo7bbbbbbbbb8O@@<<676555",
"++OO+++@@@60@bbbbbbbvZVVBckjs4545o@65+OOOo4bbbbbbbbb8OOO,@@+++++",
"++>+++>.>@60@bbbbbbbmCVBBckzd4454+444OOOoo4bbbbbbbbb8OOo+OOOOOOO",
"@@@>X@>,@@60@bbbbbbbpicBMzzzj1111:4@+Ooooo5bbbbbbbbb8OOO@>>@@>@@",
"6555,,,,>@50@bbbbbbb7-jcMzcccjdjsdi:OooooO8bbbbbbbbb8O++5,<5,,,5",
"nnngfff<9@@0@bbbbbbbs1akBMMMczkkcMzy-oooo6bbbbbbbbbb0O00nnfffgfn",
"SSShhhg<0@@0@bbbbbbBjdzCVBNczkjjjykp;Ooo@9bbbbbbbbbb0OffShhhhhhS",
"gmggghg<0@+0@bbbbbxMjdVZCNczkkjjspjy:OOo8bbbbbbbbbbb0Of<gghgghgm",
"bbbfgggf9@+0@bbbbbb83acNMzzjjdsdscj31-o@9bbbbbbbbbbb0O<0fghggggf",
"ggnggfgf8@+0@bbbbbb6@lMMzzzddsapds3:1-O7bbbbbbbbbbbb0O00ffgffff<",
"nfbggfgf8@+0@bbbbbb8:sMNczkkaittt3:22-5bbbbbbbbbbbbb0O09fnfffg<f",
"ggnfgff<6@+0@bbbbbbajdzMczkjpyttriyr1:7bbbbbbbbbbbbb0O99<ggffg<f",
"ggbngff06@+0@bbbbbbsczlzMcksiyyrypir1:3bbbbbbbbbbbbb0O99bfg<nf<<",
"bfbbgf<95.+0@bbbbbbbdkkkzksiiyiapir1:2tybbbbbbbbbbbb0O00fgf<bf<b",
"0000fv0<,>+0@bbbbbbbbbaapiyiiyadi33tyr2rbbbbbbbbbbbb0O7<ff<<0<0<",
"56678<<,>@+0@bbbbbbbbbbb8isiyijsiiiytr333bbbbbbbbbbb0O+><,<55<65",
"555@@>XX>+@0@bbbbbbbbbbbbbdapskpyyyiy313rrrbbbbbbbbb0OooOOO++@@5",
"OOOOOO+@@550@bbbbbbbbbbbbpiiajiiiiir11yyytrrtbbbbbbb0OOO@X.++OOO",
"577800<0<050@bbbbbbbbbbbat2ipipaay2rpsdssddpyrtbbbbb0O,,,,,,>@@@",
"9bmggggggf50Obbbbbbbbbbay33iaddt2rassssdjjdkjprrbbbb0O<<ffg65556",
"0gggfgfgff50Obbbbbbbbbiyrusjkj2:yasaddsddskdjsi23bbb0O<<ggggg956",
"0gfgff<fff50Obbbbbbbb833pkzzj31tassdssiiippiiii311bb0O<<gfgff956",
"0gggf<bff<50Obbbbbbbb1:t2tcj3-rpsssdppiiiiiyyy322:6b0O<<fff<f855",
"0fgffbbgg<50Obbbbbbbt21y1-33:taddsaiy2ypiiipiit3-;6b0O<<<<f00855",
"0fgg<vggf<50Obbbbbbiyr2r3322takjkapi2-3iasadpiit1:6b0O<<b<<0<855",
"0fgffffff<50Obbbbbbyyr32ypiiasdajait:1iajadsippt1:6b0O,<v<<00<>@",
"0<ffgffff<50Obbbbbbiyrrriipsdpiiipy2-1adadkayiit1:6b0O,,<<<<<>>>",
"0<nff<ffg<50Obbbbbiytrrypskkksspry2::isasksiriar1:6b0OX.>;>>>X@@",
"0Anff<f<f<50Obbbbbiitrripzzzdsa2yy160dsskkat2ad31:6b0O. ><>>@@@>",
"0ffg<nf<<<50Obbbbbiiyrriiytiaat3t1r090vdjst21sd2::8b0O,,<<9996>6",
"<fffbbf<<<50Obbbbiiyyryiap2-:y1r160@49vbewr21jd2::8b0Offggfff0@6",
"<ffnbn<<f<@0Obbbbiiyy3ipjcr3tr31605@o6709ew21dd2::bb0Offhhhhf9+5",
"0<nbbf<<<6@0Obbbiiairyisjzytit22yv7+ooO79wwq3it2--bb0O<<gggg08@5",
"<fgfbv<<06O0Obbbiiiiryaszzayrr2we0094+887wq=*33:.:bb0O<<gfbb08,@",
"7<bfvv<<<<+0Obbbiiittipakliryspreu9867883qq&&%:--1bb0O9<f<bb0<>@",
"6ffff00<<+@0Obbapitiiiiiiaaprkkapruutrrqq=*&&%--17bb0O9<<<vv<<>@",
"590f<6<<++@0Obbdssiiiiyyypzc31jkay1wwwqwq*&&&$-118bb0O<<<bvvf<>@",
"55@<<@@<+@@0ObbadasaaiiiajMkj3dzsay:wqq=&&&&$-:13bbb0O<<<bvvf8>@",
"665ff@>f++@0Obbbadddsaisjzkdjjlzjpi3;*q&&&&%.11rrbbb0O8<fvv00<>@",
"5@5gf<f<,@@0Obbbbabbbasajzsaaskljsir1;=&&&%.11ryibbb0O8,<0vv<7>@",
"59<hhhh0f550Obbbbbbbbadsdsaaiiupiytr3-&&$#-13ryipbbb0O7,<0<f<<,@",
"@nghhghhhg00Obbbbbbbbbjkasssaiiiyttrt2-$:13rtiaajbbb0O,,<<<<<,+@",
"5Ahhhnhhhgg0Obbbbbbbbbbbdjjkjddssaiiit113tyissdjdbbb0O>>,<<,>+@5",
"5Ahhhnhghfn0Obbbbbbbbbbbbssjzkkkjkdjsaaaipasjsbsbbbb0O.X>>.>X@>5",
"5nhhhnhghfb0Obbbbbbbbbbbbbbbkzzkvsssdjdkkjksbbbbbbbb0OO.>>>>5>5>",
"5nghgbgbhfb0Obbbbbbbbbbbbbbbbssbbbbbbbabaabbbbbbbbbb0O,>5,>,,>>,",
"5nnngnbngfb0Obbbbbbbbbbbbbbbbbbbbbbbbbbbbbbbbbbbbbbb0O<<<<ff<<,,",
"50vbfnnbg<n0O6666688888880000000000000000000000000000O<<<nnng7,>",
"557777<7<770OOOOOOOOOOOOOOOOOOOOOOOOOOOOOOOOOOOOOOOOOO0<fnfbf9@6",
"5@@+++>X>X.>>X ..>X,..X>. oooooooo. +,,,777<74+,,9<<9<9,fbff<<@6",
"65@@@@@>>>@@@>. oo..oo..oooo. oo.o OOO..++,,>OO,,6,,6<,,<<9ff<@6",
"66665555>5>>.>>@@@,>@@<,@@@@@@@@@@>>@>@>@@@@@@>>X.<<.X>,,@X>>X56",
"@@@@@@@>@@>@@@@@>@@@@@,@@@@@@@@@@@@>@>>@>>@@@@@>>@>>>@>XX>>>@@@@"
};
