/* XPM */
static char *out[] = {
/* columns rows colors chars-per-pixel */
"64 64 69 1 ",
"  c black",
". c #00001C",
"X c gray11",
"o c #28200C",
"O c #302410",
"+ c #00002C",
"@ c #000034",
"# c #202020",
"$ c #282828",
"% c #2C2C2C",
"& c gray19",
"* c #343434",
"= c gray22",
"- c #400000",
"; c #4C0000",
": c #580000",
"> c #640000",
", c #700000",
"< c #7C0000",
"1 c #706C00",
"2 c #5C4020",
"3 c #6C4824",
"4 c #000040",
"5 c #00004C",
"6 c #000058",
"7 c #280040",
"8 c #340058",
"9 c #000064",
"0 c #000070",
"q c #00007C",
"w c #400040",
"e c gray25",
"r c #484848",
"t c gray33",
"y c #646464",
"u c gray44",
"i c #7C7C7C",
"p c #880000",
"a c #980000",
"s c #A40000",
"d c #A80000",
"f c #B00000",
"g c #BC0000",
"h c #C80000",
"j c #D40000",
"k c #E00000",
"l c #FC2020",
"z c #9C4C00",
"x c #80502C",
"c c #905C34",
"v c #9C6038",
"b c #A0643C",
"n c #A86840",
"m c #B47044",
"M c #BC7848",
"N c #FC4040",
"B c #848400",
"V c #9C9C00",
"C c #B4AC00",
"Z c #CCC400",
"A c #FCF400",
"S c #D08050",
"D c #FCFC54",
"F c gray55",
"G c #989898",
"H c gray66",
"J c #B4B4B4",
"K c #C0C0C0",
"L c #D0D0D0",
/* pixels */
"$$$$$$$$$$$$$$$$$$$$$$$$$$$$$$$$$$$$$$$$$$$$$$$$$$$$$$$$$$$$$$$$",
"$$$$$$$$$$#6999999999999995  @69666666665@$ ##########$$$$$$$$$$",
"######## $#9q0qq00000qqq094  499966556665+   +55555554@#########",
"555554*V $#900009900000095+  599655655555+   49000099965%V*55555",
"99998eMZ $#*65*===eeee=e=&%  *e=***==***&%   &eeee*66*eetZMr8999",
"6999MZZABZZZ  ZZZZZZZZZZZZZZZZZZZZZZZZZZZZZZZZZZZZZ  ZZZDAZZM669",
"9996333Z3333%   3333333333333333333333333333333333  + 333C333759",
"99995#$1 ####pa>   ############################   ;-  XX$1OXX+46",
"699654+.  #@wdhsp>>>;    X#  #OoXX            >>>>,:.+@@@+++@@45",
"696555@.  #58dhfdapp,:::>paL Lxp,>F u;;:>,<asdffsap>.+5554445555",
"555554+.  #58dhgdsap<,,<psgL Lgsp3F u>>,<asgjkjhfap>.+4544455554",
"55554+..  #48dhgdsap<,,<psgL Lgsp3F u>,,pasgjkjhfsp>.+++++@@@@@@",
"++@@+.    $#wdhgdsap<,,<psgL Lgsp3F u>,,pasgjkjhfsp>............",
".....     $#wdhgdsap<,,<psgL Lgsp3F u>,,pasgjkjhfsp:            ",
"          $#wfhgdsap<,,<psgL Lgsp3F u>,,pasgjkjhfsp:            ",
"          $#rfhgdsap<,,<psvL Lgsp3F u>,,pasgjkjhfsp>############",
"55555554+  $#dhgdsap<,,<pdnL Lvsp3F u>,,pasgjkjhfsp>#+@555555555",
"999999964  $#dhgdsap<,,<afSL LmzxxF u2>><asgjkjhfsp>#+5990000000",
"996999664  $#dhgdsap<,,<pmLL LKKJHF uu=:>psgjkjhfsp>#@5990099999",
"95566555@  #$dhgdsap<,,>rJL$ LKKJHFi  tr <sgjkjhfsp>#+5699665566",
"95566655+  #$dhgdsap<,>rG  Lu       uu  uragjkjhfsp>#+5555555455",
"65555554+  #$dhgdsap<>rG rL$ LKKJHFi  tr irfjkjhfsp>#+5555555555",
"55545554.   $dhgdsap<2F rJ LL$  yHFiur rr Fzjkjhfsp>#+5555554455",
"5544555@.   wdhgdsap,i rG LLy   $HFiuut ur Hhjjhfsp>#+4555554455",
"5555554+.   7dhgdsa<=i G JLy   $yHF$  tr i Huhjhfsp>#+4555555555",
"555554@.    7vNgdap3y F GJy$  $yJH$    ru F Kmlhfa<:#++++++@4444",
"@@++++.     8LLLHFuyy F Gi $  $yJ$      u r KKKJHiyr  ........++",
"...         8tt      i GGJy$   $$        r H =$$               #",
"      ######8LLLHFuyyi GGJLy             i HKKKJHiyr            ",
"#+@4455554# 8vNgdap3yi GGJLLy       u    i HKmlhda<:...+.....   ",
"=599099995+ 7dhgdsapyi G yLLL$     =uu   i HKNjhfap>.+4444@@+##$",
"=900099995+ 8vNgdap3yi G  yLy       =utrui HKmlhda<:X@5699965@ $",
"=9099666654 8LLLHFuyyi G   $    $    =trui HKKKJHiyr+@5666965+ $",
"=996666655@ 8tt      i G$  $   yJ$    trur H =$$    .+4555555+ #",
"=996656655+ 8LLLHFyyy r G$ $  yKJH$    ru F KKKJHiyr+@4555555+ #",
"=999556655+ 7vNgdap3y F GJy$ yKKJH$    ru F Kmlhda<:X+4555555+ #",
"=999666665+ 7dhgdsap2i G JLLLLKKJ$    tr i Hyhjhfsp>.+@445445+  ",
"=909666655+ 7dhgdsap<i GG LLLLKKJ    ut ur Kvjjhfsp>...++++++.  ",
"=996666655+ 7dhgdsap<3F GJ LLLKKJ$  u  rr Frhkjhfsp:            ",
"=996566655+ 7dhgdsap<pcG JL$ LKKJHFi  t  iysjkjhfsp:            ",
"=909656665+ -dhgdsap<<abG  LL       uu  uyagjkjhfsp>#+++@@@@@. $",
"=996666654+ #dhgdsap<,<avJi$ LKKJHFr  trrpsgjkjhfsp>#+5699996+ $",
"=99966665@. #dhgdsap<,,paxuL LKKJHF uu=>,asgjkjhfsp>#@50qqq95+ #",
"=99966665+. #dhgdsap<,,<psvL LmzxxF u2>,<asgjkjhfsp>#@5900095+ #",
"=99665554+# #dhgdsap<,,<psvL Lvsp3F u>,,pasgjkjhfsp>#@5699964+  ",
"#9966544@+  #dhgdsap<,,<psgL Lgsp3F u>,,pasgjkjhfsp>#+5569654+  ",
"#56554@++.  #dhgdsap<,,<psgL Lgsp3F u>,,pasgjkjhfsp>#@5556554+  ",
"#+@++++++.  #dhgdsap<,,<psgL Lgsp3F u>,,pasgjkjhfsp>#@5555554+  ",
"#   .....  ##shgdsap<,,<psgL Lgsp3F u>,,pasgjkjhfsp>#+4555444+  ",
"$$$#       # shgdsap<,,<psgL Lgsp3F u>,,pasgjkjhfsp>#+4455444+  ",
"#######    # shgdsap<,,<psgL Lgsp3F u>,,pasgjkjhfsp>#+4444444+  ",
"#@566654@##$ shgdsap<,,<psgL Lgsp3F u>,,pasgjkjhfsp>#+@@@@@@+.  ",
"#500000099657dhgdsap<,,<psgL Lgsp3F u>,,pasgjkjhfsp>#.++++++..  ",
"#600990000098dhgdsap<,,<psgL Lgsp3F u>,,pasgjkjhfsp:  ......   #",
"#609999999998dhfdsap<,,<psgL Lgsp3F u>>,<asgjkjhfsp:          ##",
"#609665566567psapp<,>::><azL Lzap,F u:;:>pafjkjhfap;        ###$",
"#69966555555577XXXXX....-:>i i>>>:= =    :,pdddsap>#########$$$$",
"#59655545555554@@@+++++++.XX+XXX####################$$4666554##$",
"#554@@++@@@@@@++@+++++++++++++++$   #+++++++++$=$$$$$45699666@ $",
"#++.............................#   #@4@@@@@@+#45445555666665+ $",
"#                                   # # .+++++#55555555555554+ $",
"$#                                   $$#       +@++++++++++++. $",
"$$$$#################################$$$##     $$              $",
"================================================================"
};
