/* XPM */
static char *out[] = {
/* columns rows colors chars-per-pixel */
"64 64 29 1 ",
"  c black",
". c #202020",
"X c #282828",
"o c #2C2C2C",
"O c gray22",
"+ c #004040",
"@ c #484848",
"# c gray33",
"$ c #646464",
"% c gray44",
"& c #7C7C7C",
"* c #FCF85C",
"= c #FCFC7C",
"- c #00FCFC",
"; c #7CFCF8",
": c gray55",
"> c #989898",
", c gray66",
"< c #B4B4B4",
"1 c #FCFC9C",
"2 c #B8FCFC",
"3 c #C0C0C0",
"4 c #D0D0D0",
"5 c gainsboro",
"6 c #FCFCD8",
"7 c #D8D8FC",
"8 c #D8FCFC",
"9 c #ECECEC",
"0 c gray99",
/* pixels */
"oooooooooooooooooooooooooooooooooooooooooooooooooooooooooooooooo",
"##########o################.O:###:#:####,:#.@@@@@@@@@@##########",
"##########o##4,34,,4,43,4,:.O:3<#:::::::##O.O%::::::&%$@@@@@@@@@",
"::::::::.#o5<3<<<<<<4<3<4:$.O,5,:,:,:,:,:#O.O:>,><>53<,:::::::::",
"4544<,::.#o<4<,,,:,,,,>,,&#.O:3:::,,,,::%#O.O:>,33<<<<<<<<<<<<<4",
",,,,,,&%.#@<3>,,,,,,>#:,,%#oo@,:,,::,:,%##O.O:<<,:,:,,,::,:,:,:>",
"<4,>,:&%.@@<4,:,>,:>>>:#o#o#o####.######O%.#O:<<:,:>:::,::>:,>:,",
"<<&<:>$#.O@,<:>:,,,:&###<><>>>>>>:::>>:>:%.##:<<,:>&,>&:,:,,:&,>",
">,,>>%@@.o@<3,>,:,:##>#:::,>:33:::,:,::,,#:%@#>,:,:&>&>:,:>&,,&:",
"::::%#@@.o@,<,,,::##,>,#,::,:::::,:,:,,###:%%@#,:::>>>>::,:,,:,:",
"%%%%#@OO.o@:<:,:&#%,<>>,##,,:,,:,,::::###>>:%%##3,:,:::%%$$$$$$$",
"##@@@....o@%<,:>&#,<<::,,##,,:::,,,,,&#>><<>:>%@3%$$$####@@@@@@@",
".....ooooO#@54::#O>,::>>,,#,,,,,,:,,O#>><:>>:%o#::#@@@OOOOOooooo",
"oooooooooO#@,<:####>>,>,,,,##4:3:34###<><><>###OO>>OOOOoo.......",
"OOOOOOOOOO#@:<#%%:#>:>,:,,4,##::5:5%4>3<<<>o#>>OOo>>oooOOOOOOOOO",
"#@OOOOOOOO#@%#%%:<:##,,4>579798 887743>>>>##33>>#O.@@@@@@@@@@@@@",
">>>>>>>>>o.####:<:::##,,479799; 8888:4:5<##3#3>>%&@#&>>>>>>>>>>>",
"444444<<%O.#%<##::<<5##5#898288 88588 74o#3>>3###<%.3<5,<<<<<<5,",
",>:,:,,%%O.#%>43#:3<33## 85288; 88988 83%333>3#:4<%@54<<<<<<<<<<",
",:,:,::%%O.#%<::##3345,; 888-88 ;8988 8875333#:>:>%@,<,>,>,:>:>>",
",>:,:,,%#O.#%><>4##45788 888588 -5588 887 55##:>:>%@5,:>:>:>&&::",
",:,:,::%#O.@%>:><5###788 ;88;28 -898; 88; %.#:<>>:%@3:,>,>,:>:>>",
":,&&::,%#O.#%><>><5#X988 88-=88 *8829 888 o><><>::%#3,:>:>:>&&::",
"::&&:,:$@O.+><>:>5:5X988 888*88 ;88*9 888 5<:>>>::%#3,>:,:,:&&:>",
"::,,:::$.O.%>:<>>:><X988 888;8= =88=9 888 4::>>>::%#3:,>:>::,:,:",
">,::,:%#OO.%<:<<<::5X888 888=86X=1829 888 4:>>:>><@#:%$###>$%&::",
"$$$$$#@OOO..O##### >X888 ;88=86X=68*9 888 5<:>:>::@#OO@@@@@@@###",
"#@@OOO....o@:55,,,,5X888 888=86X=6825 988 >#######.#.........OO@",
"......ooo@.%::<<:5:,X888 88*-8= =88*; 992 ,5::,,,:%#OOOOOOooo...",
"@$$%:>::::@%::5::,:5X888 858==* *5=29 888 5,:::,:,%#@@#######OOO",
"$:<555444,#%:5<55,,,X888 88;8*8 **2*9 28; 5,::::::%#55<:$#@@@@@#",
"$<443<,,>,#%,,:,,,55X888 888858 88289 888 ::,:,:>:%#3:<555555>O#",
"$5<,,:,>,:#%:,:,,:,5%888 888-58X88822+828 5:::,:>:%#3:,,::,::&O#",
"$5<>:,:,:,#%::<<,,,,%-88 888888 8;88; 888 ,:,:::>:%#3,::,,:,:$O@",
"$5,>,:,,&,#%:::,,,:5 888 88888; 8888; ;88 55,::>::%#3:,,::,:,$O@",
"$5<,::,>,:#.<,:,,<5,                      5,,:>:::%#3,,:,::,,#O@",
"$5<:,,:,:,#@:,,<<,:,:455&555555&55555&555:,::,:,:>%#,:,,:,::,#OO",
"$5<,,:,>,:#@:::,<,<,o,,,,,::,:::::::::::, ::::::::%##@########OO",
"$5<:,,:,&,##:,:<<<:,#,:,:,,,:,:,::,::::::o:>>::,,,%#...........O",
"$5<::>,:,:##:,::,:::o:::,:,:::,:::,:,,:,:o,:::::::@#@@OOOOOOOOOO",
"$5<,,:>,>,##%%%%%%:%o%%:::,,:,,::::%%%%%%o%%%%,,,>@#&&&&&&&&&&O#",
"$5<::,:,:%##############@@@#########@@@@#..@@@o@@oo#3<3333333&O#",
"$4<,,>,:,#.o..........####...oo..........%%%%%### #:99995544>$o@",
"$4<>,:,,:#..5555555,$#O..o&55909999599599,95554,3,&33,33<33<&#o@",
"$3<,:,:::#..&&&,:,::$#O..o&34<335&3,33,3&3<<,>&&&#&,:::,:,:,%#oO",
"@3::,:%%%#..@&::,:,:%#O...$35<::::::,:,,>:>,,,>&>:,,>:,:,,,:%#oO",
"@<,,,:###.oO <,::,::%#O...@353:>:,:,:>,::>,,:>:>::&:>>:,:,:,%#oO",
"@&&&#####.oO@>>,:::%$#O...o<54,,::::&::,:>:,>&::,::,:&&:&>:>%#.O",
"@O...####.O@@&$$$$$$##O...o,54::,:,::,:&&>>:,:,>:,::&:::,:&&%#.O",
"###@O..o.oO@OOOOOOOOOOO...o:4<<::,:,&::>&>:>&,::&::::,:&:>&&%#.O",
"@@@@@@@oooO@OO............o:>%%%%%%%,:,,::&:::&::,:,::,::::>%#.O",
"@&,,,,>:$@@#OOooooooooooooO#@OOooooo#%%&:&&&&&&&&&&&&&&&&&&&$#.O",
"@,3555553,,:%$#@OOOOOOOOOO@#@@OOOOOOo@#######################.oO",
"@,5,,:345553,,,,,,,,:::&&%$$##@@@@@OOooooooooooooo...........oO@",
"@,5,,,<<:,35555555555554433,,,,,:@#@OOOOOOOOOoooooooooooooooOO@@",
"@,5,:,&&,>:&,:,:,:,,:,:,,<355543&O@#@@@OOOOOOOOOOOOOOOOOOOOO@@@#",
"@,4,,,>,:>:>,::,&&:,&:::,:,:,,,&$.O#@,55,&@@@###@@@@@@@@@@@@####",
"@,3,:,&&>,:,,>:&,&:&>:,:,:,:,,,$#.O@@5,,5555<##@<555555543<>&@@#",
"@,:$$$$$$$$$$$$$$$$$$$$$$$$$$$$##O.O@5<<<<<<<$#&5,,,:,:,>,:,5>.#",
"@:$OOOOOOOOOOOOOOOOOOOOOOOOOOOOOOO.o@<,<<>$>:$@<,:,:,,,:,:,:,#.#",
"@O.................................o@O@O#$$$$$@5,>>,,>>,>,,::#.#",
"#@OOOoooooooooooooooooooooooooooooooO##OO.....O###############.#",
"####@@@@@@@@OOOOOOOOOOOOOOOOOOOOOOOOO####OOOOOO##..............#",
"OOOOOOOOOOOOOOOOOOOOOOOOOOOOOOOOOOOOOOOOOOOOOOOOOOOOOOOOOOOOOOOO"
};
