/* XPM */
static char *out[] = {
/* columns rows colors chars-per-pixel */
"64 64 22 1 ",
"  c #28200C",
". c #302410",
"X c #382C14",
"o c #202020",
"O c #282828",
"+ c #2C2C2C",
"@ c gray19",
"# c #343434",
"$ c gray22",
"% c #403018",
"& c #483818",
"* c #543C1C",
"= c #5C4020",
"- c #006060",
"; c gray25",
": c #484848",
"> c #4C4C4C",
", c gray33",
"< c gray36",
"1 c #646464",
"2 c gray44",
"3 c #7C7C7C",
/* pixels */
"$$$$$$$$$$$$$$$$$$$$$$$$$$$$$$$$$$$$$$$$$$$$$$$$$$$$$$$$$$$$$$$$",
"$$$$$$$$$$$$$$$$$$$$$$$$$$$$$$$$$$$$$$$$$$$$$$$$$$$$$$$$$$$$$$$$",
"$$$$$$$$$$$$$$$$$$$$$$$$$$$$$$$$$$$$$$$$$$$$$$$$$$$$$$$$$$$$$$$$",
"$$$$$$$$$$$$$$$$$$$$$$$$$$$$$$$$$$$$$$$$$$$$$$$$$$$$$$$$$$$$$$$$",
"$$$$$$$$$$$$$$$$$$$$$$$$$$$$$$$$$$$$$$$$$$$$$$$$$$$$$$$$$$$$$$$$",
"$$$$$$$$$$$$$$$$$$$$$$$$$$$$$$$$$$$$$$$$$$$$$$$$$$$$$$$$$$$$$$$$",
"$$$$$$$$$$$$$$$$$$$$$$$$$$$$$$$$$$$$$$$$$$$$$$$$$$$$$$$$$$$$$$$$",
"$$$$$$$;;;;;;;$$$$$$$$$$$$$$$$$$$$$$$$$$$$$$$$$$$$$$$$$$$$$$$$$$",
"$$$$;;;;;;;;;;;<222====**<$$$$$$$$$$$$$$$$$$$$$$$$$$$$$$$$$$$$$$",
"-;;;;$$#$$;$;@$;<<=====&*&&<<22>>>>>>>>$$$$$$$$$$$$===&=&$$$$$$$",
";;;#$##@##$@$;$;$>**=*&&=*&%22>>;>>;$$;$$<$$$$$$$2==&&%&&%;$$$;;",
";;$@$@;;@@$@#$;@$$>%&*&&*&%%>2;;$$;>>;$++;<<222222=&%%&%%X;>2;;;",
"$$##$$;$@@#+@#$$@$$>%%&&&%X%;2$$$$;>>$++O;>>,,,,22&&XX%XXX;>;;;$",
"##@##;#@@++++@#$$@@$;X%%%XX;;<$###;;;#+O;,,>>:;::>:;XX%XX;;;;;$$",
"$$@@##;$@##++#@+@@$$>>;;;;;>><>####$#++;,>>:;;;:;;>:;;;;;;;;$##$",
";;#@@#@;@##@O+#@+@$$#><<<<<<<<<>;##+++;>>:>>:;:>>;:;;>>>;;;$#@#$",
";;$@@@#@@#$#OO@#++#$#><<<======<>;;;;;>>::>>:;:>;;;$;:>;;$$#@#$#",
"$$$@##+++@@O#@O+@+##@><<===******<>>>>>:;;::;;;::;::;$>;#$;;#$$#",
"##@$#++$##OO##OOO+@@+><===*&*&*&**<<1,:;::;;::;;:$;;:$>;##;;#$##",
"#@##++#;$#O#++OOO+@+;>==*==***&==**;<>:::;;:;;;:;$;;:$>;$##@;@@@",
"@##$$#+#@+O##@+OOOOo>==***======&&&&>:;;;;::;$$;;;:;;$>$$@#$#@@#",
"@@+#$##++++@#@+@Ooo#>=***&===&&&&*&&;<::;:;;$:;$:;:$;$>$@##$@@@@",
"$#@+#++@#@+O++@Ooo#;=&&&===&&*&&**&*%>::;;::;;:$$;$##$>$#@##@+@#",
"#$##++@###@+OOOoo#;>=&*&=**&**&&&*&%%>;:;:$::;$;;$;$#$>$#@@@#@+@",
"@##+@+@#@+O+OOoo#;>==*&=&&&&****&&%XX>;;::;;$:;:;;$#$><##$$#@+@#",
"$+@+#O+O@#@OOoo#;=&&*&*=&%%%&&*&**&XX>>$;;:$;$####$$><<###@@+@$$",
"#@+O#@O+OOOooo#;==*&&*&*&&%%%&%&&%&XX>,$$######$;;>><11>@@@+@++#",
"#@++OOooooo+##;>*==*&&&&&*&%%%&%%&%XX><>$$$;;>>><<<<123>OO++@#+@",
"@+OOoooO++##;>><&**&&%%&**&&%&%&X%%X%><<>>>>>>>>>><<232<;OO++@+@",
"+Oooo+##;;;;><<<&&**&%&%%%%&&*&%%XXX$,111<>>>>>>>>:;<221>;OO+@++",
"Ooo+###;::::::,1;&&&%&*&%%&&*&*&%%XX;<1<>>>::;>>>>;$:>><<;OOOOOO",
"Oo##;:::>>>>>:::,%%%%&&*&%*&&*&%&%X$><>>;::;;>>>:;$$::::<>;OOOoo",
"+##;:>>>>;:>;>;;:;%%&%&%&X%%&&%&%%$><>>;;;;;:>;:;$;;;;;;;<>;OOoo",
"#;;:>>>>:>:;::$;:,;X%&&&%X%&%%%%X$><>>:::;$$;:;:$;;$;:;;::<>>;oo",
">>:>>:::;>;:;:;$;:<;%X%%&XX%XXXX;><:;;;;;$$$:;:;;;:;;::;>>$<>>>>",
">:::>;:;::;;::$;;:,<;%XXXXXXX$;>,<;;:;;;::;$;$;$;:;:;;:::>;$1<>>",
"1;;;:;::;$;$$$;::;$1>;%X%%$;>>,,<>>:>>>;;;:;;;;:::::;;;;$;:$>111",
"1$$$;;;:;;;:;;$;:;$<,>;;;;>>,<<<>>:>>::;::;:;;$::::;$:::;$$$+111",
"1,###$;;;;::;:$$$;$,>>>>>>,<<21<>:>>::;;;;:;:;;;::;;;:;:;;$$+>11",
"11,,:$$;$;$;:;$$$$$>>,<<<<<2221;::>>;;;:;;;:;;$;;:;$:;:;::;$+>11",
"11121,:$;$;$;$;$##;>,<11122221,;::::;$$;::;;;;;$;;$$;:;;$;$++>11",
"==,121,:$;$;$###$;:,,,:&&&&%:,:;;;;;$$;>>;:;:::;$$$;$;:$;$++;>1,",
"=*=*,,:;;$####$;:::&&&&&&&%%X::>;::$$$;>>:;::;>;$#$#;$$;$++;>,==",
"*&===&:;;:###$;$%%&&&&%X%X%X%X:>$;;;$;$;:;;:;;;;;$#$#;$$++;>**==",
"===&**&;:,;;;$%%%&&&&%%XX%%%XXX,>$$$;$;;;;:;:;$;$;#+#+###;>**===",
"&**&**&&,,,$%%%&&&&%&&%%%%&%%%X:1$$;::;:;:$:;$;$;$+#+#+#;>**==**",
"*&**&&%%::;&&&&%%%%X%&&&%%%%%%XX,>+$;:;$;$;;$$$####+++;>>,*==&*&",
"*&&%%%%%:;;&&&%X&&%%&%%X%%XX%X.X:,>+$;;;$$#++++++++#;;><<*====&*",
"**&*&%%%;;&&&%X%&&%X%%X.XX%X.XX..:,>$$###++##;;;;;;>>><11==*==&&",
"&&&*%%%$;&&&%XX%X%%XX%.X.XX.X..XX.:,>;+++##;>$$$$$$$1<122=*=**&%",
"&%%&&%%;;&&%%X%.X%XX.XX......X..X..:,<>;;;>;;:::::::;,<22=***&%*",
"&&%%%%$;%&X%X%%.XX..XX%.XX..XXX..X..:,11,;;:::;;;#;$$$#<<,*&&&&*",
"&%&&%%;:%&%%XXXX.XX..X.XXXX..X.%XX..:,1,;;:::;$;$$#;$##>1,*&**%&",
"&&&%%$:%&&&&%XXX.X%%%X.XXXXX.XX.%...:,,;:::;;$$;;$#;;$##1,;%&&%%",
"%%%%$;:%&&&%%X...X%%XX..XXXX XX.....:,:;:;:;$##;$##$;$###1:%%%%%",
"%%$;;::%%%&%%%%%.XXX%X.....  ....X..:,;:;;;$###;$##$$$$##1,;$%%%",
";;;;:::%%XXX%&&%X.X%%XXX       .X...:,;:::;##$#;$$#$##$##11,:;;;",
";;:::::%%XX.%&&%%..XXXX......  .X..+$,;;;;$#$;$$;$#######111,::;",
";;;$#::%%XXXX%%%XX.......X.XX.  .  +$,::;$##$;;$#####$###1,,;;;;",
"$$$$$@:%%X.X.X%%X...X...X.XXX.     +$,;;;$$;$$;$#$;$####:,;;;;$$",
"#$$#@@:%%XXX..XX..X.......X..      +$,;$$;;$$###$;;$###;,;;$@@$@",
"@##@@+::%%XXXX....XXX..........    +$,:$#$$$$##$;$;$##;:;;$##@#@",
"++++@+O:%XXXX....XX...XXX...XXX.   +$,,$###$##$;$;$##;:,;;$#@@++",
"@##@++O::%%X%.....XX..XXX.XXX...  ++$,,:#####$;;;####;:$$$#@+##+"
};
