/* XPM */
static char *out[] = {
/* columns rows colors chars-per-pixel */
"64 64 23 1 ",
"  c black",
". c #28200C",
"X c #404000",
"o c #585400",
"O c #706C00",
"+ c #848400",
"@ c #9C9C00",
"# c #B4AC00",
"$ c #CCC400",
"% c #E4D800",
"& c #FCF400",
"* c #FCF420",
"= c #FCF440",
"- c #FCFC54",
"; c #FCFC7C",
": c #989898",
"> c gray66",
", c #B4B4B4",
"< c #C0C0C0",
"1 c #D0D0D0",
"2 c gainsboro",
"3 c #ECECEC",
"4 c gray99",
/* pixels */
",<<<<,<<<<244444444444444444444444443<<<<<<,<<<<<<<<<<<<<<<,<,<,",
",<<,<<<<<<1444444444444444444444444441,<<<<<<<<<,,<<<<<<<<,><,<,",
",<<,<<<,<<1444444444444444444444444442,<<,<<<,<<,<<<<<<<,<<<<<<,",
",<<<<<,<$$%&&&&&&&&&&&&&&&&&&&&&&&&&&&$$$$$$$$$$$$$$$$$$<<<<,<<,",
",<,<,<,<$@+@#$%&&&&&&&&&&&&&&&&&&&%$#@++++++++++++OOOO#$<,><<<,,",
",,<<<<<<$o ............................               O$,<<<<,<,",
"><<,<,<<$oX&&&&&&&&&&&&&&&&&&&&&&&&&&&&%$$$$$$$$$$$$$ O$,<<,,<<>",
"><<<<,<<$oX&&&&&*********************&&%$$$$$$$$$$$$$ O$<<,<<,,>",
"><,<<,<<$oX&&&&*=;=====--===========****$$$$$$$$$$$$$ O$,<<<,,<>",
"><,<,<<<$o.&&&&&&-&&&&*--=&&&&&&&&&&&&=@$$$$$$$$$$$$$ O$<<<<<<<>",
"><,<<<<,$X.&&&&&&&&&&=-X -*&&&&&&&&&&*o O$$$$$$$$$$$$ O$<<<,<,,>",
"><,,<,,<$X.&&&&&&&&&*=.  o=&&&&&&&&&&=   o$$$$$$$$$$$ O$<<,,<,<>",
">,,<<><<$X.&&&&&&&&*-     =*&&&&&&&&*X    o$$$$$$$$$$ O$,<,<<<<>",
">,<<<,<,$X.&&&&&&&&-X     o=&&&&&&&*@      +$$$$$$$$$ o$,,>,<<<>",
">,,,><<<$X.%&&&&&&*+       +*&&&&&&=.       #$$$$$$$$ o$><<,<<,>",
">,,<<<,,$X.%&&&&&&=.       X=&&&&&*+        o$$$$$$$$ o$<,<,<<>>",
">,,,,,,<$X.%&&&&&*O         O=&&&&=         X@$$$$$$$ o$,,,,,,,>",
">,,,,,,,$X.%&&&&&*X         O=&&&*=          O$$$$$$$ o$,,>,,,,>",
">,,,>,>,$X.%&&&&&=         o=******+         X$$$$$$$ o$,,>,,,,>",
">>>,>,,,$X.%&&&&&@        X=*$OXo$*=X        .#$$$$$$ o$,,,,,,,>",
">,>,>,,>$X.$&&&&&O        o*=O   O=*+         #$$$$$$ o$>>>,,,>>",
">,,,>,,,$X.$%&&&&=O++++@OO=**X    =&*+oooooXXX#$$$$$# o$,,>,,>,>",
">,,,,,,,$X.$%&&&&**********&*O   O=&*******%$#$$$$$$# o$>,>,,>,>",
">,>>,,,,$X.$%&&&&&&&&&&&&&&&&$O O$*&&&&&&&&&%$$$$$$$# o$,,,,>,,>",
">,,,,>>,$X.$%&&&&&&&&&&&&&&&&&===*&&&&&&&&&&%$$$$$$$# o$,,,,,,,>",
">,,>,>,,#X.$$%&&&&&&&&&&&&&&***&***&&&&&&&&&%$$$$$$$# o#>,>>>>,>",
">>,>,,,>#X.#$%&&&&&&&&&&&&&&=o+++o=&&&&&&&&&%$$$$$$## o#>,>,,,>>",
">,,,,,,,#X.#$%&&&&&&&&&&&&&=+     X=&&&&&&&&%$$$$$### o#>,,>>,>>",
":>,>>,>>#X.#$%&&&&&&&&&&&&*$X      $*&&&&&&&%%$$$$### o#,,>>,,>:",
":>,,,,>,#X.#$$%&&&&&&&&&&&*o       X*&&&&&&&%%$$$#### o#>,>,,,>:",
":>,>>,>,#X.##$%&&&&&&&&&&&+         +*&&&&&&%%$$$#### o#>,,,>>>:",
":,,,,>>,#X.##$%&&&&&&&&&&*X         X#&&&&&&%%$$##### o#,,>>,>,:",
":>>>>>>>#X.##$%%&&&&&&&&*O           o*&&&&&%%$$####@ X#>>>>>>>:",
":>>>>>>>#X.##$$%&&&&&&&&OX            O&&&&&%%$$####@ X#>>>>>>>:",
":>>>>>>>#X.###$%%&&&&&&&#XX         Xo#&&&&&%%$$####@ X#>>>>>>>:",
":>>>>>>>#X.###$%%&&&&&&&&%@XoX   XXX@%&&&&&&%%$$####@ X#>>>>>>>:",
":>:>>>>>#X.###$$%&&&&&&&&&&&**&&&**&&&&&&&&&%%$$####@ X#>>>>>>>:",
":>>>>>>>@X.###$$%%&&&&&&&&&&&&&&&&&&&&&&&&&&%%$$####@ X@:>>>>>>:",
":>>>>>>:@X.@@#$$%%&&&&&&&&&&&&&&&&&&&&&&&&&&%%$$##@@@ X@>>>>>:>:",
":>>:>>>>@X.@@##$$%%&&&&&&&&&&&&&&&&&&&&&&&&&%%$$$#@@@ X@>>::>:>:",
":>>:>>>:@X.@@##$$%%&&&&&&&&&&&&&&&&&&&&&&&&&%%$$$##@@ X@:>>>>>>:",
":>>>>>:>@X.@@@#$$%%%&&&&&&&&&&&&&&&&&&&&&&&&%%$$$#@@@ X@>>>>:>>:",
":>:>:>:>@X.@@    $   & &&& &   & && & &&& &%    $# @@ X@>::>>>::",
"::>>>>>>@X.@@ ## $ %%& &&& && && && &  && & %$$$ # @@ X@:>>>>:>:",
":>>:>>>>@X.@@    $ %%%     && && && & & & & %%$$$# @@ X@:>>::>>:",
":>>>>:>>@X.@@ @# $ %%% &&& && && && & &&  & $%   # @+ X@>>:>>>::",
":>:>>:>>@X.@@ @# $ %%% &&& && && && & &&& % %$$# ###@ X@:>>>::>:",
":>:>:>>>@X.@@ @# $   % %&& && &&    & &&& %%     # #@ X@>>>>>>>:",
":>:>>>>:@X.@@@@###$$%%%%&&&&&&&&&&&&&&&&&%%%%%$$$###@ X@>>>:>:::",
":>>:>::>@X.@@@@###$$$%%%%&&&&&&&&&&&&&&&&%%%%%$$$###@ X@>>::>:>:",
":::>>:>>@X.@@@@@##$$$%%%%%&&&&&&&&&&&&&&%%%%%$$$$###@ X@:>>>>>>:",
"::>>>:>:@X .......................................... X@::::>>>:",
"::>::>>>@oXXXXXXXXXXXXXXXXXXXXooooooooXXXXXXXXXXXXXXXXo@:>>:>>::",
":::>>>::@@@@@@@@@##$$$$%%%%%%%&&&&&&&%%%%%%%%$$$$###@@@@>:>:>>::",
":>::>::>>:>>:>:><1<2222433444444444443444343343322<1>>,>>>>::>::",
":>:>>>>::>>::>>,<112<3344344444444444444444442232111<<>>>>:>>:>:",
":>>>>>:>>>:>>>:,<,1123224444344444444444444314331211,,,>>:>>::::",
"<<<<<<<<<<<<<<<11233444444444444444444444444444444433211<<<<<<<<",
">>>>>>>>>>>>>>>,,<11223344444444444444444444443332211<<,>>>>>>>>",
">>>>>>>>>>>>>>>>,<11223334444444444444444444443332211<<,,>>>>>>>",
">>>>>>>>>>>>>>>>,<112233344444444444444444444433322111<,,>>>>>>>",
">>>>>>>>>>>>>>>>,<<11223334444444444444444444333322111<<,>>>>>>>",
"<<<<<<<<<<<<<<<<11233444444444444444444444444444444433211<<<<<<<",
">>>>>>>>>>>>>>>>,<<11223333444444444444444444333322111<<,,>>>>>>"
};
