/* XPM */
static char *out[] = {
/* columns rows colors chars-per-pixel */
"64 64 8 1 ",
"  c #404000",
". c #585400",
"X c #706C00",
"o c #580058",
"O c #848400",
"+ c #9C9C00",
"@ c #B4AC00",
"# c #CCC400",
/* pixels */
"XXXXXXXXXXXX..XXOOOOOOOOOOXXX.OOOOOOOOOOOOO.....X............XXO",
"XXXXXXXXXXX...O+OOOOOOOOOOXOXXOOOOOOOOOOOOOOX...X............XXO",
"XXXXXXXXXXX...OO+OOOOOOOOOXOOXXOOOO++OOOOOOOX...X............XOO",
"XXXXXXX.XXX...XO+OOOOOOOOXXOOOXOOOO@+OOOOOOOXX..X............OOO",
"XXXXXXX.XXX...XO+OOOOOOOXOXOOXXOOO+@OXXOOOOOXX..X............OOO",
"XXXXXXX.XXX....O++OOOOOOXOXOXXOOOO@+OX.XOOOOXOX.X............OOO",
"XXXXXXXXXXX....O++OOOOOOXOXOXOOOO+@OXXX.OOOOXOX.X............OOO",
"OXXXXXX.XX.....O++OOOOOOXOXXXOOOOXOOXXX..OOOXOOXX...........XOOO",
"OXXXXXXXXX.....O+O+OOOOXXOXXXOOO+@XXXXX..XOOXOOXX...........OOOO",
"OXXXXXXXX......X+O+OOOXOXXXOXOOO@+OXXXX..XXOXOOXX..........XOOOO",
"OOXXXXXXX....X.X+O+OOOXOXXOOXOOOOOXX.XX..XXXXOOXX..........XOOOO",
"OOXXXXXXX....X.X+O++OOXXXXOOXOO@OOXXXXX..XX.XOOXOX........XX++OO",
"OOOXXXXXX.X..X..+O++OOXXOXOOXO+#OXXXXXX..XX.XXOXOX........XX+OOO",
"OOOXXXXXX.X..X..+O++OOXXOXOXXO#@OXXX.XX..XX...OXOOX......XX+OXXO",
"OOOXXXXXX.X..X..OO++OOXOOXXXX+#OXXXX.XX..XX....XOOX.....XOX+OXXO",
"XOOOXXXXX.X..X..OO++OOOOOX..X+#OXXXX.XX..XX.  ..OOOX....OO+OXXXX",
"XOOOXXXXX.X..XX.XO++OOOOXX..O+#OXXXXXXX..X..  ..OOOX....OO+OXXX.",
"XOOOXXXXX.X..XX.XOO+OOOXX...O+#OXXXXXXX..X..  .XOOOOX.X.O+OOXXXX",
"XXOOOXXXX.X..XX..OO+OOXX....O+@OXXXX.XX..X..  .OOOOOX.X.O+OOXXXX",
"XXOOOXXXX.X..XX..OO+OXX.....O+@OXXXX.XX..X.  ..OOOOOXXX.+OXOXXXX",
"XXXOOXXXX.X..X..XOO+XX......O+@OXXXX.X.....  .XO@OOOXOXX+OXOXXXX",
"XXXOOOXXX.X.....XOOXX.......O+@OXXXX.X.....  .O+@OOOOOOXOXXOXXXX",
"XXXXOOXXX.X....XOOXX........O+@OXXXX.X.X... ..O@@OOOOOOXXXXOXXXX",
"XXXXOOOXX.X...XOOXX.........O+@OXXXX.X.X..  .X+@+OOOOOOXXXXOXXXX",
"XX.XXOOXX...XXOOXX..........O+@OXXXX.X.X..  .X+@+OOOOXOXXXXOOXXX",
"XX.XXOOXX..XXOOX............O+@OXXXX.X.X.. ..X+@+OOOOXOOXXXOXOXX",
"XXXXXOOOX.XXOOOX............O+@OXXXX.X.X.. .XX@@OOOOOXOOXXXOXXXX",
"XXXXX.OOXXXOO++OX...........O+@OXXXX...X.  .OO@+OOOOOXOXXXXOXXOX",
"XX.XX.OOXXOOO@@+OXX.........O+@OXXXX..... ..OO@+OOOOOXOXOXXOXXXX",
"XX.XX.XOOOOOO@+O+OXX........O++OXXXX..... .XO+@+OOOOXXOXOXXXXXXX",
"XX.XX.XOOOOO+@OXO+XOX.......O++OXXXX..... .OO@@OOOOXXXXXOXXXXXXX",
"XX.XX.X.OOO+@@OXXO+OOXX.....O++OXXXX.... ..O+@+OOOOXXXXXOXXXXXXX",
"XX.XX.X.OOOO@@OXXOO+OXXX....O++OXXXX.X.. .XO+@+OOOXXOXXOOOXXXXXX",
"XX.XX.X.OOOO@+OXXOX++XOXX...O++OXXXX.X.. .XO+@+OOOXXXXOOOOXXXXXX",
"XX.XX.X.XOO+@OXXXOX+X+OXOX..O++OXXXX.X....XO@@OOXXXXOXOOOOXXXXXX",
"XX.XX...XOO@@OXXXOX+XO+XOOXXO++OXXXX.X. .XX+@+OXXXOOOX+OOOOXXXXX",
"XX.XX...XXO++XXXXOX+XXOOOOXXO++OXXXX... .XX+@OOOOOO+++OOXOOXXXXX",
"XX.XX...XXOOXXXXXOX+XXXO+OXXO++OXXXX.....OX+@OOO++++OOX..OOXXXXX",
"XX.X....XXXOXXXXXOX+XXXXO+XXO++OXXXX....XOXO+OOO+OOOXX...OOOXXXX",
"XX.X....XXXOOXXXXOX+XXXXXOOXO++OXXXX.. .XOXO+OOOOXXX.....OOOXXXX",
"XX...X..XXXXXXXXXOXOXXXXXXOOO++OXXX.....XOXO+OOXXX.......XOOXXXX",
"XX...X..XX.XXXXXXOXOXXXXXXXOX++OXXX.....XOXO+XXX.X........OOXXXX",
"XX...X..X..XOOXXXOXOXXXXXXXXX++OXXX.....X+XOX.XX.X........OOOXXX",
"XX...X.....OOOXXXOXOXXX.XXXXX++OXXX.....X+XX..XX.X........OO+XXX",
"XX...X....O++OXXXOXXXXX.XXXXXO+OXXX...X.X+XX..XX.X....... OO+XXX",
"XX...X...O++OXXXXOXXXXX.XXXXXO+OXXX...O.X+X...XX......... OO+XXX",
"XX......O++OX.XXXOXXXXX.XXXXXO+OXXX...O.X+X...XX....... . OO+OXX",
"XX....XO++OXX.XXXOXX.XX.XXXXXO+OXXX..XO.XOX...XX.X..... . OO+OXX",
"XX...XO@+OXXX..XXXXX.XX.XXXXXOOOXX...XO.XOX...XX....... . OO+OXX",
"X...O+@#@XXXX..XXXXX.XX.XXXXXO+XXX...XO.XX....X........ . OO+OXX",
" ..O++OO#XXXX..XXXXX.XX.X.XXX.+XXX..XXOXXX....X........ . OO+OOX",
" .O++OOOOXXX...XX.XX.XX.X.XXX.+X.X..XXOXXX....X........ . XO+OO.",
".XO@OXXOOXXX....XO.X.XX.X.X.X.+X....XXOXXX....X........ . .O+OOX",
".O++OXXOOXX.....OO.X.XX.X.XX..+X...XXXOXX.....X........ . .O+OOO",
"X+@OXXXXOXX...X.XOX..XX.X.XXX.+X...OXXOXX.....X........ . .O+OOO",
"X+@OXXXXOXX...X.XOO..XX.X.XXX.XX...OXXOXX.............. . .O+OOO",
"X++OXXXXOX..X.X..OO..XX...XXXXXOX.XOXXOXX............     .O+OOO",
"O@OXXXXXXX..X.XX.XO..XX...XXXX.OOXXOXXOX.........    .....XO+OOO",
"O@OXXXXXXX.XX.XX.XO.XXX...XXXX.OOOXOXXOX..............X.XXXO+OOO",
"O@OXXXXXXX.XX.XX..O.XXX...XXXX.OOOXOXXXX....XXXXOOX.XOX.XOXXOOOO",
"O+OXXXXXXX.XX.XX..O.OXX...XXXX.OOOXOXXOOOOXXOXXOOOX.XOO.XXXXXOOO",
"OOXXXXXXXX.XX.XXX.XXOXX...XXXX.XOOXOXXOOOOOXXXXXOOXXXOXXXXXXXXOO",
"OOXXXXXXXX.XX.XXX.XXOXX...XXXX..OOXOXXOOOXXXXXXXOOXXXXXXXXXXXXXO",
"XXXXXXXXXX.XX.XXXXX.OOX.........XOXOXXO.XXXXXXXXXXXXXXXXXXXXXXXo"
};
