/* XPM */
static char *out[] = {
/* columns rows colors chars-per-pixel */
"64 64 17 1 ",
"  c black",
". c gray11",
"X c #202020",
"o c #282828",
"O c gray19",
"+ c gray22",
"@ c #400000",
"# c #580000",
"$ c gray25",
"% c #484848",
"& c #4C4C4C",
"* c gray33",
"= c #646464",
"- c gray44",
"; c #7C7C7C",
": c gray55",
"> c #989898",
/* pixels */
"$$$$$%%&&%%o ++%&&$&%&&&&&%&&&+o $+&%&&&&%&%%$$o $%$&%O o++%$&%+",
"++$$$%&$%%+X X+%$++$$%&%%%&&&+O. +$&&%&&%++++%+X ++$&$O .+O+$&$+",
"$++$$++++%++ O$&&$%$+$$&&&&&%+O. +$&&&$%++$&&&+O +$&%+O +%++%$OO",
"$+++$%++O++O O+%%+%%$%$%%%$+OO+O +%%$$$$+%$$+%++ +$&$%O O$$%&++O",
"+++$++o++++o ++$$%%%%%$+++oO++%+ $%&&$++$%&%%%oO O+$$$+ o++$$++o",
"+oOoOoO$++oo ++&%%%&%&$+$+$%&&%O +$%++%%%%%$++OO +$$%+O oO+++o.o",
"OOoOO++$++.O o+++++$+%$%%%%%%++X ++++$$+O++++Ooo .$O+Oo ..OOooOO",
"++o++%$%++oO X+++Oo++++++OO+OO+. oXOOOoooO+ooO+o .oOOo. .ooo+O+O",
"$+++$$+$O+oO                                            oOoO+++O",
"+++++++$O+OO  +++++++++++++++++++++++++++++++++++++++   .OO++++O",
"%+++%+++++XX  +>=+++++>=+++++>=+++++>=+++++>=+++++>*+   o+++++++",
"+++++O++OOoO  +*.++++O=.++++O=.++++O=.++++O=.+++++*.+   o++%+++O",
"O+++OOO+OooO  +++++++++++++++++++++++++++++++++++++++   o++$O+OX",
"oXoXooXOo..O  ++++++++++++++++++++++++++++++++++++++O   oO+o...X",
"oo.oo.ooX.oX  +++++++++++                  ++++++OOOO   oXX..XX+",
"              OOOO+++++++ ++++++++++++++++ +OOOOOOOOO           ",
"+++++++O++++X OOOOOOOOOOO +   ++    +O   O OOOOOOOOOO oO++O+oooO",
"+++++++++OO+O OOOOOOOOOOO O   =O    =O   O OOOOOOOOOO O+++++o++O",
"$+++$+++++$+O O:*OOOOOOOO O   =O    =O   O OOOOOOO:*O o+++++O+O+",
"+O+O+++++++oo O*.OOOOOOOO O   =O    =O   O OOOOOOO*.O o+O+++++++",
"+++++++++OO.o OOOOOOOOOOO O   =O    =O   O OOOOOOOOOO .+O++++O++",
"OOoOOOOO.X..o OOOOOOXX+OO O   *O    *O   O OOOOXX+OOO Oo.OoOOX+O",
"oOO+oOXoXOooo OOOOOOX %OO O   *O    *O   O OOOOX %OOO .oXXXXoXoX",
"              OOOOOO+%%OO O   *O    *O   O OOOO+%%OOO           ",
" .o.ooooOo+o. O;%OOOOOOOO O   *O    *O   O OOOOOOoooo Xo.o++++OX",
" o+O++O++X+OX o%.OOOOOOOO O   *O    *Oo  O Oooooooooo O++++++OO.",
" OoOO+++OO+o. ooooooooooo O   *O   >==*  o ooooooo-%o O+++++oOO.",
" O++O+++O.OX. o%%%%%%%ooo o   *o  O:;==  o ooooooo%.o O++++O++O.",
" O++OOooo.oo. o$OOOOOO oo o   *o  %;;*%  o ooXXOooooo O++O+++oo.",
" X+oO++o..oO. o$oooooo oo o   *o O*-*%   o ooX $ooooo OO+++O+Oo.",
" X+o+OXXo.oO. o$oooooo oo oooooooooooooooo ooO$$ooooo OoooooXX.X",
" O++OOO+o.oo. o$ooo*oo oo                  ooooo@oooo X...X.....",
" oOOOooo.oOXX o$ o =.o ooooooooooooooooooooooo@@ooooo           ",
" .XX.......O. o+.o *.o oooooooo@oooo@ooo@@oooo@oooooo oooo ..Xoo",
" ........ ... o+oX o.o ooooooooo@@@ooo@@@@oo@@oooo=$o oOoX ooOOo",
"              o+oX.X.X Xoooooooo@o@@@@@@@@@@oooooo$.o O+O. ooOOo",
" X.X.oooooo.. o+oXX.XX XXXOooooooooo@@  #@@oooo@ooooo o+o. ooOOo",
" oooXoOoO+Oo. o+ooXXXX XX +oooooo@o@@@@##@@@@@@@ooooo oOo. oooOo",
" ..Xo..XooX.. o+XooXoX XO++ooo..Ooo@@@@@@@@@@ooooooXX ooo. .o+Oo",
" ..ooX...oo.. X+ooooXX ooooooo. +o@@@@@@@@@ooXXXXXXXX oOo. oooXo",
" XoOOoX..OoO. XX       XXXooooO++@@@@@@@@@@@XXXXXXXXX o+X. ..OOo",
" Xooooo....o. XXXXXXXXXXXXXXXXXX@@XXX@@@@@@@@XXXXXXXX O... oO+Xo",
" ..X..XXXXXX. XXXXXXXXXXXXXXXX@@XX..oX@@@@XX@@XXXX=+X o... .ooOo",
" .......ooX.. X=+XXXXXXXXXXXXXXXXX. OX@@@XXXX@@@XX+.X Xooo oXXoo",
" XXooX..X.X.. X+.XXXXXXXXXXXXXXXXXoOOX@X@XXXXXXXXXXXX ooX. .XOOo",
" .X.......... XXXXXX..oXXXXXXXXXXXXXXX@X@..oXXXXXXXXX o.X. .oXo.",
" ............ XXXXXX. OXXXXXXXXXXXXXXX@X@. OXXXXXXXXX ...  .....",
"              XXXXXXoOOXXXXXXXXXXXXXXX@X@oOOXXXXXXXXX           ",
"....... .OXX. XXXXXXXXXXXXXXXXXXXXXXXX@X@XXXXXX..oXXX .......oXX",
"oOoOoo. oOoO. XXXXXXXXXXXXXXXXXXXXXXXX@X@XXXXXX. OXXX .XooOoooXo",
"oOoOoo. XoX.. XXXXXXXXXXXXXXXXXXXXXXXX@X@XXXXXXoOOXXX ..XoX.ooOo",
"ooOooo. XX... XXXXXXXXXXXXXXXXXXXXXXXX@XXXXXXXXXXXXXX ....XXoooo",
"OoooOo. o.... X*+XXXXXXXX                  XXXXXXX*OX ..ooooooOo",
"X.o.Xo. ..... XO.XXXXXXXX XXXXXXXXXXXX@XXX XXXXXXXO.X .XoooOooOo",
"OOoOOX.       XXXXXXXXXXX XXXXXXXXXXXX@XXX XXXXXXXXXX ..oooooooo",
"XoOoX.. ..... XXXXXXXXXXX XXXXXXXXXXXX@XXX XXXXXXXXXX .....o...X",
"..X.... .Xoo. XXXXXXXXXXX XXXXXXXXXXXX@XXX XXXXXXXXXX ..oooXX...",
"....... .XXX. XXXXXXXXXXX XXXXXXXXXXXX@XXX XXXXXXXXXX ..XXoooooo",
"XoooX.. ..... XXXXXXXXXXX XXXXXXXXXXXX@XXX XXXXXXXXXX .XooOooooo",
"Xo.oX.. ..... XXXXXXX.XXX XXXXXXXXXXXX@XXX XXXXXXXXXX .XXXoo.ooo",
"oOXOo.. ..... X*OXXXX*OXX XXXXXXXXXXXX@XXX XX*OXXX*OX ...XXX.XXX",
"ooXoo.. ..... XO.XXXXO.X. XXXXXXXXXXXX@XXX XXO.XXXO.. ....X.....",
"..o.... ..... .XXXXXXXXX. XXXXXXXXXXXX@XXX XXX....... ..........",
"....... ....                                          .........."
};
