/* XPM */
static char *out[] = {
/* columns rows colors chars-per-pixel */
"64 64 54 1 ",
"  c black",
". c #382C14",
"X c #202020",
"o c #2C2C2C",
"O c gray22",
"+ c #4C0000",
"@ c #640000",
"# c #700000",
"$ c #7C0000",
"% c #483818",
"& c #543C1C",
"* c #5C4020",
"= c #6C4824",
"- c #744C28",
"; c #484848",
": c gray33",
"> c #646464",
", c gray44",
"< c #7C7C7C",
"1 c #880000",
"2 c #980000",
"3 c #A40000",
"4 c #A80000",
"5 c #D40000",
"6 c #FC0000",
"7 c #80502C",
"8 c #885830",
"9 c #905C34",
"0 c #9C6038",
"q c #A0643C",
"w c #A86840",
"e c #B47044",
"r c #BC7848",
"t c #C87C4C",
"y c #D08050",
"u c #DC8854",
"i c #E88C58",
"p c #F0945C",
"a c #FC9C60",
"s c #FCA470",
"d c #0000A8",
"f c #0000FC",
"g c gray55",
"h c #989898",
"j c #B4B4B4",
"k c #FCB080",
"l c #FCB890",
"z c #FCBC9C",
"x c #FCC4A4",
"c c #FCD4BC",
"v c #C0C0C0",
"b c #D0D0D0",
"n c gainsboro",
"m c gray99",
/* pixels */
"ffffffffffffffffffffffffffffffffffffffffffffffffffffffffffffffff",
"ffffffffffffffffffffffffffffffffffffffffffffffffffffffffffffffff",
"fffffffff<<<<<<<<<<<<<<,,,,,,,,,,,,,,,,,,,,,,,,,,,,,nfffffffffff",
"fffffffff<;;;;;;;;OOOOOOOOOOOOOOOOOOXXXXXXXXXXXXXXXXnfffffffffff",
"fffffffff<;hhhhhhhhhhhhhhhhhhhhhhhhhhhhhhhhhhhhhhh:X,fffffffffff",
"fffffffff<;hhhhhhhhhhhhhhhhhhhhhhhhhhhhhhhhhhhhhhh:X,fffffffffff",
"ffffffddf<;hhhhhhhhhhhhhhhhhhhhhhhhhhhhhhhhhhhhhhh:X,fffffffffff",
"fffffffff<;hhhhhhhhhhhhh<>;;;;;;;<ghhhhhhhhhhhhhhh:X,fffffffffff",
"fffffffff<;hhhhhhhhhhhh:;;XXXXXXXXX;;<hhhhhhhhhhhh>X,fdfffffffff",
"fffffffff<;hhhhhhhhhhh:;XXOO:OOOOOXXX;hhhhhhhhhhhh>X,fffffffffff",
"fffffffff<;hhhhhhhhhhut,OOO::g<:O;:OOXXhhhhhhhhhhh>X,fffffffffff",
"fffffffff<;hhhhhhhhhhakkk,tr,<g>o>,>OoX;hhhhhhhhhh>X:fffffffffff",
"fffffffff<Ohhhhhhhhhukllzk,yr::Oo;:;;oXX>hhhhhhhhh>X;fffffffffff",
"fffffffff<Ohhhhhhhhhakllxk,yOOOOoOOOOoXX;hhhhhhhhh>XXfffffffffff",
"fffffffff<OhhhhhhhhakklxkkkpOOOOoOOOOoXXohhhhhhhhh>XXfffffffffff",
"mmmmmmmmm<Ohhhhhhhhtwrsxkkkke0087OOOoXXXohhhhhhhhh>X:mmmmmmmmmmm",
"jjjjjjjjj<Ohhhhhhhhh..8rxkklspwwww7OXXXoohhhhhhhhh,X,jjjjjjjjjjj",
":::::::::<Ohhhhhhhhlt;rspkxsppuppw9*XXXo;hhhhhhhhh,X::::::::::::",
" :::: :::<Ohhhhhhhlckuskkksppia*wp**XXo;,hhhhhhhhh,X::: ::::: ::",
":::::::::<Ohhhhhhxcxsaulksppiusy7s**XXo,hhhhhhhhhh,X::::::::::::",
"jjjjjjjjj<Ohhhhhhirrrtauaaaiuuywpr**Xo;hhhhhhhhhhh,X:jjjjjjjjjjj",
"mmmmmmmmm<OhhhhhhhhX*susaapiutasy-**Xo,hhhhhhhhhhh,X:mmmmmmmmmmm",
"fffffffff<Ohhhhhhhh*0kspspitrwy8---**;hhhhhhhhhhhh,X:fffffffffff",
"fffffffff<Ohhhhhhhhlaakspptww0ru99-**,hhhhhhhhhhhh,X:fffffffffff",
"fffffffff<Ohhhhhhhhyspksaitw00esur8**hhhhhhhhhhhhh,X:fffffffffff",
"fffffffff<Ohhhhhhhhslsuaur090esssprw--hhhhhhhhhhhh,X:fffffffffff",
"fffffffff<Ohhhhhhhhpsurw0990eussrr97--<ghhhhhhhhhh,XOfffffffffff",
"fffffffff<Ohhhhhhhhhhh08880eusrr99977&--,ghhhhhhhh,XXffffdffffff",
"fffffffff<Ohhhhhhhhhhhhhe0eesr99098-&77---,ghhhhhh,XOffffdffffff",
"fffffffff,Ohhhhhhhhhhhgyeeys99000-&7qqq9978-,ghhhh,X:ffffdffffff",
"fffffffff,Xhhhhhhhhhggyryye00ee-&7qeeeeeee008-,hhh,X<fffffffffff",
"fffffffff,Xhhhhhhhhg,yyrytqee8&7qeeeeeeeeeee08-<hh,Xgfffffffffff",
"fffffffff,Xhhhhhhhg,-yqyytte-&0eeeew0700eeeee07-<h,X,fffffffffff",
"fffffffff,Xhhhhhhh,7-yqyyte--qeeeewq770000888887-h,X,fffffffffff",
"fffffffff,Xhhhhhhg77-y7qye--eeeeeeq9-70080008888-h,X,fffffffffff",
"fffffffff,Xhhhhhh,99-0-q-&qeeeeeew97**eeeee00877*h,X,fffffffffff",
"fffffffff,Xhhhhhh099-7-qq9eeeeeeeq7**eeyeee0e0--%h,X,fffffffffff",
"fffffffff,Xhhhhhg099*-8qqeeeeeeeww7*eeyeey09e0-*%h,X,fffffffffff",
"fffffffff,Xhhhhh,099--qqrrtteeee07**eyeeye09e8-*%h,X,fffffffffff",
"fffffffff,Xhhhhhq099-8qrrttrrr-08**00eeey09qe8-*%h,X,fffffffffff",
"fffffffff,Xhhhhgqq9--qqrrtrrr-088*hnn0yyeq9ee7*%:h,X,fffffffffff",
"fffffffff,Xhhhh,q999-qq9-%%rr-8**hoo:n5y-09ee-*%,h,X,fffffffffff",
"fffffffff,Xhhhg0099-8qerr%%--8*honobnnn5-90ee-*%<h,X,fffffffffff",
"fffffffff,Xhhh,www9-qqrrt7w88*$h:oooo:v4229ee-%*hh,X:fffffffffff",
"fffffffff,Xhhh00ww--qerrt9w88$36nnnonoh421198-%*hh,XOfffffffffff",
"fffffffff,Xhhhew99-7qerrrw8*0225hoo:nh<211$#-%**hh,XXfffffffffff",
"mmmmmmmmm,Xhhhe9w9q9qerrr8*irt7&5hvvh<211$#@-%**hh,XXmmmmmmmmmmm",
"jjjjjjjjj,Xhhute9-e00888ritqitt7&5542211$#@@+**-hh,Xojjjjjjjjjjj",
":::::::::,Xhhuyteee00000iiiqqiree&&2211$#@@+**--hh,X::::::::::::",
" :::: :::,Xhhhuyyuu000ttiitiriie00&&11$#@@+***-8hh,Xg:::: ::::::",
":::::::::,Xhhhhuuhuueeriirrtiiit00-&1$#@@+***880hh,Xg:::::::::::",
"jjjjjjjjj,Xhhhhhhhhhtteirww00ttt08=&&#@+****-80ehh,X,jjjjjjjjjjj",
"mmmmmmmmm,Xhhhhhhhhhpttreeww77778---=@+**--890ethh,X,mmmmmmmmmmm",
"fffffffff,Xhhhhhhhhhhptttttreew888888+*--890ettahh,X,fffffffffff",
"fffffffff,Xhhhhhhhhhhhhpuuuuuuuttw000-8890ettaahhh,X,fffffffffff",
"fffffffff,Xhhhhhhhhhhhhhhhpppppppppyyyyyttaahhhhhh,X,fffffffffff",
"fffffffff,Xhhhhhhhhhhhhhhhhaaahhhhhiiiiiiihhhhhhhh,X>fffffffffff",
"fffffffff,Xhhhhhhhhhhhhhhhhhhhhhhhhhhhhhhhhhhhhhhh,X:fffffffffff",
"ffffffffd,X:::::>>>>>>>,,,,,,,,,,,,,,,,,,,,,,,,,,,,XXfffffffffff",
"fffffffff,XXXXXXXXXXXXXXXXXXXXXXXXXXXXXXXXXXXXXXXXXXXfffffffffff",
"fffffffffOOOOoXooXXXXXXXXXXXXXXXXXXXXXXXXooooOOOOOOXOfffffffffff",
"ffffffffffffffffffffffffffffffffffffffffffffffffffffffffffffffff",
"ffffffffffffffffffffffffffffffffffffffffffffffffffffffffffffffff",
"ffffffffffffffffffffffffffffffffffffffffffffffffffffffffffffffff"
};
