/* XPM */
static char *out[] = {
/* columns rows colors chars-per-pixel */
"64 64 16 1 ",
"  c #000034",
". c #202020",
"X c #282828",
"o c gray22",
"O c #000040",
"+ c #00004C",
"@ c #000058",
"# c #280040",
"$ c #000064",
"% c #000070",
"& c #00007C",
"* c #484848",
"= c #000088",
"- c #000098",
"; c #0000A4",
": c #0000A8",
/* pixels */
"oooooooooooooooooooooooooooooooooooooooooooooooooooooooooooooooo",
"o.oXXXXXoXXXXXXoX.XXXXXXXooooooXXXXXXXXXoooooooXXXX...XXooXXXXX.",
".=---======&@XXo=-===========&&&&&=%@X.o=----===========&&&&&%@X",
"X-:;;;-----&+.Xo-;--=--------====--&@.X.-;;------------======&@.",
"X=-==-====&$O.Xo--===========&&&&=&$+.Xo--===&===&=--==&&&&&&$+.",
"X==&&&&&&%$+O.Xo=-====&&&%%&%%$%%$$+O.XX==%%%$%&%$&==&&%%%%%$@O.",
"X==&%%%%%$@+O.Xo=--=&&%%%$$$$$$$%$@+O..X&&$%%$$$$$$&&%%%$$&%$@O.",
"X$&%$$$$$@++O.XX=--&$$$$$@@$$$$$$$@+O..X%%$$$$$$@@$$$$$$$$%$$@O.",
"X$$$@@++++++O..o$&$$@+++++++++++@@++O..X$$@@+++++++@+++++@$$@@O.",
"X#++OOOOOOOO ..X#++OOOOOOOOOOOOOOOOO ..X#+OOOOOOOOOOOOOOOO+++O .",
"XX.............oX.....................Xo........................",
"o....XXXX.....X.XXXXXXX...oXXX..XXXXXXo.Xoooo****ooXX...o.oXXXo.",
"==&&&&===&&&&&%@XoX&=====&================&&&&=====%@X.o&-======",
"==============%+.Xo==--==&=====--==============--==&+.X.-;------",
"&&&==&%&&&%&&$@O.XX==&=&&&&&&&&&=&&&&&&&&&=&&&==&%%$+.Xo--=====&",
"$&&&&%$$%%$%$@+O..X=&%&&&&&%%%%$$$%$$$%$$%%%%&&&$$@+O.XX=-=&%&%$",
"%&%%%%$$$$$$@++O..X=&%%&&&%%%$$$$$$$$$$$$$$$%%%%%$@+O..X=-=%$%$$",
"$%%$$$$@@$$$@++O.Xo==$$$%$$$$$$@@@$$@@$@$$$$$$$$%$$+O..X&=%$@$$$",
"$$$++++++++@+++O.Xo&&$@@@@@@@++++++++++++++++@@$$$@+O.Xo%%$+++@@",
"+++OOOOOOOOOOOO .Xo@++OOOOOOOOOOOOOOOOOOOOOOOOO++O+O .X.@++OOOOO",
".................X.X..................................XoX.......",
"ooX..Xo.o.XX....XXoXXXo.X.X.oXXXo.oXX...XXXXo...XXXXoXo.o...oXXX",
"o&=====&=======&&&&&&&&%&&$@Xoo=-================&&&&&&&%%%%%%@X",
"o=---=======----=======&==%+.Xo-;=--===---------========&&&&%$+.",
".=======&&&======&&&&%%%&&$+.X*--==&&%&=============&&&%$$%$$@O.",
"X==&&=&&%$$%%&&%$%%%$$$%$$@O.o*--=&%%%&&%%%%&%$$%%%%&%$$$$@@++O.",
"X==&&%%%$$$$$$%$$$$$$$$$$$@O.o*--&%%%%&%$$$$$$$$$$$$%$$$@@++++O.",
"o==$$$$$@@@@@$$$$$@$$$$$$$$+.Xo=-&%$$$$$$@@@@++@@@@@$$$$$$@@++O.",
"X&&@++++++++++++++++@@@$$$@O..o&=$$$@@@@++++++++++++++++@@@@++O.",
"X$$+OOOOOOOOOOOOOOOOOOO++OO ..o$++++OOOOOOOOOOOOOOOOOOOOO++OOO .",
"XX...........................XXX................................",
"oooooXX.X...Xo**oooXXXX...X...oXXXo.oXoXX.X.XXooXXX.XXXXo.oXXXo.",
"====&=&&&%@X.o======&&&&&=&&&&&&%&&%%%%@Xoo&=====&&&&&&=&&=&&&&&",
"====-----&+.X.==&&&=============&=&&&&%@.Xo=-==&============&&&&",
"=&&==--=&$+.Xo&%%%%%&&%&&&&%%&&%%%%%%%$+.oo==%%%%&&%%&%%&&%%%%$$",
"&%%&===%$+O.X.&%$%%%%%%%%%%$$%$$$%%%%%$+.o*=-&%%%%%%%&%%%%%$$%$$",
"=&%%&&%$@+O.Xo=&$$$$%%%$%%$$$$$$$%%%$$@O.o*=-&%%&%%%%%%%%%$$$$$$",
"&%$$$$$$@+O.XX&%$%$$$$$$$$$@@$@$$$%$$$@O.Xo==&$%%%%%%%$$$$$$%%%$",
"@@@@++++++O.XX$$$%$@@@@@@@++++++@@$$$@@O.Xo=&$$$$@@@@@@+@@@$$%$@",
"OOOOOOOOOO .XX#++++OOOOOOOOOOOOOOO++OOO .XX@++++OOOOOOOOOOOO+++O",
"............XoX..........................XXX......X.............",
"oXo.X..XX....XX...XXXXXooXX...oXXXo.X.X.XXoXo.oXo**ooXX.oXoXo.o.",
".&====&==&&&&&&&&%&&&&%%%%%%%%%@.o.&==&&&&&&&&======&&%%&%%%%%@X",
"o=-===&&=============&&%&%&=%%%+.Xo=-=%&%%%&&=========&&&&&%%%+.",
"X==$$%%$$%%%&&%%&%%&%$$$$%%%$$$+.XX==&$$$$$$$$%%%$%$%%%%%%%$$$+.",
"X==$$$%%$$$$%%$$%$$$%$$%$%%$$$@O..X==&$$@@$$$$$$$$$$$%%$%$$$%$+.",
".=-&$$%&$$$$%&%$%%$$%%%%%%$$$$@O..X==%$@$$$$$$$$$%%$$%$$%$$$$@O.",
"o==%$$$$$$$$$%$$$$@@$$$$$$$$$$$+..o==%@+@$$@$$$$$$$$$$$$$$$$$@O.",
".&&$$@@@@@@@@@@++++++@@@@$$$$$$+..o&%$@++@@++++++++++@@@@@@@@@+.",
"o@++++OOOOOOOOOOOOOOOOOOO++++++ .Xo@++OOOOOOOOOOOOOOOOOOOO++O+ .",
".X...............................X.X............................",
"o.o.oXoXXXXo**oXo.oXoXX...XXoXX.XXo.oXXXXXXXXoooooXXXX......XXoX",
"&&&&=&&&&&&&&&&%%@XoX&==============&&&%%%%%%$@X.o&========&&&&&",
"&&%&=========&&&%+.XX=-===&============&&&%%$$+.Xo==&==--====&&$",
"&%$$&&%%%%&&$$$$$+.XX==&%%%$$$$&&%$&&$$$$$$$$$+.Xo=&$$%&%%%%$$$@",
"&%$$$$$$$$$$$$$@+O.XX%&$$$$$$$$$%$$$$$$$$$$@@+O.Xo==$$$$$$$$$$$$",
"$%$$$$$$$@@$$$$@+O.X.&&%$$$$$$$%$$@$$$$@$$@+++O.Xo==%$$$$$$$$$&&",
"@%%$$$$$$@$$$$$$@O.Xo&%$%%%$$$$$$@@$$$$$$$$+++O.XX=&$$$$$$$$$$%&",
"@$$$$@@$@@$$$@$$$+.XX&%$$$%$$$$$$$@@@$$$$$$@@@O..X=%@$$$$@$$$$$$",
"@$$$@+++++@@++@$@O.Xo&%@@$$@@@++@+++++@@@@@@@@O..X%$+++@+++@@@$@",
"++O+OOOOOOOOOOO+O .XX@+OO++OOOOOOOOOOOOOOOOOOO .Xo@+OOOOOOOOOO+O",
"...................XoX...........................XX.............",
".o.o...XXXXXoo.XXXXoooooXXXoXXXoXX.XXXX..X..XX...oXX.oXXXX...XXX",
"****************************************************************"
};
