/* XPM */
static char *out[] = {
/* columns rows colors chars-per-pixel */
"64 64 38 1 ",
"  c gray11",
". c #28200C",
"X c #302410",
"o c #00002C",
"O c #000034",
"+ c #202020",
"@ c #2C2C2C",
"# c #343434",
"$ c #403018",
"% c #483818",
"& c #543C1C",
"* c #044000",
"= c #044C00",
"- c #045800",
"; c #046400",
": c #047000",
"> c #047C00",
", c #5C4020",
"< c #6C4824",
"1 c #744C28",
"2 c #000040",
"3 c #00004C",
"4 c #000058",
"5 c #280040",
"6 c #340058",
"7 c #000064",
"8 c #000070",
"9 c #004040",
"0 c #005858",
"q c #006060",
"w c #80502C",
"e c #885830",
"r c #048800",
"t c #049800",
"y c #04A400",
"u c #04B000",
"i c #04BC00",
"p c #008C8C",
/* pixels */
"+@+&<<wwwwwwwwwwwwwwwwwwwwwww<<&+@+&<<wwwwwwwwwwwwwwwwwwwwwww<<&",
"+@+$wwwwwwwwwwww<<<<w<w<w<w<w<w%+@+$wwwwwwwwwwww<<<<w<w<w<w<w<w%",
"+@+$ww<www<<w<<<<<<<<w<w<w<<<w<%+@+$ww<www<<w<<<<<<<<w<w<w<<<w<%",
"+@+$<<w<<ww<<<<<<<<<w<w<w<<<<<<%+@+$<<w<<ww<<<<<<<<<w<w<w<<<<<<%",
"+@+$<w<<<<w<<<<<w<<w<<<w<w<w<<<%+@+$<w<<<<w<<<<<w<<w<<<w<w<w<<<%",
"+@+$<w<<<<w<<<<<w<<w<<<w<w<w<<<%+@+$<w<<<<w<<<<<w<<w<<<w<w<w<<<%",
"+@+$<<weeeeeeeeeeewwwwwwww11111111<<<<<<<<<<<<<<<<<<<<<<<<%&<<<%",
"+@+$<<<e%%%%%%%%%%%%%%%%%%%%%%%%%%%%%%%%%%%%%%%%%%%%%%%&&<%X<<<%",
"+@+$<<<e%. o **** oo   ********************** oooooooooo5<%$<<<%",
"+@+$<&<e% ooo 99  o **;;;;;;;;--00;;;;;;;;*9 O22222222225<%X<&<%",
"+@+$<%&w%oo2222999=->ytttttttyppyypprrrrrr933934888888876<%X&<&%",
"+@+$%%%w%oo222299;>yttttttttttyyyyypppppppq00--4888888876<%X%<&%",
"+@+$&%&w%oo2299-;>ttttttttttttuuuuyuuyyyyyyyyy:9478888886<%X&%%%",
"+@+XXXXw% 999--;>tttttttttttuuiiuuuuyyyyyytyyy:0997888886<%.XXXX",
"+++++++w%*:>>>yyttttttyyyuuuiiiiiuuyyyyyyytyyty>;-4888886<% ++++",
"+++++++w%*:yyuyyytttyyyuuuuuiiiiiuuuyyyyyttyuit>094888886<%@++++",
"@@@@@@@1%*:uyyyyytttyuuuuuuuuuuuuuuuyyyttttyy>09478888886<%@@@@@",
"wwwwwww1%*:yyyyyyytyyyyyyyyuyuuuuuyyyyttyt::9947888888876<%%wwww",
"<<<w<w<1%*:yyyyyyyyyyyyyyyyyyyuuuyyyyy>099-9478888888884#<%%w<<<",
"<<<<w<w1%*:yyyyytyyyyyttttyyyyyuuyty>0944434888888888799><%$<<<<",
"<<<w<w<1%*:yyytty>:;>>>yyy>;99;>yy>0937788888888888799>>><%X111<",
"w<<<<<<1%*:tyty>;=99999->-99239999934478888888888439>>>>><%X<w<w",
"<w<<<<<1%*:tyur:9923322999234443444477888888888883;>>>>>><%%<w<<",
"<<w<<<w1% *;>yy:9233333333344444444478888888888879;>>>>>><%%<111",
"w<<<<<<1%  9=;>>;933333334444444444478888888888879;>>rr>><%&1<1w",
"<w<<<<<1%oo2O9999233333344444444444478888888888883;;>rr>><%%<1<<",
"<<<<<<<1%oo2222222333333444444444447788888888888849;:tr>><%%<1<<",
"&<<<<&<1%oo2223333333333444444444447788888888888879;:tr>><%$<<<&",
"<&&<&<<<%oo2222333333334444444444447888888888888879;:tr>><%X<<,<",
"&%&%&%&<%oo2222233333333444444444444788888888888849;ttr>><%X&,,&",
"&&%&%&%<%oo222223333333344444444444447888888888849;:tr>>><%X<,&&",
"XXXXXXX<%oo22233333333334444444444444788888888849;:rrr>>><%.XXXX",
"+++++++<%oo2233333333333344444444444478888888749;>rrrr>>><% ++++",
"+++++++<%oo223333333333334444444444777888874999;>rrrrr>>:<%@++++",
"@@@@@@@<%oo222333333333333444444444777777499;>>>rttrrr>>:<%@@@@@",
"+@+&<<w<%oo2222333333333334444444444443999;>>rrrtttrr>>>:<%%w<<&",
"+@+$www<%oo2222333333333334444444433999-;>>>rrtttrrrr>>>:<%$w<w%",
"+@+$ww<<%oo2222333333333344444399999-;>>rrtttttrrrrr>>>>><%$<w<%",
"+@+$<<w<%oo222233333333444444499-;:>>rrrrtttttr>rrrr>>>>><%$<<<%",
"+@+$<w<<%oo22223333333444444449;>rrrrrtttttttttrttrr>>>>><%%<<<%",
"+@+$<<w<%oo22223333333444444449;>>rtrrttttttttttttt>>>>>><%X<<<%",
"+@+$<<<<%oo222223333333444444499;>>>>>rrrrttttrrrrrrrrr>><%X<<<%",
"+@+$<<<<%  9O22233333334444444399;>>>>>>>>rrttrrrrrrrrr>><%$<<<%",
"+@+$<&<<%*->9222233333344444444329->>pp>>>>rr>>rrrrrrrr>><%X<&<%",
"+@+$<%&<%*->-9222233334444444444429pp>>p:pp>>>>>>rrrr>>>><%X&<&%",
"+@+$%%%<%*->>-99992233444444444329->>::pp>p::>>>>>rrr>>>><%X%<&%",
"+@+$&%&<%*-rr>>>:>999234444443299>>>>>>>>:ppp:>>>>>r>>>>><%X&%%%",
"+@+XXXX<&*->>>rrr>>>>9234443299>>>>>r>>>>>>>>p>>>>>>>>>>><%.XXXX",
"+@+++++<&**::>:>>>>>>>#55555#>>>>>>:>:>>>>>>>>p>>>>:::>>><% ++++",
"+++++++<<<<<<<<<<<<<<<<<<<<<<<<<<<<<<<<<<<<<<<<<<<<<<<<<<<%@++++",
"@@@@@@@%%%%%%%%%%%%%%%%%%%%%%%%%%%%%%%%%%%%%%%%%%%%%%%%%%%X@@@@@",
"wwwwwww%%%%%$XX@@@XX$%%%%%%%%%%%%%%%%%%%%%%%$XX@@@XX$%%%%%%%wwww",
"<<<w<w<w<w<w<w%+@+$wwwwwwwwwwww<<<<w<w<w<w<w<w%+@+$wwwwwwwwww<<<",
"<<<<w<w<w<<<w<%+@+$ww<www<<w<<<<<<<<w<w<w<<<w<%+@+$ww<www<<<<<<<",
"<<<w<w<w<<<<<<%+@+$<<w<<ww<<<<<<<<<w<w<w<<<<<<%+@+$<<w<<ww<<<<<<",
"<<w<<<w<w<w<<<%+@+$<w<<<<w<<<<<w<<w<<<w<w<w<<<%+@+$<w<<<<w<<<w<<",
"w<<<<<<<<w<<<<%+@+$<<w<<<<<<<<w<w<<<<<<<<w<<<<%+@+$<<w<<<<<<w<ww",
"<w<<<<<<<<<<<<%+@+$<<<w<<<<<<<<w<w<<<<<<<<<<<<%+@+$<<<w<<<<<<w<<",
"<<<<<<<w<<<<<<%+@+$<<<<<<<<<<<<<<<<<<<<w<<<<<<%+@+$<<<<<<<<<<<<<",
"&<<<<&<<<&<<&<%+@+$<&<&<<<<&<<<<&<<<<&<<<&<<&<%+@+$<&<&<<<<<<<&&",
"<&&<&<<<&<%&<&%+@+$<%&<&%<&<&<&&<&&<&<<<&<%&<&%+@+$<%&<&%<&<&&<<",
"&%&%&%&%<%&%<&%+@+$%%%&%&%<%<&%<&%&%&%&%<%&%<&%+@+$%%%&%&%<&%<&&",
"&&%&%&%&%&%&%%%+@+$&%&%&&&%&%%<&&&%&%&%&%&%&%%%+@+$&%&%&&&%%<&&&",
"XXXXXXXXXXXXXXX+@+XXXXXXXXXXXXXXXXXXXXXXXXXXXXX+@+XXXXXXXXXXXXXX"
};
