/* XPM */
static char *out[] = {
/* columns rows colors chars-per-pixel */
"64 64 59 1 ",
"  c black",
". c gray11",
"X c #28200C",
"o c #302410",
"O c #382C14",
"+ c #400000",
"@ c #4C0000",
"# c #580000",
"$ c #700000",
"% c #7C0000",
"& c #403018",
"* c #483818",
"= c #543C1C",
"- c #5C4020",
"; c #6C4824",
": c #744C28",
"> c gray25",
", c #484848",
"< c gray33",
"1 c #880000",
"2 c #980000",
"3 c #A40000",
"4 c #A80000",
"5 c #B00000",
"6 c #BC0000",
"7 c #C80000",
"8 c #D40000",
"9 c #E00000",
"0 c #EC0000",
"q c #FC2020",
"w c #9C4C00",
"e c #885830",
"r c #905C34",
"t c #9C6038",
"y c #CC6000",
"u c #B47044",
"i c #FC4040",
"p c #FC5C5C",
"a c #C87C4C",
"s c #FC8820",
"d c #FCF400",
"f c #D08050",
"g c #DC8854",
"h c #FCA85C",
"j c #FCA470",
"k c gray55",
"l c #989898",
"z c gray66",
"x c #B4B4B4",
"c c #FC9C9C",
"v c #FCB080",
"b c #FCBC9C",
"n c #C0C0C0",
"m c #D0D0D0",
"M c gainsboro",
"N c #FCE8DC",
"B c #FCFCD8",
"V c #ECECEC",
"C c gray99",
/* pixels */
"gjggjggvgvjgggautr:==tatgbvbbbvbbvbbjgbbgggggt=tgbvggr==jjgjgggg",
"ggggggdjgjggat:=o=o:ttagvggbbbbbbbgjgbvggggaa==ujjjaur&odgggaaag",
"aaaughBafurt:=o:===:eugggaggggggjvjvjguaauree=rgbjjgatfoBhjgggau",
"rtrhdBBsdd7777777777777777777777777777777777777777777ddBBddhgttr",
"e:eyyydwww2222222222222222222222222222222222222222222wwwhyyy;re:",
"==ooXosoOO444456677765569qqM.nnnmM.Cpiiq0876422244556$XOyXX+@:==",
"::=:-XOXXO444456677765469qqM.nnnmM.Cpiiq0886422244566:X=XXX*=&o=",
"gaaaaur:==444456677765569qqM.nnnmM.Cpiiq0076422244556:=tr=ooo&=t",
"ggggggtte&444456677765469qqM.nnnmM.Cpiiq0876422244566:wtte&o=rua",
"ugggggg::=444456677765569qqM.nnnmM.Cpiiq0876422244566=:ttroottag",
"agtuaattee444456677765469qqM.nnnmM.Cpiiq0076422244566==eeeo=tuga",
"aaugauuure444456677765569qqM.nnnmM.Cpiiq0886422244566**:e=o=uuau",
"auuutuatr:444456677765569qqM.nnnmM.Cpiiq0876422244566*X==oo:uauu",
"attttuttt:444456677765469qqM.nnnmM.Cpiiq0076422244556XX=&oo=ettu",
"t:ee:rttr:444456677765569qqM.nnnmM.Cpiiq0076422244566XX==&o=raut",
"=:reee:eee444456677765469VVM.nnnmM.CCVbq0076422244566XXtr=o=rtee",
"urr:eeetrr4444566777654mV...mnnnmMV...VVc086422244566XXtroo=ee:r",
"t:er::::e:444456677765x..VVMmnn>>MVCCV..VM76422244566XX:e=oo::tt",
"tettrr:=:=4444566777nx.mVVVMmn>..<VCCVVV.Mm6422244566XXte=oo==rr",
"rrr:::===o444456677n..xmVVVMm>....mCCVVVV..n422244566XX:==oo&:ee",
":=::::=&X&44445667m.nxxmVVVM>....nVCCVVVVMm.x22244566XX:==&oo==:",
"======oXo=44445667m.nxxmVVV>....xMVCCVVVVMm.xl2244566XX====oo&::",
"=&oXXXXoo:4444566m.nnxxmVV,....zmMVCCVVVVMmn.lz244556XX==:=oXo=o",
"oXoooo&o&=444456n.mnnxxmV,....znmMVCC,,VVMmnx.l244566XX====oXXoo",
"=rtre=&ooo444456n.mnnxxm,....xnnmMVC,..<VMmnx.ll44566XX==&oXXo=:",
"tutuute=oX44445n.mmnnxx>.....nnnmMV,....<Mmnxl.l44566XX:=&Xoo=e:",
"etetrrreeo44445n.mmnnxxm,....>nnmM,......<mnxl.l44556XX=&oo&:ere",
"rr:eeerre=zzzzxn.mmnnxxmV,....>nm>........>nxl.zzzxxxXX=oXo=:::e",
"e::e::e::=.......mmnnxxmVV,....>>....M,....>xll......XXooo==eer:",
":===o&oo&=zzzzxnnmm>>xxmVVV>........mVV,....>lllzzxxxXXXX&:ree::",
"=o===:::==zzzzxnnm>..>xmVVVM>......mCVVV,....>llzzxxxXXXX=:::===",
"===:=::e:ezzzzxnn>....>mVVVMm......CCVVVV>....llzzxxxXXoo=::===o",
"e:::=:=:eezzzzxnnm>....>VVVM>......,CVVVVM>..lllzzxxxXXoo===::::",
"ee::=:=:::zzzzxnnmm>....,VV>........,VVVVMm>xlllzzxxxXXo&=::::e:",
"::::==&&==.......mmn>....,,....x>....,VVVMmnxll......XXo&==:::::",
":::=::=:==zzzzxn.mmnn>........xnm>....,VVMmnxl.lzzxxxXXo=ee:::::",
"=e::::=:==44445n.mmnnx>......xnnmM,....,VMmnxl.l44566XX==:::::::",
":==:er:e:e44445n.mmnnxx>....nnnnmMV.....mMmnxl.l44566XX=:e::::::",
"=::::==:=:444456n.mnnxxm,..nmnnnmM,....MVMmnx.ll44566XX==:======",
"==========444456n.mnnxxmV,nMmnnnm>....MVVMmnx.l244566XX==:======",
"&====&&===4444566m.nnxxmVVVMmnnn>....MVVVMmn.ll244566XX======&o=",
"ooo&&====:44445667m.nxxmVVVMmnn>....VVVVVMm.xl2244566XX&=&=&====",
"==&=======44445667m.nxxmVVVMmn>....VCVVVVMm.l22244566XXo&o&&====",
"==========444456677n..xmVVVMm>....MCCVVVV..n422244566XX&Xooo====",
"&&&=&&====4444566777nx.mVVVMmn>..mVCCVVV.Mm6422244556XX&oXoo&===",
"oooooooooo444456677765x..VVMmnn>xMVCCV..VM76422244566XX=&oooo&o&",
"XXXXXXXXXX4444566777655mV...mnnnmMV...VV0876422244556XX=&ooooXXo",
"o&&ooooXoo444456677765469VVM.nnnmm.CCNiq0886422244566XXoo&ooo=&&",
"::::oooXoo444456677765569qqM.nnnmM.Cpiiq0076422244556XXoo==::==:",
":::e===ooo444456677765569qqM.nnnmM.Cpiiq0086422244556XX:ee::=&ee",
"eeet:e==oo444456677765569qqM.nnnmM.Cpiiq0076422244566XX::::=&::e",
"::::::::&o444456677765569qqM.nnnmM.Cpiiq0076422244566XX:::===:::",
":::ee:e:==444456677765469qqM.nnnmM.Cpiiq0876422244566XX===&:e:::",
"===:::eee:444456677765569qqM.nnnmM.Cpiiq0876422244566XXo&=:ee::=",
"=====:::::444456677765569qqM.nnnmM.Cpiiq0076422244566XXe=::====:",
"====:==:::444456677765569qqM.nnnmM.Cpiiq0076422244566XX:&&:::=&:",
"==&=:::e:e444456677765569qqM.nnnmM.Cpiiq0076422244556XX==&===:::",
"::::e==:=:444456677765569qqM.nnnmM.Cpiiq0876422244556XXooo&:e:=:",
"=::::=:==:444456677765569qqM.nnnmM.Cpiiq0886422244556XX&&o&:::::",
":::===&&=:2#$$$%243411%%678xXkkkzx miq897752$%%%21241XX==o==::::",
":====&==:===XXXXXXXXXX*XXXXXXXXXXXXXXXXXXXXXXXXXXXXXXXX=:&:===:=",
"============XXXXX*X**XXXXXXXX*XXXXXXXXX*XXXXXXXXXXXXXXX:=====:==",
"&&&&&=&==&&ooo&::::=:===&==&::=&=oooo=:====ooo&===:=::====::&&==",
"===&=======oo&:::::===&&====:===&oo&:::=::==ooo=====::::=::=o&=="
};
