/* XPM */
static char *out[] = {
/* columns rows colors chars-per-pixel */
"64 64 37 1 ",
"  c gray11",
". c #28200C",
"X c #302410",
"o c #382C14",
"O c #202020",
"+ c #2C2C2C",
"@ c gray22",
"# c #400000",
"$ c #4C0000",
"% c #580000",
"& c #640000",
"* c #700000",
"= c #7C0000",
"- c #403018",
"; c #483818",
": c #543C1C",
"> c #5C4020",
", c #6C4824",
"< c #744C28",
"1 c gray25",
"2 c gray33",
"3 c #646464",
"4 c gray44",
"5 c #880000",
"6 c #980000",
"7 c #80502C",
"8 c #885830",
"9 c #905C34",
"0 c #9C6038",
"q c #A0643C",
"w c #A86840",
"e c #B47044",
"r c #BC7848",
"t c #C87C4C",
"y c #D08050",
"u c #F0945C",
"i c #FCB890",
/* pixels */
"O+O:,,77777777777777777777777,,:O+O:,,77777777777777777777777,,:",
"O+O-777777777777,,,,7,7,7,7,7,7;O+O-777777777777,,,,7,7,7,7,7,7;",
"O+O-77,###############...XXXXXX...##########################:7,;",
"O+O-,,7##############..XoooooXXXX....#######################o,,;",
"O+O-,7,############XXoo-:>>>::----X....#####################o,,;",
"O+O-,7,###########o-;;:<9qq88<<<<<:-.....###################o,,;",
"O+O-,,7##########-::<9ertttyttttttww<>o....#################o,,;",
"O+O-,,,########$->8errtttttttttttttree8>;X..################o,,;",
"O+O-,,,########$>8wrrtttttttttttttrreeeq7>X...##############o,,;",
"O+O-,:,######$$,8errrrrtttttttttrrrrrreeq7,-...#############o:,;",
"O+O-,;:$#$#$$%>9errrrrrrttttttrrrrrrrrreq8<>-...###$#$#$#$##X,:;",
"O+O-;;;$$$$$%%7werrrrrrrrtrtrrreeeerrrrrwq8<>;...###$$$#$$$#X,:;",
"O+O-:;:%$%$%%>qrerrtttttrtrtrew9<<8eertteq7,,>;X..##$$$$$%$$X;;;",
"O+OXXXX%%%%%%7eerrrtttttrtwwq<:--o-,>,,7e8<>>>,-...#$$$$%$%$.XXX",
"OOOOOOO%%%%%>eerrrrrreqrrte9:-...-->>:--:>,:-:>;-..##$$%%%$% OOO",
"OOOOOOO%%%%%7errrrr7,><ette<o...o:77,:-oX..oo-:;-...##%%%%%%OOOO",
"+++++++%%&%>qerrr8>---:9tte<X..X;:--o....XX.Xo----...#$%%%%%++++",
"7777777%&&&7wrr08>-XXX.<tte7X.Xooo;........X.o---o....$%%%%%-777",
",,,7,7,&%&*9eereq9:---X<tte7....:0,:--X.....X.---X....#%%&%&-,,,",
",,,,7,7%&&,qeereq7>:oo.<tte<..-,qeeee0>;--oXXX--o.....#%&&&%o,,,",
",,,7,7,&&:7eeee9:XX;---9tte<;-,wrre097<<<,>:::;-o......$%&%&o,,,",
"7,,,,,,&&;8eee9--.o7:7werrq7>,79wretrrrrrrw97>;-X......#&&&&-,77",
",7,,,,,&:;9ee9:X-,9eeerrrr9,,wq,<erttrrrewq08,:-X......#&&&&o7,,",
",,7,,,7&;;0ew>->qweerrrre<:-;::;:qeeeeewwwq97,:-........%&&&o7,,",
"7,,,,,,&-;qee,<ewerrrrrw;-X......:ereewq0997,>;o........$&&&-,77",
",7,,,,,&o;qew8qerrrrrw,;X.........oeewq0987<>;-o........#&&&o7,,",
",,,,,,,&o;qreerrttre9>-............:qq0987,,:-oX.........&&&o,,,",
":,,,,:,&o;qrrrrtttrq,o..............>q997,,:-oX..........%&&o,::",
",::,:,,*o;qrrrrttre,-................,787,>-oX...........%&&X:,,",
":;:;:;:&-;qrrrrtrr9;X,................,<,>:-oX...........%&&X,::",
"::;:;:;*;;9errrtre<-.-................o>,>:-oX...........$&*o:::",
"XXXXXXX*:;7errrrre,X........:..........:<,>;oX............$&.XXX",
"OOOOOOO*=;,wrrrrrw-.-....:X............-<8,:-X.............* OOO",
"OOOOOOO**;,wrrrrr9o....X...............o>87:-X.............*OOOO",
"+++++++=*;>qrrrrr8-.;.X..X.............o:87>-X.............=++++",
"O+O:,,7*=:;qerrrr9o.,:q,..O12@O O.......:78>-X.............*-,,:",
"O+O-777=*>;qerrrrq,.w99:.+.............o:78>-X.............=-,7;",
"O+O-77,===;9errrrw>Xerqo...............X:,7>-X.......X.....=o7,;",
"O+O-,,7===;9errrrw<>rt9.................:,,:o........X....#=o,,;",
"O+O-,7,==<9qerrrrr97rt8....#######...oXo:,>-o.............$=o,,;",
"O+O-,,75=9:7errrrreett<..######%###.X-oo,8<;o.............%=o,,;",
"O+O-,,,=57;,wrrrrrwrrt<..##########.;--:qq9:o............#==o,,;",
"O+O-,,,5=7--qrrrrtqwrr<.######+1-o-::-:8ee9:o............&=5o,,;",
"O+O-,:,55<--7wrrrrqwwrwo.-34,<9rq8,;-->wreq:o..........#&=5=o:,;",
"O+O-,;:55<:-7errrtw0qrtq,<wetereq7:-.o>qreq:o..........&=555X,:;",
"O+O-;;;55<7,7errrrrwqrrtrrtttre09>-X.o:7ee8;X.........*=5555X,:;",
"O+O-:;:55<778wrrrttrwrtttrttrrrrq7:-o-:7ew<-..........555555X;;;",
"O+OXXXX555<99qwrrrtrrwttttttttrrrq7>-:,qrq>X.........$555555.XXX",
"O+OOOOO555,<<9wrrrttrrtttttttttrre97,7qwe7-..........%555555 OOO",
"OOOOOOO5555,,<8errrtrttrrttttttrreq889qq7:o.........#&555555OOOO",
"+++++++5555>>-<qrerrrtttrrtttttrre98888,-X..........$=555555++++",
"77777775556:-X79ererrttttrrrtttrre97<,>-X..........#%5555555-777",
",,,7,7,6565656,7qererrttttrrrrrreq8<>-o............#&6565656-,,,",
",,,,7,766565656,7qrreerrttrrrrewq7,;o..............#&5656565o,,,",
",,,7,7,65656565,,7qrrwerrrrewq8<,:-X...............#&6565656o,,,",
",,7,,,7666666666,,7qrrwwew97<,:-oX.................o&6666666o7,,",
"7,,,,,,666666666,<,7qwwq7,:-ooX....................-70665666-,77",
",7,,,,,6666666666,<,89097>-.........................tt666666o7,,",
",,,,,,,6666666666,,<,<777,-XX......................uut666666o,,,",
":,,,,:,66666666666,,<,,,<>>o.....................:uiut666666o,::",
",::,:,,66666666666>>,<<,,>:o...................,euiiut666666X:,,",
":;:;:;:-oXXXoXXO+O.XXXXXXXoXoXXoXXXXXXXXoXXXoXXO+O.XXXXXXXoXX,::",
"::;:;:;:;:;:;;;O+O-:;:;:::;:;;,:::;:;:;:;:;:;;;O+O-:;:;:::;;,:::",
"XXXXXXXXXXXXXXXO+OXXXXXXXXXXXXXXXXXXXXXXXXXXXXXO+OXXXXXXXXXXXXXX"
};
