/* XPM */
static char *out[] = {
/* columns rows colors chars-per-pixel */
"64 64 65 1 ",
"  c #28200C",
". c #302410",
"X c #382C14",
"o c #2C2C2C",
"O c gray22",
"+ c #400000",
"@ c #4C0000",
"# c #580000",
"$ c #640000",
"% c #700000",
"& c #7C0000",
"* c #403018",
"= c #483818",
"- c #543C1C",
"; c #5C4020",
": c #6C4824",
"> c #744C28",
", c gray25",
"< c #484848",
"1 c gray33",
"2 c gray36",
"3 c gray44",
"4 c #880000",
"5 c #980000",
"6 c #A40000",
"7 c #A80000",
"8 c #B00000",
"9 c #BC0000",
"0 c #C80000",
"q c #D40000",
"w c #E00000",
"e c #EC0000",
"r c #FC0000",
"t c #B45400",
"y c #80502C",
"u c #885830",
"i c #905C34",
"p c #9C6038",
"a c #A0643C",
"s c #A86840",
"d c #B47044",
"f c #BC7848",
"g c #FC4040",
"h c #C87C4C",
"j c #D08050",
"k c #DC8854",
"l c #E88C58",
"z c #F0945C",
"x c #FC9C60",
"c c #FCA470",
"v c gray55",
"b c gray66",
"n c #B4B4B4",
"m c #FC9C9C",
"M c #FCB080",
"N c #FCB890",
"B c #FCBC9C",
"V c #FCB8B8",
"C c #FCC4A4",
"Z c #FCCCB0",
"A c #FCD4BC",
"S c #FCD8C4",
"D c #FCE0D0",
"F c #FCE8DC",
"G c #ECECEC",
/* pixels */
"<1<yyupppppppppppppppppppppppuyy<1<yyupppppppppppppppppppppppuyy",
"<1<:ppppppppppppuuuupupupupupup:<1<:ppppppppppppuuuupupupupupup:",
"<1<:ppu###############**=------=*.@#########################upu:",
"<1<:uup############@#*=-;;;;;----=X..@@@####################:yu:",
"<1<:upu##########@#--;;>uaaaiu>>>:-*X..@@###################:uy:",
"<1<:upu###########;:yyifzcckkfffffi:***..###################:uy:",
"<1<:uup$$$$$$##%#>iifzNCSSSGFFDFFFMMfa;**..#$$#$#$#$#$#$#$##:yy:",
"<1<:uuu$$$%$$$%&:akBZADDDDDDFFFFDDSZBNkay-X @#$$$$$$$$$$$$$#:yu:",
"<1<:uuy%$%$%$%$&akMZASSDDDDDFDDDDDACBNNcja- X #%$%$%$%$%$%$$:yy:",
"<1<:yyu%%%%%%&&skBZAAAASDDDDDDSSZZZAZCBNcjs: . @#$%%%%%%%%%$:yy:",
"<1<:y:y&%&%&&4pzNZZAAAAASDDDDSAZZAAAAZCNckfp:   @#$&%&%&%&%%-yy:",
"<1<::::&&&&&44jMBZZZAAAAADZDAAZBNNBCZAAAMckfay=  +#%&&&%&&&%=yy:",
"<1<:y:y4&4&44pcCBZZSSSSSZDCDZBMzffkNBADDBchsspy-X @%&&&&&4&&-:::",
"<1<====444455jBBCZZSSSSSCSMMcfi>:;>spsdjBkfppps:=X $&&&&4&4&.===",
"<<Ooooo54555pBBCCZZZZNcZZSBzi:=**::ppu>:upsu>uay:* @$&&444&4oooO",
"<<<<<<<45555jBCCCZCjdafNSFNf;X**;ihjdu:;-==;;:iy:=. @%444444O<<<",
"11111115565pcBCZZkp>::izFFBf-*=-yu>:;**==--=-;>>>:X  #&54545,111",
"ppppppp5668jMCZxkp:---=fFFBj-=-;;;yX*=XX**=-=;::>;X   &45555:ppp",
"uuupupu656tzBBZNclu:>:-fFFBj=*X*uxdu>:-==**=-=:::-X   %45656:uuu",
"uuuupup568dcBBZNchau;;=fFFBf=X:dcBBBBxay>:;---::;=XX  #46665:uuu",
"uuupupu66ujNBBNlu--y::>zFFNfy>sMZZBxljfffspiuuy:;=XX   &5656:uuu",
"puyuuuu68ykNBBl:>*;jijMBAZchadjzMZBSAAAAAAMzjpy:-=X    %6666:upp",
"ypyyuyu8uyzNBlu-:dzNBBCZZZzsdMcdfNASSAZZBMcxkdu:-=X    #6666:pyy",
"uupuuup6yyxNMa>acMNNAAZCNfu:yuiyicBBBBBMMMczjsu:==X     4666:puu",
"puyuuuu8:ycBBsfNMNZAAZCMy:-XX****uBCBBMcxzljdpy;==X     &868:upp",
"ypyyuyu8;ycBMkcNZZZACMdy-***X  X*X;BBMcxlkhfay:;==X     $686:pyy",
"yyyyyuy8;ycCNBZZSSABza:X  XX      .iccxzkjdsu:;-=*X     .868:yyy",
"yyuyuyy8;ycCCCZSSSZcs;*X          ..aczljddi:;-=**X.    .588:yyy",
"yyyyyyy9;ycCZZASSANd:XXX X        X.*djkhdp>;-=****.    .488-yyy",
"y:y:y:y8:ycCZZASAZzy-d  X XXX      ..*sfspu:;-=**XXXX   .488=yyy",
"yy:y:y:9yyzBZZASANf:=: X**=*XXXX   X..;asau:;-=**XXXXX=**&89:yyy",
"=======9iyjNZCAAANs-==**=*X uX     XX.Xufdpy;-=**XXX*=*XX*&8.===",
"ooooooo90ydMZZAAZM>X:*XXXu-  X X   XXXX:fkdu:-=**XXX=*X.. X9oooo",
"<<<<<<<99ysMZZZZZz;X*X=-*  XXX    X*XXX;akhi:-=**XXXXXX*X X9O<<<",
"111111109ypcCZZZCk:Xy=-==-= *=X    X*XX;ikjp:-=**XXXXXX** .0,111",
"<1<yyup90iycBCZZCz;Xsucd* O3v2OoO   XX*=ihka:-=**XXXX* **..9:uyy",
"<1<:ppp09pycBZZZCcs*Mzzi ,XX        XX*;ihka:-**XXXXX= **..0:up:",
"<1<:ppu000yzNZZZZMp-BZc;             X*-udjp:-**XXXXX-X*X..0:pu:",
"<1<:uup000yzNZZZZMfaZSz              *==usdu;=**XXXXX- XX %0:yu:",
"<1<:upu00flcNZZAAZzjZSk    +++++++  *;-;ida>;=**XXXXX=**X &0:uy:",
"<1<:uupq0lijNZZAAZBBSSf  ++@+@%5%@+ -:;;dkfy;=*XXXXX*==*X.50:yy:",
"<1<:uuu0qjysMZZAAZMCASf  +%%#@@#@++Xy>:ucczi;=XXXXXXX**X.%00:yu:",
"<1<:uuyq0h::cCZAAScMZZf ++#@++<3>;>uu:ukBNzi;=XXXXXX XX.X60q:yy:",
"<1<:yyuqqf::jMCZAZcMMAM; :bndfzZckdy::aMZBci;=XXXXXX  X%60q0:yy:",
"<1<:y:yqqfu>jNZZZSMxcCScdfMNSBCBchi:*;pcZBci;=*XXXXX XX60qqq-yy:",
"<1<::::qqfjdhNCZZZZMcZASZZSSSZBxza:-=;ujBNky-=***XXX X90qqqq=yy:",
"<1<:y:ywqfjjkMCZZSSCMCSSSASSZZZCchi:;:ujBMf:=***XXXXXXqwqwqw-:::",
"<1<====qwwfzzcMZZZSZZMDDSSSSSSAACcjp>udcCcp-****XXXXX&qqqqwq.===",
"<1<OooowqwdffzMZZZSSAADDDSSSSDDAANzhdhcMNh>=***XXXXXX4qwqwqwoooO",
"<<<<<<<wwwwssfkBZZASASDZASSDDDDACBckkzccji;******XXX$7wwwwwwO<<<",
"1111111wwwwaa>fcCBZZADDDZADDDDDACNzkkkks>-XX***XXXX.&0wwwwww,111",
"pppppppwwwei>-jlNZBCZSDDDZZADDSCCNzjfdp:-*X.X*XXXXX@4wwwwwww:ppp",
"uuupupuewewewrdjcBZBCZSDDDZAAACZBckfp>;=*..X**XXXX*#7ewewewe:uuu",
"uuuupupeewewewrdjcCZNBCZSSAAZZBMcjsy;=X.. .X**XXXX*$7wewewew:uuu",
"uuupupuewewewewsdjcZZMBCZZCNMckfsu:-*.. ..X**XXXX**$7ewewewe:uuu",
"uupuuupeeeeeeeersdjcZZMMNMzjfdi>;-*.. ..XX**XXXX***;7eeeeeee:puu",
"puyuuuueereeereesfdjcMMcjsu:;;-=X..  XX****XXXX****:hgeeweee:upp",
"ypyyuyueeeeeeeeeesfdkzxzja>=*XX...X******XXXXX*****Xmmeeeeee:pyy",
"yyyyyuyrererereresdfdfjhhd>--=====*****XXXXXX***** DVmereree:yyy",
"yyuyuyyerrrerrrerrsdfdddfaa;=**==***XXXXXXXX*****iDDZmrerere:yyy",
"yyyyyyyrerrrerrreraadffddpi;*=*XXXXXXXXXXX***X*dBASZDhereree-yyy",
"y:y:y:y::=-=:-=O,O====-=-=:=:-=:-=-=-=-=:=-=:-=O,O====-=-=:-=yyy",
"yy:y:y:y:y:y:::<1<:y:y:yyy:y::yyyy:y:y:y:y:y:::<1<:y:y:yyy::yyyy",
"===============<1<=============================<1<=============="
};
