/* XPM */
static char *out[] = {
/* columns rows colors chars-per-pixel */
"64 64 11 1 ",
"  c #302410",
". c #202020",
"X c #2C2C2C",
"o c gray22",
"O c #403018",
"+ c #483818",
"@ c #543C1C",
"# c #6C4824",
"$ c #484848",
"% c gray33",
"& c #80502C",
/* pixels */
".X.@##&&&&&&&&&&&&&&&&&&&&&&&##@.X.@##&&&&&&&&&&&&&&&&&&&&&&&##@",
".X.O&&&&&&&&&&&&####&#&#&#&#&#&+.X.O&&&&&&&&&&&&####&#&#&#&#&#&+",
".X.O&&#&&&##&########&#&#&###&#+.X.O&&#&&&##&########&#&#&###&#+",
".X.O##&##&&#########&#&#&######+.X.O##&##&&#########&#&#&######+",
".X.O#&####&#####&##&###&#&#&###+.X.O#&####&#####&##&###&#&#&###+",
".X.O#&####&#####&##&###&#&#&###+.X.O#&####&#####&##&###&#&#&###+",
".X.O##&########&#&########&####+.X.O##&########&#&########&####+",
".X.O###&########&#&############+.X.O###&########&#&############+",
".X.O####################&######+.X.O####################&######+",
".X.O#@#@####@####@####@###@##@#+.X.O#@#@####@####@####@###@##@#+",
".X.O#+@#@+#@#@#@@#@@#@###@#+@#@+.X.O#+@#@+#@#@#@@#@@#@###@#+@#@+",
".X.O+++@+@+#+#@+#@+@+@+@+#+@+#@+.X.O+++@+@+#+#@+#@+@+@+@+#+@+#@+",
".X.O@+@+@@@+@++#@@@+@+@+@+@+@+++.X.O@+@+@@@+@++#@@@+@+@+@+@+@+++",
".X.                             .X.                             ",
"................................................................",
"................................................................",
"XXXXXXXXXXXXXXXXXXXXXXXXXXXXXXXXXXXXXXXXXXXXXXXXXXXXXXXXXXXXXXXX",
"&&&&&&&&&&&&##@.X.@##&&&&&&&&&&&&&&&&&&&&&&&##@.X.@##&&&&&&&&&&&",
"###&#&#&#&#&#&+.X.O&&&&&&&&&&&&####&#&#&#&#&#&+.X.O&&&&&&&&&&###",
"####&#&#&###&#+.X.O&&#&&&##&########&#&#&###&#+.X.O&&#&&&#######",
"###&#&#&######+.X.O##&##&&#########&#&#&######+.X.O##&##&&######",
"&########&####+.X.O##&########&#&########&####+.X.O##&######&#&&",
"#&############+.X.O###&########&#&############+.X.O###&######&##",
"##&###&#&#&###+.X.O#&####&#####&##&###&#&#&###+.X.O#&####&###&##",
"&########&####+.X.O##&########&#&########&####+.X.O##&######&#&&",
"#&############+.X.O###&########&#&############+.X.O###&######&##",
"#######&######+.X.O####################&######+.X.O#############",
"@####@###@##@#+.X.O#@#@####@####@####@###@##@#+.X.O#@#@#######@@",
"#@@#@###@#+@#@+.X.O#+@#@+#@#@#@@#@@#@###@#+@#@+.X.O#+@#@+#@#@@##",
"@+@+@+@+#+@+#@+.X.O+++@+@+#+#@+#@+@+@+@+#+@+#@+.X.O+++@+@+#@+#@@",
"@@+@+@+@+@+@+++.X.O@+@+@@@+@++#@@@+@+@+@+@+@+++.X.O@+@+@@@++#@@@",
"               .X.                             .X.              ",
"................................................................",
"................................................................",
"XXXXXXXXXXXXXXXXXXXXXXXXXXXXXXXX.X.XXXXXXXXXXXXXXXXXXXXXXXXXXXXX",
".X.@##&&&&&&&&&&&&&&&&&&&&&&&##@.X.@##&&&&&&&&&&&&&&&&&&&&&&&##@",
".X.O&&&&&&&&&&&&####&#&#&#&#&#&+.X.O&&&&&&&&&&&&####&#&#&#&#&#&+",
".X.O&&#&&&##&########&#&#&###&#+.X.O&&#&&&##&########&#&#&###&#+",
".X.O##&##&&#########&#&#&######+.X.O##&##&&#########&#&#&######+",
".X.O#&####&#####&##&###&#&#&###+.X.O#&####&#####&##&###&#&#&###+",
".X.O##&########&#&########&####+.X.O##&########&#&########&####+",
".X.O###&########&#&############+.X.O###&########&#&############+",
".X.O####################&######+.X.O####################&######+",
".X.O#@#@####@####@####@###@##@#+.X.O#@#@####@####@####@###@##@#+",
".X.O#+@#@+#@#@#@@#@@#@###@#+@#@+.X.O#+@#@+#@#@#@@#@@#@###@#+@#@+",
".X.O+++@+@+#+#@+#@+@+@+@+#+@+#@+.X.O+++@+@+#+#@+#@+@+@+@+#+@+#@+",
".X.O@+@+@@@+@++#@@@+@+@+@+@+@+++.X.O@+@+@@@+@++#@@@+@+@+@+@+@+++",
".X.                             .X.                             ",
".X..............................................................",
"................................................................",
"XXXXXXXXXXXXXXXXXXXXXXXXXXXXXXXXXXXXXXXXXXXXXXXXXXXXXXXXXXXXXXXX",
"&&&&&&&&&&&&##@.X...............................X.@##&&&&&&&&&&&",
"###&#&#&#&#&#&+.X...............................X.O&&&&&&&&&&###",
"####&#&#&###&#+.X...............................X.O&&#&&&#######",
"###&#&#&######+.X...............................X.O##&##&&######",
"##&###&#&#&###+.X...............................X.O#&####&###&##",
"&########&####+.X...............................X.O##&######&#&&",
"#&############+.X...............................X.O###&######&##",
"#######&######+.X...............................X.O#############",
"@####@###@##@#+.X...............................X.O#@#@#######@@",
"#@@#@###@#+@#@+.XXXXXXXXXXXXXXXXXXXXXXXXXXXXXXXXX.O#+@#@+#@#@@##",
"@+@+@+@+#+@+#@+.XoooooooooooooooooooooooooooooooX.O+++@+@+#@+#@@",
"@@+@+@+@+@+@+++.X$$$$$$$$$$$$$$$$$$$$$$$$$$$$$$$X.O@+@+@@@++#@@@",
"               .X%%%%%%%%%%%%%%%%%%%%%%%%%%%%%%%X.              "
};
