/* XPM */
static char *out[] = {
/* columns rows colors chars-per-pixel */
"64 64 17 1 ",
"  c black",
". c #202020",
"X c #2C2C2C",
"o c gray22",
"O c #484848",
"+ c gray33",
"@ c #646464",
"# c gray44",
"$ c #7C7C7C",
"% c #A40000",
"& c #B00000",
"* c #BC0000",
"= c #C80000",
"- c gray55",
"; c #989898",
": c gray66",
"> c #B4B4B4",
/* pixels */
"oooooooooooooooooooooooooooooooooooooooooooooooooooooooooooooooo",
"o++++++++++++++++++++++++++++++++++++++++++++++++++++++++++++++o",
"o++@@@@@@@@@@@@@@@@@@@@@@@@@@@@@@@@@@@@@@@@@@@@@@@@@@@@@@@@@@@@o",
"o+O$$$$$$$$$$$$$$$-$-$-$----;-;;;;;----$-$-$-$$$$$#$#$#$##@##@@o",
"o+O$$;>;$$$;>;$-$;>;$------;-;;;-;----$-$-$-$$$$$#$#$#$##@#@@@@o",
"o+O$$#;>$$$#;>-$-#;>----;-;;;;;------$-$-$-$$$$$#$#$#$##@#@@@@@o",
"o+O$$+#;$-$+#;$-$+#;---;-;;;;-------$-$-$-$$$$$#$#$#$##$--#@@@@o",
"o+O$$$-$-$-$-$------;-;;;>@+OOOOOOOOOOOOOOOOOOO+@;-$####;-@@@@@o",
"o+O-$-$-$-$--------;-;;;;;>+++++++++++OOOOOOOOO+;-$####+#$@@@@@o",
"o+O$-$-$--------;-;;;;;;;-;>###@#@#@#@#@@@@@@@+;-$####@#@@@@@@@o",
"o+O-$-$--------;-;;;;;;;--;>$#@#@#@#@#@@@@@@@+-;$######@#@@@@@@o",
"o+O$--------;-;;;;;;;;;----;>$#@#@#@#@@@@@@@+-;-#$####@#@@@@@@@o",
"o+O-----&--;-;;;;;;;-;------;>$#@#@#@@@@@@@+#;-#$####@#@@@@@@@#o",
"o+O----&&=;;;;;;;$$-;------$-;;@#@#@@@@@@@+@;-#$####@#@@@O@@@@@o",
"o+O---&***=;;;;;;:@$----;>;-$-:#@#@@@@@@@+@-;#$##$--#@@@+O@@@@#o",
"o+O-;=*****=;;;;->$@----#;>$-$-:#@@@@@@@+@-;-$####;-@#@++O@@@#@o",
"o+O;=*******=;;;->#+@---+#;-$-$-:#@@@@@+@-;-$####+#$#@@ooO@@@@#o",
"o+O;;;;;;;;;;-;-->#@+@-$-$-$-$-$-:#@@@+@-;-$######@#@@oOoO@@@#@o",
"o+O;;;;;;;;;-;--->##@+@-$-$-$-$$$-:@@@@+;-$######@#@@+OOoO@@#@#o",
"o+O;*******&%---->###O+$-$-$-$$$$$:#@@+-;$######@#@@+OOOoO@@@#@o",
"o+O;;*****&%----->##@#O@$-$-$$$$$$-:-+-;-#$######@#OoOOOoO@@#@#o",
"o+O;;;**&&%------>#@#@OO@$-$$$$$$$$-:-;-#$######@#OoOOOOoO@#@##o",
"o+O;;;-&&%------->@#@#@OO@$-$$;:;$$#-:-#$#$--##@#@oOOOOOoO@@#@#o",
"o+O;;-;-%-------->#@#@#@OO@$$$#;:$#$#$#$###;-#@#@oOOOOOOoO@#@##o",
"o+O;-;----------$>@#@#@#@@O$$$+#;#$#$#$###+#$##@+oOOOOOOoO#@###o",
"o+O-;-;;::::-$-$->#@#@#@#@O@$$$$#$#$#$########@@oOOOOOOOoO@#@##o",
"o+O;-@-----:$-$-$>@#@#@#@@OO@$$#$#$@#$$$$####@@oOOOOOOOOoO#@###o",
"o+O--@-----:-$-$->#@#@#@@@@@O@#$#$#oO+@@$###@@+OOOOOOOOOoO@####o",
"o+O--+-----:$-$-$:@#@#@@@@@@@O$#$##oOXX@$##@#+oOOOOOOOOOoO#@###o",
"o+O--+@$$-#:-$-$-:#@#@@@@@@@@O@$#$+oO X+$###@oOOOOOOOOOOoO@##$#o",
"o+O--+@$$;-:$-$-$:@#@@@@@@@@@OO#$#+XOX O$##@+OOOOOOOOOOOoO##$#$o",
"o+O--O@##$$;-$-$-:#@@@@@@@@@+@#$##oXOX O##@#$@OOOOOOOOOOoO@##$#o",
"o+O-$O@@###;$-$-$:@#@@@@@@@+@#;-$@O.OOOO@@#@-$OOOOOOOOOOoO##$#$o",
"o+O$-O+@@@#;-$-$-:#@@@@@@@+@#;-$#@o..XXo+#@#$-$OOOOOOOO+oO#$#$#o",
"o+O-$O@++@--$-$-$:@@@@@@@+@#;-$###ooOoo+#@#@@$-$OOOOOOOOoO##$#$o",
"o+O$-O-----$-$-$-:@@@@@@+@+#;$##########@#@@@@$$@OOOOOO+oO#$#$#o",
"o+O-$OOOO++#$-$-$:@@@@@+@+#;$##########@#@@@@@@$$OOOOO+OoO$#$#$o",
"o+O$-$-$-$-$-$-$$:@@@@@@+#;-##$--#####@#@@#-$@@$-$OOOOO+oO#$#$#o",
"o+O-$-$-$-$-$-$$$:@@@@@+#;-####;-####@#@#@#--@@@$-$OOO+OoO$#$#$o",
"o+O$-$-$-$-$-$$$$:@@@@+#;-#$##+#$###@++#@@+##@@@@$-$O+O+oO#$#$#o",
"o+O-$-$-$-$-$$$$$:@@@+@-;#$########@+OX+@@@@@@@@@@$-OO+OoO$#$#$o",
"o+O$-$-$-$-$$$$$$:@@+@-;#$########@+O+oO+@@@@@@@@@@$-+O+oO#$#$#o",
"o+O-$-$-$-$$$$$$$:@+@-;-$#########+O+O+oO@@@@@@@@@@$;-++oO$#$#$o",
"o+O$-$-$-$$$$$$$$:+@#;-$#########@++O+OOX+@@@@@@@@@@-;#+OO#$#$#o",
"o+O-$-$-$-$$$$$$$:@+;-$#########@+OO+OOOoX+@@@@@@@@@#-;+OO$#$#$o",
"o+O$-$-$-$$$$$$$#:+#;$#########@+OO+OOOOOoO+@@@@@@@#@#;##+#$#$#o",
"o+O-$-$-$$$$$$$#$:#;-##$--####@+@O+OOOOOOOoO+@@@@#-$#@-;-@$#$#$o",
"o+O$-$-$$$$$$$$$#:;-####;-####+O++O+OOOOOOOoO@@@@#--@##-;##$#$$o",
"o+O-$;>;$$$$$$$#$:-####+#$###@+++O+OOOOOOOOOX+@@@+######-#$#$#$o",
"o+O$-#;>$$$$$$#$#:#$########@+O+O+OOOOOOOOOOoO+@@@@#@##$#$#$#$$o",
"o+O-$+#;$$$$$#$#$#$########@+O+O+OOOOOOOOOOOOoO+@@#@####$#$#$#$o",
"o+O$$$$$$$$$#$#$#$#########+@+O+OOOOOOOOOOOOOOoO@#@####$#$#$#$$o",
"o+O$$$$$$$$#$#$#$#########@++++O+OOOOOOOOOOOOOOX+@#@####$#$#$$$o",
"o+O$$$$$$$#$#$#$#########@+O++O+OOOOOOOOOOOOOOOoO+@####;>;#$#$$o",
"o+O$$;>;$#$-;;$##$--#####+#;;;;;----------------#O######;>$#$$$o",
"o+O$$#;>#$##;;####;-########@#@@@@@@@@@@@@@@@@@@@#@####+#;#$#$$o",
"o+O$$+#;$#$+#-###+#$#########@#@@@@@@@@@@@@@@@@##@####$#$#$#$$$o",
"o+O$$$$$#$#$################@#@@@@@@@@@@@@@@@@@#@####$#$#$#$#$$o",
"o+O$$$$#$#$#$##############@#@@@@@@@@@@@@@@@@@@@#@####$#$#$#$$$o",
"o+O@@@@@@@@@@@@@@@@@@@@@@@@@@@@@@@@@@@@@@@@@@@@@@@@@@@@@@@@@@@@o",
"o+OOOOOOOOOOOOOOOOOOOOOOOOOOOOOOOOOOOOOOOOOOOOOOOOOOOOOOOOOOOOOo",
"o++++++++++++++++++++++++++++++++++++++++++++++++++++++++++++++o",
"o++++++++++++++++++++++++++++++++++++++++++++++++++++++++++++++o",
"oooooooooooooooooooooooooooooooooooooooooooooooooooooooooooooooo"
};
