/* XPM */
static char *out[] = {
/* columns rows colors chars-per-pixel */
"64 64 12 1 ",
"  c gray19",
". c #343434",
"X c gray22",
"o c gray25",
"O c #484848",
"+ c #4C4C4C",
"@ c gray33",
"# c gray36",
"$ c #646464",
"% c gray44",
"& c #7C7C7C",
"* c gray55",
/* pixels */
"$$@@@$&&%%&%$#@OoOOOO+@@#$$$$#$$$$#@O@@#$$$$%%$$$$%&%%$$@@@@@@$$",
"%%$@@$%%#$%$@@OooOOooO@@#$$$###$@@@+O@@#$%%&&&%$$$%%%%$%$$@@@$%%",
"&&$@@$###$#@OooO@+Ooo+@###$@@@@#@++OO@#$%%&**%%%%%$$%%%$%$%@@%&&",
"%$@@@@@@@@@OoO@@@@+OO@@##@#@+oo@@+Oo@#$$%&&*%$$&&%$$%$$##%$@@%&%",
"$@O@@@OOooooO@@#$$$$$$#@@@OOOooOOooX@$$$%%&&$%%*&%%%$$#@@##$@%%&",
"@Oo@#@@OOOOO@#$$%$%$%$$$#@@@OOOOOoX@#$%%$%&%%$%&&%%%%#@@++@#@$%$",
"oXX@@#@@@@@@#$$%$&&%$%@@$#@@@@@@@@@@#%&&$%%%$%%%$%&%$#@@+OO@@o@@",
"XX@###@#@@@#$%$$&**&%#OO@$#@##$$$#@@$%&&$$%$%$$$$&*&$$$#@OOO@ooX",
"@@$$$##@##@$$$%%&**&&##O@##@#$%&%$O@$$%%$###$#@@$%&%#@#$##OOOO@@",
"@$%$#@O@###$$%%&%$&*&%##%##@#$&*&#O@$$$$$#@@#@++@#$$@+@#%%+OOoOO",
"$%&&@O@o@@$$##$%$%%&%$%%%$##@#%&%@O@$$$$#@@O@@++++#$@@#$%%$+Ooo@",
"$$%$#@Oo@#$%#O$$%$#$$%%&%$##@O#OO@O@#$$$#@OO@#@+@@#$$##$$$@+OXX@",
"@$$$$ooo@#$&&%$###@#$###$$$#O@@OXOO@@#$$#@oO@$$#+o@%@@+O@@@+OXX@",
"@+$$@OOo#$%*&%$@@##$#@@@@@#@O@OOOO@@@@++@ooO#$$#++@$$OOOO@+OooX@",
"O@+oOOoO#$%&&$#@O@$%@@+O+@+@O@@@@@@@@@++@XX@@$$@@@#%$OOO@+OOoooO",
"@@OooooO#$$%$$#@@#$$@+OoO+@@@@@@#$$#@OoOoXXo+++@++@+@+ooOOOoXXX@",
"@OO+OOO@#$$####$$$$$#@O.oOOOO@@$&&$$@OooXXXooo+oo+@OOooooOoXXXo@",
"@+@@@@@@#$#@@@@@#$#@@@+Oo..o+@#$%%$$O@ooooooooooo@OOooXXXXXXoXO@",
"$%%$$$@+@##@+OO+@#@+O+@OO..o@##$$$#OOX@+OoXXXXXooOOOXXXXXXXXOO@$",
"%%%$$$$@++@+oooO@@@+OOOOooo+$$$$#@@#OX@@@+OoXXXoooOXXXoooOO@@@$%",
"&&%%%%%$++@o..oOO+@@@OOooo+@$%%$@@@OXO@++@+OOXXXooXXXXO@@@@@@@$&",
"%&&%&&%$@@@o..oooOOOOOooo+@$$%&$$#OXXO+ooO+@@OXXXXXXXO@@#$$$$$&%",
"$%&%&&%+o@+OO@+++ooooo++@@#$$%%@@OXXo@+ooO+@@@OXXXXo@@@#$$%&&&%$",
"$&&%$%@@oO+OoO+@@+oo++@OO+O#$$@O@oXoO@@OO+@@##@OOOOO@@#$$$&*&&%$",
"%&%%$$@@Xo@OO+@$$$$%$$@OO@OO#@@@OXoO@####@@@##$&%$@Oo@$$%%&&&%&%",
"&&%$@+++XO@@@$$%%&&$$%$@@++ooOOoXoO@#$$$$##@@@$%%@@Oo@$%&&&%%&%&",
"&&&@+oo+oO@@$$%$&**&%$$%@@@oXXXXOO#$$$$$$$$$#@@$O@@Oo#$%&*%$%&&&",
"&%&@+oXXoO@$$%&*&**&%%$$$@+@OOOO@#@@$%%%$$%%$$@@oooo@$$$%%$$$%&&",
"%$%@+oX. @$$%$&&@@&%$$%$$@@+++@@#$@@$%&%%%&%$$$$@oo@#$%$$$#@@$$%",
"+@$$@+o.o$$$##%%@@%$%##$#O+OO@#$$$%$$$$&&&%&%#$$$@@@#$$$#@#@@$$@",
"oo+@@+oX@$$%%#$$##$$#@@#Oo@Oo#$%$%$$#%%&*&%&%$$$$$@@#$$@@++@#+++",
"XXo++ooO$$%*&%$#@@#$@OOooX@++$$$$%$%%%@@%%&%$##%%$$@@##@+++#+o@O",
"XXooooO@$$%&&%$@OO@@@OoXXO@@#$$%%%%$%%@@$$%%$#$%%$$@@@#@@o@+oXo+",
"@@OOO@@@##$%%$#OoXO@#@OXO@@#$$%&&%&%&%%&%#$$$#$%%#$OO@@+++ooo@@@",
"%%$$##@@O@#@@$#OOO@#$#@XO@#$$%%&&$%&&&&&%$#@+@$$#$#OO@@@@++++$%%",
"&&%$$##@OO@OO@$#@@#%%$OO@#$$$$%%$$&&**&%&%#+O@##$#@#O@@++@@@@%&&",
"&&%$$$##@oooO@$@@#$$#@O@#$$%%%@$$$%&**%&%%$+OO$$####OO@++$$$$&&&",
"%&%$%&$#@oXo@#@OO@@@OX$#$$%%%%%#@@%%&&&%%%$%$%$%+@##OO@$%&%$$&&%",
"%&$#%%##OOooO@@ooOoXXX@$$%&&%$%#@@$%&&%$#$%&%$%$OOO@@O@$%%%#$%&%",
"&%$##@@#OOOOoooXXoXXoO#$$%*&%OO#$$%$$%%$#$%&%%#+OXO+@O@$$$$@$&%&",
"%$#$@++@+O@+OooXXXXo+@$$%$%%@OO$$##$####$#$%$@@#OOoooO@####@$%%%",
"##+$@oooOO+++OOoooo+@#$%$%$%$%$$#@#++#@@@#$$$++##OoXXO@@OO@@@$$$",
"oo+$#o..oo@++@+++++@@$$$%#####$$##$++@++@##@+OO##@oXXO@@OOO@@O%@",
"oooOOO. oo@@$%$@@@@+@$$##@@@@##%$%%#$$++@@@@+OoOooooo@OO@O@$$@O+",
"+OOOOooooO@$%*&$$$@@@$$#@@+++@#$%&&%$%@OOoOoOoO@oXXoO@OO@@&&$#@+",
"@@@@@@OOO@@$%&%$%&$@$###@OooO@#$%&*&%$@Oooooo@@@oXXoO@$$$&**&$#@",
"$$####@@@@@$$@@@&&$O$@@#+OoXO@$$%%%%%@@OoXXXo@ooXoXO@$$%%&&*&%%%",
"%%%$%$#@@@@$$OO@$%$o@@@@++OO@#@$$$$$$@##XXXXoOoXXXXO$$$%%$&&%&&&",
"@$%%%%$#@@@@@OO@$@@o@$++@++@###@#@#@@O##oXXXoooXXXo@$$&&&$$$%&&$",
"@$%%%%%$##@oO@@$$@Oo@@O+@@@@##OOO@+Oooo+oXXXXoXXoOO$%%&**&%%%%$@",
"$%#$$&%%$#@OoO@@@@oO@@O++O@@@@oooO@OoXXOOooXXXXXo@$%$%&**&%%$%%%",
"%%##$%%%%$#@OooooooO@+OOooo+OOoXXoOOOXXoooooXXXoO@$$%%&&&&$$%&&%",
"&%##$%&&%%%#@@OoooO+@+OOoXXoOooXXoOO@OXXXoXXXXoOO@%%$$%%%@@#$&**",
"$$#$$%&&$%%###@+OO++O@+OOXXXXoooooooOoXXXXXoOOOO@$%$$$$&&@O#$&*$",
"$%%$%%%%$$$$$##+ooO@@@+OOOXXXXXXXXXXoXXXooOOooO@#%&&$$%&&$@@$%&$",
"%%$$%%%$$%$##$#@oo@####@@@OoXXXXXXXXXXooO@@OooO#$%&&%$%%%$##$%%%",
"%%$#$#$$%%%#@++@@@##$$$$#@@@OoXXXXXXoOO@@@o@OO@#$%%%$%$$$$%%%##$",
"&$$$#$#$%%#@+OO@@##$$%$%$$$#@@OOooooO@#####@@@@#$$$$%$##$$%&%%&&",
"&&%#$##$$%#+OooO##$$%$*&%$%$%#@@OoXo@##$$%$%#@@@##$%$#@@$%%%$$$&",
"&&%$#@@##$#+ooXO#$%&$%&&%OO%$%##@OoO##%$%$%$$$@@#@#$$@O@$%%$##$&",
"%%%$#@@#$$#@oXXO#$&*%$%%$OO##$$$#@@##$$%&&%%OO$@@+@##ooO$%$#@#$%",
"%%$$@OOO##@OoOO@#$%&##$%%##@+@#$$@@#$$%&**%$OO$$@++OOo O#$$#@@#$",
"@@$$@Ooo@OooOOO##%$#@@$%$#@@++#$#o##$%$&**%$%%$$@+OooO++@###@@%#",
"O@@$OoXX@OoX@@@#$$$#@@#$%#@++@#$#o#$$$$$%%$$$$$$@$+oooo++++++@@@"
};
