/* XPM */
static char *out[] = {
/* columns rows colors chars-per-pixel */
"64 64 24 1 ",
"  c black",
". c gray11",
"X c #202020",
"o c #282828",
"O c #2C2C2C",
"+ c gray19",
"@ c #343434",
"# c gray22",
"$ c gray25",
"% c #484848",
"& c #4C4C4C",
"* c gray33",
"= c gray36",
"- c #646464",
"; c gray44",
": c #7C7C7C",
"> c gray55",
", c #989898",
"< c gray66",
"1 c #B4B4B4",
"2 c #C0C0C0",
"3 c #D0D0D0",
"4 c gainsboro",
"5 c #ECECEC",
/* pixels */
"OOOOOOOOOOOOOOOOOOOOOOOOOOOOOOOOOOOOOOOOOOOOOOOOOOOOOOOOOOOOOOOO",
"**********%4444444444444444X#><233333322<>*X%%%%%%%%%%**********",
"**********%433323333332333>X#>21><>>>>>><*#X#;>>>>>>:;-%%%%%%%%%",
">>>>>>>>X*%43213132132213>-X#<4<><><><><>*#X#>44444421<>>>>>>>>>",
"34331<>>X*%43<<<<><<<<,<<:*X#>2>>><<<<>>;*#X#>442223444443333333",
"<<<<<<:;X*%52,<<<<<<,<><<;*X#%<><<>><><;**#X#>41<><><<<>><><><>,",
"1,<,<>:;X%%53<><,<>,,,>,<>*X#%:>><><<><;###X#>41><>,>>><>>,,<,><",
"11:1>,-*X#%53>,><<<>:>,<>-*X#%%><<<>>><;###O#>41<>,:<,:><><<>:<,",
",<<,,;%%XO%22<,<><>,>,>><;*XX%*%:#########XO#:44><>:,:,><>,:<<:>",
">>>>;*%%XO%<5<<<>>,>>>><>*:OX#%#########XXX%%%23>>>,,,,>><><<><>",
";;;;*%##XO                       .                     ;;-------",
"**%%%XXXXO . . . .. . . . . . . .  . . . .. . . . . . .**%%%%%%%",
"XXXXXOOOO#  .  .    .  .  .  .   .  .   .   .  .  .  . ####OOOOO",
"OOOOOOOOO# .  .  .   .   .  .  .   . . .  .   . .  .   OOXXXXXXX",
"##########.  .    . .  .  .   .  .   .  .   .    .   . #########",
"*%########    . .    .  . #,<<<<<<<<<>O. . .  .  . .   %%%%%%%%%",
",,,,,,,,,O .   .  .   . :<<$         =<<- .  . .    . .,,,,,,,,,",
"33333311;#  . .  . . .$<>  . . . . .  . ><> .   . .    444444444",
"<,><><<;;# .    .   . <, .    .   .  . . <<%  .    . . 111111111",
"<><><>>;;#  . .   . #<@ . . .   .   .   .  <>  . .    .,<,<>,>,,",
"<,><><<;*# .   .   %< .  :<   .  . . . .  . ,,    . .  ,>,>,::>>",
"<><><>>;*#  . .  .,<.  211< .  .    . :% . . <; .    . ,<,<>,>,,",
"><::>><;*# .   . =<#  .<111  .   . -11<.   .  1@ . .   ,>,>,::>>",
">>::><>-%#  .    <. .  1111 .  .  .<<11 . . . X1.   . .><><>::>,",
">><<>>>-%# .  . >>   ..111:  .  .  <11<  .   . ,: .    ,>,>><><>",
",<>><>;*##  .  ., .   *<11*.   .  .<111.   .  . 1  . . ***--;:>>",
"-----*%### .  .&,  . .;<11o  .   .o<<<>  .  .   ,*    .%%%%%%***",
"*%%###XXXX  .  >; .   ><<1  .  .  =<<<- . .   . +<. .  XXXXXX##%",
"XXXXXXOOO% .  ., .  . <<11..X><  .=<<1&  .  .  . <   . ###OOOXXX",
"%--;>,>>>>  .  <   .  <<11<1<<< . ><<<. .  .  .  < .   ******###",
"->1444333< .  .< .   .<<111111<   <<<< .=1<  .  .<  . .>-*%%%%%*",
"-13321<<,<   .O<   .  <111111,:. .,<,<1111<   .  <.    444444,#*",
"-41<<><,<> .  @< .  . <1111<1<=   <<<<1111:.   . 1. . .<>><>>:#*",
"-41,><><><  . .<  .  &<11,111<# . <<111111% .   .< . . ><<><>-#%",
"-4<,<><<:<.  . <   . ;,o >1<<<   #<<<<1111.  . . <     <>><><-#%",
"-41<>><,<> .   <. .    . <<<<< . -<1%&111, .   . < . . ><>><<*#%",
"-41><<><><   . <.   . .  <<<<<  .@   :111;  . . $<  .  <><>><*##",
"-41<<><,<> .   ;:. .    .,<<<,.   . .<111# .    <* .  .*******##",
"-41><<><:<  . . <    . . <<<<,  .    1111 .  . .,.   . XXXXXXXX#",
"-41>>,<><> .   .<*. .   .<11<: .  . .<<11   . .>:  .   #########",
"-41<<>,<,<  .   .,    . &11<<=   .   1111. .  O< .   . :::::::#*",
"-41>><><>; . .   ;<X .  ><1<: . .  ..1111    .,#.  . . 222222:#*",
"-31<<,<><*    . . ,<  . ,= .   .    &111< . .>:  .     54433,-O%",
"-31,<><<>* . . .   #<  .  .  .   . .:11% .  ,< .   . . 21221:*O%",
"-21<><>>>*  .   . . <;  .   .  .  . >:. .  #<@.  .  .  <><><;*O#",
"%2>><>;;;*.   .      >, . .   .     .  .  ;<+  .  .   .><<<>;*O#",
"%1<<<>***X  .  . . .  =<%   .   . .  .  ><< . . .   .  <><><;*O#",
"%:::*****X .  .     .   ><-  . .   . .><> .  .   . .  .>:,>,;*X#",
"%#XXX****X  .   . .  . . .-1<,>;=;>1,<; .  .   .  .    ><>::;*X#",
"***%#XXOXO .  .  .  .       . #=;;*$ .   .  . . .   . .:>,::;*X#",
"%%%%%%%OOO  .   .    . . .   .     .  . .  .   .  .  . >>>>,;*X#",
"%:<<<<,>-% .  .   .     .  .   . .   .    .  .   .    .:::::-*X#",
"%<2444442<  .   .  . .   .  . .   .   . .   .  .   . . ******XO#",
"%<4<<>2344 .  .  .  . .   .    .   . .    .   .  .  .  XXXXXXO#%",
"%<4<<<11><  .  .  .    . .  . . . .    . .  .   .  .   OOOOO##%%",
"%<4<><::<,>:<><><><<><><<1244432:#%*%%%#####################%%%*",
"%<3<<<,<>,>,<>><::><:>>><><><<<:-X#*%<44<:%%%***%%%%%%%%%%%%****",
"%<2<><::,<><<,>:<:>:,><><><><<<-*X#%%4<<44441**%14444444321,:%%*",
"%<>----------------------------**#X#%41111111-*:4<<<><><,<><4,X*",
"%>-###############################XO%1<11,-,>-%1<><><<<><><><*X*",
"%#XXXXXXXXXXXXXXXXXXXXXXXXXXXXXXXXXO%#%#*-----%4<,,<<,,<,<<>>*X*",
"*%###OOOOOOOOOOOOOOOOOOOOOOOOOOOOOOO#**##XXXXX#***************X*",
"****%%%%%%%%#########################****######**XXXXXXXXXXXXXX*",
"################################################################"
};
