/* XPM */
static char *out[] = {
/* columns rows colors chars-per-pixel */
"64 64 25 1 ",
"  c black",
". c gray11",
"X c #202020",
"o c #282828",
"O c #2C2C2C",
"+ c gray19",
"@ c #343434",
"# c gray22",
"$ c gray25",
"% c #484848",
"& c #4C4C4C",
"* c gray33",
"= c gray36",
"- c #646464",
"; c gray44",
": c #7C7C7C",
"> c gray55",
", c #989898",
"< c gray66",
"1 c #B4B4B4",
"2 c #C0C0C0",
"3 c #D0D0D0",
"4 c gainsboro",
"5 c #ECECEC",
"6 c gray99",
/* pixels */
"13213225<4421<>>;-%+#;>:365666566566316631<21;o-1652<*+@33231111",
"1<1,<223231<,;%+.O.$;-><41<6666656131653<<<>,O@:343,:=X.-1<1>,,,",
">>,>1<>>>:-;%o.%##o$*:122,31,222343432>>,:-**o=1633,>;o.o23,<1,,",
"---:-*;-;*@.X&;1>&*%%**--:,13433213343>:;$&oX%>35143<;$..>:;<;-;",
"*%**$-*%#..o;;341<,:*%XX&;;,14<21>>---**%+O+XX,1,,44,>-o.+>::=**",
"Oo...XX.oX#,32433355<:O...O+%*:>:;:>*%o. .@$.;3>:<21>>:$. O%=%@o",
"*$+$%+%Xo#;31:34313111,*oX..Xo@#@##o. .X+*,..1>;>,<2<<>*O. O#X.$",
":>,>>:-%@#-<12<,<1<2641<-*OXo.oO...@&&;<1,;.o<:>,<31>:;;=o...X%:",
"<1111,;-*Xo->::,,1131,1<<:-XX+$&%*;:>1211;;.*1>:<1<,,:,;-*X.#-:,",
":<<211,%%OX%=*;-:>,,<,123;-OOX@$*-132431<;- *,,<<>;-=;>;;=..-;><",
">,::>>;-**#.@&;;:>><2<2<<;-..X;>43311<><>=#.>,<>>>;::;-***.o;:,,",
">>>,,::>-*#Xo%--,<><1>>::-@.X-><1<1<>:,>-=.X>>>;**&****%*#.+:>>>",
">::::>>;-%*#X$-->;:>:-;*=$..*>:,2<>;;->;-* X*&%%**%@O*%+#..$:>::",
">;;;;:;-;&;#X@-*---**%*&%X.&:<<31--:=-;--% .##&*@...XOOoX..+*;-:",
";%&*%=-;-%&$..&%$+@+o.OO..@*;1<<::,>;&&%#o  X.......@##@+X.+->:-",
"#&-***$****%o.oXX.X.  .  .#=>:>;;:>>:**%&@ .X..XX*-;,>>;-#.O-;**",
":--&***;--*+O.+$%%%$+%%#O.@*;;,:>;-;-&#%&.  .X$:>,>::*;;-..O&*$-",
";%*=%%%%*%@..#**:,<<;>>-*XX@--;%*;-:&&%-X..X#;:>;-&$&=-%&o..&%;;",
";&;;==&#%@..%-:,,:,>><>--%..#&;->-;&#$XXXO;:;:;;*---:-;-*O..##==",
"--=&%$#+O..%*-,>,:,;;;=-;%X.X$#%*-%+oXXX%;:;;;*&&*&--&&$@O..X%**",
"###$%$+X X$=>>:--;:;-=%***-o.X*-&%.OXX##:;::;&*&-;;-%=-%++X .O#&",
"+@@#@+. .#*-:=--*=***%%*=:>&X..X..X+Oo$&:;;--%%#%&--;-%o+@O..X%$",
"X .    ..$;:;=***%&%%#$*;>>;%@O  ..oOOO---*%&$%$*--=*&###$O. .@#",
". @$X.X.X@--**%%%*;****=;;;--*@XX....Oo-=-;;=*%%***-*####@+.  ..",
"@*:;:#X...-;-***:::---*&=-;-=*-%#$+X...$%$**%%%%%%**#@$#+X.  .o&",
"-;;::;;#. @**-*---;;;;*=;:::;;-*O%##X..#;-;-*%$$***=$#%$@X .X@=;",
"*-*----**..o*&$=*---;-*&**-;;;-*&*==#. .=***$#%%&#$*$#@+X. X%*--",
"--%***--*# .O***---;;=**=-;---;*-%%%%X. @&*$##%#*%$&*###. .o%%%-",
"*%$*%%*%$@X .X@#%*;----;----*&=***%--$X @%$#@$&%*#%&%Oo...O#*&==",
"*@oo.X..XO@.. .##@%*==--*--=*&****+%&#X.X%#$$&&%#O$##O.  X$-**&$",
"o.o@@%$%@O#X.. .XX%%**--%#+$**-$%%+&=*+..###$&%$$%$$%@X  +%%%#o@",
"o+#%@&%*%*&$@o  XXooOXXX+%-=;=**-*#%=&#..X#$*%#$$#%%+Oo..@&%#oO.",
"*$%$+$#%****%O.  XOOo#$&*=*%-**-**%%*%$o .O+#@$##%%%@@O .@##%$&$",
"**%%#$@$%$%%&*o. .XO#%---;*---***$$##$%+  .O@#$#%$##OOX X#$%&%*%",
"%&&%@@XXo@+%$#XX  o#$#%*%*-**%&*&&$@%%$O. .X.XXo++O+OX..XO#$%$&%",
"%%%#$$#$#Oo##%#o. o#-****&%###$##@O##+OO.  ..XX.XX.... .#**%%%%%",
"#*&$%%#$@##OO@#OX .O%*&%$@#OOOOO+O+OXXXX    ....X....  +#%%$%&%%",
"%##&**$*%*%$oOoXX. X#&%##+o@O+@++oXX...     .....X... .#%*%%%%%$",
"#$%$%##%#%$%#oXX.. X@##oXX+##++OoX...  ..XoX........  .+#%+#@+#$",
"+@@+#@##+##%#@+X... XOO.O@@@*#@oX...  ..%%%$Xoo.X...  .##%+#@+oO",
"XOXooXXOO#$%###@o..  oX.+OO#$o..... ..O%&%$#$**%@%$o. .oO@o@oXXo",
"...XXO+@+$##+##OX... .XoOXXo.....  .X#**#+o#$#@@$&$##. XoXXXXOOO",
"OoXoXOO@O#O##@OoX..X  ........    .O$%##X#$%$#####@%$X..XXXXOoO@",
"oOO@@+O@o+++oooX...o.  .....     ..%$XXO#%$#$+#@#@@@@@X. ...o+@@",
"XXXOXXOoooX..........  ....     ...@@+##$%$@@%%#OO+O@@X.  ..XoXo",
".............  .       ...   .. .  OoX+@##o###O.XX.XoXXX.  ..X.X",
"                 .......... .++o.. .+X..XXO%%#XXoooXXX.X..     .",
"...        ...XXXOo+OXo. ..XX#XoO...X.oXXXX+X..oX....  . .. ....",
"O+OX..   .X+OO@##$++@XX  ..X+#@OX.X    ......X...      . XXOO..O",
"O+o@XX.   XoX+O#@#@$$OX  .o#@+#+#@O..    XOXX.  ...XoXoo@#o@..##",
"###$O@XX   .X++#@##@O.. ..O+$O+@##XoX.   .X.... .XO@+OooOOoX.O+#",
"+oO+O+O+..  ..XO+#+Xo. ..O@#+o$%$++@o+O   .........XXXo@OOX.XO++",
"OO+@@@@+XX.  .ooOOOO.  X#OOOO@OOX.XO###..    .O#@@#@+O..XX.o#OOO",
"X.XoOo@#@oX   ..XXX.  .++oooo#oOXX@###OX..  .@Oo##@@@....XO#@ooX",
"XXXXXO+OOOo.   XX... .o#+oXXooX..o+@++OX.  .XXo@#O+o..O@XooXX..o",
"X.XXoXXO+ooX.  .X.. ..+O.XXXoX..XX++++X..  .+##++oX..++O..oooX.o",
"XX.XoOo@O@@...  X.  .XXXXoOX...XXO@@+o..   .OOO@#O.XOOX.X..XXoOO",
"+OO@@XXoXoooX.  .  ..@@OO+oX....O++XX..    XXXooX..........X@oXO",
"XooOOXoXXOOOo.     X+#@OO@X....o#OXX..   . .XXXX...........oo++O",
"oOoXXX..XoXo..   ..@@oo+OoX..XO@+XoX    .   ... ..X..XXX....oOoO",
"OX.....XoX...    @X+O@@+o....ooXXXX.  ..X.   ....X..XXXXo.o.XXoX",
"X....X.XXX...  .X@O#@Ooo....X@oXX.   .O@oX.  ....XXoXXooX.X.XXXX",
".......XX...  .++OOXXXX..XX.Xo...   .XOX.XX   ....oXO+XX..Xo..XX",
"XX.....XX..  .oO+O+XX......XOXXX.. .O+OXOOXX   ..X.X+oooXOoX...."
};
