/* XPM */
static char *out[] = {
/* columns rows colors chars-per-pixel */
"64 64 30 1 ",
"  c black",
". c gray11",
"X c #202020",
"o c #282828",
"O c gray19",
"+ c gray22",
"@ c #400000",
"# c #4C0000",
"$ c #580000",
"% c #640000",
"& c #700000",
"* c #7C0000",
"= c #404000",
"- c #585400",
"; c #706C00",
": c #6C4824",
"> c gray25",
", c #484848",
"< c gray33",
"1 c #646464",
"2 c gray44",
"3 c #7C7C7C",
"4 c #880000",
"5 c #9C9C00",
"6 c gray55",
"7 c #989898",
"8 c gray66",
"9 c #B4B4B4",
"0 c #C0C0C0",
"q c #D0D0D0",
/* pixels */
"OOOOOOOOOOOOOOOOOOOOOOOOOOOOOOOOOOOOOOOOOOOOOOOOOOOOOOOOOOOOOOOO",
"OO<333333333331<<Oo..OOOOOOOOOOOOOOOO,60q8776322333333333333333O",
"O<80000005;05:*4%&**%%%$%%3X3333333X3%&*4%&**4%&*:505;000090000 ",
"O30077777--=;$$$##$$##$##$<X<<<<<<<X<$$$$##$$$##$$;=--777631323 ",
"O30763636==1=@@@@@@@@@@@@@o ooooooo o@@@@@@@@@@@@@=3==223623233 ",
"O306131313<<1$$###$#######< <<<<<<< <#$#####$####$122<<11631323 ",
"O181636361313%%%#%%%#$$#%%3 3333333 3%%%$#%%%%#%%%1322223623261 ",
"O186131313<<1%%$$%%$#%%$%%3 3333333 3%%%%$%%%%#%%%122<<11161<1< ",
"O<86316161<<1%%%$%%%$%$$$%3 3333333 3%%%$$$%%%$%%%161<<12211<2> ",
"O<81631311616%%$$$%$$$$$%%3 3333333 3%%%%$%%%$$%%%<12323211371o ",
"Oo1<>OOO>><<1%%%$%%%$$$$$%3 3333333 3%%%$$$%%%$%%%1>>,<11263<oX ",
"OO           $%$$$%$$$$$%%3 3333333 3%%%%$%%%$$$%$OOOO+OO+>,oX O",
"OOOOOOOOOOO..%%%$%%%$$$$$%3 3333333 3%%%$$$%%%$%%$         .X OO",
"OO68000000006%%$%%%$$$%$%%3 3333333 3%%%%$%%%$$$%%<<OOOOO    OOO",
"O600000000000%%%$%%%$%%%%%3 3333333 3%%%$%%%%%$%%%8<OOOOOOOOOOOO",
"O708161666166%%%%%%$$$%$%%3 3333333 3%%%%$%%%$$$%&3> 6006<OOOOOO",
"O781336161661%%%$%%%$%%%%%3 3333333 3%%%%%%%%%$%%%<O 06600007OOO",
"O786161616116%%%%%%%%%%%%%3 3333333 3%%%%%%%%$$$%%<O 07777777>OO",
"O781663111161%%%%%%%$%%%*<3 3333333 3<*%%%%%%%$%%%<O 76773>31> O",
"O7816311<<613%%%%%%%%%&<31 133333331 13<&&%%%%%%%%<O OO  >>>>> O",
"O7863111<<111%%%%%%%%&<3X 3,X     X13X 3<&&%%%$%%%<O OOO       O",
"O7811613133<1%%%%%%%&<3 <3X ,<<3331 X3< 3<&%%%%%%%<O OOOO<6006OO",
"O78161<1611<6%%%%%%%<3 <3 ,<X  <3333, 3< 3<%%%%%%%<O O70000660 O",
"O786161611161$%%%%%*3X<3 3<X    <33333 3< 3*%%%%%%<O >77777770 O",
"O78111316<613$%%%%%<, 3 3<X    X<3<XX33 3,o<%%%%%%>O >13>37767 O",
"O781163361131$%%%%*3X3X,3X    X<3<X  X3, 3 3*%%%%$.. >>>>>O    O",
"O78611<31611<$%%%%<< 1 33X    Xo<X    X3 1,o<%%%%$  OOOOOOOOOOOO",
" 78131633131>$%%%%3X1X,33<X    XX      X<X1X1%%%%&00000000000000",
" 7831<311<<3>$%%%%3 3 3333<X            < 3 3%%%%&27006383271611",
" 78613161<<3>$%%%%3 3 33<o3<X      X    < 3 3%%%%%77966732661616",
" 78631611131O$%%%%3 3 3<  X3o     X<+  <1 3 3%%%%%16662277111166",
" 78163161616O$%%%%3 3 3    X       X<o<13 3 3%%%%%73116732616611",
" 78336<13111O$%%%%3 3 3             X<333 3 3%%%%%22663167111616",
" 7866161<<31O$%%%%3X1X<X      XX     X33,X<X3%%%%%77216712616662",
" 7861611<<11O$%%%%3o,1X3X    X<3o     33X3,o<%%%%$OOOOOOOOOOOOO.",
" 78111131116O$%%%%<3 3 ,3X  X<3<X    X3, <X3,%%%%$              ",
"O7816<<1161<O$%%%%%3o,3 33XX<33X    X<3 <,o<&%%%%$              ",
"O786163<1111O$%$%%%*3 <3 333333<   X<3 3<X3*&%%%%$OOOOOOOOOOOOOO",
"O78161116161O$%%$%%%<3 <3 ,33333< X<3 3< 3<%%%%%%&08876111111111",
"O781163<1113O$%$$$%%&<3 +3 X,33333,X 3o 3<&%%%%%%&0000000009761 ",
"O78661161331O$$$$%%%&&<3  3<       <3  3<%%%%%%%%%662136666666< ",
"O78<1331333>O$%$$$%%%&&<3o 133333331 o3<&%$$%%%%%%<16216636361< ",
"O78161311<>Oo$$$$$$%%%%%*11 3333333 11*%%%$%%%%%%%362336731612> ",
"O7861631>OO. $%$$$%%%%%%%%3 3333333 3%&%%$$$%%%%%%32611336632>X ",
"O781<11>Oo.  %$$$$$%%%%%%%3 3333333 3%%%%%$%%%%%%%6162221111,OX ",
"O781166Oo.   %%$$$%%%%%%%%3 3333333 3%&%%$$$%%%$%%12332<,<<,oX. ",
"O786111O.   O%$$$$$%%%%%%%3 3333333 3%%%%%$%%%%%%%>OOOOOOoXoo   ",
"O781311O.  OO%%$$$%%%%%%%%3 3333333 3%&%%$$$%%%$%$OOoo..      OO",
"O7861<>O  OOO$$$$$$%%%%%%%6X6333333 3%%%%%$%%%%%$#.    O<887631O",
"O7813>O.  981$%$$$%%%%%$%&6X3333333 3%&%%$$$%%%$%$     ,608331< ",
"O7831>O.  711#$$$$$%%%%%%&7 2363333 3%%%%%$%%%$$$$OOOO1707623<+ ",
"O773>OO   21+$%$$$%%%%%$%&7 2363333 3%%%%$$$%%%$%%762O20q6362>o ",
"O77>OO.  OO  $%%$$$%%%$$%&8 1263333 3%%%%%$%%%$$$%<<< 1903263,o ",
"O76OO. 111111%%$$$%%%%%$%&8 1263233 3%%%%$$$%%%$%$    1806332,o ",
"O6O..  110700&%%$%%%%%$$$&8X<263233 3%%%%%$%%%$$$$OOOO16611<,+  ",
"OO     <<6631%%$$$%%%%%$%%8X,273233 3%%%%$$$%%%$%$>OOOO        O",
"O6006<O<<1661%%%$%%%%%$$$%8X+273233 3%%%%%$%%%$$%%666211<,+>+OOO",
"O70071 O>3136%%$$$%%%%%$%%2Xo273233 3%%%%%$$%%%$%&0000009876661O",
"O07709 oo<31<%%%$%%%%%$$%%,XX263233 3%%&%%#$%%%$%%326323670q081 ",
"Oq6600 oo5;15&%&$%&%%*%#%%&<X<88888X8&%*%%##%%&$%%5<5;12333662> ",
"O07777 ..--=;##$@####%#@###X X<<<<< <##$##@@######;=--33333661o ",
"O86776   ==o=@@@@@@@@@@@@@@   XXXXX X@@#@@@@@@@@@@=>==>>>>>>>+o ",
"O63661 OO       .....oooOoooOoooO>><1  1o...................... ",
"OO     OO                              O                        "
};
