/* XPM */
static char *out[] = {
/* columns rows colors chars-per-pixel */
"64 64 12 1 ",
"  c #2C2C2C",
". c #343434",
"X c gray22",
"o c gray25",
"O c #484848",
"+ c #4C4C4C",
"@ c gray33",
"# c gray36",
"$ c #646464",
"% c gray44",
"& c #7C7C7C",
"* c gray55",
/* pixels */
"$$@@oooOOOoooXXXXXXXoo@@@$$%%$$@@OXoO@%%%%@@OOO@###$###OOOOOO@$$",
"%%$+OOO@@@@@@@OooXooO@@$%%%%$%$##@OO@%&&%$#@@@##$###$##$OOOOO$%%",
"&&$+@@@@$$$$$$@O@OOOXO@%$&&%%$####@@@%&&@@#OO##$#$$$$$$$##@@$%&&",
"%$@o@@%%%%%$$$$$$@@@O@$%%&&&*&$@##o@@%%%@#@OO$$%$%%%$%@$$$@@$%&%",
"$@Oo@%%%%%%%%$@$$@O@@@%%$%@@&oO@OOX@O@$$#@OO#$@$%%%%%$#@@$#@@%%&",
"@OoX$%&&$$%$%$$@@@OO@O%&%$#$@O@OoXX@@O@OOOO$%%$%%&&$$$$#+@$#@$%$",
"oXXX$%&&$$$%$%$$@Ooo@@$%$$&$$$OoXXO@@@@@O##%%$%$%&&%$#$$$@@#Oo@@",
"XX@$$%%%$%%%$$%$+oXXO@Oo##$@$&OXXO@@O@OO@##$$$%#$%%$#%%#+$$@OooX",
"@@$$$%%%%&&%$%%$+oXXo@OXoO@OO@oXX@@@@@OO@##$%%$%%$%&&%#@$@@@@O@@",
"@$%%%%$%%&&&%$$$@+ooX@@OoXXooOXXO@%%$#@@@#$#$$%##$$&&%%$$@@oOoOO",
"$$%%&&&%%$&&%@@@@@@+XOO@@OXXXXXO@%%&%$#@O$#@+%$$@#$%%$$$+o@@ooo@",
"$$%%&&&&%$%%%%%$@OOoX@OO@@@@@@$%%&&&&$#@@#$%@%$%%$#$%$+@O+@oOXX@",
"@$$%%&&&%$$$$%%%$oXXX@@$%%%%%&%&&&&&&$$@@#+@#$$%$$$$$@@+#@OOoXX@",
"@+$$$$&&%%%$$$$%$oXXo@@%&%&&&&&%&*&%&%$#@#@+@@####+OO@@@@ooOOoX@",
"O@++$$$%$%%$@@$$$@oOO@%&%**&&&%&%&&&%%$#@O#@+++@+##XXOOoOooOOooO",
"@@@@+OO$$%%@@++OOo@@@$%%&*%%&&%%%%&%&%$#@O@@+oO@@#@OO@OOOOOooXX@",
"@OO@@OO@oo@@OO@OO@#$%%%&&&%&&&&&$%%$$$%$O+++OOOOoOoXXXoXoooXoXo@",
"@@@@O@OoXX++OOooo@#$%%&&*&&&%%&%%$$%%$#@O@+oooO@@oXooXXoXoooXXO@",
"$%%$#@@XXXoo@@oXX#$$%%%&&&&%%%%&%$#@$#@@O@@XXoO@OoXooXXXXXXXXO@$",
"%%%%&$@OXXXo++oXX#$$%&%&%&%&%$$%%$@#%@O@Oo@OoooOooXXXoXoOOOO@@$%",
"&&%$$&$@@OXoOooo@#$%%%&%%%%%%$$%%$$%%@@@XoO@OoXoXoXoXXoOOO@@@@$&",
"%&&$$@+$@@@oooo@@@#%%&%&%$$%%%%$$###@+@+XXO@@OoXXXoXooOOO@@@@$&%",
"$%&%%$@+@O@@@@@@O@#%%%&%$$#$%%$#O@@@++oo o@O@@OOoXXXXOOOO@@@$&%$",
"$&&&%@O++@@@$$@O@@@$%%%%$#@##$$@@+X$+XoOoO@@@O@@@OXXo@OX@#$$&&%$",
"%&%%&Ooo+@O$%%%$++@@$%%$$$##@##O$@OOXooO@@@##$$#@@@@@OXXO#$%&%&%",
"&&%$%OoXX@O+%$$@$++@$$@$##$$##@@oOXoooOO@@$$%%%$$$#@O@OO@$%&&&%&",
"&&&&%@oXX++%%%%@%@O@@$$$@##@$$#+XooooO@O$%%%%%##$$#$@@@O@$%&%&&&",
"&%&&%$Ooo+$$%%+++Ooo@@##@@@OO$#OXooO@@@$%%%$%$%%%%%#$#@@@#$%$%&&",
"%$%%+oXXo++@$$+o+XXo@@+@@@@OO#@XooO@@@#$&&&%%%%%%#%@##@@O@$%&$$%",
"+@$$+oXX@@+$++@+OXX@@@@+@+@@@O@ooO@@@@$&&&&&%%%&%%$#@##@@@#$%$$@",
"oo+@@Ooo@@+OOO@+Ooo@OO@@OOOOOooXoO@@@#%&&&&&&%&%%$$#%$@#O@@#$%$+",
"XXoOOo++@@@OooOo++@@OO@@@OOOoXooO@@@#$&&&&&&%&%%%%$%$@@+oO@@$$@O",
"XXooo+@@O@@@ooo@@@@O@@@O@@@@OoOOO@@#$%&&%$%%$%%%$##$@@@+ooO@@@++",
"@@@@@@@O@@O@@@@@@#$####@@@O@$$@@O#$%$%%%$#%#$$%&%#OO##++ooO@@@@@",
"%%$@@@$$OO@O@@####$##$####@$@OO@O$%&%$%%%%&%##$%#@OO##+oOoO@@$%%",
"&&%%$@$$OXO@##$%%%#%%&&$$##$OXO@#$%%@##$%&&%#@#$@#@++oooooO@$%&&",
"&&%$$$@@OO@@#$&&%#$%&**&&$##O@@@##$#@@@#%%#$%#$#@@@+OOOoOoO$%&&&",
"%&%##@@@@@O@#%&**&#$&*&%&%$$##@O@##@@O$$#$$$%$$@++@OoOOXoo@$&&&%",
"%&$#@++@@@@#$%&**&%%&&&&&$%$$##@@###@$%$##%%%#@+oO@Oooooo@$%&%&%",
"&%$$@oO@O@@#%%%&&$&&%$&%$%$%$%%#++@##@@@####@@@+O#@OoOXXO@$%%&%&",
"%$#@#@O@@@@$%%$&&%&&%%%%%&%$$%$#@oo@#@+##@##@@O@@@@OooXo@@$%%%%%",
"##++@+O@O@#%%%$%%%%$$%$%$%%#$$#$@oO+@oO#@#@@#O@@++++OOOXO@@%%$$$",
"oo+OoXO@@@$$$%&&%#$##$&&&$##$%$$@+++OOoo@#@@#++OOo+@X@@O@O@@OO%@",
"ooo+oX@@@###$$&&%$&##&&&$%%$$$##@@@$%$OoOOOoOOoooo@O@@#$$%$$#@O+",
"+OO++O@O@##$%$%&&%&&&#%&%%$##OOOo@$%&&OoooOOooOooO@@@#$%&&&%$#@+",
"@@@OOO@O@$##$$$&&%$$%%$$%%$#@+OOo@$%&@OoOOoOooooO@@#$$%%%&&%%$#@",
"$$#@@@@@@##@##$%%#@@$%##$++$#@OoX@@#@OO@ooOoooO@@@#$&&&%%%&%%%%%",
"%%%%$$#@@#$#$$%%$+++#$#$#++%+oX.X@@OOOO@OooooO@@@#$%*****&&*&&&&",
"@$%%%%$@@###$%%%$+++#$%%%##+#oXoOOO@@@@@O@@@@@@@#$%&***&%%&&&&&$",
"@$%$$$$$@@##$$%##@@$#$$$%#OO+Xo@#@$%O@@OOO$$$#O@$%%&****%%&&%%$@",
"$%##@@###@@O#$%##@OOOO@@$$@OoX+#$$$%%$@@O#%%%$@#$&&%****&&**&%%%",
"%%#@@%$@@+@@O+$$#@O+@@OOO#+XOo+@$$%&&%#@#$%$$#@$%**&&&*****&&&&%",
"&%#@@@##@++@oO+#+OO@@@++O+oOo+@@$$&%%&$@$%%$##@%&**&****%%%&%&**",
"$$###%$$#@+@@ooOoXo++++OoO@OO@#$$%&%&$@+#$%$#@@%%%*&***&%%%&%&*$",
"$%%$%%%$@+++@O@oX.XooooX.O@OO@$%&%%&%#+o@###@@#%$$%&&**&&%%&%%&$",
"%%$$%%%$@ooO@@@@Oo......XOOOOO$&&%%$#+oo@@O@@@#%$$$&&&&&&&&%%%%%",
"%%$$$$$#@ooOo@XO@OOO.XXO@OXO@+@$$@@@@+ooO@@O@#$$@##$%%%&&*&%$##$",
"&$@@###@@OOOo@OOO@O@@@@@@@O@@@++++++ooo+@@OXO#$$##$%%$%%&&%$#@&&",
"&&%@@#@#@@+OXO@O@@$$%%%&&&%$$@@@@+oooo+@@@@O@#$$#$&&%$$%%%&&%@&&",
"&&%%$$##@@+OoO@O$$$%&&&&&&&&&%$$@@@@@@@@$$$$@@#$#@$&%$#%$$&&%#$&",
"%%%%$@##@@OOo@$$$%&&&%%&&&%&&&&$@O@@@@$$%&&$$@@@$#@$$#@%$$####$%",
"%%$$++O@++Ooo@$$%&&&&%%%%&&%%%&$$@@O@$$$%&&OOO@@###@@@@#$#@@@@#$",
"@@$#OOO+++Oo+$$%%$$&%&%$@@$%%$$$$$@@@$&&$$@OOXXO@@@@@@@@@@+++@%#",
"O@@@+OOO++oo@$%%$$$$&$&$@@$$&%$$$O@$$@&$O@@OOXXO@@@@#$##@@+O+@@@"
};
