/* XPM */
static char *out[] = {
/* columns rows colors chars-per-pixel */
"64 64 13 1 ",
"  c gray11",
". c #202020",
"X c #282828",
"o c #2C2C2C",
"O c gray19",
"+ c #343434",
"@ c gray22",
"# c gray25",
"$ c #484848",
"% c #4C4C4C",
"& c gray33",
"* c gray36",
"= c #646464",
/* pixels */
"@@XX   ...   .......  XXX@##$@@XX.. .X$$$$OX..XX###@###X.....X@@",
"$$@+...XXXXXXX.  .  .XX@#$$$@$@#+X..X@&&$@@XXX@#@###@##@X...O@$$",
"&&@+XXXXO@@@@OX.X.....X#@&&$$@##@OXXO$&&OO#..@#@##@@@@@@#@OX@$&&",
"$@X XX@#$$#@@@@@OXXX.X@#$&*&%#@X#O XOO$$O#X.X@@$#$$$#$O@@@OX@$&$",
"@X. X@$%%$$$#@XOOX.XXX#$@$#+# .X...X.O@@OX.X#@X#$$$$$##OO@@OX$$&",
"X. .@#&&##$@$@@XXX..X.#&$@#@X.X. ..XX.X...X@$$@$$&&##@@#+O@@X@$@",
" ...@$&&@@#$@$@OX.  XX+#@@&@@+. ...XXXXXXO@$$#$$%&&$@#@@@Oo@. XO",
"..XO@$%%#%$$##$@OX...XXX##@X++....XX.X..O@@@##$$%%$@#$$#+@@X.  .",
"XXO@@$$$%&&%##$@+X.. X..XXX..X ..XXXXX..O@###$$$$#$&&$#X@OXXX.XX",
"XO##$%@$%&&%$@@OXOX .XX. ..  ....X@@@OoXO#@#@#$##@#&&$$@@OX . ..",
"O@#$&&&%$#&&$OXXXXX+...XX.......O#$%#@OXO@#++$#@X#@$$#@@+ XX   X",
"@@#$&&&&$@#$###XX.. .X..XXXXOO@#$&&%%@#oX#@$+#@$$@###@+X.+X ...X",
"X@@#$&&&$##@@#$#OX...XXO@@$$##$&&&&&&@@@X#++#@@$#@@@OOO+#X.. ..X",
"X+@@@#&&$$$@@+#$@X.. XX$&$&&&&&$&=&$%$O#XOX+XX##@@+O.XXXX  .. .X",
".XO+@@##@$#OXO@@XX ..X#&$==&&&$&$&&&$$@OX.OX++OX+OO.... .  ..  .",
"XXXXX..@@##OXO+X. XXX@#$&=$%&&$$$$&$&+@OX.XOOX.XXOX..XX ...  ..X",
"X..XX..X XXX..X..Xoo@#$&&&%&&&&&@$##@@#O.OO+XX.. XX..XX.   . . X",
"XXXX.X. .X++..   XO@#$&&=&&&$$&$$@@$#@+X.XOXX .XX .   . .   ...X",
"@$$@#XX...  XX ..O@@$%%&&&&$##$&$@#X@+XX.XX.. .X. .  .........X@",
"$$$$&@X.... XX ..#@@%&%&$%$&#@@$#@X#@o.X. X.   .  ... . ....XX@$",
"&&$@@#@XX.. .   XO@#$%&$%##$#@@##@@$+XXX. .X. . . . .. ...XXXO@&",
"$&&@@X+@XXX    XXX#$%%$%#@@$$$#@@##+XOXX...XX. ... .  ...XXXO@$$",
"@$&$$@X+X.XXXXXX.X#$$$%$@++@$#@#.XXX+X  . X.XX.. ........XXO+$$@",
"@&&&$OO+XXXo@@o.XXXO#$$#@+O##@@XX+.oX. . .XXX.XXX... X..XO+@@&$@",
"$&$$&OX +X.@$$#@++oX@##@@@##O#@.@X...  .XXO@@@@@OoXXX....+@$&$&$",
"&&$@$X ..Xo#$#@X@++X@@X@##@+#@XX ..   ..Xo@@#$#@@@@O.X..X@$&&&$&",
"&&&&$X ..+#$$%$X$X.XXO@+X++X@+o+.    .X.+@#$$$##@@#@OXX.X@$&$&&&",
"&$&&@@XX +@#$$#++.  XXXXXXX.ooX..  .XXoo#$$#$#$##$$#@OXXXO@$@$&&",
"$@$$+XX. ++X##+ +.. XXXXXXX..X .  .XXo##&%&$$$$$$#$X+@OX.X@$&@@$",
"+X@@+X..Xo+@++X+...XXXXOXOXXX.X  .XXo+@%&&&&$$$&$#@OX+@XXXO@$@@X",
" X+XX.  XX+...XX.  X..XX.....  . .X++#$&%&&&&$&$#@@O+@OO.XXO@$@+",
".. .. ++XXX.  . XoXX..XXX... .  .XX+##&&&&&&$&$$$#@$@OX+ .XX@@X.",
"..   +XX.XXX   XXXX.XXX.XXXX. ...Xo##$%&$@$$@$$#@#OOXXXX  .XXOO+",
"XXXXXXX.XX.XXXXooO@@@@@OoX.XooXX.O@$@$$$@#$#@@$&$O..++XX  .XXXXX",
"$$@XXX@@..X.XXO###@##@###@XOX..X.@+&$@$$$$&$##@$#X..+oX . .XX@@$",
"&&$$@X@@...XO@$$$$#$%%&&@##O...XXX$OXO#@$&&$#X#@X#X+o     .X@$&&",
"&&$#@@XX..XX@#&&$#@$%==&&@##ooXXXX@OXXO#$$#@##@#XXXo... . .@$&&&",
"$&$##XXXXX.X#$&==&#@&=&$&$@@#@o.XX+XX.O@#@@@$@@XOOX. ...  X@&&&$",
"$&@#X+oXXXXO@$&==&&$&&&&&#$@@#@XXXOOXO$@###$$OX+ .X.     X@$&$&$",
"&$@@X .X.XX@$$%&&%&&%%&%#$##@@@ooXXO+XXX@@@@XXXO.OX. ....X@$$&$&",
"$@#X#X.XXXO#$$%&&$%%%%%%$&$#@$@oX  XoXoO+X+OXX.XXXX.  . XX@$$$$$",
"##++X+.X.X@#$$%%%%$$$$$$#$$#@@ooX .+X .oXoOXX.XXXXXX.....XX$$@@@",
"Xo+. ..XXO@$#$&&$#%##%&&&@##O$OoX+++..  XoXXoXo.. oX.XX.X.XX..$X",
" oo+X.XXX@@#@#&&$#&%%&&&@$#@OOooXXX@$@. ... ..    X.XoO@@@@@@X.+",
"+..oo.X.o@#@$@$&&$&&&#$&$$@#OX.. X@#&#O   ..  .  .XXo@@$&&%$@#X+",
"XXX...X.o@##@@#%&$#@$$@@$@@#XO.. X@#$O. .. .    .XoO@@$$%&&$$@@X",
"@@#XXXXXo@#X###$%#XX@$##@OOOOX. .XX+O..X  .   .XXoO@%&&$$%&%$$$@",
"$$$#@@oXo@@#@#$$#+OO#@#@#OO@O . .XX....X.    .XXoO@$*===*&&=&&&%",
"X@$$$#+XXO@#@$$$@+++#@#$$#@O  . ...XXXXX.XXXXXXXO@$&===&$%&&&&%@",
"XO$@@@@OXXXO@@$##oX@#@@@#OO.X..XOX@O.XX...@@@o.X@$$&===*%%&&$$@X",
"O###OX##OXX.O@$OOo....XXOOX...XO@@#$$@XX.#$$$@X#@&&$*===**=*&$$$",
"$$#+XO@+XoXX.X@@OX.oXX...XX...XX@@$&&$OX#@$@@#X@$=*&**====*&&&&$",
"&$#+++#XXOoX .XOX..XXXXX.X...XOX@#&$$&OX@$$@#@X$&==&*===*%%&%&=*",
"@@###$@@XXOXX  . . XXXX. .X..XO@#$&$&@X+#@$@@OX$%%*&===*%$$&$&*@",
"@$#@$$#@XOooX.X . .    . .X..X@$&$$&$#O O@@@OX+$##$&*=*&&%$%$$&@",
"$$@@#$#oX  .XXXXX       ......@O&$$@#+. XX.XXO@$@@#&&&&&&&%$$$$$",
"$#@@@@#oX  . X..XX.. ...X...X XoOXXXXo. .XX.X+@@X##@$$%&&=&$@##@",
"&@X++oXXX... X...X.XXXXXXX.XXX  oOoo.. +XX...#@@##@$$@$%&&$@#X&&",
"&#+XXoooXXX..XX.XX+@$$$&&&$@@XXXX...  +XXXX.X+@@#@&&$@@$$$&&$X&&",
"&&++@@+OXXX. .X.+@#$&&&&&&&&&$@+XXXXXXXX@@@+XO+@#O@&#@#$@@&&$#@&",
"$$#@@X++XX.. X+@#$&&&$$&&&$&$&&@X.XXXX+@$&&@oXXO@#O@@#O#@@####@$",
"$#@@oo.X+o.  X+#$&&&&$$$$&&$$$$$++X.X+@@$&&X..XX@@#OOOOO@#OOOO#@",
"XX@O...oOo. ++#$$@@&$&$@oo@$$@$#@+XXX@&&@@XX....XXXXXXXXXO+++O$#",
".XXXo...oo  X@$$@@@@&@&@XX@@&$@@++X++X&@.XX.....XXXXX@##XX+.+XXX"
};
