/* XPM */
static char *out[] = {
/* columns rows colors chars-per-pixel */
"64 64 21 1 ",
"  c #28200C",
". c #382C14",
"X c #202020",
"o c #2C2C2C",
"O c gray19",
"+ c #343434",
"@ c gray22",
"# c #543C1C",
"$ c #6C4824",
"% c #744C28",
"& c gray25",
"* c #484848",
"= c #4C4C4C",
"- c gray33",
"; c gray36",
": c #646464",
"> c #80502C",
", c #905C34",
"< c #9C6038",
"1 c #A0643C",
"2 c #A86840",
/* pixels */
"@@@@@@@@@@@@@@@@@@@@@@@@@@@@@@@@@@@@@@@@@@@@@@@@@@@@@@@@@@@@@@@@",
"-@-*****-******-*@*******------*********-------****@@@**--*****@",
"@22<<<<<<<<<%**-22<<<<<<<<<<<<<<<<<<%*@-2222111111<<<<<,,,,>>>%*",
"*2,%%<#%<#,%.o*-2>#>#>#>#>$>$>#>#>,%#o*@<%,%,%%,#,#,%,#%%#,$,%#o",
"*<%#%#%$#%##.o*-<>##%##%%#$%%#$%#%$#.o*-<%%#.%###%##%%#%##%.%#.o",
"*<#%%#$%%#%. o*-<#>%#%#%#%#%###%#$##.o**<#%.#%.%#%#%#%.%$#%#%# o",
"*,%##$#%##%# o*->>#%##$%###%##$###%# o@*>#%#%#.%##%%#%#%%#%.%# o",
"*>#%%#%$#$#. o**>,#%#%#%#%#$###%#$##.o@*>$%.#%#####%#%.%##%#%# o",
"*>%##.##.### o@-$$## ##### ##### ### o@*>##.## # #.# # #. #### o",
"*#...        o@*#...........         o@*#...................   o",
"**ooooooooXXXo@-*oooooXXXXXooXXXXooooo*-@oooooooooooXXXXXooooooo",
"-@@@@****@@@@@*@*******@@@-***@@******-@*----;::;--**&@&-@-***-@",
"2<<<>>>>>>>>>>>%*-*22<<<<<<,,,,,,,>>>>>>>>>>>>>>>>>>%*&-22<<<<<<",
"%##%$#%#$#%.%#% @*-2#%,#>.#>##,$%###%#%#%#,.,#$>,$,% @*@2,#%#%#%",
"#%#%###.%#.#%%# o**<%#%#%%#%.%#.#%#%#%.%%#.%#%##%#%# @*-,%#%##%$",
"#%%#$.%###$.%## o@*<#%#$##.###%#.%##.###%.##%#%#%%## o&*,#%%%#%#",
"%##%#####%$.%.# o@*<#%%#%.#%.#%.#%###%.%#.%.%###%#%# o@*,%#%#%$#",
"#%.%###$.%.#%%# o*-<%.%#%#.#.##.%##.#%.#.#%.#%##%#%# X@*%#%%.%##",
"#%.# ##$#$#.$## o*-%%##.#$##.##.#$#$.####.$### #$### X&-%%##.#$#",
"                @*-%...............................  X*@%. .  . ",
"oooXoooXXXoooXXo@*@*@+oooooo++@@+oooXXXXXoooXXXXooooo@*-*ooooooo",
"--*@@*-@-@**@@@@**-***&@&@&@&***-@-*&@@@&&**-&@@&***-*-@-&@&-***",
"-22<<<<<<<>>>>>>>>>>>>>>>>>%*--22<<<<<<<<<<>>>>>>>>>>>>>>>>>>>%*",
"-2#%>#>#>#%#%#%,#%#%#>%.%,# @*-2>#<%%#%%#%$%#.%###%##%$#%##%.% o",
"@2%#%$%###%%#$#%#.%#%#.#%#% o*;<>$%.%.##$#.%.#%.%#%#%#%.%$#%## o",
"*>.%%##.%.%#%#$%.#%##%#.#%# o-:<>#%#%.%#$%#%#%#.%##%$#$#%%#%.# o",
"*>%#% %.##%###%##.#%.%#.%#. o-;<#%#$#.#$#%.#.#%#####%#%.%##%## o",
"->#.% ##%.%.%.%#.#%#.%.###% o*-<,#%#%#%##%.%.## % %.% %%#. ### o",
"*,%.###.# ###.######.#$#$## o@-,%#$##.####.### %.#% ## %.% %## o",
"*%$..............           o@-%.......................... .#. o",
"*$#.................###.....o***ooooooooXXXXXo@@@oXXXooooooooooo",
"-----**@*@@@*-::---***&&@@&@@&-***-@-*-*&@&@&*--**&@&***-@-***-@",
">>>>>>>>>>%*@-<<<<<<<<>>>>>>>>>>>>>>>>>%*--,2<<<<<<<<<>>>>>>>>>>",
"%%%%$,%%,% @*@<%.%#%%.%#%%#%#.%%.%%#%#% @*-<%#%#%%.%###%#%#%#%#%",
"%##%$%#%## o*-<.%##%#%$#%#####%#.%##%.% @--<%.%#%#.%#%###$#$#$##",
"##%$#%#$%# o*@<.%%#$%#%#%#%.% ##%##$%#% @-:<%#%#%#%#%%#%#$#%$#%#",
"%##%$%$### @*-<$.%#%#.$#####%.%#.#$##%# @-:<#%%#%.%%##%#%#$$####",
"%##%#%#$%# @**<.%#.$%###%#%## .$.%$#%#% @*-,%#%%#%###%#%#$#%##%#",
"###$##$### @**$.%%.%##%#%.%.#.%#.$#$%.# o*-,%.%#%%#%#%#%#$#$#%%#",
"           o**%.......................  o**%................... ",
"oooooooooooo*-*oXXXXoo@@@oXXXXXooooooooo@***oooo@@*@ooXXXooooooo",
"-*-@*@@**@@@@**@@@*****--**@@@-***-@*@*@**-*-@-*-;:-=**@-*-*-@-@",
"@2<<<<<<<>>>>>>>>>>>>>>>>>>>>>>%@-@22<<<<<<<<>>>>>>>>>>>>>>>>>%*",
"-<%##%.%%#$%#%##%.%#%#%.%.%%##% @*-2%%.%.%.%#%.%#.$##%##%#$##% o",
"*<%.%#.%#$#%.#.%$.%.#$#.%#%#%#$ o**<#%.#.#.#.$#%.%.%###%##$%.# o",
"*<#.%.##.%.%###%.$##.#% $.#.### o@*<#%..#%#.%#.$%.%##%#%#%##.% o",
"@<%#%#.%##$%#%.#%.%.#%.$%#%%%## o@*<%.%#.%.%#$##.#.%##$#$##%#% o",
"-<%.#%.%.%.%.%#%..%.##%##.$.##% X@-<%..%.#.%.%.$.%.##%##%#$#.# o",
"@,%.%.###$#%###%$.##..% %#$#%#% X@-,#%.#.%.#%#.$##.%#%#%#$#%.% o",
"-%.........                     o*-%..............             o",
"@*oooooooooo@@@oXXXXoooXXXXooXXoo*@*ooooooXXXo+@+oXooooXXXoooooo",
"-@-@-*-****-::-*-@-*-*&@@@&*-**@**-@-********=---=****@OXXO@**-*",
"<<<<<>>>>>>>>>>>>%*-*22<<<<<<<<>>>>>>>>>>>>>>>%*@-2<<<<<>>>>>>>>",
"#%.%%.$.%#,#%.%#% o**<%%%%.% %#%.%.%$%.%.%.%#. @*-<%.#%.%#%#%.%#",
"%##%#%.$#.%.#.#.# o**<#%#%.# #$#%#.#$.####.%.% +*-<.%.%#%##%#%# ",
"%#.#%.$.#%#.%#.$# o*&<###%.##%.% %%.%.%.#.##.# o*-<.%##%%####.##",
"#$.$..%.%#%.##.%. o*&<% #%.% %#$.%.##.%.%#.#$. o*-<%..%###%#%.#%",
".%#%.%.#%.%#.#%## o*&< %%.%###.# %.%.##.##.##. o**<.%#%#%###.%#%",
".%##.$$.$.#.%.%.$ o**< %#%.### $.# %#.%#.%.%.# o@*<.%.#.%#%#..% ",
"#$.%..#.##%.%.### o*-,% #%.% #.%.%#.%.#%.###.# o@*,...%.%#%#%.%#",
"                  o**%                         X*-%             ",
"ooooooooooooooooooo*-*@++ooooooooooooooXXXXXoXXX@**ooooooXXXXXoo",
"@-@-@@@*****--@****-----***-***-**@***&@@&@@&*&@&-**@-****&@&***",
"----------------------------------------------------------------"
};
