/* XPM */
static char *out[] = {
/* columns rows colors chars-per-pixel */
"64 64 31 1 ",
"  c black",
". c gray11",
"X c #28200C",
"o c #382C14",
"O c #202020",
"+ c #2C2C2C",
"@ c gray19",
"# c #343434",
"$ c gray22",
"% c #700000",
"& c #543C1C",
"* c #706C00",
"= c #6C4824",
"- c #744C28",
"; c gray25",
": c #484848",
"> c #4C4C4C",
", c gray33",
"< c gray36",
"1 c #646464",
"2 c #7C7C7C",
"3 c #80502C",
"4 c #905C34",
"5 c #9C6038",
"6 c #A0643C",
"7 c #A86840",
"8 c #FCF400",
"9 c gray55",
"0 c #989898",
"q c #B4B4B4",
"w c #D0D0D0",
/* pixels */
"$$$$$$$$$$$$$$$$$$$$$$$$$$$$$$$$$$$$$$$$$$$$$$$$$$$$$$$$$$$$$$$$",
",$,:::::,::::::,:$:::::::,,,,,,:::::::::,,,,,,,::::$$$::,,:::::$",
"$77555555555-::,77555555555555555555-:$,7777666666555554444333-:",
":74--5&-5&4-o+:,73&3&3&3&3=3=3&3&34-&+:$5-4-4--4&4&4-4&--&4=4-&+",
":5-&-&-=&-&&o+:,53&&-&&--&=--&=-&-=&o+:,5--&o-&&&-&&--&-&&-o-&o+",
":5&--&=--&-oX+:,5&3-&-&-&-&-&&&-&=&&o+::5&-o&-o-&-&-&-o-=&-&-&X+",
":4-&&=&-&&-&X+:,33&-&&=-&&&-&&=&&&-&X+$:3&-&-&o-&&--&-&--&-o-&X+",
":3&--&-=&=&oX+::34&-&-&-&-&=&&&-&=&&o+$:3=-o&-&&&&&-&-o-&&-&-&X+",
":3-&&o&&o&&&X+$,==&&X&&&&&X&&&&&X&&&X+$:3&&o&&X&X&o&X&X&oX&&&&X+",
":&oooXXXXXXXX+$:&oooooooooooXXXXXXXXX+$:&oooooooooooooooooooXXX+",
"::++++++++OOO+$,:+++++OOOOO++OOOO+++++:,$+++++++++++OOOOO+++++++",
",$$$$::::$$$$$:$:::::::$$$,:::$$::::::,$:,,,,<11<,,::;$;,$,:::,$",
"755533333333333-:,:775555554444444333333333333333333-:;,77555555",
"-&&-=&-&=&-o-&-X$:,7&-4&3o&3&&4=-&&&-&-&-&4o4&=34=4-X$:$74&-&-&-",
"&-&-&&&o-&o&--&X+::5-&-&--&-o-&o&-&-&-o--&o-&-&&-&-&X$:,4-&-&&-=",
"&--&=o-&&&=o-&&X+$:5&-&=&&o&&&-&o-&&o&&&-o&&-&-&--&&X+;:4&---&-&",
"-&&-&&&&&-=o-o&%%%%%%%%%%%%%%%%%%%%%%%%%%%%%%%%%%&-&X+$:4-&-&-=&",
"&-o-&&&=o-o&--%*88888888888888888888888888888888*%&&XO$:-&--o-&&",
"&-o&X&&=&=&o=&%8*%%%%%%%%%%%%%%%%%%%%%%%%%%%%%%*8%o&XO;,--&&o&=&",
"XXXXXXXXXXXXXX%8%w%w%ww%ww%%ww%%%w%www%ww%w%w%w%8%.XXO:$-oXoXXoX",
"+++O+++OOO+++O%8%w%w%w%%w%w%w%w%w%w%w%%w%%www%w%8%.++$:,:+++++++",
",,:$$:,$,$::$$%8%w%w%ww%ww%%ww%%w%w%w%%ww%www%w%8%+:,:,$,;$;,:::",
",7755555553333%8%w%w%w%%w%w%w%w%w%w%w%%w%%w%w%%%8%&33333333333-:",
",7&-3&3&3&-&-&%8%%w%%ww%w%w%ww%%%w%%w%%ww%w%w%w%8%&&&-=&-&&-o-X+",
"$7-&-=-&&&--&=%8%%%%%%%%%%%%%%%%%%%%%%%%%%%%%%%%8%&&-&-o-=&-&&X+",
":3o--&&o-o-&-&%8%%%%%%%%%%%%%%%%%%%%%%%%%%%%%%%%8%o-=&=&--&-o&X+",
":3-&-X-o&&-&&&%8%%%%%%%%%%%%%%%%%%%%%%%%%%%%%%%%8%o&-&-o-&&-&&X+",
",3&o-X&&-o-o-o%8%%%%%222%2%22222%22%222222%22%%%8%&o-X--&oX&&&X+",
":4-o&&&o&X&&&o%8%%%%%%%%%%%%%%%%%%%%%%%%%%%%%%%%8%&X&&X-o-X-&&X+",
":-=ooooooooooo%8%%%222222%222%22%22222%222222%%%8%.oooooooXo&oX+",
":=&ooooooooooo%8%%%%%%%%%%%%%%%%%%%%%%%%%%%%%%%%8% OO+++++++++++",
",,,,,::$:$$$:,%8%%%222%2222222%222%2%2222%222%%%8%O$;:::,$,:::,$",
"3333333333-:$,%8%%%%%%%%%%%%%%%%%%%%%%%%%%%%%%%%8%35553333333333",
"----=4--4-X$:$%8%%%%%%%%%%%%%%%%%%%%%%%%%%%%%%%%8%.-&&&-&-&-&-&-",
"-&&-=-&-&&X+:,%8%%%%%222%22222222%2%22%222%22%%%8%.-&-&&&=&=&=&&",
"&&-=&-&=-&X+:$%8%%%%%%%%%%%%%%%%%%%%%%%%%%%%%%%%8%&&--&-&=&-=&-&",
"-&&-=-=&&&X$:,%8%%%22%22222%2222%22222222%222%%%8%&-&&-&-&==&&&&",
"-&&-&-&=-&X$::%8%%%%%%%%%%%%%%%%%%%%%%%%%%%%%%%%8%o&&-&-&=&-&&-&",
"&&&=&&=&&&X$::%8%%%2222%2222222222%2%2222%222%%%8%o-&-&-&=&=&--&",
"XXXXXXXXXXX+::%8%%%%%%%%%%%%%%%%%%%%%%%%%%%%%%%%8%.ooooooooooooX",
"++++++++++++:,%8%%%222%22%22222%2%22%222222%2%%%8%+$++OOO+++++++",
",:,$:$$::$$$$:%8%%%%%%%%%%%%%%%%%%%%%%%%%%%%%%%%8%:,>::$,:,:,$,$",
"$7555555533333%8%%%2222%2%2222%222%22222%2222%%%8%&33333333333-:",
",5-&&-o--&=-&-%8%%%%%%%%%%%%%%%%%%%%%%%%%%%%%%%%8%&&&-&&-&=&&-X+",
":5-o-&o-&=&-o&%8%%%%%%%%%%%%%%%%%%%%%%%%%%%%%%%%8%.-&&&-&&=-o&X+",
":5&o-o&&o-o-&&%8%%%%%%%%%%%%%%%%%%%w9w9qw0wqw%%%8%&&&-&-&-&&o-X+",
"$5-&-&o-&&=-&-%8*%%%%%%%%%%%%%%%%%%%%%%%%%%%%%%*8%.-&&=&=&&-&-X+",
",5-o&-o-o-o-o-%*88888888888888888888888888888888*%.&&-&&-&=&o&X+",
"$4-o-o&&&=&-&&&%%%%%%%%%%%%%%%%%%%%%%%%%%%%%%%%%%o.-&-&-&=&-o-X+",
",-oooooooooXXXXX                .+$&.............. XXXXXXXXXXXX+",
"$:++++++++++$$$+OOOO+++OOOO++OO++:$:++++++OOO+#$#+O++++OOO++++++",
",$,$,:,::::,11,:,$,:,:;$$$;:,::$::,$,::::::::>,,,>::::$@OO@$::,:",
"55555333333333333-:,:7755555555333333333333333-:$,75555533333333",
"&-o--o=o-&4&-o-&-X+::5----o-X-&-o-o-=-o-o-o-&oX$:,5-o&-o-&-&-o-&",
"-&&-&-o=&o-o&o&o&X+::5&-&-o&X&=&-&o&=o&&&&o-o-X#:,5o-o-&-&&-&-&X",
"-&o&-o=o&-&o-&o=&X+:;5&&&-o&&-o-X--o-o-o&o&&o&X+:,5o-&&--&&&&o&&",
"&=o=oo-o-&-o&&o-oX+:;5-X&-o-X-&=o-o&&o-o-&o&=oX+:,5-oo-&&&-&-o&-",
"o-&-o-o&-o-&o&-&&X+:;5X--o-&&&o&X-o-o&&o&&o&&oX+::5o-&-&-&&&o-&-",
"o-&&o==o=o&o-o-o=X+::5X-&-o&&&X=o&X-&o-&o-o-o&X+$:5o-o&o-&-&oo-X",
"&=o-oo&o&&-o-o&&&X+:,4-X&-o-X&o-o-&o-o&-o&&&o&X+$:4ooo-o-&-&-o-&",
"XXXXXXXXXXXXXXXXXX+::-XXXXXXXXXXXXXXXXXXXXXXXXXO:,-XXXXXXXXXXXXX",
"+++++++++++++++++++:,:$##++++++++++++++OOOOO+OOO$::++++++OOOOO++",
"$,$,$$$:::::,,$::::,,,,,:::,:::,::$:::;$$;$$;:;$;,::$,::::;$;:::",
",,,,,,,,,,,,,,,,,,,,,,,,,,,,,,,,,,,,,,,,,,,,,,,,,,,,,,,,,,,,,,,,"
};
