/* XPM */
static char *out[] = {
/* columns rows colors chars-per-pixel */
"64 64 38 1 ",
"  c black",
". c gray11",
"X c #28200C",
"o c #302410",
"O c #382C14",
"+ c #202020",
"@ c gray19",
"# c gray22",
"$ c #483818",
"% c #543C1C",
"& c #5C4020",
"* c #6C4824",
"= c #744C28",
"- c #484848",
"; c gray36",
": c #646464",
"> c gray44",
", c #980000",
"< c #A40000",
"1 c #A80000",
"2 c #FC2020",
"3 c #A85400",
"4 c #B45400",
"5 c #80502C",
"6 c #885830",
"7 c #905C34",
"8 c #9C6038",
"9 c #A0643C",
"0 c #B47044",
"q c #C87C4C",
"w c #DC8854",
"e c #FCA470",
"r c gray55",
"t c #989898",
"y c gray66",
"u c #B4B4B4",
"i c #C0C0C0",
"p c #D0D0D0",
/* pixels */
"+O%&&&&*%******&&&%*%%%O$$Oo++X%%*%%%%%%%%%++X%%%%%%%%%%X+%%%%%+",
".&&&=*&=&*%&&=&%*%%%%&%$OoO$ .O*555555*%%%$ .O***===***&% =7==& ",
".=&=*&&%$%&===&%%o$$%%%$$O$% .O805***&5*%$o .O====**=665% =7=&% ",
".**&*&%&&=&&%*%&%$&$%%%%%Oo$ .O*==*%%&$%$$o .O===*=5=6==% **=*$ ",
".*==*&%%&=*&*&%%%&%&%%%$%%%o .O*5=*%%%$$oOo .O====*=**=*$ %&*%$ ",
".&*&&%&%&*&&%%%=$$$&=%$%%%%$ .o*****$$&$OOo .O==5=595=*&% &%%O% ",
".&&&%*%%=&&%%%&*oo$*=%&&%%%$ .X*%*%%%%%$$Oo .O=====95==&$ &%%o$ ",
".&=&&%**&%%%%$O$OO&&=&5*%$O$ .O*%**%%$$$Ooo .O====5==&=&% $O%Oo ",
".%%%%&%=*%%$%O$$oo==%*=*&%$% .O%%*$%$%%$%oO .O=5=55==*&=&       ",
".%&%=5=%*&%$*%%$$%*=&%%%=&O% .O=%%%%%%Ooooo .O==*5=*=&%*% .*==o ",
".%%&====&*%$%%$$O$===&%%&o%$ .o=%%$%%O%%ooo .O==**=&*=**% *05=% ",
".%%&=&=%*%,,,,,,,,,,,,,,,,,,,,,,,,,,,,,,,,,,,,,,,,,,,,5&O &0=&O ",
".O%*&*&&&*, ,,,,,,,,,,,,,,,,,,,,,,,,,,,,,,,,,,,,,,,, ,*%o &6=%o ",
".oO%*%%&*%,,,,,,,,,,,,,,,,,,,,,,,,,,,,,,,,,,,,,,,,,,,,%oo %*%O$ ",
".XX$$$$$$$,,,,,,,,,,,,,,,,,,,,,,,,,,,,,,,,,,,,,,,,,,,,O%o X%=&o ",
".         ,,,,,,,,,,,,,,,,,,,,,,,,,,,,,,,,,,,,,,,,,,,,o%o       ",
"%%%%&&&&&&,,,,,,,,,,,,,,,,,,14wwwww41,,,,,,,,,,,,,,,,,%%o X%%%%%",
"==***===88,,,,,,,,,,,,,,,<4upppppppppuq<,,,,,,,,,,,,,,%Oo %*575*",
"====*=**55,,,,,,,,,,,,,,qppppppr >ppppppe<,,,,,,,,,,,,$oO **808=",
"6==6====&&,,,,,,,,,,,,1uppppppr   >ppppppu3,,,,,,,,,,,oOO **8085",
"6=**5=&*&*,,,,,,,,,,,4pppppppr     tppppppp4,,,,,,,,,,O%o *5685=",
"69=*==**=*,,,,,,,,,,4pppppppr     ;ppppppppp4,,,,,,,,,ooo =5555*",
"65*==*==**,,,,,,,,,1pppppppr     ;ppppppppppp2,,,,,,,,ooo ==**5*",
"=5=====*&*,,,,,,,,,uppppppr     ;ppppppppppppp<,,,,,,,oOo ===55=",
"6=***===*=,,,,,,,,qppppppr     ;pppppr >ppppppe,,,,,,,O%o **55*5",
"5=*&*==***,,,,,,,<ppppppr     ;pppppr   >pppppp2,,,,,,OOo *5=56=",
"=&==****&&,,,,,,,4pppppi     #pppppr     >pppppe,,,,,,$OO *55=6*",
"====&&%%&%,,,,,,,upppppp>     >pppr       >ppppp<,,,,,O$o %588==",
"*===&&$$&%,,,,,,1pppppppp>     >pr         >pppp2,,,,,OOO %5775*",
"=%%&%&%%%$,,,,,,4pppippppp>     -     @     >pppq,,,,,ooo %5*===",
"*%%$$=&&*%,,,,,,wppt >ppppp>         ;p>     >ppy,,,,,$oo %*5=**",
"%&&%*%&=%&,,,,,,wpt   >ppppp>       ;ppp>     >py,,,,,$oo %*55=*",
"*%%*%*%*&=,,,,,,wi     >ppppp-     #ppppp>     ty,,,,,%Oo %*5**%",
"$%$*&=&%&=,,,,,,wp>     >pppr       >ppppp>   :py,,,,,Ooo %****%",
"$&&&O==%&=,,,,,,wpp>     >pr         >ppppp> :ppy,,,,,$oo $**=&&",
"&$&&%=*&&$,,,,,,4ppp>     -     @     >ppppptpppq,,,,,$Oo $*%*&%",
"%%&&o==*%%,,,,,,1pppp>         ;p>     >pppppppp2,,,,,$Oo $&%%%%",
"%&&$O&&=%&,,,,,,,upppp>       ;ppp>     >ppppppp<,,,,,o$o $%&%%%",
"%%%O%*&*%%,,,,,,,qppppp>     ;ppppp-     tpppppy,,,,,,%Oo $*&*%%",
"%&$%$&*%%&,,,,,,,<pppppp>   ;pppppr     :pppppp2,,,,,,%%o X&*%%&",
"          ,,,,,,,,wpppppp> ;pppppr     :ppppppy,,,,,,,%Oo .     ",
"......oooo,,,,,,,,<upppppptpppppr     :ppppppp1,,,,,,,OXo .X*$X.",
"..X*566677,,,,,,,,,2pppppppppppr     :ppppppp4,,,,,,,,Xoo .$*%O.",
"..*7997955,,,,,,,,,,4pppppppppr     :pppppppq,,,,,,,,,    .XoO$.",
"..*99765==,,,,,,,,,,,4pppppppi     :pppppppq,,,,,,,,,,..........",
"..=99775=*,,,,,,,,,,,,2ppppppp>   :ppppppp4,,,,,,,,,,,7777====%.",
"..=7676==*,,,,,,,,,,,,,,epppppp> :ppppppy1,,,,,,,,,,,,=======*% ",
"..=76=5==*,,,,,,,,,,,,,,,2yppppptpppppy2,,,,,,,,,,,,,,&&%&&==O% ",
"..=766==**,,,,,,,,,,,,,,,,,<23yyyyyq2<,,,,,,,,,,,,,,,,%&%%%&$O% ",
"..========,,,,,,,,,,,,,,,,,,,,,,,,,,,,,,,,,,,,,,,,,,,,%&%%*%%%O ",
"..=*======,,,,,,,,,,,,,,,,,,,,,,,,,,,,,,,,,,,,,,,,,,,,%%&&%*%%o ",
"..====507=,,,,,,,,,,,,,,,,,,,,,,,,,,,,,,,,,,,,,,,,,,,,%%%%&&OOo ",
"..===57676, ,,,,,,,,,,,,,,,,,,,,,,,,,,,,,,,,,,,,,,,, ,%&%%&%OOo ",
"..===6767=,,,,,,,,,,,,,,,,,,,,,,,,,,,,,,,,,,,,,,,,,,,,%%%%&OOXX ",
"..===5565==*%$OOOOoOO$OoX .&==7=&*66=%%$$$OX .7=*55%$%%$$%%$OOX ",
"..5=====&*=&%&%$$oOOOOOOX .*==7=&&==**&%%OOX .7==5**=$$$$OOoOXX ",
"..5====*&&&**%&o$o%oooooX .*=*65=%%&%%%%$$oX .7==****$$%OoXXoXX ",
"..5==&&%&&&*&%$Oo%%$$$oOX .&***=%%%$%%OO%ooX .7*=&*5*%%$OXoOoXX ",
"..5*&&%%%%%%&&$$O%%$$O$oX .&=*&*&%%%&%$X$$oX .7&****%%$%OO%OoOo ",
"..=*&*%%%oO$$%ooO$$$OOOoX .%**&&&%$%%$%$$$OX .6=%&&%%%$XooO$OOo ",
"..**%%%%OXXO$O$O$$$OOoooX .%**%%O$$O%o$$OoXX .*%&&%%%oOOOooOoXX ",
"..*&&%&$$O$$$OOOOOOOOooXX .%*&%&$%$O$OOooXXX..*%%%%$$OOOoooOXXX.",
"++$$$$$$$$$$$$$$$$$$$$$$$++$$$$$$$$$$$$$$OOO++%%%%%OOOOOOOOXXXX.",
"################################################################"
};
