/* XPM */
static char *out[] = {
/* columns rows colors chars-per-pixel */
"64 64 38 1 ",
"  c black",
". c gray11",
"X c #28200C",
"o c #302410",
"O c #382C14",
"+ c #202020",
"@ c #2C2C2C",
"# c gray22",
"$ c #400000",
"% c #4C0000",
"& c #580000",
"* c #640000",
"= c #700000",
"- c #7C0000",
"; c #483818",
": c #543C1C",
"> c #404000",
", c #585400",
"< c #706C00",
"1 c #5C4020",
"2 c #6C4824",
"3 c #744C28",
"4 c #484848",
"5 c gray33",
"6 c #646464",
"7 c gray44",
"8 c #7C7C7C",
"9 c #880000",
"0 c #80502C",
"q c #885830",
"w c #905C34",
"e c #9C6038",
"r c #A0643C",
"t c #B47044",
"y c #9C9C00",
"u c gray55",
"i c #989898",
"p c gray66",
/* pixels */
"+O:11112:222222111:2:::O;;Oo++X::2:::::::::++X::::::::::X+:::::+",
".111321312:1131:2::::1:;OoO; .O20000002:::; .O2223332221: 3w331 ",
".313211:;:y<3y==9&==9&=9&==8+8888888+8===9&===9&===y3y<0: 3w31: ",
".22121:113,,><&&&$&&&$&&$&&5+5555555+5&&&&$&&&&$&&&<>,,O: 2232; ",
".23321::13>>2>$$$$$$$$$$$$$@ @@@@@@@ @$$$$$$$$$$$$$>2>>O; :12:; ",
".1211:1:121XOO&&&%&&&%&&%&&5 5555555 5&&&&%&&&&%&&&.OOOX: 1::O: ",
".111:2::311:::*=*%*=*%*&%**8 8888888 8*=*&%**=*%***:0331; 1::o; ",
".1311:221::::;**&&**&%**&**8 8888888 8**=*&****%***O3131: ;O:Oo ",
".::::1:32::;:O*=*&*=*&*&&&*8 8888888 8*=*&&&*=*&***O32131       ",
".:1:303:21:;2:=*&&&*&&&*&**8 8888888 8**=*&*=*&&***O31:2: .233o ",
".::1333312:;::*=*&*=*&*&&&*8 8888888 8*=*&&&*=*&*** 2322: 2t03: ",
".::1313:2::;;;=*&&&*&&&*&**8 8888888 8**=*&*=*&&&**.0001O 1t31O ",
".O:2121112:;:;*=*&*=*&*&*&*8 8888888 8*=*&*&*=*&*** 122:o 1q3:o ",
".oO:2::12::;OO=*&***&&&*&**8 8888888 8**=*&*=*&&&** 12:oo :2:O; ",
".XX;;;;;;;;oXO*=*&*=*&*****8 8888888 8***&***=*&*** 1;O:o X:31o ",
".             =*****&&&*&**8 8888888 8**=*&*=*&&&**.::o:o       ",
"::::1111111221*=*&*=*&*****8 8888888 8*******=*&***.::::o X:::::",
"33222333ee2:::=***********=8 8888888 8=*****=*&*&**.;::Oo :20w02",
"333323220022:;*****=*&**=958 8888888 859=****=*&*** ::;oO 22ete3",
"q33q3333112::;=********9586 688888886 6859=******** ::oOO 22ete0",
"q3220312122:O:********958+ 84+     +68+ 859=***&*** 1:O:o 20qe03",
"qr323322321:;O*******958 58+ 4558886 +85 859******* ::ooo 300002",
"q023323322::O;******=58 58 45+  588884 85 85=******O:Oooo 332202",
"30333332123O2;******98+58 85+    588888 85 89******.;;oOo 333003",
"q322233323::oo*****=54 8 85+    +585++88 84@5=*****.:;O:o 220020",
"03212332222:oo*****98+8+48+    +585+  +84 8 89*****.:OOOo 2030q3",
"3133222211OoOo*****55 6 88+    +@5+    +8 64@5***** ;O;OO 2003q2",
"333311::1::OoO*****8+6+4885+    ++      +5+6+6*****.:OO;o :0ee33",
"233311;;1:;;O;*****8 8 88885+            5 8 8*****.;:OOO :0ww02",
"3::1:1:::;::Oo*****8 8 885@85+      +    5 8 8*****.::ooo :02333",
"2::;;3112::;;;*****8 8 85  +8@     +5#  56 8 8*****.;:;oo :20322",
":11:2:13:11:2:*****8 8 8    +       +5@568 8 8*****.:;;oo :20032",
"2::2:2:2132:::*****8 8 8             +5888 8 8*****.;::Oo :2022:",
";:;2131:1331;O*****8+6+5+      ++     +884+5+8***** ;:Ooo :2222:",
";111O33:131::;*****8@46+8+    +58@     88+84@5*****.;;;oo ;22311",
"1;11:3211;11:O*****58 8 48+  +585+    +84 5+84*****.;:;Oo ;2:21:",
"::11o332::11o:*****=8@48 88++588+    +58 54@59*****.;;;Oo ;1::::",
":11;O113:11;O;**&***98 58 8888885   +58 85+89=***** :oo;o ;:1:::",
":::O:212:::O:;***&**=58 58 4888885 +58 85 85=******.oO:Oo ;212::",
":1;:;12::1;:;o**&*&**958 #8 +4888884+ 8@ 859******* o;::o X12::1",
"              *&*&***=958  85       58  859&******* oo:Oo .     ",
"......oooooooo**&&&***=958@ 688888886 @859&*&****** XXOXo .X2;X.",
"..X20qqqwwqqq3*&*&*&****=966 8888888 669=**&******* XoXoo .;2:O.",
"..2wrrwr003333**&*&*******=8 8888888 8===*&*&******       .XoO;.",
"..2rrwq0333313*&*&*&***=***8 8888888 8*=***&***=*** ............",
"..3rrww0323230**&&&***=****8 8888888 8===*&*&***&**:wwwwww3333:.",
"..3wqwq332323q*&*&*&***=***8 8888888 8*=***&***=***:0033333332: ",
"..3wq303323223**&&&***=****8 8888888 8===*&*&*=*&**O3111:1133O: ",
"..3wqq33222323*&*&*&*******u+u888888 8*=***&*****&*O20:1:::1;O: ",
"..333333332112**&&&***=*&*=u+8888888 8===*&*&*=*&**Ot0:1::2:::O ",
"..323333331::2*&*&*&*=****=i 78u8888 8*=***&***&*&*O02::11:2::o ",
"..33330tw311::**&&&***=*&*=i 78u8888 8=*=*&*&*=*&**:23::::11OOo ",
"..3330wqwq211:***&*&*=*&*&=p 67u8888 8*=***&***&*&*O3::1::1:OOo ",
"..333qwqw332::**&&&***=*&*=p 67u8788 8**=*&&&*=*&**O:2::::1OOXX ",
"..33300q0332:;***&*****&&&=p+57u8788 8*=***&***&&&*.;::;;::;OOX ",
"..0333331231:1**&&&***=*&**p+47i8788 8**=*&&&***&**O3;;;;OOoOXX ",
"..03333211122:***&*****&&&*p+#7i8788 8*==**&***&&**O2;;:OoXXoXX ",
"..03311:11121:**&&&***=*&**7+@7i8788 8**=**&&**=&**O2::;OXoOoXX ",
"..0211::::::11**=&****=&&**4++7u8788 8**=**%&**=&**O::;:OO:OoOo ",
"..3212:::oy<;y==9%=-==9*%==95+5ppppp+p==9**%&==9%-*y:y<XooO;OOo ",
"..22::::OX,,><%%*$$&%%*&$$%&+ +55555 5%%*%&$$%%&$&%<>,,.OooOoXX ",
"..211:1;;O>>;>$$$$$$$$$$$$$%   +++++ +$$$$$$$$$$$$$>;>>.oooOXXX.",
"++;;;;;;;;;                                   ..........OOOXXXX.",
"################################################################"
};
