/* XPM */
static char *out[] = {
/* columns rows colors chars-per-pixel */
"64 64 45 1 ",
"  c black",
". c #28200C",
"X c #302410",
"o c #382C14",
"O c #202020",
"+ c #2C2C2C",
"@ c gray22",
"# c #4C0000",
"$ c #640000",
"% c #700000",
"& c #7C0000",
"* c #403018",
"= c #483818",
"- c #543C1C",
"; c #5C4020",
": c #6C4824",
"> c #744C28",
", c #484848",
"< c gray33",
"1 c #646464",
"2 c gray44",
"3 c #880000",
"4 c #980000",
"5 c #A40000",
"6 c #A80000",
"7 c #D40000",
"8 c #FC0000",
"9 c #80502C",
"0 c #885830",
"q c #905C34",
"w c #9C6038",
"e c #A0643C",
"r c #A86840",
"t c #B47044",
"y c #BC7848",
"u c #C87C4C",
"i c #D08050",
"p c #DC8854",
"a c #E88C58",
"s c #F0945C",
"d c #FC9C60",
"f c #FCA470",
"g c gray66",
"h c #FCB080",
"j c #FCBC9C",
/* pixels */
"XXXXXXXXXXXXXXXXXXXXXXXXXXXXXXXXXXXXXXXXXXXXXXXXXXXXXXXXXXXXXXXX",
"XXXXXXXXXXXXXXXXXXXXXXXXXXXXXXXXXXXXXXXXXXXXXXXXXXXXXXXXXXXXXXXX",
"Xqqqqqqqqqqqqqqqqqqqq>X XX>qqqqqqqq9>o  XXX>qqqq>>-X.XXXXXXXXXXX",
"Xqqqqqqqqqq<<<<<<<<<<<<<<,,,,,,,,,,,,,,,,,,,,,,,,,,,,,qqqqqqq; X",
"Xqqq-;>>>>><,,,,,,,,@@@@@@@@@@@@@@@@@@OOOOOOOOOOOOOOOOqqqqqq;X X",
"Xqq>>>o->>;<,222222222222222222222222222222222222222+O->>-->XX X",
"X9q->->o>-;<,222222222222222222222222222222222222222+O-o->--XX X",
"X9q;>>->---<,222222222222222222222222222222222222222+O>;>->;XX X",
"X-q-;->->;><,2222222222222<@+++++++<1222222222222222+O>;;>o;XX X",
"X-q--;-----<,222222222222+OOOOOOOOOOO+<2222222222222@O->->-;XX X",
" Xq>-;>>;-;<,22222222222+OOOOO+OO OOOOO+<22222222222@O;-;;;-XX X",
" Xq-;->--;><,2222222222yr,OOO++1<+ O+OOO+<2222222222@O;-oooooX X",
" Xqo>>-;-;><,2222222222psss,re,<1@ @,@OOO+<222222222@OoXXXXXXX X",
" XoXXXXX.Xo<@222222222ysddfs,te++O O+OOOOO@222222222@OXX....   X",
"     ...XXX<@222222222psddhs,tOOOO OOOOOOO+222222222@O         X",
"X          <@22222222pssdhsssiOOOO OOOOOOOO222222222@O         X",
"X...       <@22222222rqeahssssw99:;OOOOOOOO222222222@OXXXXXXXXXX",
"XXXXXXXXXXX<@222222222..:ehssdaiqqqq;OO OO+222222222,O; XX      ",
".........XX<@22222222drOeaishaiiyiiq>*O OO+222222222,OX X->qqqqq",
"qqqqqqqqqqq<@2222222djsyasssaiiup*qi**  O+,222222222,OX X>qqqqqq",
"qqqqqqqqqq9<@222222hjhapydsaiiuyat;a**  O,2222222222,OX Xqqq>;;>",
">---->;-;-><@222222ueeerpypppuyytqie**  +22222222222,OX Xqqq-;--",
"--;-;>>>>;-<@22222222O*ayappiuyrpat-**O ,22222222222,OX Xqq>---;",
"->>->;>-;>><@22222222*9saiaiureqt:---**+222222222222,OX  qq-;>>;",
">-->-;----><@22222222dppsaiirqq9ey>>-**,222222222222,OX  qq>-;--",
"->--;->;->;<@22222222taisapurq99waye:**2222222222222,OX  qq->;;;",
"XXXooo-----<@22222222adaypye9>9waaaieq--222222222222,OX  q>oXXXX",
"XXXXXXXXXXX<@22222222iayeq9>>9wyaaee>;--<12222222222,O   >oXXXXX",
"...........<@222222222229:::9wyaee>>>;;o--,122222222,O          ",
".          <@2222222222222w9wwae>>9>:-o;;---,1222222,O          ",
"XX.        ,@222222222221twwta>>999-o;000>>;:-,12222,O....... .X",
"XXXX       ,O22222222211tettw99ww-o;0wwwwwww99:-,222,Oqqqqqq>  X",
"XXX>9qqqqqq,O222222221,ttetr0ww:o;0wwwwwwwwwww9:-<22,Oqqqqq>-  X",
"XX>qqqqqqqq,O22222221,-t0ttrrw-o9wwwwq9;99wwwww9;-<2,O->->--.  X",
"XX9q9>>>->-,O2222222,;-t0ttrw--0wwwwq0;;9999:::::;-2,O>;---X.  X",
"XXqq->->>>-,O2222221;;-t;0tw--wwwwww0>-;99:999::::-2,O-->--X.  X",
"XXqq>;;-;->,O222222,>>-9-0-o0wwwwwwq>;**wwwww99:;;*2,O->;>;X.  X",
"XXqq-;->-;-,O2222229>>-;-00>wwwwwww0;**wwtwww9w9--.2,O-;;-;X.  X",
"XXq>-->----,O2222219>>*-:00wwwwwwwqq;*wwtwwt9>w9-*.2,O--;;>X.  X",
"XX>XXX--;->,O22222,9>>--00eerrwwww9;**wtwwtw9>w:-*.2,O>>;->X.  X",
"X  ...X>>--,O2222209>>-:0eerreee-9:**99wwwt9>0w:-*.2,O>->>-X.  X",
"X.    .XXXX,O2222100>--00eereee-9::*<gg9ttw0>ww;*.+2,O;>-;-X.  X",
"XXXX.   ...,O2222,0>>>-00>-..ee-:**<OO+g7t-9>ww-*.,2,O;-;->X.  X",
"XXXXX.     ,O222199>>-:0wee..--:*<OgOgggg7->9ww-*.<2,O-;--XX.  X",
"XXXXXX.    ,O222,qqq>-00eer;q::*&<+OOOO+g644>ww-.*22,OXXXXXX   X",
"XXXXXXXXXXX,O22299qq--0weer>q::&58gggOgO26433>:-.*22,O.....    X",
"X;9999>;-oX,O222wq>>-;0weeeq:*94472OO+g2<433&%-.**22,O         X",
"X9qqqqqqqqq,O222w>q>0>0weee:*uer;o72gg2<433&%$-.**22,O         X",
"X9qqqqqqqqq,O22yrw>-w99:::eur0urr;o7764433&%$$#**-22,O        XX",
"X9qq;---->>,O22ytrwww99999uuu00uewwoo4433&%$$#**--22,OX         ",
"X9q;--;>>>;,O222yttyy999rruurueuuw99oo33&%$$#***-:22,O>>>>>>>>o ",
"X9q-;>---;-,O2222yy2yywweuueeruuur99-o3&%$$#***::922,OqqqqqqqqX ",
"X9q>->>->;-,O222222222rrwueqq99rrr9:=oo%$#****-:9w22,O->>-->--X ",
"X9q>>;-;---,O222222222irrewwqq;;;;:---=$#**--:>9wr22,O->->-->-X ",
"X9q-;->->->,O2222222222irrrrrewwq::::::#*--:>9wrrp22,O;-->-;->X ",
"X9q>-;---;-,O222222222222iyyyyyyyrrq999-::>9wrrpp222,O--;->->-X ",
"X9q->-;----,O222222222222222iiiiiiiiitttttrrpp222222,O->-;-;;.X ",
"X9q--;-----,O2222222222222222ppp22222uuuuuuu22222222,OoooooooXX ",
"X9q>----->-,O222222222222222222222222222222222222222,O......... ",
"X99--->-;->,O+++++@@@@@@@,,,,,,,,,,,,,,,,,,,,,,,,,,,,O          ",
"X;9XXXXXXXX9..........................................          ",
"XX;............  X                         .X.                 X",
"X                X..........................XXX................X",
"oooooooooooooooooooooooooooooooooooooooooooooooooooooooooooooooo"
};
