/* XPM */
static char *out[] = {
/* columns rows colors chars-per-pixel */
"64 64 52 1 ",
"  c black",
". c #28200C",
"X c #382C14",
"o c #202020",
"O c #2C2C2C",
"+ c gray22",
"@ c #700000",
"# c #7C0000",
"$ c #483818",
"% c #543C1C",
"& c #6C4824",
"* c #744C28",
"= c #484848",
"- c gray33",
"; c #646464",
": c gray44",
"> c #7C7C7C",
", c #880000",
"< c #980000",
"1 c #A40000",
"2 c #A80000",
"3 c #B00000",
"4 c #BC0000",
"5 c #C80000",
"6 c #D40000",
"7 c #E00000",
"8 c #EC0000",
"9 c #FC0000",
"0 c #FC2020",
"q c #9C4C00",
"w c #80502C",
"e c #905C34",
"r c #A0643C",
"t c #CC6000",
"y c #B47044",
"u c #FC5C5C",
"i c #C87C4C",
"p c #FC8820",
"a c #FCF400",
"s c #DC8854",
"d c #FCA85C",
"f c #FCA470",
"g c gray55",
"h c #989898",
"j c gray66",
"k c #B4B4B4",
"l c #C0C0C0",
"z c #D0D0D0",
"x c gainsboro",
"c c #FCFCD8",
"v c #ECECEC",
"b c gray99",
/* pixels */
"................................................................",
"%%%%%%%%%%$ssssssssssssssss.Xeyissssssiiye%.$$$$$$$$$$%%%%%%%%%%",
"%%%%%%%%%%$ssssissssssissse.Xeiyeyeeeeeey%X.X*eeeeeew*&$$$$$$$$$",
"eeeeeeea.%$ssiysysiysiiyse&.Xysyeyeyeyeye%X.Xessssssiyyeeaeeeeee",
"ssssyydc.%$ssyyyyeyyyyryyw%.Xeieeeyyyyee*%X.Xessiiisssssscdsssss",
"yyyydaccpaaa  aaaaaaaaaaaaaaaaaaaaaaaaaaaaaaaaaaaaa  aaaccaadyer",
"yryrtttaqqqqy   qqqqqqqqqqqqqqqqqqqqqqqqqqqqqqqqqq  j qqqdttt%ey",
"yywye&%p.%%..993  ..............................  ,3  %%%t%%%%yr",
"ryyrr*$$..$&&99773<## XX$$$%%%%%%%%%%%%%$$$XXX@33343%%&ww&%&wwwe",
"eeee*%$$..$yf99776543223469b=b9642k h2,<356800997643%&weeyewyeye",
"****%$XX..$es99776543223469b=b9642k h2,<356800997643%&w**&&&&&&&",
"%%$$X.....$*s99776543223469b=b9642k h2,<356800997643%%%%%$$$$$$$",
".........X%$s99776543223469b=b9642k h2,<356800997643XXXXXXX.....",
".........X%$y99776543223469b=b9642k h2,<356800997643XXX.........",
"XXXXXXXXXX%$e99776543223469b=b9642k h2,<356800997643...XXXXXXXXX",
"%$XXXXXXXX%$*99776543223469b=b9642k h2,<356800997643..$$$$$$$$$$",
"rrrrrrrrr..%$99776543223469b=b9642k h2,<356800997643%&wrrrrrrrrr",
"ssssssyy*X.%$9977654322346ub=b9642k h2,<356800997643%&wsssssssss",
"yreyeyy**X.%$997765432234ubb=bvvxzk hh;<356800997643%&wyyyyyyyyy",
"yeyeyee**X.$%99776543223:xb-=bvvxzkj  >:=56800997643%&wryryererr",
"yreyeyy*%X.$%9977654322:lO=bh=++Ooo hh  h:6800997643%&wrererwwee",
"yeyeyee*%X.$%997765432:lO:b-=bvvxzkj  >: j:800997643%&wryryererr",
"eywweey*%X.X%997765432k :x=bb-++gzkjh: :: k800997643%&wrererwwee",
"eewweye&$X.Xe99776543j :lObbg=++-zkjhh> h: z00997643%&weyeyewwer",
"eeyyeee&$X.Xs9977654;j lOxbg==+-gzk- O>: j zh0997643%&wrereeyeye",
"ryeeye*%XX.Xs9977654g k lxg-==-gxz-   O:h k v0998643XXX%%%&&*wee",
"&&&&&%$XXX.Xsbbbzkhgg k lj=-==-gx-o    Oh : vvvxzjg:XXX$$$$$$%%%",
"%$$XXX....XXs>>+++   j llxg-==+--oo     O: z=;--O   .........XX$",
"......$$$$$$sbbbzkhggj llxbg==++Ooo O    j zvvvxzjg:..XXXX......",
"$&&*ereeee$.s9977654gj llxbbg=++OooOhO   j zv0997543$$%%%%%%%XXX",
"&eyssssssy*.s9977654gj lOgbbb-++OoO;hhOOOj zv0997543%&we&%$$$$$%",
"&yssiyyyry$.f9977654gj lOOgbg=++Ooo ;h>:hj zv0997543%&wssssssrX%",
"&syyyeyrye*.fbbbzkhggj lOO=-==++-oo  ;>:hj zvvvxzjg:%&wyeeyeewX%",
"&syreyeyey*.f>>+++   j l-O=-==+gx-o   >:h: z=;--O   %&weyyeye&X$",
"&syryeyywy%.sbbbzkggg : l-=-==gvxz-    :h k vvvxzjg:%&weeyeey&X$",
"&syyeeyrye%.s9977654g k lxg-=gvvxz-    :h k v0997643%&weyeyey%X$",
"&syeyyeyey%.i99776543j lOxbbbbvvx-o   >: j zg0997643%&weeyeey%XX",
"&syyyeyrye%.y99776543j llObbbbvvxoo  h> h: v00997643XX%%%%%%%XXX",
"&syeyyeywy%.r997765432k lx=bbbvvx-o h= :: k:00997643...........X",
"&syeeryeye%.w997765432ulOxb-=bvvxzkj  >= jg800997643..XXXXXXXXXX",
"&syyyeryryX.%9977654322ulO=bb=++Ooo hh  hg6800997643X$%wwwwwwwX%",
"&syeeyeye*X.$99776543223uxj-=bvvxzk:  >::56800997643%&wiiiiiiwX%",
"&syyyryey%..$9977654322346hb=bvvxzk hh;<356800997643%&wfssssr&.$",
"&syryeyye%..$99776543223469b=b9642k h2,<356800997643%&wiyiiyw%.$",
"&iyyeyeee%..$99776543223469b=b9642k h2,<356800997643%&wyeyey*%.X",
"$ieeye***X.X$99776543223469b=b9642k h2,<356800997643%&weyyye*%.X",
"$yyyye%%%..X$99776543223469b=b9642k h2,<356800997643%&wyeyey*%.X",
"$www%%%%X..X$99776543223469b=b9642k h2,<356800997643%&wewrer*%.X",
"$X...XXXX.X$$99776543223469b=b9642k h2,<356800997643%&weyeww*%.X",
"%%%$X.....X$X99776543223469b=b9642k h2,<356800997643%&wwerww*%.X",
"$$$$$$$...X$X99776543223469b=b9642k h2,<356800997643%&weeeer*X.X",
"$wyyyyre&$$%X99776543223469b=b9642k h2,<356800997643%&wwwwww&X.X",
"$yisssssiyye*99776543223469b=b9642k h2,<356800997643XXXXXXXXX..X",
"$ysyyeissssiy99776543223469b=b9642k h2,<356800997643..........X$",
"$ysyyyyyeyiss99776543223469b=b9642k h2,<356800997643........XX$$",
"$ysyeywwyrewy99776543223469b=b9642k h2,<356800997643..XXXXXX$$$%",
"$ysyyyryererye%%%%%%%$$XX<<j j<<<<; ;    #160099764..$$$$$$$%%%%",
"$yiyeywwryeyyrewwwwwww*&&%%%%%%%%.X$%%%%%%%$XXXXXX$$%wsssiyrw$$%",
"$ye&&&&&&&&&&&&&&&&&&&&&&&&&&&&%%X.X$wwww**&&&%&&wwweyeyryeysr.%",
"$e&XXXXXXXXXXXXXXXXXXXXXXXXXXXXXXX..$yyywwwww&$yyeyeyyyeyeyey%.%",
"$X..................................$X$X%&&&&&$syrryyrryryyee%.%",
"%$XXX...............................X%%XX.....X%%%%%%%%%%%%%%%.%",
"%%%%$$$$$$$$XXXXXXXXXXXXXXXXXXXXXXXXX%%%%XXXXXX%%..............%",
"................................................................"
};
