/* XPM */
static char *out[] = {
/* columns rows colors chars-per-pixel */
"64 64 28 1 ",
"  c #00002C",
". c #000034",
"X c #202020",
"o c #282828",
"O c #2C2C2C",
"+ c gray19",
"@ c gray22",
"# c #000040",
"$ c #00004C",
"% c #000058",
"& c #280040",
"* c #000064",
"= c #000070",
"- c #00007C",
"; c gray25",
": c #484848",
"> c gray33",
", c #646464",
"< c #000088",
"1 c #000098",
"2 c #0000A4",
"3 c #0000A8",
"4 c #0000B0",
"5 c #0000BC",
"6 c #005C9C",
"7 c #0000C8",
"8 c #0000D4",
"9 c #0000E0",
/* pixels */
"oooooooooooooooooooooooooooooooooooooooooooooooooooooooooooooooo",
">>>>>>>>>>:144444444444443<X@*<112111111<*#X::::::::::>>>>>>>>>>",
">>>>>>>>>>:588878888887885<X@<44332222121*#X@*<1111<<-*:::::::::",
"1111<<<*X>:587777777775751*X@15311111111<%.X@<577777542111<<<<<<",
"5554321=X>:57444333443333<$X@<321122221<=$.X@<787777777555444444",
"444431<*X>:57323322222122-$X@:<11211211-%$.X@<774333343323333323",
"432221-%X::77312222111121-$X@:=<1211111=$. X@<752111111111121112",
"43221<*$X@:57311221111111=$X@::-11<<<<<*#. o@<772111111111111111",
"2211<=%#Xo:37322111111111=$XX:>:*%$$$$$#. Xo@<772111111111111111",
"<<<<=%$.Xo:27422111111111=% X@:@#.      XXX:::452111111<<1<111<<",
"===*%#. Xo:154211<<111111=% X@:@ooXXXXXoooo:>:2311<<<<<-=*******",
"$$$$#XXXXo:<5411<<<1111<<-%.X@::::=<<111<=%@>:11--=***%%$$$$$$$$",
"XXXXXoooo@>:4521111111111-%.X@:=125777541-$X>:***%$$$$#...      ",
"ooooooooo@>:252111111111<=$.Xo@1577533321*#X@@@@@@@@@@@ooXXXXXXX",
"@@@@@@@@@@>:<43111111111<*$.Xo:177411111<*.X@oooooooooo@@@@@@@@@",
">:@@@@@@@@>:-33211111111<*%#Xo:274111111<*.X@:>>>>X:::::::::::::",
"111111<<*oX>:24211111111<=*$XX:273112111<%.X@=146>:>-11111111111",
"55555431=#X>:<321111111<--*$XX:17411111<-%.X@1771X:-477777777777",
"4333332<*#X>:=11111<<<<=**%#XX:1421-==**%$.X@373<X:1777555555555",
"2111111-*#X:>:<<--==***%$$# XXo<1-=*$##... X*452-X:1773222221112",
"2111111-%.X:>:%%$$$$##..XXXXXXo**$$.XXXXXXXX-542-X:154211111<<11",
"2111111=$.X:>:ooooXXXXXXXXXXXXo@*.XXXXoooooo<742-X:<43111111<<11",
"11<<111=$.X@>>:@XXXXXXXX:::::::<1111<<<*$o@*3741=X:<43111111<<11",
"11<<11<*$.X@<34321<<=;@:*<1233477777774<%X@<5731*X:<33111111<<11",
"111111<*$ X@27433321<@>:<57775577777753<$X@<7521*X:=111<<<<<<111",
"<1<<<<*$# X@34222221-+>:177442222323321*$X@1752<%X:%==******=-<<",
"*****%$.  X@34222211*O::17532111111111<*#X@1742<%X>X#######$$$%*",
"$$##..XXXXo@3321221<%o::174211111<1111<*#X@1742<%X>@XXXXXXXXX..#",
"XXXXXXooo:::3311121<%X@:1731111<<<1111<*#X@1742<%X>@@@@@@@oooXXX",
":%*-<<<<<-$X3411111<*.X:174111<<<<1<11<*#X@17421%X>:::>>>>>>>@@@",
",<35775541*X3421<11<*#X:17521111<<1<11<%.X@<531<%X:<2211<>:::::>",
",377754431*X34211111=$X:<5731111<<1111-%.o@<531<%X:2324543331-@>",
",474322221*X34222111=$X@>475211111<<11-$.o@<532<%X:3212333331=@>",
",552112211*X34122111=$Xo>2853211<1<<11=$ o:<542<%X:342111111<*@:",
",55211221<*X34221111=$Xo>1773111111111*#Xo:<531<%X:3422211111*@:",
",55211221<%X35111121*$XX:<57311111111<*#Xo:<31<*$X:1322211111*@:",
",55222121<%X2721111<=$XX:*27311<<<<<-*$.X@:=<-%@@@:<1<11<<<<<%@@",
",55322221<%X17211111=$XX@><32<-**%$$$#. X@:>@@@@::X%%%%%%%%%$$@@",
",55222111<%X<531111<=$XX@>:--*$$.XXXXXXXX@:>::>>>>>XXXXXXXXXXXX@",
",55211211<%X-5311111=$XXo::@oooXXoooooooo@:>>:::::::::@@@@@@@@@@",
",55211121<%X=4411111=$XXo:::@@@@@::::::::::>>-<<<<<<<<<<<<---*@>",
",55211111=$X*4411<11=$ Xo@*-<<<<<<<<<<<<<<1124555555555555542=@>",
",4532221<*Xo*441111<=$ XX@=2555555555555777899999999989988771*o:",
",4532121<%Xo*441111<*$.XXX-478999998998999999887777775777753<%o:",
",342111<-$X@*332111<*$.XXX=477777755775777775432223321233321-$o@",
":12211-=*$X@*221111<=$.XXX*475212212223322233211111211112221=$o@",
":1111-*%$Xo@*121111<=$.XXX%387211111112111221111111111111111=$o@",
":*=**%%$$Xo@%<11<<<=*$.XXXo28731111111111112111111111<<1111<=$X@",
":@XXX#$$#X@:$******%$$.XXXo177311111111<<11111111111<<<111<<=$X@",
">>>:@XXoXo@:o##........XXXo<441111111111<1111111<111111<11<<=$X@",
":::::::ooo@:@@XXXXXXXXXXXXo=<-=****=<<111<<<<<<<<111111<<<<<=$X@",
":-11211<=::>@@oooooooooooo@>:@@ooooo%*---------------------=*#X@",
":1577777421<-**%@@@@@@@@@@:>::@@@@@@o$$$%$$$$$$$$$$$$$$$$$$$$Xo@",
":17744777775322211111<<<<-==>>:::::@@oooooooooooooXXXXXXXXXXXo@:",
":2743334345777777777555444332211=:>:@@@@@@@@@ooooooooooooooo@@::",
":1742211111233333234333344577752-@:>:::@@@@@@@@@@@@@@@@@@@@@:::>",
":1742211111121111<1111112233443<*X@>:<331<:::>>>::::::::::::>>>>",
":13111<<<1<11<<<<<<<<<<<111111<=$X@::35575431>>:13433333211<<::>",
":<<=***************************$$ X@:35455441=><4444343333222=X>",
":**##............................ Xo:<1111<<<*:13222222222211*X>",
":@XXXXXXXXXXXXXXXXXXXXXXXXXXXXXXXXXo:@:@**%%%$:11<<111<1<11<-$X>",
">:@@@ooooooooooooooooooooooooooooooo@>>@@XXXXX@**%%%%%%%%%%%$#X>",
">>>>::::::::@@@@@@@@@@@@@@@@@@@@@@@@@>>>>@@@@@@&$XXXXXXXXXXXXXX>",
"@@@@@@@@@@@@@@@@@@@@@@@@@@@@@@@@@@@@@@@@@@@@@@@@@@@@@@@@@@@@@@@@"
};
