/* XPM */
static char *out[] = {
/* columns rows colors chars-per-pixel */
"64 64 57 1 ",
"  c black",
". c #00001C",
"X c gray11",
"o c #28200C",
"O c #382C14",
"+ c #00002C",
"@ c #000034",
"# c #202020",
"$ c #282828",
"% c #2C2C2C",
"& c gray19",
"* c gray22",
"= c #4C0000",
"- c #640000",
"; c #700000",
": c #7C0000",
"> c #403018",
", c #483818",
"< c #543C1C",
"1 c #5C4020",
"2 c #6C4824",
"3 c #744C28",
"4 c #000040",
"5 c #00004C",
"6 c #000058",
"7 c #280040",
"8 c #000064",
"9 c #000070",
"0 c #00007C",
"q c #484848",
"w c gray33",
"e c #646464",
"r c gray44",
"t c #880000",
"y c #980000",
"u c #A40000",
"i c #A80000",
"p c #D40000",
"a c #FC0000",
"s c #80502C",
"d c #885830",
"f c #905C34",
"g c #9C6038",
"h c #A0643C",
"j c #A86840",
"k c #B47044",
"l c #BC7848",
"z c #C87C4C",
"x c #D08050",
"c c #DC8854",
"v c #E88C58",
"b c #F0945C",
"n c #FC9C60",
"m c #FCA470",
"M c gray66",
"N c #FCB080",
"B c #FCBC9C",
/* pixels */
"$$$$$$$$$$$$$$$$$$$$$$$$$$$$$$$$$$$$$$$$$$$$$$$$$$$$$$$$$$$$$$$$",
"$$$$$$$$$$$$$$$$$$$$$$$$$$$$$$$$$$$$$$$$$$$$$$$$$$$$$$$$$$$$$$$$",
"$68888888888888888886&$ $$%666666666%$  $$$%66667%%$#$$$$$$$$$$$",
"$8009900009wwwwwwwwwwwwwwqqqqqqqqqqqqqqqqqqqqqqqqqqqqq6888886@ $",
"$8098888888wqqqqqqqq******************################8999985+ $",
"$8088655686wqrrrrrrrrrrrrrrrrrrrrrrrrrrrrrrrrrrrrrrr$#5686654. $",
"$8986655555wqrrrrrrrrrrrrrrrrrrrrrrrrrrrrrrrrrrrrrrr$#455555+. $",
"$8886655555wqrrrrrrrrrrrrrrrrrrrrrrrrrrrrrrrrrrrrrrr$#556555+. $",
"$5865555555wqrrrrrrrrrrrrrw*$$$$$$$werrrrrrrrrrrrrrr$#566655+. $",
"$5865555555wqrrrrrrrrrrrr$###########$wrrrrrrrrrrrrr*#555655+. $",
" $865566555wqrrrrrrrrrrr$#####$## #####$wrrrrrrrrrrr*#455554+. $",
" $665565556wqrrrrrrrrrrljq###$$ew$ #$###$wrrrrrrrrrr*#44@@@@+. $",
" $555555455wqrrrrrrrrrrcbbbqjhqwe* *q*###$wrrrrrrrrr*#++++++.. $",
" $++++++++4w*rrrrrrrrrlbnnmbqkh$$# #$#####*rrrrrrrrr*#......   $",
"     .....+w*rrrrrrrrrcbnnNbqk#### #######$rrrrrrrrr*#         $",
"$          w*rrrrrrrrcbbnNbbbx#### ########rrrrrrrrr*#         $",
"$###       w*rrrrrrrrjfhvNbbbbgss21########rrrrrrrrr*#$$$$$$$$$$",
"$$$$$$$$$$$w*rrrrrrrrroo2hNbbnvxffff1## ##$rrrrrrrrrq#X $$      ",
"#########$$w*rrrrrrrrnj#hvxbNvxxlxxf3># ##$rrrrrrrrrq#. $4568888",
"88888888888w*rrrrrrrnBblvbbbvxxzc>fx>>  #$qrrrrrrrrrq#. $6900999",
"99999999998w*rrrrrrNBNvclnbvxxzlvk1v>>  #qrrrrrrrrrrq#. $8008888",
"86666888866w*rrrrrrzhhhjclccczllkfxh>>  $rrrrrrrrrrrq#. $8096555",
"55555686665w*rrrrrrrr#>vlvccxzljcvk<>># qrrrrrrrrrrrq#. $8085555",
"55656665566w*rrrrrrrr>sbvxvxzjhfk2<<<>>$rrrrrrrrrrrrq#.  8985665",
"65555555556w*rrrrrrrrnccbvxxjffshl33<>>qrrrrrrrrrrrrq#.  8985555",
"55555555555w*rrrrrrrrkvxbvczjfssgvlh2>>rrrrrrrrrrrrrq#.  6865555",
"+@@@@@44445w*rrrrrrrrvnvlclhs3sgvvvxhf<<rrrrrrrrrrrrq#.  564@@++",
"++++++++++@w*rrrrrrrrxvlhfs33sglvvhh31<<werrrrrrrrrrq#   @@+....",
"..........Xw*rrrrrrrrrrrs222sglvhh33311O<<qerrrrrrrrq#          ",
"#          w*rrrrrrrrrrrrrgsggvh33s32<O11<<<qerrrrrrq#          ",
"$$#        q*rrrrrrrrrrrekggkv33sss<O1ddd3312<qerrrrq######## #$",
"$$$$       q#rrrrrrrrreekhkkgssgg<O1dgggggggss2<qrrrq#6888864  $",
"$$$56888886q#rrrrrrrreqkkhkjdgg2O1dgggggggggggs2<wrrq#899998@  $",
"$$590009998q#rrrrrrreq<kdkkjjg<Osggggfs1ssgggggs1<wrq#586654+  $",
"$$899888886q#rrrrrrrq1<kdkkjg<<dggggfd11ssss222221<rq#55554+.  $",
"$$898666665q#rrrrrre11<k1dkg<<ggggggd3<1ss2sss2222<rq#45554+.  $",
"$$898655555q#rrrrrrq33<s<d<Odggggggf31>>gggggss211>rq#45655+.  $",
"$$896555555q#rrrrrrs33<1<dd3gggggggd1>>ggkgggsgs<<orq#45555+.  $",
"$$665555555q#rrrrres33><2ddgggggggff1>ggkggks3gs<>orq#45555+.  $",
"$$4@++45555q#rrrrrqs33<<ddhhjjggggs1>>gkggkgs3g2<>orq#56655+.  $",
"$  ...+5554q#rrrrrds33<2dhhjjhhh<s2>>ssgggks3dg2<>orq#56665+.  $",
"$#    #++++q#rrrredd3<<ddhhjhhh<s22>wMMskkgd3gg1>o$rq#55555+.  $",
"$$$$#   ..Xq#rrrrqd333<dd3<oohh<2>>w##$Mpk<s3gg<>oqrq#45555+.  $",
"$$$$$#     q#rrress33<2dghhoo<<2>w#M#MMMMp<3sgg<>owrq#@544@+.  $",
"$$$$$$#    q#rrrqfff3<ddhhj1f22>:w$####$Miyy3gg<o>rrq#+++++.   $",
"$$$$$$$$$$$q#rrrssff<<dghhj3f22:uaMMM#M#riytt32<o>rrq#.....    $",
"$5888865547q#rrrgf33<1dghhhf2>syypr##$Mrwytt:;<o>>rrq#         $",
"$8900009988q#rrrg3f3d3dghhh2>zhj1OprMMrwytt:;-<o>>rrq#         $",
"$8009999998q#rrljg3<gss222hzjdzjj1Oppiyytt:;--=>><rrq#        $$",
"$8098666888q#rrlkjgggssssszzzddzhggOOyytt:;--=>><<rrq#$         ",
"$8985555665q#rrrlkkllsssjjzzjzhzzgssOOtt:;--=>>><2rrq#55555555+ ",
"$8965655555q#rrrrllrllgghzzhhjzzzjss<Ot:;--=>>>22srrq#69988886+ ",
"$8986665555q#rrrrrrrrrjjgzhffssjjjs2,OO;-=>>>><2sgrrq#58866865+ ",
"$8986655555q#rrrrrrrrrxjjhggff11112<<<,-=>><<23sgjrrq#45665555+ ",
"$8985555555q#rrrrrrrrrrxjjjjjhggf222222=><<23sgjjcrrq#45555555+ ",
"$8985555555q#rrrrrrrrrrrrxllllllljjfsss<223sgjjccrrrq#45555554+ ",
"$8965555555q#rrrrrrrrrrrrrrrxxxxxxxxxkkkkkjjccrrrrrrq#4555555+. ",
"$8965555555q#rrrrrrrrrrrrrrrrcccrrrrrzzzzzzzrrrrrrrrq#+@@@@@++. ",
"$8965555555q#rrrrrrrrrrrrrrrrrrrrrrrrrrrrrrrrrrrrrrrq#......... ",
"$6854455555q#$$$$$*******qqqqqqqqqqqqqqqqqqqqqqqqqqqq#          ",
"$56@++++++@4+#########################################          ",
"$+@............  $                         #$#                 $",
"$                $##########################$$$################$",
"****************************************************************"
};
