/* XPM */
static char *out[] = {
/* columns rows colors chars-per-pixel */
"64 64 33 1 ",
"  c #28200C",
". c #302410",
"X c #382C14",
"o c #202020",
"O c #2C2C2C",
"+ c gray19",
"@ c gray22",
"# c #403018",
"$ c #483818",
"% c #543C1C",
"& c #404000",
"* c #585400",
"= c #706C00",
"- c #5C4020",
"; c #6C4824",
": c #744C28",
"> c gray25",
", c #484848",
"< c #4C4C4C",
"1 c gray33",
"2 c gray36",
"3 c #646464",
"4 c gray44",
"5 c #7C7C7C",
"6 c #80502C",
"7 c #848400",
"8 c #9C9C00",
"9 c #B4AC00",
"0 c #CCC400",
"q c #E4D800",
"w c #FCF400",
"e c gray55",
"r c #989898",
/* pixels */
"55$------------$------$#,,-%$$$$$$$$$$#,OOOOOo15<22<<<<<<<<<<355",
"54$------------#----$##,3-%$$$##$$$$$$$#,OOOOo1<22<<<,,,<<<,<<35",
"443$-----------#--$##,35%-$$$$##$$$$$$$##,OOOo1,2<<<,,,,<<<<<<<3",
"145$----------$#$$#,335%%-$$$$$$$#$$$$$##1,OOo1,<<<<,,,<,<<<<<<<",
"<143$--------$#$##,344%$$-$$%%$$$$$$$$$#$#3,Oo1>,<<,,,,<<<<<<<<<",
"<<13$-------$###13343%%$$%$$%%$$$$$$$$$#$##1111>,<<,,,<<,<<<,<<<",
"<<<53$----$$##,3,1431%$$$=8000098900000=$##X3333>,<<<<<<,<<<,<<<",
"<<<@3$$$$$$##,31,,,11##88=790098qqqqqqq988XX35551,<<<<<<<<<<><<<",
"<<<@3,$$$##,351,<,,,,==88===997000000=*=88==33553>,<<<<<<<<<,<<<",
"<<<@33,##,3553,<,>>=88=**7q7=979999qw0q7**=88=5551,<<<<,<<<,><<<",
"<<<@353333554,<>,>*788qqqqq07=88888w8008qq=887*-53>,<<<<<<<,<<<<",
"<<<@355ee554,<,>,****=qqww778=77777*877ww9q=****$31,<<<<<<<><<<,",
"<<<@35eee541,<>>*88=qqq077=0&======*00=7708qq=88*13><<<<<<,><<<<",
"<<<@35ee543,<,>88*8*qww7889=&******8*=9887wwq*8*88@1,<<<<<>><<<<",
"<<,@3555441,,>*88***977==00*&&&&&&&88*00==779***88*@>,<<<,>,<<<<",
"<,@3355433>,,****707*787****&&&&&&&77****787*707****@,<<<>>,<<<,",
",@335%%$33,+88**70qq*=00*8=&&ooo=OO&&&88*00=*q707**88>,<,@>,<<,<",
"@335%--$#13,88*qqq7&=****=ooooo=79OOOO7*****=&q7qq*88@,,@>,<<<<@",
"33,%-$$$$#1&&&79q7q8=88=*ooooo=777wOOOOO*=88=8qq7q7&&&@@>,,<<<@>",
"3,%-$$$$$$#*&q9q787&**8=ooooo=777798O@OOO88**&78q7qq&*@@,,<<<@>3",
",%-$$$$$$$88708q79q=8**ooooo=77777*OO@@OOO**8=qq0780788@@<<<@<33",
"%-$$$$$$$$887=qq780*=8ooooo=77777*OO111@OOO8=*08807=788@@@@@<35,",
"-$$$$$$$$#=*qqq79=*8*ooooo=77777*OO11ww1@OOO*8*=qq7qq*=@@@1<33,%",
"$$$$$$$$$7=*q9q79q*8=oooo=77777*OO@1w99w1@OO88*qq0q8q*=7@@,353%-",
"$$$$$$$$$8=*90q790**oooo=77777*OO@1w9779w@@OO**099q79*=8@@,44%-$",
"$$$$$$$$$88**==99&==oooo*=777779*@w977779w@OO==&99==**88@@,3%-$$",
"$%%$$$$$$87*&===&88*oooO@*=77779ww97777779w@O*88&===&*78@@,%-$$$",
"$%%$$$$$$8***qq&888oo=8O@@*=777799777*77779wOO888&qq***8@@X-$$$$",
"$$$$$$$$$7**=q8****o=77w@@@*=7777777*O*77779wO****90=**7@X##$$$$",
"$$$$$$$$$*=99q7qq===8779w@@@*=77777*OOO*77777*==qq08qq=*.#X#$$%%",
"$$$$$$$$#*=0qq798*8O*7779w@@@8777777wO@O*777*O8*890880=*X#X#$$%%",
"$$$$$$$$#*&=qq77**8OO*7779w@w77777778w@@O*7*OO8**8q78=&*.XX#$$%%",
"$$$$$$$##8*&=87qq==*OO*7779w9777*77778w@@O*@@===qqq7=&*8.XX#$$$$",
"$$$$$$##X88=99q79*8=OOO*7779777*O*77778w@@@@,88*99q7q=88.XX#$$$$",
"$$$$$$#X,**=0q077***OOOO*77777*OOO8777788@,,1***79070=**.XX#$$$$",
"$$$$##X,35*&=qq7q7*7*OOOO*777*OOOw77777*OO@1=777qq78=&* .XX#$$$$",
"$$$#XX,352=*&=8q79q*7OOOOO*7*OOOw87777*OO@@,7*q99q7=&*=+ ..#$$$$",
"$$XX@,352197*9qq7q8*8=O@OOO*OOOw87777*OO@,1=8*8q07qq*79+@  #$$$$",
"$#@,35521<7=*09q77&&*==@@OOOOOw87777*OO@,1=88&&77790*=7+@@@XX$$$",
"#,355521<<<*&=q8==*==*88,@OOO887777*OO@,1=8**=*==8q=&*+@@@@,,XXX",
",33552<<<<<**&==&q8=qq**=,,,@O*777*OO@,,=**00=8q&==&**+@@@@53,,,",
"33r55<1<<<<<*=***=qqq0==*911,OO*7*OO@@=8*==0q0q=***=*OOOO@@@@333",
"35r55@>>,<<<<887*7=qq79q*8=08OOO*OO79008*89707=7*788OOOOOOOOOO@1",
"O,e553@@>>,<<=87*=87qqqq077=00007000007*09q0778=*78=OOOOOOOOOOoO",
"Oo,5re31@@>>,<=**=08=qqq80q=8907qqqqq789=007=80=**=OOOOOOOoOOOoO",
"Oo,5e54311@@>>,*=**=877qqqq7=9700000079q07798=**=*OOOOOOOOoOOOoO",
"o,3554311111@@>>=97&07=77qq8=9799999970079=80&79=oOOOOOOOoOOOOOO",
",3355311;;;131@@>=**&&&89777=78888888=7798&&&**=OoOOOOOOOoOOOOOo",
"3445311;;;;;;131@@@*87&008*7=78888888**800&78*OO++oOOOOOoooooooo",
"55431;;;;;;;;;;1,,@@=8*&*****77777777*=**&*8=O+++@@ooooo@@@@@@@@",
"543;;;-----;;;;;;1,,@@*===7**========*7===*OO+@@@@@@@,,,,,,,,,,,",
"51;;---------;;;;;;1,,@@777***********777OO+@>>>>>,3333113455435",
";;-------------;;;;;;,,,@@@@&&&&&&&&&oOOO++@>,<<<<<<111333115435",
"----------------;;;;;;;,,,@@OOOOoooooOOO++@><<<<<<<<<<<<<<1@4435",
"-%-------------;:66666;;;,,@@@Oooooo++++@@><<<<<<<<<<<<<<<<@433;",
"--------------::;------;;;;,,,OOOOO@@@@@>><<<<<<<<<<<<<<<<>,333;",
"--%----------:;-----------;$,351111131<<<<11<<<<<<<1<<<<<<@133;-",
"--%---------;;-------------$;;$354<31<<<<<1<<<<<<<<1<<<<<<@333;-",
"------------;--------------$--$$35<111<<<<1<<<<<<<<<<1<<<>@33;--",
"-----------;---------------$--$$,33111<<<11<<<<<<<<<<<<<<>@43;--",
"-----------;---------------$--$#,34111<<<1<<<<<<11<<<<<<<>@5;;--",
"----------;----------------$--$#,34111<<<1<<<<<<111<<<<<<@,5;---",
"----------;----------------$--$#,35311<<<1<<<<<<<11<<<<<>@1-;---",
"----------;----------------$--$$,35311<<<1<<<<<<<<<<<<<<>@3;----"
};
