/* XPM */
static char *out[] = {
/* columns rows colors chars-per-pixel */
"64 64 24 1 ",
"  c #382C14",
". c #202020",
"X c #282828",
"o c #2C2C2C",
"O c gray19",
"+ c #343434",
"@ c gray22",
"# c #403018",
"$ c #483818",
"% c #543C1C",
"& c #5C4020",
"* c #6C4824",
"= c #744C28",
"- c gray25",
"; c #484848",
": c #4C4C4C",
"> c gray33",
", c gray36",
"< c #646464",
"1 c gray44",
"2 c #7C7C7C",
"3 c #80502C",
"4 c gray55",
"5 c #989898",
/* pixels */
"22$&&&&&&&&&&&&$&&&&&&$#;;&%$$$$$$$$$$#;ooooo.>2:,,::::::::::<22",
"21$&&&&&&&&&&&&#&&&&$##;<&%$$$##$$$$$$$#;oooo.>:,,:::;;;:::;::<2",
"11<$&&&&&&&&&&&#&&$##;<2%&$$$$##$$$$$$$##;ooo.>;,:::;;;;:::::::<",
">12$&&&&&&&&&&$#$$#;<<2%%&$$$$$$$#$$$$$##>;oo.>;::::;;;:;:::::::",
":>1<$&&&&&&&&$#$##;<11%$$&$$%%$$$$$$$$$#$#<;o.>-;::;;;;:::::::::",
"::><$&&&&&&&$###><<1<%%$$%$$%%$$$$$$$$$#$##>>>>-;::;;;::;:::;:::",
":::2<$&&&&$$##;<;>1<>%$$$%$$$$$$$$$$$$$#$## <<<<-;::::::;:::;:::",
":::@<$$$$$$##;<>;;;>>##$$%$$$$$%$$$$$$##$#  <222>;::::::::::-:::",
":::@<;$$$##;<2>;:;;;;>  #%$$$%$$$$$$$$#$$# @<<22<-;:::::::::;:::",
":::@<<;##;<22<;:;---;;>;  #$$$$$$$$$$##$$# ;<<222>;::::;:::;-:::",
":::@<2<<<<221;:-;----;;>>; #$$$$$$$$$ #$$# ><&&&2<-;:::::::;::::",
":::@<2244221;:;-;------@;>;  $$$$$$$ #$$$ @<&&&&$<>;:::::::-:::;",
":::@<244421>;:--;------O;;>;@ #$$$$# #$$# ;<&&&$&><-::::::;-::::",
":::@<24421<;:;--;------O--;><;  ##  #$$$# >&&&&$&&>>;:::::--::::",
"::;@<22211>;;---;------O---;;<;@   #$$$# @>&&&$&&&;>-;:::;-;::::",
":;@<<221<<-;;---;------O@----O2<;@  #### ;&&&&$&&&#>>;:::--;:::;",
";@<<2%%$<<;O@----------O@---@O<22<;      >####$&&&#><-;:;@-;::;:",
"@<<2%&&$#><;O@--;------O@---O;<2==<;@   ;<<>;@####@>1>;;@-;::::@",
"<<;%&$$$$#><OO---------O@--@O><=====<;;;<2441<>>>><14<@@-;;:::@-",
"<;%&$$$$$$#><O@--------O@--O;<=*&&&*==<224542@@@@X;242--;;:::@-<",
";%&$$$$$$$$#>;O@-------O@-@O>>=&&&&***==<4421@ooooX;21>-;:::@:<<",
"%&$$$$$$$$$##<;O@------O@-O;<=*&&***&&&***<1<@oooooX;<<@@@@@:<2;",
"&$$$$$$$$#$##><OO------O@@O>>=&****&&&&&&**><@ooooooX;>>::::<<;%",
"$$$$$$$$$#$###>;OO-----O@@O<=***&*&&&&&&&&&#<@oooooo.X;1<<<<2<%&",
"$$$$$$$$$$$#$##2;OO----O@O;>=*&&**&&&&&%%&&#>@oooooo.oX;22211%&$",
"$$$$$$$$$$$#$##>2;O@---O@@<=*&&&*&&&&&%%%&&#;@oooooo.oo.221<%&$$",
"$%%$$$$$$#$#$###><OO---OO;>=&&&*&&%%&&%%&&&#;@oooooo.oX.11<%&$$$",
"$%%$$$$$$#$#$###>2;OO@@OO<=*&&&*&&%%&&&&&&&#;@oooooo.X..<>%&$$$$",
"$$$$$$$$$#$#$## >22;OOOO;>=&&&**&&&&&%&&&&&#;@oooooX..o<>%&$$$$$",
"$$$$$$$$$#$### ;2552;++@<=*&&&*&&&&&&&&&&&&#;@oooX..o;<>%&$$$$%%",
"$$$$$$$$##$#  ;225422<>>>=&&&**&&&&&&&&&&&&#;ooX..o;<2>%&$$$$$%%",
"$$$$$$$$### $;,,,,,,22<<*&&&&**&&&&&&&&&&&&#;X..o;<242%&$$$$$$%%",
"$$$$$$$### ;<,,>>>>>,222*&&&&**&&&&&&&%&&&%#;.o;<22442%$$$$$$$$$",
"$$$$$$##  ;<,,:::::::,22#&&&&*&&&&&&&&&&&%%#;><2224422%$$$$$$$$$",
"$$$$$$# ;<2,,:::::::::,2>#&&**&&&&&&%%%$###;><<3334222 $$$$$$$$$",
"$$$$## ;<2,,:::::;:::::,,>#&**&&%%$#####;><<3333**3121; $$$$$$$$",
"$$$#  ;<2,,::;;;:::::::::,>#**$#####@;><<3333******<12>; $$$$$$$",
"$$  @;<2,>:::;;;;:::::::::,>####@;><1<333*********&<11<>;  $$$$$",
"$#@;<22,>:::::;;;:;;:::::::,>>>><12233*******3****%><<>>>;;  $$$",
"#;<222,>:::::::;;:;;:::::::::222242**************&;><>@@@;<;;   ",
";<<22,:::::::::::::::::::::;::22442*********33***%>>@@@@@@>2<;;;",
"<<522:>:::::::::::::::::::;;:::2411&********33**&;>@ooooo@@;><<<",
"<2522@--;:::::;::::::::::;-;:::-21<;&**********&%>@ooooooooooo@>",
"o;422<@@--;::::::::::::::-;::;--:<<>%&********&%;@oooooooooooo.o",
"o.;254<>@@--;:::::::::;--;::;--;-<<<;%&******&%%@ooooooooo.ooo.o",
"o.;2421<>>@@--;:::;;;---;;;;--;-->;@;;%****&%%$;@ooooooooo.ooo.o",
".;<221<>>>>>@@-------;;;;----;;@;>@@@<%&&&%%$$;1>.ooooooo.oooooo",
";<<22<>>***><>@@------------;:-@;;@oo@;%%%$$;<121.ooooooo.ooooo.",
"<112<>>******><>@@@@@@@@-;;::;@@>@ooo@<;$$;<12221;.ooooo........",
"221<>**********><>@@--:::::::-@;;@ooooo<>>12>>>>><;.....oo@@@@@@",
"21<***&&&&&******><>@@--::::-@@>@ooooooo12<><<<<<>>;;;;;;;;;;;;;",
"2>**&&&&&&&&&******><>@@-----@;;@oooooo>2>><>><<<<<<<<<>><1221<2",
"**&&&&&&&&&&&&&******><>@@@@@@>@oooooo>2><<>:<>:::::>>><<<>>21<2",
"&&&&&&&&&&&&&&&&*******><>@@@>;@ooooo>1><>::<>::::::::::::>@11<2",
"&%&&&&&&&&&&&&&*=33333***<<<<<@ooooo>1><>::>>::::::::::::::@1<<*",
"&&&&&&&&&&&&&&==*&&&&&&****<22ooooo>><<>:::>::::::::::::::-;<<<*",
"&&%&&&&&&&&&&=*&&&&&&&&&&&*$;<2>>>>><>::::>>:::::::>::::::@><<*&",
"&&%&&&&&&&&&**&&&&&&&&&&&&&$**$<21:<>:::::>::::::::>::::::@<<<*&",
"&&&&&&&&&&&&*&&&&&&&&&&&&&&$&&$$<2:>>>::::>::::::::::>:::-@<<*&&",
"&&&&&&&&&&&*&&&&&&&&&&&&&&&$&&$$;<<>>>:::>>::::::::::::::-@1<*&&",
"&&&&&&&&&&&*&&&&&&&&&&&&&&&$&&$#;<1>>>:::>::::::>>:::::::-@2**&&",
"&&&&&&&&&&*&&&&&&&&&&&&&&&&$&&$#;<1>>>:::>::::::>>>::::::@;2*&&&",
"&&&&&&&&&&*&&&&&&&&&&&&&&&&$&&$#;<2<>>:::>:::::::>>:::::-@>&*&&&",
"&&&&&&&&&&*&&&&&&&&&&&&&&&&$&&$$;<2<>>:::>::::::::::::::-@<*&&&&"
};
