/* XPM */
static char *out[] = {
/* columns rows colors chars-per-pixel */
"64 64 36 1 ",
"  c black",
". c gray11",
"X c #28200C",
"o c #302410",
"O c #382C14",
"+ c #202020",
"@ c #282828",
"# c #2C2C2C",
"$ c gray19",
"% c #343434",
"& c gray22",
"* c #400000",
"= c #4C0000",
"- c #580000",
"; c #640000",
": c #700000",
"> c #7C0000",
", c #403018",
"< c #483818",
"1 c #543C1C",
"2 c #404000",
"3 c #585400",
"4 c #706C00",
"5 c #5C4020",
"6 c gray25",
"7 c #484848",
"8 c #4C4C4C",
"9 c gray33",
"0 c #646464",
"q c gray44",
"w c #7C7C7C",
"e c #880000",
"r c #9C9C00",
"t c gray55",
"y c #989898",
"u c gray66",
/* pixels */
"999O,<<5<<<<<<<<<<<<<<,oO<<<<,,O++997777+++++++++7$&##@@@@###&79",
"977#O,<5<<<<<<<,<<<<<<,oO<<<,OO++9979788++++++++7$&#@@#$$&&&&&&7",
"777&#O,1<<r4<r::e-::e-:e-::w+wwwwwww+w:::e-:::e-:::r$r4&&&&&&&&&",
"#797&#O1<<3324---*---*--*--9+9999999+9----*----*---4233##@@@@@@@",
"@#779&O1<<22<2*************# ####### #*************2+22+&&&&&&&&",
"@@#777O,<<<<<,---=---=--=--9 9999999 9----=----=---+++++@@@@@@@@",
"@@@#79#O,<<<<<;:;=;:;=;-=;;w wwwwwww w;:;-=;;:;=;;;++@@@@@@@@@@@",
"@@@@#79#O,<<<<;;--;;-=;;-;;w wwwwwww w;;:;-;;;;=;;;+@@@@@@@@@@@@",
"@@@@+#9&#O,<<<;:;-;:;-;---;w wwwwwww w;:;---;:;-;;;+@@@@@@@+@@@@",
"@@@@++99&#O,,o:;---;---;-;;w wwwwwww w;;:;-;:;--;;;+@@@@@@@@@@@@",
"@@@@++979&#XXX;:;-;:;-;---;w wwwwwww w;:;---;:;-;;;+@@@@@@@@@@@@",
"@@@@++7799&###:;---;---;-;;w wwwwwww w;;:;-;:;---;;+@@@++@@@@@@+",
"@@@@++77&###&7;:;-;:;-;-;-;w wwwwwww w;:;-;-;:;-;;;+@@@++@++++@@",
"@@@++&9&####+&:;-;;;---;-;;w wwwwwww w;;:;-;:;---;;+@@@@@@++++@@",
"@@++&97#####++;:;-;:;-;;;;;w wwwwwww w;;;-;;;:;-;;;+@@@@@@++++@@",
"@++&99&#####++:;;;;;---;-;;w wwwwwww w;;:;-;:;---;;+@@@@@@++++@+",
"++&997&####@.@;:;-;:;-;;;;;w wwwwwww w;;;;;;;:;-;;;+@@@@@@@@@@+.",
"+&&++&7####@.#:;;;;;;;;;;;:w wwwwwww w:;;;;;:;-;-;;++@@@@@@@@+..",
"&&+,,+&&##@..#;;;;;:;-;;:e9w wwwwwww w9e:;;;;:;-;;;+@@@@@@@++...",
"&+,<O,+9++...#:;;;;;;;;e9w0 0wwwwwww0 0w9e:;;;;;;;;+@@@@+++....&",
"+,<OOOX&7+.+.#;;;;;;;;e9w+ w7+     +0w+ w9e:;;;-;;;+++++.....#&&",
",<OOOOX+9&+@.#;;;;;;;e9w 9w+ 799www0 +w9 w9e;;;;;;;+......++#&6$",
"<OOOOOXX&7++.#;;;;;;:9w 9w 79+  9wwww7 w9 w9:;;;;;;+...++++#&6$,",
"OOO,OOXo&9&+.#;;;;;;ew+9w w9+    9wwwww w9 we;;;;;;+@@@@@+#&6$,<",
"OOOOOOXo+99&.@;;;;;:97 w w9+    +9w9++ww w7#9:;;;;;+@@@++#&9&,<O",
"OOOOOOXOX&97++;;;;;ew+w+7w+    +9w9+  +w7 w we;;;;;#++++#&9&$<OO",
"O,,OOOXOX#79&+;;;;;99 0 ww+    +#9+    +w 07#9;;;;;#####&9&$,OOO",
"O,,OOOXOX+907&;;;;;w+0+7ww9+    ++      +9+0+0;;;;;#990097$,OOOO",
"OOO,OOXOX+9707;;;;;w w wwww9+            9 w w;;;;;+90097&,OOOOO",
"OOOOOoXoX+9777;;;;;w w ww9#w9+      +    9 w w;;;;;+677&%#,OO,,,",
"OOOOOoXoX#7077;;;;;w w w9  +w#     +9&  90 w w;;;;;#697%#%,OO,,,",
"OOOOOoXoX#99&#;;;;;w w w    +       +9#90w w w;;;;;O5O<5%&,OO,,,",
"OOOOooOX+&9&#%;;;;;w w w             +9www w w;;;;;o<O<<<9,OOOOO",
"OOOOoXX+&&&#%#;;;;;w+0+9+      ++     +ww7+9+w;;;;;o<O<<,6,OO,OO",
"OOOOXX+&&9#%##;;;;;w#70+w+    +9w#     ww+w7#9;;;;;o<O<<,6,OOOOO",
"OOOoX+&&7&#%##;;;;;9w w 7w+  +9w9+    +w7 9+w7;;;;;o<O<<,&oOOOOO",
"OOoX+&&99#%###;;;;;:w#7w ww++9ww+    +9w 97#9e;;;;;o<O<<,&$oOOOO",
"OoX+&&79&#%###;;-;;;ew 9w wwwwww9   +9w w9+we:;;;;;o<,<<,&&#XoOO",
"oX+&&79&#%##%#;;;-;;:9w 9w 7wwwww9 +9w w9 w9:;;;;;;o,,<<,&9&#Xoo",
"X+&&997&######;;-;-;;e9w &w +7wwwww7+ w# w9e;;;;;;;o,<<<O&96&#XX",
"+&&009&#####%#;-;-;;;:e9w  w9       9w  w9e-;;;;;;;o,<<<O&886&$$",
"&&qq0&######%#;;---;;;:e9w# 0wwwwwww0 #w9e-;-;;;;;;o<<<<O&+++#&&",
"&9qq7####%%###;-;-;-;;;;:e00 wwwwwww 00e:;;-;;;;;;;o<<<<O&+++++#",
"++60&###%%%###;;-;-;;;;;;;:w wwwwwww w:::;-;-;;;;;;o<<<<O&++++++",
"+++9####%%%###;-;-;-;;;:;;;w wwwwwww w;:;;;-;;;:;;;o<,<<O&++++++",
"+++7####%%####;;---;;;:;;;;w wwwwwww w:::;-;-;;;-;;o<<<<O&++++++",
"++&&#######%##;-;-;-;;;:;;;w wwwwwww w;:;;;-;;;:;;;o,<<,O&++++++",
"+&&&+@#%%#####;;---;;;:;;;;w wwwwwww w:::;-;-;:;-;;o,<,O+&++++++",
"&777&+@%%#####;-;-;-;;;;;;;t+twwwwww w;:;;;-;;;;;-;o<,O+&&++++++",
"99779&++@#####;;---;;;:;-;:t+wwwwwww w:::;-;-;:;-;;o,O+&79%+++++",
"979000&++@####;-;-;-;:;;;;:y qwtwwww w;:;;;-;;;-;-;oO+&######&89",
"6%11%60&++@@##;;---;;;:;-;:y qwtwwww w:;:;-;-;:;-;;++&&######+&9",
"11<<11%6&+++@@;;;-;-;:;-;-:u 0qtwwww w;:;;;-;;;-;-;+&9###@###+&9",
"<<<<<<11%&+++@;;---;;;:;-;:u 0qtwqww w;;:;---;:;-;;&0&@@####@+&8",
"<,<<<<<<1O&+++;;;-;;;;;---:u+9qtwqww w;:;;;-;;;---;&8#@@####@+&1",
"<<<<<<<,<O<<++;;---;;;:;-;;u+7qywqww w;;:;---;;;-;;&&######@++&1",
"<<,,<<<,<O<<,+;;;-;;;;;---;u+&qywqww w;::;;-;;;--;;&#######++#1<",
"<<,,<<<,<o,OO#;;---;;;:;-;;q+#qywqww w;;:;;--;;:-;;&9#####+@+&1<",
"<<<<<<,O,oOO#&;;:-;;;;:--;;7++qtwqww w;;:;;=-;;:-;;+&&###@++#1<<",
"<<<<<<,OOXr46r::e=:>::e;=::e9+9uuuuu+u::e;;=-::e=>;r+r4@@+@+#1<<",
"<<<<<<,OoX3324==;**-==;-**=-+ +99999 9==;=-**==-*-=4233@+##+1<<<",
"<<<<<<OXX#22.2*************=   +++++ +*************2+22&##@&1<<<",
"<<<<<,OX#6#...#oooooooooooX+...............   ........#9@@&1<<<<",
"<<<<,XX#69.....#&OO,OOOOoX++++@@++++.++++++. .++.+..++#99&&1<<<<"
};
