/* XPM */
static char *out[] = {
/* columns rows colors chars-per-pixel */
"64 64 18 1 ",
"  c black",
". c #302410",
"X c #404000",
"o c #585400",
"O c #706C00",
"+ c #848400",
"@ c #9C9C00",
"# c #B4AC00",
"$ c #CCC400",
"% c #E4D800",
"& c #FCF400",
"* c #FCF420",
"= c #FCF440",
"- c #B4B4B4",
"; c #C0C0C0",
": c #D0D0D0",
"> c gainsboro",
", c #ECECEC",
/* pixels */
">,,,,>,,,,,,,,,,,,,,,>,,,,,>,,,,,,,,,,,,,,,>,,,,,,,,,,,,,,,>,>,>",
">,,>,,,,,,>>,,,,,,,,>:,>,,,,,,,>,,>,,,>,,,,,,,,,>>,,,,,,,,>:,>,>",
">,,>,,,>,,>,,,,,,,,,,,,,,,,,,,,,,>,,,,>,,>,,,>,,>,,,,,,,>,,,,,,>",
">,,,,,>,&&&&&&&&&&&&&&&&&&&&&&&&&&&&&&&&&&&&&&&&&&&&&&&&,,,,>,,>",
">,>,>,>,&$@@@@@@@@@@@@@@@@@@@@@@@@@@@@@@@@@@@@@@@@@@@+%&,>:,,,>>",
">>,,,,,,&O .........................................  +&>,,,,>,>",
":,,>,>,,&Oo&&&&&&&&&&&&&&&&&&&&&&&&&&&&&&&&&&&&&&&&&&.+&>,,>>,,:",
":,,,,>,,&oo&&&&&&&&&&&&&&&&&&&&&&&&&&&&&&&&&&&&&&&&&&.+&,,>,,>>:",
":,>,,>,,&oo&&&&**=*****************************&&&&&&.+&>,,,>>,:",
":,>,>,,,&oo&&&&&&=&&&&*#+*&&&&&&&&&&&&=#*&&&&&*&&&&&&.+&,,,,,,,:",
":,>,,,,>&oo&&&&&&&&&&*@X $&&&&&&&&&&&*o +*&&&&&&&&&&&.+&,,,>,>>:",
":,>>,>>,&oo&&&&&&&&&*+   X*&&&&&&&&&&@   +*&&&&&&&&&&.+&,,>>,>,:",
":>>,,:,,&oo&&&&&&&&&$     +*&&&&&&&&%.    +*&&&&&&&&&.O&>,>,,,,:",
":>,,,>,>&oo&&&&&&&&*X     .$&&&&&&&*O      +&&&&&&&&& O&>>:>,,,:",
":>>>:,,,&oo&&&&&&&*o       +*&&&&&&$X      X=&&&&&&&& O&:,,>,,>:",
":>>,,,>>&oo&&&&&&&#         @&&&&&*o        +*&&&&&&& O&,>,>,,::",
":>>>>>>,&oo&&&&&&*+         o*&&&&#         .$&&&&&&& O&>>>>>>>:",
":>>>>>>>&oo&&&&&&$X         o*&&&*$          +&&&&&&& O&>>:>>>>:",
":>>>:>:>&oo&&&&&&@         .$&%$%&*+         o%&&&&&& O&>>:>>>>:",
":::>:>>>&oo&&&&&&O         $*#oXo@&$.        .%&&&&&% O&>>>>>>>:",
":>:>:>>:&o.&&&&&&+        .$*o   X$&+        .$&&&&&% O&:::>>>::",
":>>>:>>>&o.&&&&&&$++++++++$*%     +&#ooooooooo$&&&&&% O&>>:>>:>:",
":>>>>>>>&o.&&&&&&&%*******&&*X    #&*%%%%%%%%%&&&&&&% O%:>:>>:>:",
":>::>>>>%o.&&&&&&&&&&&&&&&&&&+   +%&&&&&&&&&&&&&&&&&% O%>>>>:>>:",
":>>>>::>%o.%%%&&&&&&&&&&&&&&&&$@#%&&&&&&&&&&&&&&&%%%% O%>>>>>>>:",
":>>:>:>>%o.%%%%%%&&&&&&&&&&&%%&&&%%&&&&&&&&&&%%%%%%%% O%:>::::>:",
"::>:>>>:%o.%%%%%%%%%%%%&&&&&#ooooo+&&&&&%%%%%%%%%%%%% O%:>:>>>::",
":>>>>>>>%o.%%%%%%%%%%%%%%%%$o     X$%%%%%%%%%%%%%%%%$ o%:>>::>::",
";:>::>::%o.%%%%%%%%%%%%%%%%O       +%%%%%%%%%%%%%%%%$ o%>>::>>:;",
";:>>>>:>%o.%%%%%%%%%%%%%%%#o       .@%%%%%%%%%%%%%%%$ o%:>:>>>:;",
";:>::>:>%o.%%%%%%%%%%%%%%%+         o$%%%%%%%%%%%%%%$ o%:>>>:::;",
";>>>>::>$o.%%%%%%%%%%%%%%@           +%%%%%%%%%%%%%%$ o$>>::>:>;",
";:::::::$o.$%%%%%%%%%%%%$o           .$%%%%%%%%%%%%$$ o$:::::::;",
";:::::::$o.$$$$$%%%%%%%%+             +$%%%%%%%$$$$$$ o$:::::::;",
";:::::::$o.$$$$$$$$$$%%$@o           o@$%%$$$$$$$$$$$ o$:::::::;",
";:::::::$o.$$$$$$$$$$$$$$#++o     Xo+#$$$$$$$$$$$$$$$ o$:::::::;",
";:;:::::$o.$$$$$$$$$$$$$$$$$$#####$$$$$$$$$$$$$$$$$$$ o$:::::::;",
";:::::::$o.$$$$$$$$$$$$$$$$$$$$$$$$$$$$$$$$$$$$$$$$$$ o$;::::::;",
";::::::;$o.$$$$$$$$$$$$$$$$$$$$$$$$$$$$$$$$$$$$$$$$$$ o$:::::;:;",
";::;::::$o.$$$$$$$$$$$$$$$$$$$$$$$$$$$$$$$$$$$$$$$$$$ o$::;;:;:;",
";::;:::;$o.$$$$$$$$$$$$$$$$$$$$$$$$$$$$$$$$$$$$$$$$$$ o$;::::::;",
";:::::;:$o.$$$$$$$$$$$$$$$$$$$$$$$$$$$$$$$$$$$$$$$$$$ o$::::;::;",
";:;:;:;:$o.$$    $   $ $$$ $   $ $$ $ $$$ $$    $$ $$ o$:;;:::;;",
";;::::::$o.$$ $$ $ $$$ $$$ $$ $$ $$ $  $$ $ $$$$ $ $$ o#;::::;:;",
";::;::::#o.#$    $ $$$     $$ $$ $$ $ $ $ $ $$$$$$ $# o#;::;;::;",
";::::;::#o.## #$ $ $$$ $$$ $$ $$ $$ $ $$  $ $$   # ## o#::;:::;;",
";:;::;::#o.## ## # ##$ $$$ $$ $$ $$ $ $$$ # #### #### o#;:::;;:;",
"-:;:;:::#o.## ## #   # ### ## ##    # ### ##     # ## o#:::::::-",
"-:;::::;#o.########################################## o#:::;:;;-",
"-::;:;;:#o.########################################## o#::;;:;:-",
"-;;::;::#o.########################################## o#;::::::-",
"-;:::;:;#o .......................................... o#;;;;:::-",
"-;:;-:::#oooooooooooooooooooooooooooooooooooooooooooooO#-::;::;-",
"-;;:::;;################################################:;:;::;-",
"-:;;:;;::;::;:-;::;::;;:;;:;;::;;:;;:-;:;;:;;:::::;:-;:::::;;:;-",
"-:;::::;;::;;:::::::-::::;::;:::;:::::::;::::;;::;::::;:::-::;:-",
"-:::::-:::;:::;::;::::;;::::-::;::;:;::::::;-:::;:::;;:;:;::;;;-",
",,,,,,,,,,,,,,,,,,,,,,,,,,,,,,,,,,,,,,,,,,,,,,,,,,,,,,,,,,,,,,,,",
"::::::::::::::::::::::::::::::::::::::::::::::::::::::::::::::::",
"::::::::::::::::::::::::::::::::::::::::::::::::::::::::::::::::",
"::::::::::::::::::::::::::::::::::::::::::::::::::::::::::::::::",
"::::::::::::::::::::::::::::::::::::::::::::::::::::::::::::::::",
",,,,,,,,,,,,,,,,,,,,,,,,,,,,,,,,,,,,,,,,,,,,,,,,,,,,,,,,,,,,,,,,",
"::::::::::::::::::::::::::::::::::::::::::::::::::::::::::::::::"
};
